<svg id="Capa_1" enable-background="new 0 0 512 512" height="512" viewBox="0 0 512 512" width="512" xmlns="http://www.w3.org/2000/svg" xmlns:xlink="http://www.w3.org/1999/xlink"><linearGradient id="SVGID_1_" gradientUnits="userSpaceOnUse" x1="23.821" x2="459.531" y1="346.756" y2="95.198"><stop offset="0" stop-color="#fff" stop-opacity="0"/><stop offset=".2532" stop-color="#eef" stop-opacity=".403"/><stop offset=".629" stop-color="#d9d9ff"/></linearGradient><g><g><path d="m16.074 306.367c18.727 64.003 72.707 194.564 163.922 182.845 91.486-11.755 55.759-129.725 139.508-145.894 36.867-7.118 61.857 56.689 98.806 54.704 47.588-2.557 71.81-49.663 85.108-89.264 28.197-83.968-14.029-226.352-112.858-251.011-86.244-21.519-96.332 83.855-171.322 53.248-42.149-17.203-37.938-68.576-89.272-78.942-155.299-31.36-138.811 189.15-113.892 274.314z" fill="url(#SVGID_1_)"/></g><g><g><path d="m430.154 103.36h-338.308c-11.046 0-20 8.954-20 20v18.301h-8.421c-2.761 0-5 2.239-5 5v275.653c0 2.761 2.239 5 5 5h8.421v18.301c0 11.046 8.954 20 20 20h338.307c11.046 0 20-8.954 20-20v-322.255c.001-11.046-8.954-20-19.999-20z" fill="#2626bc" opacity=".1"/><path d="m430.154 440.614h-338.308c-11.046 0-20-8.954-20-20v-322.254c0-11.046 8.954-20 20-20h338.307c11.046 0 20 8.954 20 20v322.254c.001 11.046-8.954 20-19.999 20z" fill="#ff4d4d"/><path d="m450.154 312.28h-20.914c-2.761 0-5-2.239-5-5v-95.585c0-2.761 2.239-5 5-5h20.914z" fill="#ff2c2c"/><path d="m325.658 233.632h-38.803v-38.803c0-5.58-4.524-10.104-10.104-10.104h-31.501c-5.58 0-10.104 4.524-10.104 10.104v38.803h-38.803c-5.58 0-10.104 4.524-10.104 10.104v31.501c0 5.58 4.524 10.104 10.104 10.104h38.803v38.803c0 5.58 4.524 10.104 10.104 10.104h31.501c5.58 0 10.104-4.524 10.104-10.104v-38.803h38.803c5.58 0 10.104-4.524 10.104-10.104v-31.501c0-5.58-4.524-10.104-10.104-10.104z" fill="#fff"/><path d="m90.591 402.314h-27.166c-2.761 0-5-2.239-5-5v-275.653c0-2.761 2.239-5 5-5h27.166c2.761 0 5 2.239 5 5v275.653c0 2.761-2.238 5-5 5z" fill="#ff6c6c"/><g fill="#ff9494"><path d="m58.425 144.551h37.166v21.59h-37.166z"/><path d="m58.425 352.833h37.166v21.59h-37.166z"/></g><g fill="#00c"><path d="m450.153 242.483c-2.762 0-5 2.239-5 5v173.131c0 8.271-6.729 15-15 15h-338.306c-8.271 0-15-6.729-15-15v-13.3h13.744c5.514 0 10-4.486 10-10v-275.654c0-5.514-4.486-10-10-10h-13.744v-13.3c0-8.271 6.729-15 15-15h60.216c2.762 0 5-2.239 5-5s-2.238-5-5-5h-60.216c-13.785 0-25 11.215-25 25v13.3h-3.421c-5.514 0-10 4.486-10 10v275.653c0 5.514 4.486 10 10 10h3.421v13.3c0 13.785 11.215 25 25 25h338.307c13.785 0 25-11.215 25-25v-173.13c-.001-2.761-2.239-5-5.001-5zm-386.727-120.823h27.165l.007 275.653h-27.172z"/><path d="m430.153 73.36h-248.99c-2.762 0-5 2.239-5 5s2.238 5 5 5h248.99c8.271 0 15 6.729 15 15v120.022c0 2.761 2.238 5 5 5s5-2.239 5-5v-120.022c0-13.785-11.215-25-25-25z"/></g></g><path d="m44.759 465.005c-2.762 0-5-2.239-5-5 0-3.492-2.841-6.333-6.333-6.333-2.762 0-5-2.239-5-5s2.238-5 5-5c3.492 0 6.333-2.841 6.333-6.333 0-2.761 2.238-5 5-5s5 2.239 5 5c0 3.492 2.841 6.333 6.333 6.333 2.762 0 5 2.239 5 5s-2.238 5-5 5c-3.492 0-6.333 2.841-6.333 6.333 0 2.761-2.238 5-5 5z" fill="#ff9d33"/><path d="m466.405 76.963c-2.762 0-5-2.239-5-5 0-3.492-2.841-6.333-6.333-6.333-2.762 0-5-2.239-5-5s2.238-5 5-5c3.492 0 6.333-2.841 6.333-6.333 0-2.761 2.238-5 5-5s5 2.239 5 5c0 3.492 2.841 6.333 6.333 6.333 2.762 0 5 2.239 5 5s-2.238 5-5 5c-3.492 0-6.333 2.841-6.333 6.333 0 2.761-2.238 5-5 5z" fill="#ff4d4d"/><path d="m261 60.63c-2.762 0-5-2.239-5-5 0-3.492-2.841-6.333-6.333-6.333-2.762 0-5-2.239-5-5s2.238-5 5-5c3.492 0 6.333-2.841 6.333-6.333 0-2.761 2.238-5 5-5s5 2.239 5 5c0 3.492 2.841 6.333 6.333 6.333 2.762 0 5 2.239 5 5s-2.238 5-5 5c-3.492 0-6.333 2.841-6.333 6.333 0 2.761-2.238 5-5 5z" fill="#6c6cff"/><g fill="#ff9d33"><g><path d="m306.435 30.937c-2.762 0-5-2.239-5-5v-.15c0-2.761 2.238-5 5-5s5 2.239 5 5v.15c0 2.761-2.239 5-5 5z"/><path d="m306.435 58.721c-2.762 0-5-2.239-5-5v-.15c0-2.761 2.238-5 5-5s5 2.239 5 5v.15c0 2.761-2.239 5-5 5z"/></g><g><path d="m294.464 37.846c-.851 0-1.712-.217-2.5-.674l-.13-.075c-2.39-1.384-3.206-4.442-1.822-6.833 1.384-2.39 4.445-3.205 6.832-1.822l.13.075c2.39 1.384 3.206 4.442 1.822 6.833-.927 1.601-2.607 2.496-4.332 2.496z"/><path d="m318.526 51.739c-.851 0-1.712-.217-2.5-.674l-.13-.075c-2.39-1.384-3.206-4.442-1.822-6.833 1.384-2.39 4.445-3.205 6.832-1.822l.13.075c2.39 1.384 3.206 4.442 1.822 6.833-.926 1.601-2.606 2.496-4.332 2.496z"/></g><g><path d="m294.344 51.739c-1.727 0-3.405-.895-4.332-2.496-1.384-2.39-.567-5.449 1.822-6.833l.13-.075c2.39-1.384 5.449-.567 6.832 1.822 1.384 2.39.567 5.449-1.822 6.833l-.13.075c-.788.456-1.651.674-2.5.674z"/><path d="m318.406 37.846c-1.727 0-3.405-.895-4.332-2.496-1.384-2.39-.567-5.449 1.822-6.833l.13-.075c2.389-1.384 5.449-.567 6.832 1.822 1.384 2.39.567 5.449-1.822 6.833l-.13.075c-.788.457-1.65.674-2.5.674z"/></g></g><g fill="#6c6cff"><g><path d="m89.816 463.429c-2.762 0-5-2.239-5-5v-.15c0-2.761 2.238-5 5-5s5 2.239 5 5v.15c0 2.761-2.238 5-5 5z"/><path d="m89.816 491.213c-2.762 0-5-2.239-5-5v-.15c0-2.761 2.238-5 5-5s5 2.239 5 5v.15c0 2.761-2.238 5-5 5z"/></g><g><path d="m77.846 470.338c-.846 0-1.702-.215-2.488-.667l-.13-.075c-2.394-1.376-3.218-4.433-1.841-6.827s4.433-3.219 6.827-1.841l.13.075c2.394 1.376 3.218 4.433 1.841 6.827-.925 1.608-2.608 2.508-4.339 2.508z"/><path d="m101.907 484.23c-.846 0-1.702-.215-2.488-.667l-.13-.075c-2.394-1.376-3.218-4.433-1.841-6.827s4.431-3.218 6.827-1.841l.13.075c2.394 1.376 3.218 4.433 1.841 6.827-.925 1.608-2.607 2.508-4.339 2.508z"/></g><g><path d="m77.726 484.23c-1.731 0-3.414-.9-4.339-2.508-1.377-2.394-.553-5.451 1.841-6.827l.13-.075c2.396-1.377 5.451-.552 6.827 1.841 1.377 2.394.553 5.451-1.841 6.827l-.13.075c-.786.452-1.643.667-2.488.667z"/><path d="m101.787 470.338c-1.731 0-3.414-.9-4.339-2.508-1.377-2.394-.553-5.451 1.841-6.827l.13-.075c2.397-1.378 5.451-.552 6.827 1.841 1.377 2.394.553 5.451-1.841 6.827l-.13.075c-.786.452-1.642.667-2.488.667z"/></g></g></g></g></svg>