<svg width="16" height="13" viewBox="0 0 16 13" fill="none" xmlns="http://www.w3.org/2000/svg">
<path d="M14.803 5.58495L9.46298 0.244946C9.31088 0.0939895 9.10528 0.00927734 8.89098 0.00927734C8.67669 0.00927734 8.47108 0.0939895 8.31898 0.244946L7.83398 0.729946C7.75864 0.804843 7.69896 0.893994 7.65844 0.992203C7.61792 1.09041 7.59737 1.19571 7.59798 1.30194C7.59698 1.51856 7.68184 1.72675 7.83398 1.88094L10.949 5.00294H1.05398C0.948554 5.0016 0.843922 5.02138 0.746255 5.0611C0.648587 5.10083 0.559861 5.15971 0.485305 5.23427C0.410749 5.30882 0.351872 5.39755 0.312144 5.49522C0.272415 5.59288 0.25264 5.69751 0.253983 5.80294V6.48895C0.251022 6.7049 0.333378 6.9133 0.483165 7.06889C0.632952 7.22448 0.838074 7.3147 1.05398 7.31995H10.984L7.83398 10.4539C7.759 10.5283 7.69949 10.6168 7.65887 10.7143C7.61826 10.8118 7.59734 10.9163 7.59734 11.0219C7.59734 11.1276 7.61826 11.2321 7.65887 11.3296C7.69949 11.4271 7.759 11.5156 7.83398 11.5899L8.31898 12.0729C8.47108 12.2239 8.67669 12.3086 8.89098 12.3086C9.10528 12.3086 9.31088 12.2239 9.46298 12.0729L14.802 6.73394C14.9535 6.58112 15.0385 6.37464 15.0385 6.15944C15.0385 5.94425 14.9535 5.73777 14.802 5.58495H14.803Z" fill="white"/>
</svg>
