<svg width="60" height="57" viewBox="0 0 60 57" fill="none" xmlns="http://www.w3.org/2000/svg">
<path d="M57.916 44L55.157 12.736C55.028 11.1837 53.7265 9.992 52.169 10H36V3C36 1.34312 34.6569 0 33 0H3C1.34312 0 0 1.34312 0 3V11H2V3C2 2.44775 2.44775 2 3 2H33C33.5522 2 34 2.44775 34 3V34H2V25H0V50H8.525C10.173 54.6806 15.3035 57.139 19.984 55.491C22.5516 54.587 24.5709 52.5676 25.475 50H34.525C36.173 54.6806 41.3035 57.139 45.984 55.491C48.5516 54.587 50.5709 52.5676 51.475 50H60V44H57.916ZM54.673 30H41C40.4478 30 40 29.5522 40 29V17C40 16.4477 40.4478 16 41 16H53.437L54.673 30ZM8.059 48H2V46H8.059C7.98025 46.6644 7.98025 47.3357 8.059 48ZM17 54C13.134 54 10 50.866 10 47C10 43.134 13.134 40 17 40C20.866 40 24 43.134 24 47C23.9956 50.8642 20.8641 53.9956 17 54ZM34.059 48H25.941C26.0198 47.3356 26.0198 46.6644 25.941 46H34.059C33.9802 46.6644 33.9802 47.3357 34.059 48ZM43 54C39.134 54 36 50.866 36 47C36 43.134 39.134 40 43 40C46.866 40 50 43.134 50 47C49.9956 50.8642 46.8641 53.9956 43 54ZM51.475 44C49.827 39.3194 44.6965 36.861 40.016 38.509C37.4484 39.413 35.4291 41.4324 34.525 44H25.475C23.827 39.3194 18.6965 36.861 14.016 38.509C11.4484 39.413 9.42912 41.4324 8.525 44H2V36H36V12H52.169C52.6897 11.9951 53.126 12.393 53.169 12.912L53.269 14H41C39.3431 14 38 15.3431 38 17V29C38 30.6569 39.3431 32 41 32H54.849L55.908 44H51.475ZM58 48H51.941C52.0198 47.3356 52.0198 46.6644 51.941 46H58V48Z" fill="#17A3E0"/>
<path d="M43 41.999C40.2386 41.999 38 44.2376 38 46.999C38 49.7604 40.2386 51.999 43 51.999C45.7614 51.999 48 49.7604 48 46.999C47.9968 44.239 45.76 42.0024 43 41.999ZM43 49.999C41.3431 49.999 40 48.6559 40 46.999C40 45.3421 41.3431 43.999 43 43.999C44.6569 43.999 46 45.3421 46 46.999C46 48.6559 44.6569 49.999 43 49.999Z" fill="#34AEE4"/>
<path d="M17 41.999C14.2386 41.999 12 44.2376 12 46.999C12 49.7604 14.2386 51.999 17 51.999C19.7614 51.999 22 49.7604 22 46.999C21.9968 44.239 19.76 42.0024 17 41.999ZM17 49.999C15.3431 49.999 14 48.6559 14 46.999C14 45.3421 15.3431 43.999 17 43.999C18.6569 43.999 20 45.3421 20 46.999C20 48.6559 18.6569 49.999 17 49.999Z" fill="#34AEE4"/>
<path d="M42 33.9995H38V35.9995H42V33.9995Z" fill="#34AEE4"/>
<path d="M22 7.99951C16.4771 7.99951 12 12.4766 12 17.9995C12 23.5224 16.4771 27.9995 22 27.9995C27.5204 27.9934 31.994 23.5199 32 17.9995C32 12.4768 27.5229 7.99951 22 7.99951ZM22 25.9995C17.5838 25.9945 14.005 22.4158 14 17.9995C14 13.5813 17.5818 9.99951 22 9.99951C26.4183 9.99951 30 13.5813 30 17.9995C30 22.4179 26.4183 25.9995 22 25.9995Z" fill="#34AEE4"/>
<path d="M25.2944 13.2925L22.0014 16.5855L20.7084 15.2925L19.2944 16.7065L22.0014 19.4135L26.7084 14.7065L25.2944 13.2925Z" fill="#34AEE4"/>
<path d="M10 16.9985H0V18.9985H10V16.9985Z" fill="#34AEE4"/>
<path d="M10 20.999H2V22.999H10V20.999Z" fill="#34AEE4"/>
<path d="M10 12.9995H4V14.9995H10V12.9995Z" fill="#34AEE4"/>
<path d="M2 12.9995H0V14.9995H2V12.9995Z" fill="#34AEE4"/>
</svg>
