<svg width="94" height="94" viewBox="0 0 94 94" fill="none" xmlns="http://www.w3.org/2000/svg">
<path d="M47 94C72.9574 94 94 72.9574 94 47C94 21.0426 72.9574 0 47 0C21.0426 0 0 21.0426 0 47C0 72.9574 21.0426 94 47 94Z" fill="#FABE2C"/>
<path fill-rule="evenodd" clip-rule="evenodd" d="M47 0V94C21.0426 94 0 72.9574 0 47C0 21.0426 21.0426 0 47 0Z" fill="#FED843"/>
<path d="M58.191 46.4104H57.8304L59.5129 43.9255H59.5105C60.2519 42.9184 60.6906 41.674 60.6906 40.3263V37.6028C60.6906 34.2419 57.9672 31.5184 54.6062 31.5184H53.8593V24.3493C53.8593 23.1808 52.9117 22.2305 51.7405 22.2305H49.5659C48.3947 22.2305 47.4471 23.1805 47.4471 24.3493V31.5184H43.9363V24.3493C43.9363 23.1808 42.9887 22.2305 41.8175 22.2305H39.6429C38.4717 22.2305 37.5241 23.1805 37.5241 24.3493V31.5184H29.2194C28.0482 31.5184 27.1006 32.466 27.1006 33.6372V35.8118C27.1006 36.983 28.0482 37.9306 29.2194 37.9306H33.8938V58.2921H29.2194C28.0482 58.2921 27.1006 59.2397 27.1006 60.4109V62.5855C27.1006 63.7567 28.0482 64.7043 29.2194 64.7043H37.5241V71.8734C37.5241 73.0419 38.4717 73.9922 39.6429 73.9922H41.8175C41.9241 73.9922 42.0283 73.9846 42.13 73.9694C43.1538 73.817 43.9363 72.9355 43.9363 71.8734V64.7043H47.4471V71.8734C47.4471 73.0419 48.3947 73.9922 49.5659 73.9922H51.7405C51.8471 73.9922 51.9513 73.9846 52.053 73.9694C53.0768 73.817 53.8593 72.9355 53.8593 71.8734V64.7043H58.1908C60.1774 64.7043 61.9861 63.9294 63.3249 62.6567C64.7653 61.3 65.6645 59.3694 65.6645 57.2305V53.8848C65.6651 49.7562 62.3166 46.4104 58.191 46.4104ZM43.9368 37.9303H51.7614C53.1791 37.9303 54.3299 39.0811 54.3299 40.5012V40.9255C54.3299 42.0814 53.5677 43.0544 52.5236 43.3797C52.2823 43.4534 52.0255 43.4939 51.7614 43.4939H43.9368V37.9303ZM57.9802 54.8193C57.9802 56.1428 57.241 57.2936 56.1511 57.8806C55.6607 58.1422 55.102 58.2921 54.5075 58.2921H43.9368V50.7724H54.5075C56.4255 50.7724 57.9802 52.3271 57.9802 54.2451V54.8193Z" fill="#FF9100"/>
<path d="M47.0002 31.5184V37.9303H43.9368V43.4939H47.0002V50.7724H43.9368V58.2921H47.0002V64.7043H43.9363V71.8734C43.9363 72.9355 43.1538 73.817 42.13 73.9694C42.0283 73.9846 41.9241 73.9922 41.8175 73.9922H39.6429C38.4717 73.9922 37.5241 73.0419 37.5241 71.8734V64.7043H29.2194C28.0482 64.7043 27.1006 63.7567 27.1006 62.5855V60.4109C27.1006 59.2397 28.0482 58.2921 29.2194 58.2921H33.8938V37.9306H29.2194C28.0482 37.9306 27.1006 36.983 27.1006 35.8118V33.6372C27.1006 32.466 28.0482 31.5184 29.2194 31.5184H37.5241V24.3493C37.5241 23.1805 38.4717 22.2305 39.6429 22.2305H41.8175C42.9887 22.2305 43.9363 23.1808 43.9363 24.3493V31.5184H47.0002Z" fill="#FABE2C"/>
<path d="M45.1023 86.4118C45.0873 86.4118 45.0724 86.4114 45.0572 86.4107C43.8098 86.3503 42.5528 86.2297 41.321 86.0519C40.8193 85.9796 40.4712 85.5142 40.5435 85.0124C40.6159 84.5107 41.0813 84.162 41.583 84.2349C42.7575 84.4042 43.9563 84.5193 45.1458 84.5769C45.6522 84.6015 46.0429 85.0319 46.0183 85.5382C45.9948 86.0294 45.5889 86.4118 45.1023 86.4118ZM52.4182 86.0798C51.9678 86.0798 51.5749 85.7483 51.5103 85.2897C51.4396 84.7877 51.7894 84.3234 52.2913 84.2527C53.4698 84.0869 54.6529 83.8624 55.8071 83.5854C56.3008 83.4673 56.7956 83.771 56.914 84.2639C57.0323 84.757 56.7284 85.2524 56.2355 85.3708C55.0243 85.6612 53.7834 85.8968 52.5471 86.0707C52.5039 86.0769 52.4608 86.0798 52.4182 86.0798ZM34.3355 84.3291C34.2354 84.3291 34.1337 84.3126 34.0338 84.2779C32.8563 83.8683 31.6846 83.3966 30.5509 82.8761C30.0902 82.6644 29.8883 82.1195 30.0998 81.6587C30.3115 81.1981 30.8564 80.9963 31.3172 81.2076C32.3976 81.7039 33.5146 82.1533 34.6369 82.5438C35.1158 82.7103 35.3689 83.2336 35.2024 83.7124C35.0706 84.0915 34.7153 84.3291 34.3355 84.3291ZM62.9495 83.0136C62.6008 83.0136 62.2674 82.8139 62.1134 82.4757C61.9034 82.0143 62.1072 81.47 62.5685 81.26C63.6495 80.7679 64.7206 80.2171 65.752 79.623C66.1914 79.3699 66.7526 79.5211 67.0056 79.9603C67.2586 80.3996 67.1077 80.9609 66.6684 81.2139C65.5864 81.837 64.463 82.4148 63.3292 82.9308C63.206 82.987 63.0765 83.0136 62.9495 83.0136ZM24.5979 79.2827C24.413 79.2827 24.2264 79.227 24.0645 79.1112C23.0509 78.386 22.0597 77.6031 21.1184 76.7845C20.736 76.4518 20.6954 75.8718 21.0281 75.4894C21.3609 75.1068 21.9407 75.0666 22.3231 75.3991C23.2209 76.1799 24.1662 76.9264 25.1328 77.618C25.5452 77.913 25.6403 78.4864 25.3453 78.8988C25.1661 79.1492 24.8841 79.2827 24.5979 79.2827ZM72.1832 77.0933C71.9256 77.0933 71.6696 76.9857 71.4881 76.7755C71.1567 76.392 71.1989 75.8122 71.5826 75.4808C72.4824 74.7035 73.3558 73.8738 74.1783 73.0146C74.5287 72.6483 75.1098 72.6358 75.4761 72.9865C75.8424 73.3372 75.8548 73.9182 75.5042 74.2843C74.6418 75.185 73.7261 76.0551 72.7826 76.87C72.6095 77.0199 72.3958 77.0933 72.1832 77.0933ZM16.6721 71.7011C16.4 71.7011 16.1307 71.5807 15.9495 71.3501C15.1789 70.3688 14.4468 69.3396 13.7733 68.2909C13.4994 67.8642 13.6232 67.2964 14.0498 67.0224C14.4765 66.7485 15.0444 66.8724 15.3183 67.2989C15.9605 68.299 16.6585 69.2805 17.3934 70.2164C17.7065 70.6152 17.6371 71.1922 17.2383 71.5054C17.0703 71.6371 16.8704 71.7011 16.6721 71.7011ZM79.3839 68.8204C79.2131 68.8204 79.0404 68.7728 78.8863 68.6731C78.4606 68.3977 78.3387 67.8295 78.6141 67.4038C79.2601 66.405 79.8653 65.3637 80.4129 64.3089C80.6465 63.8588 81.2007 63.6836 81.6505 63.9171C82.1005 64.1507 82.2759 64.7049 82.0423 65.1547C81.468 66.2611 80.8332 67.3533 80.1557 68.4007C79.9798 68.6724 79.685 68.8204 79.3839 68.8204ZM11.1929 62.1996C10.8285 62.1996 10.4835 61.981 10.3401 61.6218C9.87767 60.4636 9.46605 59.2693 9.11668 58.0721C8.97476 57.5854 9.254 57.0757 9.74071 56.9336C10.2278 56.7921 10.7371 57.0709 10.8792 57.5576C11.2122 58.6989 11.6046 59.8371 12.0452 60.9411C12.2332 61.412 12.0039 61.9461 11.533 62.1341C11.4215 62.1783 11.3062 62.1996 11.1929 62.1996ZM83.966 58.8562C83.8799 58.8562 83.7923 58.8441 83.7057 58.8184C83.2195 58.6746 82.9417 58.1642 83.0855 57.6779C83.422 56.5387 83.7073 55.3688 83.9337 54.2012C84.0301 53.7036 84.5106 53.3787 85.0096 53.4747C85.5073 53.5711 85.8324 54.0528 85.736 54.5506C85.4987 55.7755 85.1992 57.0026 84.846 58.198C84.7281 58.5973 84.3624 58.8562 83.966 58.8562ZM8.62666 51.5374C8.15813 51.5374 7.75808 51.1803 7.71365 50.7044C7.59964 49.4813 7.54199 48.2349 7.54199 46.9997V46.9571C7.54199 46.4502 7.95306 46.0391 8.45996 46.0391C8.96686 46.0391 9.37793 46.4502 9.37793 46.9571V46.9999C9.37793 48.1784 9.43301 49.3675 9.5417 50.5343C9.5887 51.0391 9.21765 51.4864 8.71277 51.5334C8.68395 51.5361 8.65512 51.5374 8.62666 51.5374ZM85.54 48.0032C85.539 48.0032 85.5379 48.0032 85.537 48.0032C85.0299 48.0016 84.6203 47.5894 84.622 47.0823V46.9999C84.622 45.8075 84.5656 44.6044 84.4544 43.4239C84.4068 42.919 84.7775 42.4714 85.2822 42.4238C85.788 42.3763 86.2347 42.7468 86.2822 43.2516C86.3988 44.4891 86.4579 45.7502 86.4579 46.9999V47.088C86.4563 47.5942 86.0456 48.0032 85.54 48.0032ZM9.15798 40.5838C9.10052 40.5838 9.04195 40.5783 8.98339 40.5671C8.48566 40.4713 8.15979 39.9899 8.25562 39.4922C8.49154 38.2674 8.7897 37.0399 9.14146 35.8438C9.28466 35.3575 9.79524 35.079 10.2812 35.2222C10.7676 35.3654 11.0459 35.8756 10.9027 36.3619C10.5672 37.5019 10.283 38.6719 10.0581 39.8394C9.97388 40.2785 9.58925 40.5838 9.15798 40.5838ZM83.9895 37.0623C83.5924 37.0623 83.2263 36.8025 83.109 36.4021C82.775 35.262 82.3814 34.1241 81.9391 33.0201C81.7506 32.5496 81.9793 32.0152 82.4501 31.8268C82.9204 31.6381 83.4549 31.867 83.6434 32.3377C84.1074 33.496 84.5203 34.6897 84.8708 35.8862C85.0132 36.3728 84.7343 36.8828 84.2478 37.0252C84.1619 37.0504 84.0749 37.0623 83.9895 37.0623ZM12.752 30.2238C12.6099 30.2238 12.4656 30.1908 12.3307 30.1208C11.8805 29.8877 11.7044 29.3338 11.9374 28.8836C12.5104 27.7769 13.144 26.6841 13.8205 25.6355C14.0954 25.2097 14.6632 25.0869 15.0895 25.3619C15.5155 25.6367 15.6381 26.205 15.3631 26.6309C14.7181 27.6306 14.1141 28.6726 13.5677 29.7278C13.4049 30.043 13.0841 30.2238 12.752 30.2238ZM79.4318 27.0871C79.13 27.0871 78.8346 26.9384 78.659 26.666C78.0159 25.6667 77.3166 24.6859 76.5808 23.7509C76.2672 23.3525 76.336 22.7754 76.7343 22.4619C77.1327 22.1483 77.7099 22.2171 78.0233 22.6153C78.7949 23.5957 79.5282 24.6242 80.2027 25.6722C80.477 26.0985 80.354 26.6665 79.9275 26.941C79.7742 27.0399 79.602 27.0871 79.4318 27.0871ZM19.1291 21.2992C18.9011 21.2992 18.6729 21.2149 18.495 21.0449C18.1284 20.6946 18.1152 20.1135 18.4655 19.7471C19.3269 18.8454 20.2415 17.9745 21.1841 17.1584C21.5673 16.8264 22.1471 16.8679 22.479 17.2515C22.8109 17.6348 22.7693 18.2146 22.3859 18.5463C21.487 19.3248 20.6146 20.1554 19.7928 21.0155C19.6127 21.2041 19.3709 21.2992 19.1291 21.2992ZM72.2467 18.7981C72.0333 18.7981 71.8191 18.7242 71.6454 18.5733C70.7469 17.7936 69.8007 17.048 68.8333 16.3575C68.4206 16.0631 68.3249 15.4897 68.6194 15.0772C68.9139 14.6646 69.4874 14.5686 69.8998 14.8633C70.9143 15.5874 71.9065 16.3691 72.8485 17.1867C73.2315 17.519 73.2726 18.0987 72.9403 18.4815C72.7589 18.691 72.5035 18.7981 72.2467 18.7981ZM27.7536 14.5209C27.4364 14.5209 27.128 14.3564 26.958 14.0619C26.7044 13.6227 26.8548 13.0615 27.2937 12.8078C28.3742 12.1837 29.4971 11.6049 30.6311 11.0869C31.0923 10.8765 31.6368 11.0794 31.8474 11.5408C32.058 12.0021 31.8548 12.5465 31.3936 12.7571C30.3124 13.2506 29.242 13.8027 28.2121 14.3975C28.0672 14.4812 27.9093 14.5209 27.7536 14.5209ZM63.0264 12.8582C62.8984 12.8582 62.7686 12.8314 62.6447 12.7747C61.5635 12.2797 60.446 11.8314 59.3235 11.4424C58.8445 11.2764 58.5908 10.7535 58.7568 10.2743C58.9227 9.79535 59.4456 9.54144 59.9246 9.70759C61.1025 10.1157 62.2748 10.5861 63.409 11.1055C63.87 11.3164 64.0725 11.8613 63.8614 12.3222C63.7072 12.6592 63.3743 12.8582 63.0264 12.8582ZM37.9363 10.4497C37.5219 10.4497 37.1459 10.1671 37.0446 9.74652C36.9258 9.25357 37.2291 8.75786 37.7219 8.63908C38.9329 8.34717 40.1736 8.11033 41.4093 7.935C41.9095 7.86376 42.3758 8.21296 42.4472 8.71509C42.5184 9.21703 42.1691 9.68171 41.6671 9.75294C40.4888 9.92001 39.3061 10.1458 38.1518 10.424C38.0799 10.4414 38.0075 10.4497 37.9363 10.4497ZM52.5067 9.76836C52.4633 9.76836 52.4196 9.76524 52.3756 9.759C51.201 9.59101 50.0021 9.47718 48.8124 9.42082C48.306 9.39695 47.9148 8.96698 47.9389 8.46063C47.9629 7.95427 48.3916 7.56487 48.8992 7.58709C50.1466 7.6462 51.4038 7.76554 52.6356 7.94161C53.1373 8.01339 53.4861 8.47843 53.4144 8.98038C53.3488 9.43808 52.9561 9.76836 52.5067 9.76836Z" fill="#DCA728"/>
<path d="M45.1023 86.4118C45.0873 86.4118 45.0724 86.4114 45.0572 86.4107C43.8098 86.3503 42.5528 86.2297 41.321 86.0519C40.8193 85.9796 40.4712 85.5142 40.5435 85.0124C40.6159 84.5107 41.0813 84.162 41.583 84.2349C42.7575 84.4042 43.9563 84.5193 45.1458 84.577C45.6522 84.6016 46.0429 85.0319 46.0183 85.5382C45.9948 86.0294 45.5889 86.4118 45.1023 86.4118ZM34.3355 84.3291C34.2354 84.3291 34.1337 84.3126 34.0338 84.2779C32.8563 83.8683 31.6846 83.3966 30.5509 82.8761C30.0902 82.6645 29.8883 82.1195 30.0998 81.6587C30.3115 81.1981 30.8564 80.9963 31.3172 81.2076C32.3976 81.7039 33.5146 82.1533 34.6369 82.5438C35.1158 82.7104 35.3689 83.2336 35.2024 83.7124C35.0706 84.0915 34.7153 84.3291 34.3355 84.3291ZM24.5979 79.2827C24.413 79.2827 24.2264 79.227 24.0645 79.1112C23.0509 78.386 22.0597 77.6031 21.1184 76.7845C20.736 76.4518 20.6954 75.8719 21.0281 75.4894C21.3609 75.1068 21.9407 75.0666 22.3231 75.3991C23.2209 76.1799 24.1662 76.9264 25.1328 77.618C25.5452 77.913 25.6403 78.4864 25.3453 78.8988C25.1661 79.1492 24.8841 79.2827 24.5979 79.2827ZM16.6721 71.7012C16.4 71.7012 16.1307 71.5807 15.9495 71.3501C15.1789 70.3688 14.4468 69.3396 13.7733 68.2909C13.4994 67.8642 13.6232 67.2964 14.0498 67.0224C14.4765 66.7485 15.0444 66.8725 15.3183 67.2989C15.9605 68.299 16.6585 69.2805 17.3934 70.2164C17.7065 70.6152 17.6371 71.1922 17.2383 71.5054C17.0703 71.6371 16.8704 71.7012 16.6721 71.7012ZM11.1929 62.1996C10.8285 62.1996 10.4835 61.981 10.3401 61.6219C9.87767 60.4636 9.46605 59.2693 9.11668 58.0721C8.97476 57.5854 9.254 57.0757 9.74071 56.9336C10.2278 56.7921 10.7371 57.0709 10.8792 57.5576C11.2122 58.6989 11.6046 59.8371 12.0452 60.9411C12.2332 61.412 12.0039 61.9461 11.533 62.1341C11.4215 62.1783 11.3062 62.1996 11.1929 62.1996ZM8.62666 51.5374C8.15813 51.5374 7.75808 51.1803 7.71365 50.7045C7.59964 49.4814 7.54199 48.2349 7.54199 46.9997V46.9571C7.54199 46.4502 7.95306 46.0392 8.45996 46.0392C8.96686 46.0392 9.37793 46.4502 9.37793 46.9571V46.9999C9.37793 48.1784 9.43301 49.3675 9.5417 50.5343C9.5887 51.0391 9.21765 51.4864 8.71277 51.5334C8.68395 51.5361 8.65512 51.5374 8.62666 51.5374ZM9.15798 40.5838C9.10052 40.5838 9.04195 40.5783 8.98339 40.5671C8.48566 40.4713 8.15979 39.9899 8.25562 39.4922C8.49154 38.2674 8.7897 37.0399 9.14146 35.8438C9.28466 35.3575 9.79524 35.079 10.2812 35.2222C10.7676 35.3654 11.0459 35.8756 10.9027 36.3619C10.5672 37.5019 10.283 38.6719 10.0581 39.8394C9.97388 40.2785 9.58925 40.5838 9.15798 40.5838ZM12.752 30.2238C12.6099 30.2238 12.4656 30.1908 12.3307 30.1208C11.8805 29.8877 11.7044 29.3338 11.9374 28.8836C12.5104 27.7769 13.144 26.6841 13.8205 25.6355C14.0954 25.2097 14.6632 25.0869 15.0895 25.3619C15.5155 25.6367 15.6381 26.205 15.3631 26.6309C14.7181 27.6306 14.1141 28.6727 13.5677 29.7278C13.4049 30.043 13.0841 30.2238 12.752 30.2238ZM19.1291 21.2992C18.9011 21.2992 18.6729 21.2149 18.495 21.0449C18.1284 20.6946 18.1152 20.1135 18.4655 19.7471C19.3269 18.8454 20.2415 17.9745 21.1841 17.1584C21.5673 16.8264 22.1471 16.8679 22.479 17.2515C22.8109 17.6348 22.7693 18.2146 22.3859 18.5464C21.487 19.3248 20.6146 20.1554 19.7928 21.0155C19.6127 21.2041 19.3709 21.2992 19.1291 21.2992ZM27.7536 14.5209C27.4364 14.5209 27.128 14.3564 26.958 14.0619C26.7044 13.6227 26.8548 13.0615 27.2937 12.8078C28.3742 12.1837 29.4971 11.6049 30.6311 11.0869C31.0923 10.8765 31.6368 11.0794 31.8474 11.5408C32.058 12.0022 31.8548 12.5465 31.3936 12.7571C30.3124 13.2506 29.242 13.8027 28.2121 14.3975C28.0672 14.4812 27.9093 14.5209 27.7536 14.5209ZM37.9363 10.4497C37.5219 10.4497 37.1459 10.1671 37.0446 9.74652C36.9258 9.25357 37.2291 8.75787 37.7219 8.63909C38.9329 8.34717 40.1736 8.11033 41.4093 7.935C41.9095 7.86377 42.3758 8.21296 42.4472 8.71509C42.5184 9.21704 42.1691 9.68171 41.6671 9.75295C40.4888 9.92002 39.3061 10.1458 38.1518 10.424C38.0799 10.4414 38.0075 10.4497 37.9363 10.4497Z" fill="#F9C744"/>
</svg>
