<svg width="28" height="27" viewBox="0 0 28 27" fill="none" xmlns="http://www.w3.org/2000/svg">
<path d="M5.64 24.46C3.82 24.26 2.51 23.63 1.71 22.57C0.91 21.51 0.51 19.94 0.51 17.86V17.05H5.61V17.65C5.61 19.17 6.06 19.93 6.96 19.93C7.36 19.93 7.66 19.78 7.86 19.48C8.08 19.16 8.19 18.77 8.19 18.31C8.19 17.97 7.89 17.47 7.29 16.81L3.09 12.55C1.53 11.03 0.75 9.36 0.75 7.54C0.75 6.12 1.21 4.94 2.13 4C3.07 3.04 4.24 2.43 5.64 2.17V0.399998H8.16V2.14C9.82 2.34 11.08 3.02 11.94 4.18C12.82 5.34 13.26 6.88 13.26 8.8H8.04L8.01 7.57C7.99 7.31 7.86 7.08 7.62 6.88C7.38 6.66 7.11 6.55 6.81 6.55C6.47 6.55 6.18 6.66 5.94 6.88C5.7 7.08 5.58 7.35 5.58 7.69C5.58 8.17 6.06 8.89 7.02 9.85L11.13 13.9C11.79 14.54 12.32 15.29 12.72 16.15C13.14 17.01 13.35 17.94 13.35 18.94C13.35 20.52 12.87 21.8 11.91 22.78C10.95 23.74 9.7 24.31 8.16 24.49V26.65H5.64V24.46ZM19.4974 24.46C17.6774 24.26 16.3674 23.63 15.5674 22.57C14.7674 21.51 14.3674 19.94 14.3674 17.86V17.05H19.4674V17.65C19.4674 19.17 19.9174 19.93 20.8174 19.93C21.2174 19.93 21.5174 19.78 21.7174 19.48C21.9374 19.16 22.0474 18.77 22.0474 18.31C22.0474 17.97 21.7474 17.47 21.1474 16.81L16.9474 12.55C15.3874 11.03 14.6074 9.36 14.6074 7.54C14.6074 6.12 15.0674 4.94 15.9874 4C16.9274 3.04 18.0974 2.43 19.4974 2.17V0.399998H22.0174V2.14C23.6774 2.34 24.9374 3.02 25.7974 4.18C26.6774 5.34 27.1174 6.88 27.1174 8.8H21.8974L21.8674 7.57C21.8474 7.31 21.7174 7.08 21.4774 6.88C21.2374 6.66 20.9674 6.55 20.6674 6.55C20.3274 6.55 20.0374 6.66 19.7974 6.88C19.5574 7.08 19.4374 7.35 19.4374 7.69C19.4374 8.17 19.9174 8.89 20.8774 9.85L24.9874 13.9C25.6474 14.54 26.1774 15.29 26.5774 16.15C26.9974 17.01 27.2074 17.94 27.2074 18.94C27.2074 20.52 26.7274 21.8 25.7674 22.78C24.8074 23.74 23.5574 24.31 22.0174 24.49V26.65H19.4974V24.46Z" fill="#8CC740"/>
</svg>
