<svg width="41" height="41" viewBox="0 0 41 41" fill="none" xmlns="http://www.w3.org/2000/svg">
<path d="M7.89995 37.172C5.10929 36.8653 3.10062 35.8993 1.87395 34.274C0.647287 32.6487 0.0339532 30.2413 0.0339532 27.052V25.81H7.85395V26.73C7.85395 29.0607 8.54395 30.226 9.92395 30.226C10.5373 30.226 10.9973 29.996 11.304 29.536C11.6413 29.0453 11.81 28.4473 11.81 27.742C11.81 27.2207 11.35 26.454 10.43 25.442L3.98995 18.91C1.59795 16.5793 0.401953 14.0187 0.401953 11.228C0.401953 9.05066 1.10729 7.24133 2.51795 5.8C3.95929 4.328 5.75329 3.39267 7.89995 2.994V0.279998H11.764V2.948C14.3093 3.25467 16.2413 4.29733 17.56 6.076C18.9093 7.85467 19.584 10.216 19.584 13.16H11.58L11.534 11.274C11.5033 10.8753 11.304 10.5227 10.936 10.216C10.568 9.87867 10.154 9.71 9.69395 9.71C9.17262 9.71 8.72795 9.87867 8.35995 10.216C7.99195 10.5227 7.80795 10.9367 7.80795 11.458C7.80795 12.194 8.54395 13.298 10.016 14.77L16.318 20.98C17.33 21.9613 18.1426 23.1113 18.756 24.43C19.4 25.7487 19.722 27.1747 19.722 28.708C19.722 31.1307 18.986 33.0933 17.514 34.596C16.042 36.068 14.1253 36.942 11.764 37.218V40.53H7.89995V37.172ZM29.148 37.172C26.3573 36.8653 24.3487 35.8993 23.122 34.274C21.8953 32.6487 21.282 30.2413 21.282 27.052V25.81H29.102V26.73C29.102 29.0607 29.792 30.226 31.172 30.226C31.7853 30.226 32.2453 29.996 32.552 29.536C32.8893 29.0453 33.058 28.4473 33.058 27.742C33.058 27.2207 32.598 26.454 31.678 25.442L25.238 18.91C22.846 16.5793 21.65 14.0187 21.65 11.228C21.65 9.05066 22.3553 7.24133 23.766 5.8C25.2073 4.328 27.0013 3.39267 29.148 2.994V0.279998H33.012V2.948C35.5573 3.25467 37.4893 4.29733 38.808 6.076C40.1573 7.85467 40.832 10.216 40.832 13.16H32.828L32.782 11.274C32.7513 10.8753 32.552 10.5227 32.184 10.216C31.816 9.87867 31.402 9.71 30.942 9.71C30.4207 9.71 29.976 9.87867 29.608 10.216C29.24 10.5227 29.056 10.9367 29.056 11.458C29.056 12.194 29.792 13.298 31.264 14.77L37.566 20.98C38.578 21.9613 39.3907 23.1113 40.004 24.43C40.648 25.7487 40.97 27.1747 40.97 28.708C40.97 31.1307 40.234 33.0933 38.762 34.596C37.29 36.068 35.3733 36.942 33.012 37.218V40.53H29.148V37.172Z" fill="white"/>
</svg>
