<svg width="26" height="24" viewBox="0 0 26 24" fill="none" xmlns="http://www.w3.org/2000/svg">
<path d="M23.4986 2.33016C22.8516 1.67863 22.0815 1.16237 21.233 0.811446C20.3845 0.460524 19.4747 0.281958 18.5566 0.286155C16.5571 0.304524 14.6279 1.02561 13.1066 2.32316C11.3326 0.761155 9.72756 0.000155293 8.21656 0.000155293C7.18973 -0.00643083 6.17235 0.196541 5.22666 0.596654C4.28097 0.996766 3.42686 1.58561 2.71656 2.32715C1.61696 3.44772 0.87462 4.8694 0.583557 6.41216C0.560772 6.52627 0.560689 6.64376 0.583311 6.75791C0.605932 6.87207 0.650815 6.98064 0.715398 7.07745C0.779981 7.17425 0.863 7.25739 0.959712 7.32211C1.05643 7.38683 1.16494 7.43187 1.27906 7.45466C1.39318 7.47744 1.51066 7.47752 1.62482 7.4549C1.73897 7.43228 1.84754 7.3874 1.94435 7.32282C2.04115 7.25823 2.12429 7.17521 2.18901 7.0785C2.25373 6.98179 2.29877 6.87327 2.32156 6.75916C2.5465 5.5535 3.12504 4.44203 3.98356 3.56616C4.52914 2.9949 5.18567 2.54111 5.91287 2.23262C6.64008 1.92413 7.42264 1.76744 8.21256 1.77215C9.38756 1.77215 10.8126 2.56415 12.4296 4.10915C12.5171 4.19841 12.6215 4.26938 12.7367 4.31796C12.8519 4.36654 12.9755 4.39176 13.1006 4.39216C13.2255 4.39184 13.3491 4.36675 13.4643 4.31835C13.5795 4.26994 13.6839 4.19918 13.7716 4.11016C15.0263 2.82677 16.736 2.08921 18.5306 2.05715H18.5466C19.2293 2.04871 19.9068 2.17789 20.5385 2.43698C21.1703 2.69607 21.7433 3.07976 22.2236 3.56516C23.3503 4.73779 23.9815 6.29965 23.986 7.92584C23.9904 9.55203 23.3678 11.1173 22.2476 12.2962L13.1146 21.1212L5.87256 14.1272C5.78953 14.0433 5.6906 13.9769 5.58155 13.9318C5.4725 13.8867 5.35555 13.8638 5.23754 13.8645C5.11954 13.8652 5.00287 13.8895 4.89437 13.9359C4.78588 13.9823 4.68776 14.05 4.60576 14.1348C4.52376 14.2197 4.45954 14.3201 4.41687 14.4301C4.3742 14.5401 4.35393 14.6576 4.35727 14.7755C4.3606 14.8935 4.38747 15.0096 4.43629 15.117C4.48511 15.2245 4.5549 15.3211 4.64156 15.4012L12.4996 22.9902C12.6648 23.15 12.8857 23.2393 13.1156 23.2393C13.3454 23.2393 13.5663 23.15 13.7316 22.9902L23.4976 13.5532C24.9494 12.0458 25.7605 10.0345 25.7605 7.94166C25.7605 5.84885 24.9494 3.83749 23.4976 2.33016H23.4986Z" fill="#F7573D"/>
<path d="M24.1805 9.97931H17.0315C16.9114 9.97894 16.7924 10.0028 16.6818 10.0496C16.5711 10.0963 16.471 10.1649 16.3875 10.2513L13.6995 13.0423L10.5995 6.14232C10.5329 5.99617 10.4279 5.87086 10.2956 5.7798C10.1633 5.68873 10.0088 5.63532 9.84851 5.6253C9.68807 5.61523 9.52786 5.64832 9.38453 5.72113C9.24121 5.79393 9.12 5.9038 9.03351 6.0393L6.57951 9.97931H0.900508C0.78371 9.97535 0.66731 9.99493 0.558239 10.0369C0.449168 10.0789 0.349657 10.1423 0.265633 10.2236C0.181608 10.3048 0.114789 10.4021 0.0691534 10.5097C0.023518 10.6173 0 10.7329 0 10.8498C0 10.9667 0.023518 11.0824 0.0691534 11.1899C0.114789 11.2975 0.181608 11.3948 0.265633 11.476C0.349657 11.5573 0.449168 11.6208 0.558239 11.6627C0.66731 11.7047 0.78371 11.7243 0.900508 11.7203H7.07551C7.22631 11.7207 7.37473 11.6827 7.5068 11.6099C7.63888 11.5372 7.75027 11.432 7.83051 11.3043L9.66451 8.36731L12.6165 14.9433C12.6764 15.0756 12.7679 15.191 12.883 15.2794C12.9981 15.3679 13.1333 15.4266 13.2765 15.4503C13.3264 15.4588 13.3769 15.4632 13.4275 15.4633C13.5476 15.4636 13.6666 15.4396 13.7772 15.3929C13.8878 15.3461 13.9879 15.2776 14.0715 15.1913L17.4135 11.7203H24.1815C24.2983 11.7243 24.4147 11.7047 24.5238 11.6627C24.6329 11.6208 24.7324 11.5573 24.8164 11.476C24.9004 11.3948 24.9672 11.2975 25.0129 11.1899C25.0585 11.0824 25.082 10.9667 25.082 10.8498C25.082 10.7329 25.0585 10.6173 25.0129 10.5097C24.9672 10.4021 24.9004 10.3048 24.8164 10.2236C24.7324 10.1423 24.6329 10.0789 24.5238 10.0369C24.4147 9.99493 24.2983 9.97535 24.1815 9.97931H24.1805Z" fill="#F7573D"/>
</svg>
