<svg width="253" height="29" viewBox="0 0 253 29" fill="none" xmlns="http://www.w3.org/2000/svg">
<path d="M5.71875 14.2969H7.28125C8.8125 14.2969 9.94271 14.0417 10.6719 13.5312C11.401 13.0208 11.7656 12.2188 11.7656 11.125C11.7656 10.0417 11.3906 9.27083 10.6406 8.8125C9.90104 8.35417 8.75 8.125 7.1875 8.125H5.71875V14.2969ZM5.71875 18.2344V27H0.875V4.15625H7.53125C10.6354 4.15625 12.9323 4.72396 14.4219 5.85938C15.9115 6.98438 16.6562 8.69792 16.6562 11C16.6562 12.3438 16.2865 13.5417 15.5469 14.5938C14.8073 15.6354 13.7604 16.4531 12.4062 17.0469C15.8438 22.1823 18.0833 25.5 19.125 27H13.75L8.29688 18.2344H5.71875ZM35.1562 27H22V4.15625H35.1562V8.125H26.8438V13.1406H34.5781V17.1094H26.8438V23H35.1562V27ZM48.75 27H43.9062V8.1875H37.7031V4.15625H54.9531V8.1875H48.75V27ZM77.0625 4.15625V18.9375C77.0625 20.625 76.6823 22.1042 75.9219 23.375C75.1719 24.6458 74.0833 25.6198 72.6562 26.2969C71.2292 26.974 69.5417 27.3125 67.5938 27.3125C64.6562 27.3125 62.375 26.5625 60.75 25.0625C59.125 23.5521 58.3125 21.4896 58.3125 18.875V4.15625H63.1406V18.1406C63.1406 19.901 63.4948 21.1927 64.2031 22.0156C64.9115 22.8385 66.0833 23.25 67.7188 23.25C69.3021 23.25 70.4479 22.8385 71.1562 22.0156C71.875 21.1823 72.2344 19.8802 72.2344 18.1094V4.15625H77.0625ZM87.5 14.2969H89.0625C90.5938 14.2969 91.724 14.0417 92.4531 13.5312C93.1823 13.0208 93.5469 12.2188 93.5469 11.125C93.5469 10.0417 93.1719 9.27083 92.4219 8.8125C91.6823 8.35417 90.5312 8.125 88.9688 8.125H87.5V14.2969ZM87.5 18.2344V27H82.6562V4.15625H89.3125C92.4167 4.15625 94.7135 4.72396 96.2031 5.85938C97.6927 6.98438 98.4375 8.69792 98.4375 11C98.4375 12.3438 98.0677 13.5417 97.3281 14.5938C96.5885 15.6354 95.5417 16.4531 94.1875 17.0469C97.625 22.1823 99.8646 25.5 100.906 27H95.5312L90.0781 18.2344H87.5ZM124.047 27H117.891L107.953 9.71875H107.812C108.01 12.7708 108.109 14.9479 108.109 16.25V27H103.781V4.15625H109.891L119.812 21.2656H119.922C119.766 18.2969 119.688 16.1979 119.688 14.9688V4.15625H124.047V27ZM172.531 27H159.375V4.15625H172.531V8.125H164.219V13.1406H171.953V17.1094H164.219V23H172.531V27ZM190.469 27H177.312V4.15625H190.469V8.125H182.156V13.1406H189.891V17.1094H182.156V23H190.469V27ZM213.625 27H208.125L202.141 17.375L200.094 18.8438V27H195.25V4.15625H200.094V14.6094L202 11.9219L208.188 4.15625H213.562L205.594 14.2656L213.625 27ZM229.656 27H216.5V4.15625H229.656V8.125H221.344V13.1406H229.078V17.1094H221.344V23H229.656V27ZM239.281 14.2969H240.844C242.375 14.2969 243.505 14.0417 244.234 13.5312C244.964 13.0208 245.328 12.2188 245.328 11.125C245.328 10.0417 244.953 9.27083 244.203 8.8125C243.464 8.35417 242.312 8.125 240.75 8.125H239.281V14.2969ZM239.281 18.2344V27H234.438V4.15625H241.094C244.198 4.15625 246.495 4.72396 247.984 5.85938C249.474 6.98438 250.219 8.69792 250.219 11C250.219 12.3438 249.849 13.5417 249.109 14.5938C248.37 15.6354 247.323 16.4531 245.969 17.0469C249.406 22.1823 251.646 25.5 252.688 27H247.312L241.859 18.2344H239.281Z" fill="black"/>
<path d="M132.954 26.424C131.012 26.2107 129.615 25.5387 128.762 24.408C127.908 23.2773 127.482 21.6027 127.482 19.384V18.52H132.922V19.16C132.922 20.7813 133.402 21.592 134.362 21.592C134.788 21.592 135.108 21.432 135.322 21.112C135.556 20.7707 135.674 20.3547 135.674 19.864C135.674 19.5013 135.354 18.968 134.714 18.264L130.234 13.72C128.57 12.0987 127.738 10.3173 127.738 8.376C127.738 6.86133 128.228 5.60266 129.21 4.6C130.212 3.576 131.46 2.92533 132.954 2.648V0.759998H135.642V2.616C137.412 2.82933 138.756 3.55467 139.674 4.792C140.612 6.02933 141.082 7.672 141.082 9.72H135.514L135.482 8.408C135.46 8.13067 135.322 7.88533 135.066 7.672C134.81 7.43733 134.522 7.32 134.202 7.32C133.839 7.32 133.53 7.43733 133.274 7.672C133.018 7.88533 132.89 8.17333 132.89 8.536C132.89 9.048 133.402 9.816 134.426 10.84L138.81 15.16C139.514 15.8427 140.079 16.6427 140.506 17.56C140.954 18.4773 141.178 19.4693 141.178 20.536C141.178 22.2213 140.666 23.5867 139.642 24.632C138.618 25.656 137.284 26.264 135.642 26.456V28.76H132.954V26.424ZM147.735 26.424C145.793 26.2107 144.396 25.5387 143.543 24.408C142.689 23.2773 142.263 21.6027 142.263 19.384V18.52H147.703V19.16C147.703 20.7813 148.183 21.592 149.143 21.592C149.569 21.592 149.889 21.432 150.103 21.112C150.337 20.7707 150.455 20.3547 150.455 19.864C150.455 19.5013 150.135 18.968 149.495 18.264L145.015 13.72C143.351 12.0987 142.519 10.3173 142.519 8.376C142.519 6.86133 143.009 5.60266 143.991 4.6C144.993 3.576 146.241 2.92533 147.735 2.648V0.759998H150.423V2.616C152.193 2.82933 153.537 3.55467 154.455 4.792C155.393 6.02933 155.863 7.672 155.863 9.72H150.295L150.263 8.408C150.241 8.13067 150.103 7.88533 149.847 7.672C149.591 7.43733 149.303 7.32 148.983 7.32C148.62 7.32 148.311 7.43733 148.055 7.672C147.799 7.88533 147.671 8.17333 147.671 8.536C147.671 9.048 148.183 9.816 149.207 10.84L153.591 15.16C154.295 15.8427 154.86 16.6427 155.287 17.56C155.735 18.4773 155.959 19.4693 155.959 20.536C155.959 22.2213 155.447 23.5867 154.423 24.632C153.399 25.656 152.065 26.264 150.423 26.456V28.76H147.735V26.424Z" fill="#8CC740"/>
</svg>
