<svg width="204" height="37" viewBox="0 0 204 37" fill="none" xmlns="http://www.w3.org/2000/svg">
<path d="M1.886 25H5.474V19.572H8.28L11.201 25H15.226L11.569 18.56C12.305 18.146 12.8877 17.5863 13.317 16.881C13.7463 16.1757 13.961 15.363 13.961 14.443C13.961 12.7563 13.3707 11.4913 12.19 10.648C11.0093 9.78933 9.499 9.36 7.659 9.36H1.886V25ZM7.544 12.258C8.40267 12.258 9.062 12.442 9.522 12.81C9.982 13.178 10.212 13.7453 10.212 14.512C10.212 15.202 9.96667 15.7463 9.476 16.145C9.00067 16.5283 8.372 16.72 7.59 16.72H5.474V12.258H7.544ZM28.5631 25L28.1261 22.194H20.9271V18.537H26.3321L25.8951 15.708H20.9271V12.189H27.6431L27.2061 9.36H17.3391V25H28.5631ZM42.2675 9.36H29.2495V12.189H33.9185V25H37.5295V12.189H42.7045L42.2675 9.36ZM44.6013 9.36L44.6243 19.158C44.6243 20.4 44.9003 21.481 45.4523 22.401C46.0043 23.321 46.7863 24.034 47.7983 24.54C48.8256 25.046 50.0063 25.299 51.3403 25.299C52.6743 25.299 53.8473 25.046 54.8593 24.54C55.8866 24.034 56.6763 23.321 57.2283 22.401C57.7956 21.481 58.0793 20.4 58.0793 19.158V9.36H54.4683V18.951C54.4683 20.0397 54.1846 20.8753 53.6173 21.458C53.05 22.0253 52.291 22.309 51.3403 22.309C50.3896 22.309 49.6306 22.0253 49.0633 21.458C48.496 20.8907 48.2123 20.055 48.2123 18.951V9.36H44.6013ZM61.6321 25H65.2201V19.572H68.0261L70.9471 25H74.9721L71.3151 18.56C72.0511 18.146 72.6338 17.5863 73.0631 16.881C73.4924 16.1757 73.7071 15.363 73.7071 14.443C73.7071 12.7563 73.1168 11.4913 71.9361 10.648C70.7554 9.78933 69.2451 9.36 67.4051 9.36H61.6321V25ZM67.2901 12.258C68.1488 12.258 68.8081 12.442 69.2681 12.81C69.7281 13.178 69.9581 13.7453 69.9581 14.512C69.9581 15.202 69.7128 15.7463 69.2221 16.145C68.7468 16.5283 68.1181 16.72 67.3361 16.72H65.2201V12.258H67.2901ZM80.6732 25V15.662L87.2972 25H90.7472V9.36H87.1592V18.813L80.5352 9.36H77.0852V25H80.6732ZM130.468 25L130.031 22.194H122.832V18.537H128.237L127.8 15.708H122.832V12.189H129.548L129.111 9.36H119.244V25H130.468ZM144.035 25L143.598 22.194H136.399V18.537H141.804L141.367 15.708H136.399V12.189H143.115L142.678 9.36H132.811V25H144.035ZM155.715 25L151.368 18.836L149.988 20.216V25H146.377V9.36H149.988V15.34L156.52 9.015L159.257 11.039L153.898 16.329L160.246 25H155.715ZM173.593 25L173.156 22.194H165.957V18.537H171.362L170.925 15.708H165.957V12.189H172.673L172.236 9.36H162.369V25H173.593ZM175.936 25H179.524V19.572H182.33L185.251 25H189.276L185.619 18.56C186.355 18.146 186.937 17.5863 187.367 16.881C187.796 16.1757 188.011 15.363 188.011 14.443C188.011 12.7563 187.42 11.4913 186.24 10.648C185.059 9.78933 183.549 9.36 181.709 9.36H175.936V25ZM181.594 12.258C182.452 12.258 183.112 12.442 183.572 12.81C184.032 13.178 184.262 13.7453 184.262 14.512C184.262 15.202 184.016 15.7463 183.526 16.145C183.05 16.5283 182.422 16.72 181.64 16.72H179.524V12.258H181.594Z" fill="black"/>
<path d="M93.5714 24.011C94.1234 24.3483 94.89 24.6473 95.8714 24.908C96.868 25.1687 97.7267 25.299 98.4474 25.299C99.6894 25.299 100.763 25.1073 101.667 24.724C102.587 24.3407 103.285 23.8117 103.76 23.137C104.251 22.4623 104.496 21.6957 104.496 20.837C104.496 20.0397 104.274 19.3343 103.829 18.721C103.385 18.0923 102.871 17.5787 102.288 17.18C101.706 16.766 100.862 16.237 99.7584 15.593C99.4977 15.4243 99.2447 15.2863 98.9994 15.179C98.34 14.8263 97.857 14.5273 97.5504 14.282C97.259 14.0213 97.1134 13.7223 97.1134 13.385C97.1134 12.971 97.2897 12.649 97.6424 12.419C98.0104 12.1737 98.478 12.051 99.0454 12.051C99.5974 12.051 100.111 12.1123 100.586 12.235C101.062 12.3577 101.667 12.5723 102.403 12.879L103.507 10.257C102.894 9.889 102.181 9.59767 101.368 9.383C100.556 9.153 99.766 9.038 98.9994 9.038C97.8647 9.038 96.8757 9.22967 96.0324 9.613C95.189 9.981 94.5374 10.4947 94.0774 11.154C93.6327 11.798 93.4027 12.534 93.3874 13.362C93.3874 14.144 93.6097 14.8493 94.0544 15.478C94.5144 16.1067 95.0357 16.628 95.6184 17.042C96.2164 17.456 97.0367 17.9773 98.0794 18.606C98.386 18.79 98.616 18.9203 98.7694 18.997C99.4747 19.411 99.9807 19.7407 100.287 19.986C100.609 20.2313 100.77 20.4997 100.77 20.791C100.77 21.2357 100.563 21.596 100.149 21.872C99.7354 22.1327 99.145 22.263 98.3784 22.263C97.811 22.263 97.1594 22.1557 96.4234 21.941C95.7027 21.711 95.097 21.4657 94.6064 21.205L93.5714 24.011ZM105.925 24.011C106.477 24.3483 107.244 24.6473 108.225 24.908C109.222 25.1687 110.08 25.299 110.801 25.299C112.043 25.299 113.116 25.1073 114.021 24.724C114.941 24.3407 115.639 23.8117 116.114 23.137C116.605 22.4623 116.85 21.6957 116.85 20.837C116.85 20.0397 116.628 19.3343 116.183 18.721C115.738 18.0923 115.225 17.5787 114.642 17.18C114.059 16.766 113.216 16.237 112.112 15.593C111.851 15.4243 111.598 15.2863 111.353 15.179C110.694 14.8263 110.211 14.5273 109.904 14.282C109.613 14.0213 109.467 13.7223 109.467 13.385C109.467 12.971 109.643 12.649 109.996 12.419C110.364 12.1737 110.832 12.051 111.399 12.051C111.951 12.051 112.465 12.1123 112.94 12.235C113.415 12.3577 114.021 12.5723 114.757 12.879L115.861 10.257C115.248 9.889 114.535 9.59767 113.722 9.383C112.909 9.153 112.12 9.038 111.353 9.038C110.218 9.038 109.229 9.22967 108.386 9.613C107.543 9.981 106.891 10.4947 106.431 11.154C105.986 11.798 105.756 12.534 105.741 13.362C105.741 14.144 105.963 14.8493 106.408 15.478C106.868 16.1067 107.389 16.628 107.972 17.042C108.57 17.456 109.39 17.9773 110.433 18.606C110.74 18.79 110.97 18.9203 111.123 18.997C111.828 19.411 112.334 19.7407 112.641 19.986C112.963 20.2313 113.124 20.4997 113.124 20.791C113.124 21.2357 112.917 21.596 112.503 21.872C112.089 22.1327 111.499 22.263 110.732 22.263C110.165 22.263 109.513 22.1557 108.777 21.941C108.056 21.711 107.451 21.4657 106.96 21.205L105.925 24.011Z" fill="#8CC740"/>
<rect x="98" y="7" width="2" height="20" fill="#8CC740"/>
<rect x="110" y="7" width="2" height="20" fill="#8CC740"/>
</svg>
