<svg width="36" height="21" viewBox="0 0 36 21" fill="none" xmlns="http://www.w3.org/2000/svg">
<path d="M33.509 0.771973H11.519C10.9886 0.771973 10.4799 0.982685 10.1048 1.35776C9.72976 1.73283 9.51904 2.24154 9.51904 2.77197V18.765C9.51904 19.2954 9.72976 19.8041 10.1048 20.1792C10.4799 20.5543 10.9886 20.765 11.519 20.765H33.509C34.0395 20.765 34.5482 20.5543 34.9232 20.1792C35.2983 19.8041 35.509 19.2954 35.509 18.765V2.77097C35.5088 2.24071 35.2979 1.73226 34.9229 1.35741C34.5479 0.98255 34.0393 0.771973 33.509 0.771973ZM33.109 18.364H11.919V3.17097H33.11L33.109 18.364Z" fill="#424FF5"/>
<path d="M10.1792 13.534L2.72422 17.295V4.20902L10.1952 7.84702L11.2452 5.69003L2.04522 1.21202C1.86259 1.124 1.66064 1.08368 1.45821 1.09483C1.25579 1.10598 1.05948 1.16824 0.887629 1.27579C0.715773 1.38334 0.573966 1.53267 0.475444 1.70985C0.376921 1.88704 0.324894 2.08629 0.324219 2.28903L0.324219 19.241C0.324327 19.4458 0.376854 19.6472 0.4768 19.826C0.576746 20.0047 0.720785 20.155 0.895203 20.2623C1.06962 20.3697 1.26862 20.4306 1.47324 20.4393C1.67787 20.448 1.88132 20.4042 2.06422 20.312L11.2642 15.674L10.1792 13.534Z" fill="#424FF5"/>
</svg>
