<svg width="13" height="14" viewBox="0 0 13 14" fill="none" xmlns="http://www.w3.org/2000/svg">
<path d="M11.664 11.0825C11.664 11.5466 11.4796 11.9916 11.1514 12.3198C10.8232 12.648 10.3781 12.8325 9.914 12.8325H6.99799C6.53403 12.8323 6.08917 12.6475 5.7612 12.3193C5.43323 11.9912 5.24899 11.5465 5.24899 11.0825V7.38232L5.884 6.74756L5.05899 5.92236L4.66599 6.31543L1.509 3.1582C1.40023 3.05017 1.31396 2.92189 1.25525 2.78027C1.19654 2.63865 1.16655 2.4868 1.16699 2.3335C1.16726 2.02433 1.29018 1.72789 1.50879 1.50928C1.7274 1.29067 2.02382 1.16775 2.33298 1.16748H2.91599V0.000488281H2.33298C1.71423 0.000488281 1.12084 0.246071 0.683321 0.683594C0.245798 1.12112 1.57745e-06 1.71475 1.57745e-06 2.3335C-0.000355159 2.63994 0.059798 2.94342 0.177004 3.22656C0.294209 3.50971 0.466144 3.76686 0.682985 3.9834L4.08298 7.3833V11.0835C4.08298 11.8569 4.39022 12.5982 4.93707 13.145C5.48393 13.6919 6.22562 13.9995 6.99899 13.9995H9.91498C10.298 13.9996 10.6772 13.9243 11.031 13.7778C11.3849 13.6313 11.7064 13.4163 11.9772 13.1455C12.248 12.8747 12.4628 12.5531 12.6093 12.1992C12.7558 11.8454 12.8311 11.4665 12.831 11.0835V8.7832H11.665L11.664 11.0825Z" fill="black"/>
</svg>
