<svg width="310" height="42" viewBox="0 0 310 42" fill="none" xmlns="http://www.w3.org/2000/svg">
<path d="M54.907 20.8655H49.597V10.8215H46.789V23.0615H55.231L54.907 20.8655ZM65.6628 23.0615L65.3208 20.8655H59.6868V18.0035H63.9168L63.5748 15.7895H59.6868V13.0355H64.9428L64.6008 10.8215H56.8788V23.0615H65.6628ZM76.388 10.8215H66.2V13.0355H69.854V23.0615H72.68V13.0355H76.73L76.388 10.8215ZM78.9525 9.70552C78.5445 9.70552 78.1905 9.86152 77.8905 10.1735C77.6025 10.4855 77.4585 10.8275 77.4585 11.1995C77.4585 11.4995 77.5485 11.7815 77.7285 12.0455C77.9205 12.3095 78.1245 12.4775 78.3405 12.5495C78.2445 12.9575 77.8905 13.3835 77.2785 13.8275L77.8545 15.1055C78.5985 14.7575 79.2165 14.2415 79.7085 13.5575C80.2125 12.8615 80.4645 12.1655 80.4645 11.4695C80.4645 10.9535 80.3145 10.5335 80.0145 10.2095C79.7265 9.87352 79.3725 9.70552 78.9525 9.70552ZM81.7166 22.2875C82.1486 22.5515 82.7486 22.7855 83.5166 22.9895C84.2966 23.1935 84.9686 23.2955 85.5326 23.2955C86.5046 23.2955 87.3446 23.1455 88.0526 22.8455C88.7726 22.5455 89.3186 22.1315 89.6906 21.6035C90.0746 21.0755 90.2666 20.4755 90.2666 19.8035C90.2666 19.1795 90.0926 18.6275 89.7446 18.1475C89.3966 17.6555 88.9946 17.2535 88.5386 16.9415C88.0826 16.6175 87.4226 16.2035 86.5586 15.6995C86.3546 15.5675 86.1566 15.4595 85.9646 15.3755C85.4486 15.0995 85.0706 14.8655 84.8306 14.6735C84.6026 14.4695 84.4886 14.2355 84.4886 13.9715C84.4886 13.6475 84.6266 13.3955 84.9026 13.2155C85.1906 13.0235 85.5566 12.9275 86.0006 12.9275C86.4326 12.9275 86.8346 12.9755 87.2066 13.0715C87.5786 13.1675 88.0526 13.3355 88.6286 13.5755L89.4926 11.5235C89.0126 11.2355 88.4546 11.0075 87.8186 10.8395C87.1826 10.6595 86.5646 10.5695 85.9646 10.5695C85.0766 10.5695 84.3026 10.7195 83.6426 11.0195C82.9826 11.3075 82.4726 11.7095 82.1126 12.2255C81.7646 12.7295 81.5846 13.3055 81.5726 13.9535C81.5726 14.5655 81.7466 15.1175 82.0946 15.6095C82.4546 16.1015 82.8626 16.5095 83.3186 16.8335C83.7866 17.1575 84.4286 17.5655 85.2446 18.0575C85.4846 18.2015 85.6646 18.3035 85.7846 18.3635C86.3366 18.6875 86.7326 18.9455 86.9726 19.1375C87.2246 19.3295 87.3506 19.5395 87.3506 19.7675C87.3506 20.1155 87.1886 20.3975 86.8646 20.6135C86.5406 20.8175 86.0786 20.9195 85.4786 20.9195C85.0346 20.9195 84.5246 20.8355 83.9486 20.6675C83.3846 20.4875 82.9106 20.2955 82.5266 20.0915L81.7166 22.2875ZM103.025 18.2915V20.8295C102.473 20.9255 101.987 20.9735 101.567 20.9735C100.943 20.9735 100.373 20.8235 99.8568 20.5235C99.3408 20.2115 98.9268 19.7555 98.6148 19.1555C98.3028 18.5555 98.1468 17.8295 98.1468 16.9775C98.1468 16.1135 98.3148 15.3755 98.6508 14.7635C98.9988 14.1395 99.4488 13.6775 100.001 13.3775C100.565 13.0655 101.159 12.9095 101.783 12.9095C102.239 12.9095 102.659 12.9515 103.043 13.0355C103.427 13.1075 103.931 13.2395 104.555 13.4315L105.401 11.4875C104.933 11.1995 104.345 10.9775 103.637 10.8215C102.929 10.6655 102.299 10.5875 101.747 10.5875C100.535 10.5875 99.4308 10.8575 98.4348 11.3975C97.4388 11.9255 96.6528 12.6755 96.0768 13.6475C95.5128 14.6195 95.2308 15.7355 95.2308 16.9955C95.2308 18.2435 95.4888 19.3415 96.0048 20.2895C96.5208 21.2375 97.2528 21.9755 98.2008 22.5035C99.1608 23.0315 100.277 23.2955 101.549 23.2955C102.257 23.2955 102.983 23.2175 103.727 23.0615C104.483 22.8935 105.095 22.6715 105.563 22.3955V16.1855H100.937L100.703 18.2915H103.025ZM116.587 23.0615L116.245 20.8655H110.611V18.0035H114.841L114.499 15.7895H110.611V13.0355H115.867L115.525 10.8215H107.803V23.0615H116.587ZM127.312 10.8215H117.124V13.0355H120.778V23.0615H123.604V13.0355H127.654L127.312 10.8215ZM132.553 22.2875C132.985 22.5515 133.585 22.7855 134.353 22.9895C135.133 23.1935 135.805 23.2955 136.369 23.2955C137.341 23.2955 138.181 23.1455 138.889 22.8455C139.609 22.5455 140.155 22.1315 140.527 21.6035C140.911 21.0755 141.103 20.4755 141.103 19.8035C141.103 19.1795 140.929 18.6275 140.581 18.1475C140.233 17.6555 139.831 17.2535 139.375 16.9415C138.919 16.6175 138.259 16.2035 137.395 15.6995C137.191 15.5675 136.993 15.4595 136.801 15.3755C136.285 15.0995 135.907 14.8655 135.667 14.6735C135.439 14.4695 135.325 14.2355 135.325 13.9715C135.325 13.6475 135.463 13.3955 135.739 13.2155C136.027 13.0235 136.393 12.9275 136.837 12.9275C137.269 12.9275 137.671 12.9755 138.043 13.0715C138.415 13.1675 138.889 13.3355 139.465 13.5755L140.329 11.5235C139.849 11.2355 139.291 11.0075 138.655 10.8395C138.019 10.6595 137.401 10.5695 136.801 10.5695C135.913 10.5695 135.139 10.7195 134.479 11.0195C133.819 11.3075 133.309 11.7095 132.949 12.2255C132.601 12.7295 132.421 13.3055 132.409 13.9535C132.409 14.5655 132.583 15.1175 132.931 15.6095C133.291 16.1015 133.699 16.5095 134.155 16.8335C134.623 17.1575 135.265 17.5655 136.081 18.0575C136.321 18.2015 136.501 18.3035 136.621 18.3635C137.173 18.6875 137.569 18.9455 137.809 19.1375C138.061 19.3295 138.187 19.5395 138.187 19.7675C138.187 20.1155 138.025 20.3975 137.701 20.6135C137.377 20.8175 136.915 20.9195 136.315 20.9195C135.871 20.9195 135.361 20.8355 134.785 20.6675C134.221 20.4875 133.747 20.2955 133.363 20.0915L132.553 22.2875ZM151.868 10.8215H141.68V13.0355H145.334V23.0615H148.16V13.0355H152.21L151.868 10.8215ZM157.259 10.8215L152.579 23.0615H155.387L156.341 20.4155H160.787L161.777 23.2415L164.549 22.9175L159.905 10.8215H157.259ZM159.959 18.1835H157.133L158.519 14.3855L159.959 18.1835ZM166.197 23.0615H169.005V18.8135H171.201L173.487 23.0615H176.637L173.775 18.0215C174.351 17.6975 174.807 17.2595 175.143 16.7075C175.479 16.1555 175.647 15.5195 175.647 14.7995C175.647 13.4795 175.185 12.4895 174.261 11.8295C173.337 11.1575 172.155 10.8215 170.715 10.8215H166.197V23.0615ZM170.625 13.0895C171.297 13.0895 171.813 13.2335 172.173 13.5215C172.533 13.8095 172.713 14.2535 172.713 14.8535C172.713 15.3935 172.521 15.8195 172.137 16.1315C171.765 16.4315 171.273 16.5815 170.661 16.5815H169.005V13.0895H170.625ZM187.183 10.8215H176.995V13.0355H180.649V23.0615H183.475V13.0355H187.525L187.183 10.8215ZM197.973 23.0615L197.631 20.8655H191.997V18.0035H196.227L195.885 15.7895H191.997V13.0355H197.253L196.911 10.8215H189.189V23.0615H197.973ZM204.883 23.0615C206.047 23.0615 207.061 22.8095 207.925 22.3055C208.789 21.8015 209.455 21.0875 209.923 20.1635C210.391 19.2275 210.625 18.1295 210.625 16.8695C210.625 15.6815 210.409 14.6375 209.977 13.7375C209.545 12.8255 208.897 12.1115 208.033 11.5955C207.181 11.0795 206.143 10.8215 204.919 10.8215H199.807V23.0615H204.883ZM204.883 13.1075C205.807 13.1075 206.509 13.4435 206.989 14.1155C207.469 14.7875 207.709 15.7055 207.709 16.8695C207.709 18.1895 207.445 19.1735 206.917 19.8215C206.389 20.4695 205.669 20.7935 204.757 20.7935H202.615V13.1075H204.883Z" fill="#17A3E0"/>
<path d="M23.8585 27.813H13.0688V24.4525H19.8627V16.6968H29.0883V11.1156H19.9943V7.75586H33.085V20.057H23.8594L23.8585 27.813Z" fill="#0353B4"/>
<path d="M13.1919 20.0556H0V7.75449H9.22562V0H20.3643V3.35819H13.2214V11.1142H3.9958V16.6951H13.1919V20.0556Z" fill="#18A4E1"/>
</svg>
