<svg width="512" height="513" viewBox="0 0 512 513" fill="none" xmlns="http://www.w3.org/2000/svg">
<path d="M451.283 120C451.283 120 444.653 158 475.633 176.95C475.633 177 485.793 144.26 451.283 120Z" fill="#FBB03B"/>
<path d="M497.794 171.32C497.794 171.32 479.524 185.07 483.074 213.2C483.074 213.2 473.894 185.78 450.314 180.2C450.314 180.2 439.094 204.48 477.134 233.98C479.159 235.554 480.479 237.866 480.804 240.41L481.724 247.69C481.819 248.436 482.206 249.114 482.8 249.576C483.395 250.037 484.148 250.243 484.894 250.15C485.639 250.053 486.316 249.665 486.777 249.071C487.237 248.478 487.445 247.726 487.354 246.98L486.484 240.14C486.315 238.831 486.419 237.502 486.789 236.235C487.159 234.968 487.787 233.792 488.634 232.78C495.254 224.89 510.834 201.83 497.794 171.32Z" fill="#FBB03B"/>
<path d="M469.255 324.29C469.955 324.837 470.814 325.141 471.702 325.155C472.59 325.17 473.458 324.894 474.175 324.37C484.235 317.07 520.295 287.6 510.175 246.93C510.175 246.93 483.465 261.75 481.395 290.59C481.395 290.59 479.585 253.66 455.295 242.44C455.295 242.44 447.215 283.17 470.145 311.28C470.867 312.18 471.213 313.324 471.113 314.473C471.012 315.623 470.472 316.689 469.605 317.45L469.045 317.94C468.588 318.341 468.226 318.838 467.985 319.396C467.743 319.953 467.628 320.557 467.649 321.165C467.669 321.772 467.823 322.367 468.101 322.908C468.379 323.448 468.773 323.92 469.255 324.29Z" fill="#FBB03B"/>
<path d="M433.183 389.79H433.103C432.512 390.021 431.974 390.371 431.525 390.819C431.075 391.267 430.722 391.803 430.488 392.393C430.255 392.983 430.145 393.615 430.167 394.249C430.188 394.884 430.34 395.507 430.613 396.08C431.105 397.099 431.954 397.902 433 398.336C434.046 398.769 435.214 398.803 436.283 398.43C449.833 393.72 493.873 374.91 497.673 328.53C497.673 328.53 469.533 332.09 456.213 362.36C456.213 362.36 461.773 315.92 445.923 303.63C445.923 303.63 420.223 330.71 437.183 381.32C437.734 382.975 437.626 384.779 436.881 386.357C436.136 387.934 434.811 389.164 433.183 389.79Z" fill="#FBB03B"/>
<path d="M351.472 447.63L347.652 453.3C347.652 453.3 429.282 465.85 459.802 413.39C459.802 413.39 427.072 403.24 398.262 424.03C398.262 424.03 425.652 392.03 419.262 364.2C419.262 364.2 376.842 385.49 370.042 438.65C369.83 440.433 369.025 442.093 367.755 443.363C366.485 444.632 364.825 445.438 363.042 445.65L351.472 447.63Z" fill="#FBB03B"/>
<path d="M258.414 483.14C260.919 480.674 264.09 478.996 267.538 478.312C270.985 477.628 274.558 477.968 277.814 479.29C302.144 489.23 337.414 497.02 366.814 477.4C366.814 477.4 341.884 453.89 306.864 459.9C306.864 459.9 345.554 443.16 352.044 415.4C352.044 415.4 309.414 415.91 279.714 451.64C274.124 458.36 267.844 465.22 260.904 470.55" fill="#FBB03B"/>
<path d="M289.354 455.8C265.427 464.836 244.622 480.595 229.444 501.18L228.104 503C227.49 503.828 227.084 504.79 226.919 505.807C226.754 506.824 226.835 507.866 227.155 508.845C227.476 509.824 228.026 510.712 228.759 511.435C229.493 512.158 230.39 512.695 231.374 513C245.626 491.241 266.137 474.31 290.204 464.44" fill="#FBB03B"/>
<path d="M60.6634 120C60.6634 120 67.2934 158 36.3134 177C36.3134 177 26.1534 144.26 60.6634 120Z" fill="#FBB03B"/>
<path d="M14.1527 171.32C14.1527 171.32 32.4227 185.07 28.8727 213.2C28.8727 213.2 38.0527 185.78 61.6327 180.2C61.6327 180.2 72.8527 204.48 34.8127 233.98C32.7873 235.554 31.4678 237.866 31.1427 240.41L30.2227 247.69C30.1278 248.436 29.7408 249.114 29.1465 249.576C28.5522 250.037 27.7991 250.243 27.0527 250.15C26.3114 250.053 25.6381 249.668 25.178 249.079C24.7178 248.489 24.5076 247.743 24.5927 247L25.4627 240.16C25.6317 238.851 25.5279 237.522 25.1579 236.255C24.7879 234.988 24.1596 233.812 23.3127 232.8C16.6927 224.89 1.11267 201.83 14.1527 171.32Z" fill="#FBB03B"/>
<path d="M42.6931 324.29C41.9934 324.837 41.1344 325.141 40.2465 325.155C39.3585 325.17 38.4901 324.894 37.7731 324.37C27.7131 317.07 -8.34693 287.6 1.77307 246.93C1.77307 246.93 28.4831 261.75 30.5531 290.59C30.5531 290.59 32.3631 253.66 56.6531 242.44C56.6531 242.44 64.7331 283.17 41.8031 311.28C41.0813 312.18 40.7345 313.324 40.8351 314.473C40.9357 315.623 41.4759 316.689 42.3431 317.45L42.9031 317.94C43.3597 318.341 43.7218 318.838 43.9633 319.396C44.2047 319.953 44.3196 320.557 44.2995 321.165C44.2794 321.772 44.1249 322.367 43.8471 322.908C43.5694 323.448 43.1752 323.92 42.6931 324.29Z" fill="#FBB03B"/>
<path d="M78.7634 389.79H78.8434C79.4347 390.021 79.972 390.371 80.4218 390.819C80.8717 391.267 81.2244 391.803 81.4581 392.393C81.6917 392.983 81.8012 393.615 81.7798 394.249C81.7583 394.884 81.6064 395.507 81.3334 396.08C80.8417 397.099 79.992 397.902 78.9464 398.336C77.9007 398.769 76.7322 398.803 75.6634 398.43C62.1134 393.72 18.0734 374.91 14.2734 328.53C14.2734 328.53 42.4134 332.09 55.7334 362.36C55.7334 362.36 50.1734 315.92 66.0234 303.63C66.0234 303.63 91.7234 330.71 74.7634 381.32C74.2124 382.975 74.3206 384.779 75.0656 386.357C75.8106 387.934 77.135 389.164 78.7634 389.79Z" fill="#FBB03B"/>
<path d="M160.475 447.63L164.295 453.3C164.295 453.3 82.6645 465.85 52.1445 413.39C52.1445 413.39 84.8745 403.24 113.685 424.03C113.685 424.03 86.2945 392.03 92.6845 364.2C92.6845 364.2 135.105 385.49 141.905 438.65C142.116 440.433 142.922 442.093 144.192 443.363C145.461 444.632 147.121 445.438 148.905 445.65L160.475 447.63Z" fill="#FBB03B"/>
<path d="M253.533 483.14C251.028 480.674 247.856 478.996 244.409 478.312C240.962 477.628 237.389 477.968 234.133 479.29C209.803 489.23 174.533 497.02 145.133 477.4C145.133 477.4 170.063 453.89 205.133 459.9C205.133 459.9 166.443 443.16 159.953 415.4C159.953 415.4 202.583 415.91 232.283 451.64C237.873 458.36 244.153 465.22 251.093 470.55" fill="#FBB03B"/>
<path d="M222.592 455.8C246.519 464.836 267.323 480.595 282.502 501.18L283.842 502.99C284.455 503.818 284.862 504.78 285.027 505.797C285.192 506.814 285.111 507.856 284.79 508.835C284.47 509.814 283.92 510.702 283.186 511.425C282.452 512.148 281.556 512.685 280.572 512.99C266.32 491.231 245.809 474.3 221.742 464.43" fill="#FBB03B"/>
<path d="M228.973 64.12V330.67C228.973 351.84 211.973 369 191.133 369C170.233 369 153.293 351.84 153.293 330.67V64.12" stroke="#FBB03B" stroke-width="18" stroke-miterlimit="10"/>
<path d="M166.273 9H215.123C222.628 9 229.826 11.9816 235.134 17.2889C240.441 22.5962 243.423 29.7944 243.423 37.3V64.12H137.973V37.3C137.973 29.7944 140.954 22.5962 146.262 17.2889C151.569 11.9816 158.767 9 166.273 9V9Z" stroke="#FBB03B" stroke-width="18" stroke-miterlimit="10"/>
<path d="M198.344 108.9H228.964" stroke="#FBB03B" stroke-width="18" stroke-miterlimit="10"/>
<path d="M198.344 153.69H228.964" stroke="#FBB03B" stroke-width="18" stroke-miterlimit="10"/>
<path d="M198.344 198.47H228.964" stroke="#FBB03B" stroke-width="18" stroke-miterlimit="10"/>
<path d="M198.344 243.26H228.964" stroke="#FBB03B" stroke-width="18" stroke-miterlimit="10"/>
<path d="M198.344 288.04H228.964" stroke="#FBB03B" stroke-width="18" stroke-miterlimit="10"/>
<path d="M387.972 228.21C387.972 258.21 363.972 282.46 334.402 282.46C304.832 282.46 280.832 258.17 280.832 228.21C280.832 205.21 312.412 144.91 327.082 118.21C327.795 116.89 328.852 115.787 330.141 115.019C331.429 114.25 332.902 113.845 334.402 113.845C335.902 113.845 337.375 114.25 338.663 115.019C339.952 115.787 341.009 116.89 341.722 118.21C356.392 144.91 387.972 205.2 387.972 228.21Z" stroke="#FBB03B" stroke-width="18" stroke-miterlimit="10"/>
<path d="M350.563 221.32C350.598 227.22 348.288 232.893 344.142 237.091C339.997 241.29 334.353 243.67 328.453 243.71" stroke="#FBB03B" stroke-width="18" stroke-miterlimit="10"/>
</svg>
