<svg width="512" height="447" viewBox="0 0 512 447" fill="none" xmlns="http://www.w3.org/2000/svg">
<path d="M451.283 53.4601C451.283 53.4601 444.653 91.4601 475.633 110.46C475.633 110.41 485.793 77.6801 451.283 53.4601Z" fill="#FBB03B"/>
<path d="M497.794 104.75C497.794 104.75 479.524 118.49 483.074 146.63C483.074 146.63 473.894 119.2 450.314 113.63C450.314 113.63 439.094 137.92 477.134 167.41C479.162 168.986 480.482 171.302 480.804 173.85L481.724 181.12C481.819 181.866 482.206 182.544 482.8 183.006C483.395 183.467 484.148 183.673 484.894 183.58C485.639 183.483 486.316 183.095 486.777 182.501C487.237 181.908 487.445 181.156 487.354 180.41L486.484 173.57C486.316 172.261 486.421 170.932 486.791 169.666C487.161 168.399 487.788 167.223 488.634 166.21C495.254 158.31 510.834 135.25 497.794 104.75Z" fill="#FBB03B"/>
<path d="M469.255 257.71C469.955 258.255 470.813 258.559 471.7 258.575C472.587 258.591 473.456 258.319 474.175 257.8C484.235 250.49 520.295 221.02 510.175 180.36C510.175 180.36 483.465 195.17 481.395 224.02C481.395 224.02 479.585 187.08 455.295 175.86C455.295 175.86 447.215 216.59 470.145 244.7C470.867 245.602 471.214 246.747 471.114 247.898C471.013 249.049 470.473 250.117 469.605 250.88L469.045 251.36C468.588 251.761 468.226 252.258 467.985 252.816C467.743 253.373 467.628 253.977 467.649 254.585C467.669 255.192 467.823 255.787 468.101 256.328C468.379 256.868 468.773 257.34 469.255 257.71Z" fill="#FBB03B"/>
<path d="M433.182 323.21H433.102C432.511 323.439 431.972 323.787 431.522 324.234C431.071 324.681 430.718 325.216 430.484 325.805C430.25 326.395 430.141 327.027 430.163 327.661C430.185 328.295 430.338 328.918 430.612 329.49C431.104 330.51 431.954 331.312 432.999 331.746C434.045 332.179 435.214 332.213 436.282 331.84C449.832 327.13 493.872 308.33 497.672 261.94C497.672 261.94 469.532 265.5 456.212 295.77C456.212 295.77 461.772 249.33 445.922 237.04C445.922 237.04 420.222 264.12 437.182 314.74C437.736 316.395 437.629 318.2 436.884 319.778C436.138 321.357 434.812 322.586 433.182 323.21Z" fill="#FBB03B"/>
<path d="M351.472 381.05L347.652 386.72C347.652 386.72 429.282 399.27 459.802 346.81C459.802 346.81 427.072 336.66 398.262 357.45C398.262 357.45 425.652 325.4 419.262 297.62C419.262 297.62 376.842 318.91 370.042 372.07C369.83 373.853 369.025 375.513 367.755 376.783C366.485 378.052 364.825 378.858 363.042 379.07L351.472 381.05Z" fill="#FBB03B"/>
<path d="M258.414 416.56C260.919 414.094 264.09 412.416 267.538 411.732C270.985 411.048 274.558 411.388 277.814 412.71C302.144 422.65 337.414 430.44 366.814 410.82C366.814 410.82 341.884 387.31 306.864 393.32C306.864 393.32 345.554 376.58 352.044 348.83C352.044 348.83 309.414 349.34 279.714 385.06C274.124 391.79 267.844 398.65 260.904 403.97" fill="#FBB03B"/>
<path d="M289.354 389.22C265.429 398.26 244.625 414.018 229.444 434.6L228.104 436.41C227.49 437.238 227.084 438.2 226.919 439.217C226.754 440.234 226.835 441.276 227.155 442.255C227.476 443.234 228.026 444.122 228.759 444.845C229.493 445.568 230.39 446.105 231.374 446.41C245.629 424.653 266.14 407.724 290.204 397.85" fill="#FBB03B"/>
<path d="M60.6634 53.4601C60.6634 53.4601 67.2934 91.4601 36.3134 110.46C36.3134 110.41 26.1534 77.6801 60.6634 53.4601Z" fill="#FBB03B"/>
<path d="M14.1527 104.75C14.1527 104.75 32.4227 118.49 28.8727 146.63C28.8727 146.63 38.0527 119.2 61.6327 113.63C61.6327 113.63 72.8527 137.92 34.8127 167.41C32.785 168.986 31.4652 171.302 31.1427 173.85L30.2227 181.12C30.1278 181.866 29.7408 182.544 29.1465 183.006C28.5522 183.467 27.7991 183.673 27.0527 183.58C26.3075 183.483 25.631 183.095 25.1703 182.501C24.7096 181.908 24.502 181.156 24.5927 180.41L25.4627 173.57C25.6305 172.261 25.5261 170.932 25.1561 169.666C24.7862 168.399 24.1586 167.223 23.3127 166.21C16.6927 158.31 1.11267 135.25 14.1527 104.75Z" fill="#FBB03B"/>
<path d="M42.6931 257.71C41.9932 258.255 41.1352 258.559 40.2481 258.575C39.3609 258.591 38.4925 258.319 37.7731 257.8C27.7131 250.49 -8.34693 221.02 1.77307 180.36C1.77307 180.36 28.4831 195.17 30.5531 224.02C30.5531 224.02 32.3631 187.08 56.6531 175.86C56.6531 175.86 64.7331 216.59 41.8031 244.7C41.0806 245.602 40.7336 246.747 40.8342 247.898C40.9348 249.049 41.4752 250.117 42.3431 250.88L42.9031 251.36C43.3597 251.761 43.7218 252.258 43.9633 252.816C44.2047 253.373 44.3196 253.977 44.2995 254.585C44.2794 255.192 44.1249 255.787 43.8471 256.328C43.5694 256.868 43.1752 257.34 42.6931 257.71Z" fill="#FBB03B"/>
<path d="M78.7634 323.21H78.8434C79.4353 323.439 79.9734 323.787 80.424 324.234C80.8747 324.681 81.228 325.216 81.4619 325.806C81.6957 326.395 81.805 327.027 81.7829 327.661C81.7608 328.295 81.6078 328.918 81.3334 329.49C80.8417 330.51 79.992 331.312 78.9464 331.746C77.9007 332.179 76.7322 332.213 75.6634 331.84C62.1134 327.17 18.0734 308.37 14.2734 262C14.2734 262 42.4134 265.56 55.7334 295.83C55.7334 295.83 50.1734 249.39 66.0234 237.1C66.0234 237.1 91.7234 264.18 74.7634 314.8C74.2276 316.447 74.3436 318.238 75.0877 319.802C75.8318 321.367 77.1473 322.586 78.7634 323.21Z" fill="#FBB03B"/>
<path d="M160.475 381.05L164.295 386.72C164.295 386.72 82.6645 399.27 52.1445 346.81C52.1445 346.81 84.8745 336.66 113.685 357.45C113.685 357.45 86.2945 325.4 92.6845 297.62C92.6845 297.62 135.105 318.91 141.905 372.07C142.116 373.853 142.922 375.513 144.192 376.783C145.461 378.052 147.121 378.858 148.905 379.07L160.475 381.05Z" fill="#FBB03B"/>
<path d="M253.533 416.56C251.028 414.094 247.856 412.416 244.409 411.732C240.962 411.048 237.389 411.388 234.133 412.71C209.803 422.65 174.533 430.44 145.133 410.82C145.133 410.82 170.063 387.31 205.133 393.32C205.133 393.32 166.443 376.58 159.953 348.83C159.953 348.83 202.583 349.34 232.283 385.06C237.873 391.79 244.153 398.65 251.093 403.97" fill="#FBB03B"/>
<path d="M222.592 389.22C246.517 398.26 267.321 414.018 282.502 434.6L283.842 436.41C284.455 437.238 284.862 438.2 285.027 439.217C285.192 440.234 285.111 441.276 284.79 442.255C284.47 443.234 283.92 444.122 283.186 444.845C282.452 445.568 281.556 446.105 280.572 446.41C266.316 424.653 245.806 407.724 221.742 397.85" fill="#FBB03B"/>
<path d="M372.973 140.49V221.49C372.973 226.755 371.936 231.968 369.921 236.832C367.906 241.696 364.953 246.115 361.23 249.838C357.508 253.561 353.088 256.514 348.224 258.528C343.36 260.543 338.147 261.58 332.883 261.58H182.152C171.52 261.58 161.323 257.356 153.805 249.838C146.286 242.32 142.063 232.123 142.062 221.49V140.49H372.973Z" stroke="#FBB03B" stroke-width="18" stroke-miterlimit="10"/>
<path d="M169.531 104.41V140.49" stroke="#FBB03B" stroke-width="18" stroke-miterlimit="10"/>
<path d="M349.934 104.41V140.49" stroke="#FBB03B" stroke-width="18" stroke-miterlimit="10"/>
<path d="M169.324 82C169.324 62.6392 177.015 44.0714 190.705 30.3812C204.396 16.6911 222.963 9.00003 242.324 9.00003H254.754C251.98 8.99552 249.232 9.54484 246.673 10.6158C244.113 11.6867 241.793 13.2578 239.848 15.2369C237.904 17.2159 236.374 19.5632 235.348 22.1412C234.322 24.7192 233.821 27.476 233.874 30.25V30.25C233.982 35.7067 236.224 40.9037 240.121 44.7254C244.017 48.547 249.256 50.6885 254.714 50.69H295.974C310.222 50.69 323.886 56.3498 333.96 66.4243C344.034 76.4987 349.694 90.1626 349.694 104.41" stroke="#FBB03B" stroke-width="18" stroke-miterlimit="10"/>
<path d="M152.492 104.41H368.162" stroke="#FBB03B" stroke-width="18" stroke-miterlimit="10"/>
<path d="M186.965 217.46H328.075" stroke="#FBB03B" stroke-width="18" stroke-miterlimit="10"/>
</svg>
