<svg width="512" height="509" viewBox="0 0 512 509" fill="none" xmlns="http://www.w3.org/2000/svg">
<path d="M451.283 115.51C451.283 115.51 444.653 153.51 475.633 172.51C475.633 172.46 485.793 139.73 451.283 115.51Z" fill="#FBB03B"/>
<path d="M497.794 166.8C497.794 166.8 479.524 180.54 483.074 208.68C483.074 208.68 473.894 181.25 450.314 175.68C450.314 175.68 439.094 199.97 477.134 229.46C479.162 231.036 480.482 233.352 480.804 235.9L481.724 243.17C481.819 243.916 482.206 244.594 482.8 245.056C483.395 245.517 484.148 245.723 484.894 245.63C485.639 245.533 486.316 245.145 486.777 244.551C487.237 243.958 487.445 243.206 487.354 242.46L486.484 235.62C486.316 234.311 486.421 232.982 486.791 231.716C487.161 230.449 487.788 229.273 488.634 228.26C495.254 220.36 510.834 197.3 497.794 166.8Z" fill="#FBB03B"/>
<path d="M469.255 319.76C469.955 320.305 470.813 320.609 471.7 320.625C472.587 320.641 473.456 320.369 474.175 319.85C484.235 312.54 520.295 283.07 510.175 242.41C510.175 242.41 483.465 257.22 481.395 286.07C481.395 286.07 479.585 249.13 455.295 237.91C455.295 237.91 447.215 278.64 470.145 306.75C470.867 307.652 471.214 308.797 471.114 309.948C471.013 311.099 470.473 312.167 469.605 312.93L469.045 313.41C468.588 313.811 468.226 314.308 467.985 314.866C467.743 315.423 467.628 316.027 467.649 316.635C467.669 317.242 467.823 317.837 468.101 318.378C468.379 318.918 468.773 319.39 469.255 319.76Z" fill="#FBB03B"/>
<path d="M433.182 385.26H433.102C432.511 385.489 431.972 385.837 431.522 386.284C431.071 386.731 430.718 387.266 430.484 387.856C430.25 388.445 430.141 389.077 430.163 389.711C430.185 390.345 430.338 390.968 430.612 391.54C431.104 392.56 431.954 393.362 432.999 393.796C434.045 394.229 435.214 394.263 436.282 393.89C449.832 389.18 493.872 370.38 497.672 323.99C497.672 323.99 469.532 327.55 456.212 357.82C456.212 357.82 461.772 311.38 445.922 299.09C445.922 299.09 420.222 326.17 437.182 376.79C437.736 378.445 437.629 380.25 436.884 381.829C436.138 383.407 434.812 384.636 433.182 385.26Z" fill="#FBB03B"/>
<path d="M351.472 443.1L347.652 448.77C347.652 448.77 429.282 461.32 459.802 408.86C459.802 408.86 427.072 398.71 398.262 419.5C398.262 419.5 425.652 387.45 419.262 359.67C419.262 359.67 376.842 380.96 370.042 434.12C369.83 435.903 369.025 437.563 367.755 438.833C366.485 440.103 364.825 440.908 363.042 441.12L351.472 443.1Z" fill="#FBB03B"/>
<path d="M258.414 478.61C260.919 476.144 264.09 474.466 267.538 473.782C270.985 473.098 274.558 473.438 277.814 474.76C302.144 484.7 337.414 492.49 366.814 472.87C366.814 472.87 341.884 449.36 306.864 455.37C306.864 455.37 345.554 438.63 352.044 410.88C352.044 410.88 309.414 411.39 279.714 447.11C274.124 453.84 267.844 460.7 260.904 466.02" fill="#FBB03B"/>
<path d="M289.354 451.27C265.429 460.31 244.625 476.068 229.444 496.65L228.104 498.46C227.49 499.288 227.084 500.25 226.919 501.267C226.754 502.284 226.835 503.326 227.155 504.305C227.476 505.284 228.026 506.172 228.759 506.895C229.493 507.618 230.39 508.155 231.374 508.46C245.629 486.704 266.14 469.774 290.204 459.9" fill="#FBB03B"/>
<path d="M60.6634 115.51C60.6634 115.51 67.2934 153.51 36.3134 172.51C36.3134 172.46 26.1534 139.73 60.6634 115.51Z" fill="#FBB03B"/>
<path d="M14.1527 166.8C14.1527 166.8 32.4227 180.54 28.8727 208.68C28.8727 208.68 38.0527 181.25 61.6327 175.68C61.6327 175.68 72.8527 199.97 34.8127 229.46C32.785 231.036 31.4652 233.352 31.1427 235.9L30.2227 243.17C30.1278 243.916 29.7408 244.594 29.1465 245.056C28.5522 245.517 27.7991 245.723 27.0527 245.63C26.3075 245.533 25.631 245.145 25.1703 244.551C24.7096 243.958 24.502 243.206 24.5927 242.46L25.4627 235.62C25.6305 234.311 25.5261 232.982 25.1561 231.716C24.7862 230.449 24.1586 229.273 23.3127 228.26C16.6927 220.36 1.11267 197.3 14.1527 166.8Z" fill="#FBB03B"/>
<path d="M42.6931 319.76C41.9932 320.305 41.1352 320.609 40.2481 320.625C39.3609 320.641 38.4925 320.369 37.7731 319.85C27.7131 312.54 -8.34693 283.07 1.77307 242.41C1.77307 242.41 28.4831 257.22 30.5531 286.07C30.5531 286.07 32.3631 249.13 56.6531 237.91C56.6531 237.91 64.7331 278.64 41.8031 306.75C41.0806 307.652 40.7336 308.797 40.8342 309.948C40.9348 311.099 41.4752 312.167 42.3431 312.93L42.9031 313.41C43.3597 313.811 43.7218 314.308 43.9633 314.866C44.2047 315.423 44.3196 316.027 44.2995 316.635C44.2794 317.242 44.1249 317.837 43.8471 318.378C43.5694 318.918 43.1752 319.39 42.6931 319.76Z" fill="#FBB03B"/>
<path d="M78.7634 385.26H78.8434C79.4353 385.489 79.9734 385.837 80.424 386.284C80.8747 386.731 81.228 387.266 81.4619 387.856C81.6957 388.445 81.805 389.077 81.7829 389.711C81.7608 390.345 81.6078 390.968 81.3334 391.54C80.8417 392.56 79.992 393.362 78.9464 393.796C77.9007 394.229 76.7322 394.263 75.6634 393.89C62.1134 389.22 18.0734 370.42 14.2734 324C14.2734 324 42.4134 327.56 55.7334 357.83C55.7334 357.83 50.1734 311.39 66.0234 299.1C66.0234 299.1 91.7234 326.18 74.7634 376.8C74.2128 378.454 74.3213 380.257 75.0664 381.832C75.8115 383.408 77.1358 384.636 78.7634 385.26Z" fill="#FBB03B"/>
<path d="M160.475 443.1L164.295 448.77C164.295 448.77 82.6645 461.32 52.1445 408.86C52.1445 408.86 84.8745 398.71 113.685 419.5C113.685 419.5 86.2945 387.45 92.6845 359.67C92.6845 359.67 135.105 380.96 141.905 434.12C142.116 435.903 142.922 437.563 144.192 438.833C145.461 440.103 147.121 440.908 148.905 441.12L160.475 443.1Z" fill="#FBB03B"/>
<path d="M253.533 478.61C251.028 476.144 247.856 474.466 244.409 473.782C240.962 473.098 237.389 473.438 234.133 474.76C209.803 484.7 174.533 492.49 145.133 472.87C145.133 472.87 170.063 449.36 205.133 455.37C205.133 455.37 166.443 438.63 159.953 410.88C159.953 410.88 202.583 411.39 232.283 447.11C237.873 453.84 244.153 460.7 251.093 466.02" fill="#FBB03B"/>
<path d="M222.592 451.27C246.517 460.31 267.321 476.068 282.502 496.65L283.842 498.46C284.455 499.288 284.862 500.25 285.027 501.267C285.192 502.284 285.111 503.326 284.79 504.305C284.47 505.284 283.92 506.172 283.186 506.895C282.452 507.618 281.556 508.155 280.572 508.46C266.316 486.704 245.806 469.774 221.742 459.9" fill="#FBB03B"/>
<path d="M331.273 213.47V301.32C331.273 306.664 329.15 311.789 325.371 315.568C321.592 319.347 316.467 321.47 311.123 321.47H170.123C167.477 321.47 164.856 320.949 162.412 319.936C159.967 318.924 157.746 317.439 155.874 315.568C154.003 313.697 152.519 311.476 151.506 309.031C150.494 306.586 149.973 303.966 149.973 301.32V29.15C149.973 23.8111 152.091 18.6904 155.864 14.9124C159.636 11.1344 164.754 9.00797 170.093 9.00002H311.093C313.741 8.99608 316.365 9.51436 318.813 10.5252C321.261 11.5361 323.486 13.0197 325.36 14.8912C327.235 16.7627 328.721 18.9853 329.736 21.432C330.75 23.8787 331.273 26.5014 331.273 29.15V47" stroke="#FBB03B" stroke-width="18" stroke-miterlimit="10"/>
<path d="M240.614 291.52C246.424 291.52 251.134 286.81 251.134 281C251.134 275.19 246.424 270.48 240.614 270.48C234.804 270.48 230.094 275.19 230.094 281C230.094 286.81 234.804 291.52 240.614 291.52Z" fill="#FBB03B"/>
<path d="M337.274 82.65L331.534 88.39L325.794 82.65C319.336 76.196 310.58 72.5706 301.449 72.5706C292.319 72.5706 283.562 76.196 277.104 82.65V82.65C273.906 85.8473 271.369 89.6434 269.638 93.8214C267.907 97.9995 267.016 102.478 267.016 107C267.016 111.522 267.907 116.001 269.638 120.179C271.369 124.357 273.906 128.153 277.104 131.35L331.534 185.78L385.974 131.35C392.429 124.89 396.055 116.132 396.055 107C396.055 97.8682 392.429 89.1099 385.974 82.65C379.514 76.1954 370.756 72.5697 361.624 72.5697C352.492 72.5697 343.734 76.1954 337.274 82.65V82.65Z" stroke="#FBB03B" stroke-width="18" stroke-miterlimit="10"/>
<path d="M194.473 166.13H208.523L220.233 140.95L246.003 196L258.303 168.47H275.283" stroke="#FBB03B" stroke-width="18" stroke-miterlimit="10"/>
</svg>
