<svg width="35" height="35" viewBox="0 0 35 35" fill="none" xmlns="http://www.w3.org/2000/svg">
<path d="M17.5 35C27.165 35 35 27.165 35 17.5C35 7.83502 27.165 0 17.5 0C7.83502 0 0 7.83502 0 17.5C0 27.165 7.83502 35 17.5 35Z" fill="#F7573D"/>
<path d="M21.7722 9.88909C22.4685 10.6505 22.8378 11.6549 22.8004 12.686C22.763 13.7171 22.3219 14.6922 21.5722 15.4011L21.5262 15.4501C21.3982 15.5841 21.6582 15.7281 21.8452 15.6271C22.2599 15.4038 22.6619 15.1668 23.0512 14.9161C23.3879 14.6988 23.7086 14.4751 24.0132 14.2451C24.1996 14.118 24.4243 14.0593 24.649 14.0789C24.8738 14.0986 25.0848 14.1955 25.2462 14.3531C27.2392 17.1141 28.8212 19.7851 28.8212 21.3081C28.8212 25.4851 23.4893 28.8581 16.9763 28.7501C10.7023 28.6501 5.74023 25.2761 5.74023 21.2271C5.74023 19.0001 7.08625 16.8601 9.49225 15.2631L11.5742 13.8811C15.0642 11.5641 17.0862 8.4981 17.2682 5.2811C17.2772 5.1171 17.6112 5.0631 17.7382 5.2041C18.4832 6.0291 20.0502 7.78909 21.7772 9.88709L21.7722 9.88909Z" fill="#FAB03B"/>
<path d="M18.1021 10.6753C18.8117 11.9949 19.1664 13.4763 19.1313 14.9742C19.0963 16.4722 18.6728 17.9353 17.9021 19.2203L17.8661 19.2793C17.8388 19.323 17.8281 19.375 17.8358 19.4259C17.8435 19.4768 17.8692 19.5233 17.9082 19.557C17.9472 19.5907 17.997 19.6093 18.0485 19.6095C18.1 19.6098 18.1498 19.5916 18.1891 19.5583C18.5984 19.2163 18.9955 18.8529 19.3801 18.4683C19.4855 18.3629 19.589 18.2566 19.691 18.1493C19.8509 17.9808 20.0498 17.8541 20.2701 17.7806C20.4905 17.7071 20.7256 17.6888 20.9546 17.7276C21.1836 17.7663 21.3996 17.8608 21.5835 18.0027C21.7674 18.1446 21.9135 18.3296 22.009 18.5413C22.1304 18.8079 22.2497 19.0746 22.3671 19.3413C22.7358 18.2219 22.8736 17.0394 22.7722 15.8653C22.6708 14.6912 22.3323 13.5498 21.7771 12.5103C20.0501 9.25828 18.483 6.52928 17.738 5.25028C17.7106 5.20282 17.6684 5.16562 17.6179 5.14431C17.5674 5.12301 17.5113 5.11876 17.4581 5.13222C17.405 5.14568 17.3577 5.17611 17.3234 5.21889C17.2891 5.26167 17.2696 5.31447 17.2681 5.36928C17.2302 6.40817 17.1122 7.44257 16.915 8.46328C17.297 9.16328 17.6981 9.90428 18.1071 10.6743L18.1021 10.6753Z" fill="#FF9C00"/>
<path d="M25.2415 6.43133C25.1893 6.31892 25.1097 6.22144 25.0099 6.14785C24.9102 6.07426 24.7936 6.02692 24.6708 6.01018C24.548 5.99345 24.4231 6.00786 24.3073 6.0521C24.1916 6.09634 24.0888 6.16898 24.0084 6.26333C23.7038 6.61933 23.3831 6.96599 23.0464 7.30332L22.8585 7.48933C24.2035 10.6763 25.1454 13.5563 25.1454 15.3773C25.1454 16.9185 24.8368 18.4441 24.2376 19.864C23.6385 21.2839 22.761 22.5695 21.657 23.6448C20.5529 24.7202 19.2447 25.5635 17.8094 26.125C16.3742 26.6865 14.8411 26.9549 13.3004 26.9143C12.3249 26.8897 11.3567 26.7398 10.4194 26.4683C12.3124 27.8927 14.6031 28.6902 16.9714 28.7493C18.5121 28.7899 20.0452 28.5215 21.4805 27.96C22.9157 27.3985 24.2239 26.5552 25.3279 25.4798C26.432 24.4045 27.3095 23.119 27.9086 21.699C28.5078 20.2791 28.8164 18.7535 28.8164 17.2123C28.8164 14.8523 27.2345 10.7113 25.2415 6.43133Z" fill="#FF9C00"/>
<path d="M12.4771 20.047C12.4771 20.7294 12.6226 21.4038 12.9039 22.0255C13.1852 22.6472 13.5958 23.2017 14.1083 23.6521C14.6209 24.1026 15.2235 24.4386 15.8762 24.6377C16.5288 24.8369 17.2164 24.8946 17.8931 24.807C21.9151 24.307 23.5321 19.255 20.5151 16.15C18.6775 14.6009 17.521 12.3927 17.2941 10C17.2904 9.95888 17.2741 9.91988 17.2473 9.8884C17.2206 9.85692 17.1847 9.83449 17.1447 9.82419C17.1047 9.81389 17.0625 9.81622 17.0239 9.83088C16.9853 9.84553 16.9522 9.87177 16.9291 9.90601C15.5111 12.156 12.4771 16.63 12.4771 20.047Z" fill="#F5F7F8"/>
<path d="M20.5142 16.151C18.677 14.6017 17.5208 12.3935 17.2941 10.001C17.2904 9.95986 17.2741 9.92086 17.2474 9.88938C17.2206 9.85789 17.1848 9.83547 17.1448 9.82517C17.1048 9.81487 17.0626 9.8172 17.024 9.83185C16.9854 9.8465 16.9522 9.87275 16.9291 9.90699C16.5571 10.497 16.0742 11.241 15.5632 12.079C16.1705 13.0747 16.9107 13.983 17.7632 14.779C20.7802 17.879 19.1632 22.935 15.1412 23.436C14.7187 23.4892 14.2911 23.4871 13.8691 23.43C14.3882 23.9542 15.0213 24.3516 15.7191 24.5911C16.4169 24.8306 17.1605 24.9059 17.8922 24.811C21.9142 24.311 23.5302 19.259 20.5142 16.154V16.151Z" fill="#FCF24D"/>
</svg>
