<svg width="244" height="35" viewBox="0 0 244 35" fill="none" xmlns="http://www.w3.org/2000/svg">
<path d="M57.646 24V11.76H54.838V16.782H50.284V11.652L47.476 11.76V24H50.284V19.014H54.838V24H57.646ZM69.4084 24L69.0664 21.804H63.4324V18.942H67.6624L67.3204 16.728H63.4324V13.974H68.6884L68.3464 11.76H60.6244V24H69.4084ZM74.6256 11.76L69.9456 24H72.7536L73.7076 21.354H78.1536L79.1436 24.18L81.9156 23.856L77.2716 11.76H74.6256ZM77.3256 19.122H74.4996L75.8856 15.324L77.3256 19.122ZM91.6819 21.804H86.3719V11.76H83.5639V24H92.0059L91.6819 21.804ZM96.4617 24V11.76H93.6537V24H96.4617ZM102.245 24V16.692L107.429 24H110.129V11.76H107.321V19.158L102.137 11.76H99.4369V24H102.245ZM119.989 19.23V21.768C119.437 21.864 118.951 21.912 118.531 21.912C117.907 21.912 117.337 21.762 116.821 21.462C116.305 21.15 115.891 20.694 115.579 20.094C115.267 19.494 115.111 18.768 115.111 17.916C115.111 17.052 115.279 16.314 115.615 15.702C115.963 15.078 116.413 14.616 116.965 14.316C117.529 14.004 118.123 13.848 118.747 13.848C119.203 13.848 119.623 13.89 120.007 13.974C120.391 14.046 120.895 14.178 121.519 14.37L122.365 12.426C121.897 12.138 121.309 11.916 120.601 11.76C119.893 11.604 119.263 11.526 118.711 11.526C117.499 11.526 116.395 11.796 115.399 12.336C114.403 12.864 113.617 13.614 113.041 14.586C112.477 15.558 112.195 16.674 112.195 17.934C112.195 19.182 112.453 20.28 112.969 21.228C113.485 22.176 114.217 22.914 115.165 23.442C116.125 23.97 117.241 24.234 118.513 24.234C119.221 24.234 119.947 24.156 120.691 24C121.447 23.832 122.059 23.61 122.527 23.334V17.124H117.901L117.667 19.23H119.989ZM128.001 23.226C128.433 23.49 129.033 23.724 129.801 23.928C130.581 24.132 131.253 24.234 131.817 24.234C132.789 24.234 133.629 24.084 134.337 23.784C135.057 23.484 135.603 23.07 135.975 22.542C136.359 22.014 136.551 21.414 136.551 20.742C136.551 20.118 136.377 19.566 136.029 19.086C135.681 18.594 135.279 18.192 134.823 17.88C134.367 17.556 133.707 17.142 132.843 16.638C132.639 16.506 132.441 16.398 132.249 16.314C131.733 16.038 131.355 15.804 131.115 15.612C130.887 15.408 130.773 15.174 130.773 14.91C130.773 14.586 130.911 14.334 131.187 14.154C131.475 13.962 131.841 13.866 132.285 13.866C132.717 13.866 133.119 13.914 133.491 14.01C133.863 14.106 134.337 14.274 134.913 14.514L135.777 12.462C135.297 12.174 134.739 11.946 134.103 11.778C133.467 11.598 132.849 11.508 132.249 11.508C131.361 11.508 130.587 11.658 129.927 11.958C129.267 12.246 128.757 12.648 128.397 13.164C128.049 13.668 127.869 14.244 127.857 14.892C127.857 15.504 128.031 16.056 128.379 16.548C128.739 17.04 129.147 17.448 129.603 17.772C130.071 18.096 130.713 18.504 131.529 18.996C131.769 19.14 131.949 19.242 132.069 19.302C132.621 19.626 133.017 19.884 133.257 20.076C133.509 20.268 133.635 20.478 133.635 20.706C133.635 21.054 133.473 21.336 133.149 21.552C132.825 21.756 132.363 21.858 131.763 21.858C131.319 21.858 130.809 21.774 130.233 21.606C129.669 21.426 129.195 21.234 128.811 21.03L128.001 23.226ZM147.317 11.76H137.129V13.974H140.783V24H143.609V13.974H147.659L147.317 11.76ZM152.708 11.76L148.028 24H150.836L151.79 21.354H156.236L157.226 24.18L159.998 23.856L155.354 11.76H152.708ZM155.408 19.122H152.582L153.968 15.324L155.408 19.122ZM161.646 24H164.454V19.752H166.65L168.936 24H172.086L169.224 18.96C169.8 18.636 170.256 18.198 170.592 17.646C170.928 17.094 171.096 16.458 171.096 15.738C171.096 14.418 170.634 13.428 169.71 12.768C168.786 12.096 167.604 11.76 166.164 11.76H161.646V24ZM166.074 14.028C166.746 14.028 167.262 14.172 167.622 14.46C167.982 14.748 168.162 15.192 168.162 15.792C168.162 16.332 167.97 16.758 167.586 17.07C167.214 17.37 166.722 17.52 166.11 17.52H164.454V14.028H166.074ZM182.632 11.76H172.444V13.974H176.098V24H178.924V13.974H182.974L182.632 11.76ZM183.882 23.226C184.314 23.49 184.914 23.724 185.682 23.928C186.462 24.132 187.134 24.234 187.698 24.234C188.67 24.234 189.51 24.084 190.218 23.784C190.938 23.484 191.484 23.07 191.856 22.542C192.24 22.014 192.432 21.414 192.432 20.742C192.432 20.118 192.258 19.566 191.91 19.086C191.562 18.594 191.16 18.192 190.704 17.88C190.248 17.556 189.588 17.142 188.724 16.638C188.52 16.506 188.322 16.398 188.13 16.314C187.614 16.038 187.236 15.804 186.996 15.612C186.768 15.408 186.654 15.174 186.654 14.91C186.654 14.586 186.792 14.334 187.068 14.154C187.356 13.962 187.722 13.866 188.166 13.866C188.598 13.866 189 13.914 189.372 14.01C189.744 14.106 190.218 14.274 190.794 14.514L191.658 12.462C191.178 12.174 190.62 11.946 189.984 11.778C189.348 11.598 188.73 11.508 188.13 11.508C187.242 11.508 186.468 11.658 185.808 11.958C185.148 12.246 184.638 12.648 184.278 13.164C183.93 13.668 183.75 14.244 183.738 14.892C183.738 15.504 183.912 16.056 184.26 16.548C184.62 17.04 185.028 17.448 185.484 17.772C185.952 18.096 186.594 18.504 187.41 18.996C187.65 19.14 187.83 19.242 187.95 19.302C188.502 19.626 188.898 19.884 189.138 20.076C189.39 20.268 189.516 20.478 189.516 20.706C189.516 21.054 189.354 21.336 189.03 21.552C188.706 21.756 188.244 21.858 187.644 21.858C187.2 21.858 186.69 21.774 186.114 21.606C185.55 21.426 185.076 21.234 184.692 21.03L183.882 23.226ZM208.466 24V11.76H205.658V16.782H201.104V11.652L198.296 11.76V24H201.104V19.014H205.658V24H208.466ZM220.229 24L219.887 21.804H214.253V18.942H218.483L218.141 16.728H214.253V13.974H219.509L219.167 11.76H211.445V24H220.229ZM222.062 24H224.87V19.752H227.066L229.352 24H232.502L229.64 18.96C230.216 18.636 230.672 18.198 231.008 17.646C231.344 17.094 231.512 16.458 231.512 15.738C231.512 14.418 231.05 13.428 230.126 12.768C229.202 12.096 228.02 11.76 226.58 11.76H222.062V24ZM226.49 14.028C227.162 14.028 227.678 14.172 228.038 14.46C228.398 14.748 228.578 15.192 228.578 15.792C228.578 16.332 228.386 16.758 228.002 17.07C227.63 17.37 227.138 17.52 226.526 17.52H224.87V14.028H226.49ZM242.94 24L242.598 21.804H236.964V18.942H241.194L240.852 16.728H236.964V13.974H242.22L241.878 11.76H234.156V24H242.94Z" fill="white"/>
<path d="M25.0181 34.6938H13.7041V30.502H20.8281V20.8276H30.5021V13.8657H20.9661V9.6748H34.6931V25.019H25.0191L25.0181 34.6938Z" fill="white"/>
<path d="M13.833 25.0171H0V9.67285H9.674V0H21.354V4.18896H13.864V13.8638H4.18999V20.8252H13.833V25.0171Z" fill="white"/>
</svg>
