<svg id="Capa_1" enable-background="new 0 0 512 512" height="512" viewBox="0 0 512 512" width="512" xmlns="http://www.w3.org/2000/svg" xmlns:xlink="http://www.w3.org/1999/xlink"><linearGradient id="SVGID_1_" gradientUnits="userSpaceOnUse" x1="0" x2="512" y1="256" y2="256"><stop offset="0" stop-color="#ffd9d9" stop-opacity="0"/><stop offset=".9981" stop-color="#ffb3b3"/></linearGradient><g><g><path d="m451.798 43.963c-160.556-97.869-410.51-8.611-439.594 61.949-38.908 94.394 26.578 110.528 38.743 187.874 9.761 62.061-51.182 121.495-16.394 176.282 37.883 59.663 163.465 44.681 211.198 16.447 87.376-51.683 43.309-112.012 84.684-187.299 39.407-71.707 116.244-42.625 160.961-99.99 42.5-54.521 14.31-122.402-39.598-155.263z" fill="url(#SVGID_1_)"/></g><g><g fill="#2626bc" opacity=".1"><path d="m443.243 143.964-56.292-56.292c-21.901-21.901-57.41-21.901-79.311 0l-7.994 7.994c-3.905 3.905-3.905 10.237 0 14.142-8.854 8.854-15.396 19.575-19.279 31.21-7.771-29.891-34.936-51.96-67.259-51.96-38.38 0-69.494 31.114-69.494 69.494s31.113 69.494 69.494 69.494c28.823 0 53.545-17.548 64.072-42.543 1.407 44.494-15.669 87.773-47.232 119.337l-136.685 136.686-2.091-2.091c-3.905-3.905-10.237-3.905-14.142 0l-7.454 7.454c-10.092 10.092-10.336 26.853-.055 36.752 9.966 9.596 25.826 9.481 35.652-.344l7.859-7.86c3.905-3.905 3.905-10.237 0-14.142l-2.091-2.091 136.686-136.686c37.629-37.629 57.427-89.679 54.317-142.803l-.598-10.219c-.914-15.628 4.91-30.94 15.979-42.01 3.905 3.905 10.237 3.905 14.142 0l7.994-7.994c4.327-4.327 11.344-4.327 15.671 0l56.682 56.682c8.976 8.977 23.714 8.768 32.422-.626 8.284-8.934 7.623-22.968-.993-31.584z"/><path d="m329.127 204.299h18.583c2.762 0 5-2.238 5-5s-2.238-5-5-5h-18.583c-2.762 0-5 2.238-5 5s2.238 5 5 5z"/><path d="m387.71 212.681h-58.583c-2.762 0-5 2.238-5 5s2.238 5 5 5h58.583c2.762 0 5-2.238 5-5s-2.238-5-5-5z"/><path d="m387.71 231.063h-58.583c-2.762 0-5 2.238-5 5s2.238 5 5 5h58.583c2.762 0 5-2.238 5-5s-2.238-5-5-5z"/></g><g><g><g><path d="m79.324 448.143c-4.881-4.881-4.881-12.796 0-17.678l150.625-150.625c32.586-32.586 49.731-77.66 47.037-123.665l-.598-10.219c-1.332-22.748 7.146-45.035 23.259-61.148l15.065-15.065c17.967-17.967 47.201-17.967 65.168 0l56.683 56.683c4.881 4.881 4.881 12.796 0 17.678-4.881 4.881-12.796 4.881-17.678 0l-56.683-56.683c-8.219-8.219-21.594-8.219-29.813 0l-15.065 15.065c-11.07 11.07-16.894 26.382-15.98 42.01l.598 10.219c3.11 53.124-16.687 105.174-54.317 142.803l-150.624 150.625c-4.881 4.882-12.796 4.882-17.677 0z" fill="#d9d9ff"/></g><g><path d="m436.563 126.426-56.683-56.683c-17.967-17.967-47.201-17.967-65.168 0l-15.065 15.065c-4.484 4.484-8.364 9.454-11.618 14.771l18.44 18.44c2.67-5.71 6.307-10.985 10.856-15.533l15.065-15.065c8.219-8.219 21.594-8.219 29.813 0l56.683 56.683c4.881 4.881 12.796 4.881 17.678 0 4.881-4.882 4.881-12.797-.001-17.678z" fill="#b3b3ff"/></g><g><path d="m77.029 414.435-7.454 7.454c-10.092 10.092-10.336 26.853-.055 36.752 9.966 9.596 25.826 9.482 35.652-.344l7.859-7.859c3.905-3.905 3.905-10.237 0-14.142l-21.86-21.86c-3.905-3.906-10.236-3.906-14.142-.001z" fill="#6c6cff"/></g></g><path d="m299.647 70.667 7.994-7.994c21.901-21.901 57.41-21.901 79.311 0l56.292 56.292c8.616 8.616 9.277 22.649.994 31.585-8.709 9.394-23.446 9.602-32.423.626l-56.682-56.682c-4.327-4.327-11.344-4.327-15.671 0l-7.994 7.994c-3.905 3.905-10.237 3.905-14.142 0l-17.678-17.678c-3.907-3.906-3.907-10.238-.001-14.143z" fill="#6c6cff"/></g><g><circle cx="213.109" cy="133.552" fill="#ff4d4d" r="69.494"/><path d="m245.446 118.911h-17.696v-17.695c0-5.523-4.477-10-10-10h-9.282c-5.523 0-10 4.477-10 10v17.695h-17.695c-5.523 0-10 4.477-10 10v9.282c0 5.523 4.477 10 10 10h17.695v17.695c0 5.523 4.477 10 10 10h9.282c5.523 0 10-4.477 10-10v-17.695h17.695c5.523 0 10-4.477 10-10v-9.282c.001-5.522-4.476-10-9.999-10z" fill="#fff"/></g><g fill="#00c"><path d="m446.778 115.429-56.292-56.291c-11.536-11.537-26.875-17.891-43.19-17.891s-31.654 6.354-43.19 17.891l-7.994 7.994c-2.834 2.833-4.394 6.6-4.394 10.606 0 2.315.536 4.543 1.523 6.563-4.918 5.436-9.136 11.526-12.51 18.051-11.828-25.532-37.681-43.294-67.62-43.294-41.076 0-74.494 33.418-74.494 74.494 0 17.058 5.916 33.728 16.657 46.939 10.583 13.018 25.387 22.172 41.684 25.777 2.693.603 5.365-1.105 5.962-3.802s-1.105-5.365-3.802-5.962c-14.103-3.12-26.918-11.048-36.084-22.322-9.297-11.435-14.417-25.864-14.417-40.631 0-35.563 28.932-64.494 64.494-64.494s64.494 28.932 64.494 64.494c0 30.495-21.646 57.065-51.471 63.178-2.705.555-4.449 3.197-3.894 5.902.485 2.366 2.568 3.997 4.893 3.997.333 0 .67-.033 1.009-.103 17.687-3.625 32.871-13.486 43.474-26.98-3.288 36.293-19.241 70.797-45.202 96.759l-133.26 133.261c-2.594-1.975-5.737-3.058-9.053-3.058-4.006 0-7.773 1.56-10.606 4.394l-7.454 7.454c-5.881 5.881-9.209 14.056-9.13 22.427.078 8.237 3.325 15.859 9.143 21.461 5.858 5.641 13.485 8.452 21.11 8.452 7.823 0 15.644-2.961 21.545-8.862l7.859-7.859c5.357-5.357 5.792-13.784 1.334-19.658l133.261-133.261c38.638-38.639 58.967-92.083 55.772-146.631l-.599-10.219c-.751-12.846 3.521-25.447 11.784-35.183 5.542 2.549 12.324 1.56 16.882-2.999l7.994-7.994c1.148-1.148 2.676-1.78 4.301-1.78 1.624 0 3.151.632 4.299 1.78l7.75 7.751c1.953 1.953 5.118 1.952 7.071.001 1.953-1.953 1.953-5.119.001-7.071l-7.751-7.751c-6.27-6.271-16.472-6.27-22.741 0l-7.994 7.993c-1.95 1.948-5.12 1.95-7.07.003-.001-.001-.001-.002-.002-.003-.002-.002-.004-.003-.005-.004l-17.672-17.673c-.944-.943-1.464-2.199-1.464-3.534 0-1.336.52-2.592 1.464-3.536l7.994-7.994c9.648-9.647 22.477-14.961 36.12-14.961 13.645 0 26.472 5.313 36.12 14.961l56.291 56.291c6.786 6.786 7.173 17.845.862 24.65-3.264 3.521-7.707 5.511-12.51 5.602-4.844.1-9.322-1.726-12.71-5.111l-28.355-28.354c-1.951-1.953-5.119-1.953-7.07 0-1.953 1.952-1.953 5.118 0 7.07l28.355 28.354c5.199 5.2 12.08 8.044 19.429 8.044.18 0 .36-.001.54-.005 7.546-.143 14.526-3.269 19.655-8.801 10.086-10.884 9.593-27.804-1.126-38.522zm-337.282 331.473-7.859 7.859c-7.826 7.828-20.678 7.952-28.648.277-3.868-3.725-6.027-8.821-6.08-14.353-.054-5.704 2.207-11.267 6.202-15.262l7.454-7.454c.944-.944 2.2-1.464 3.535-1.464 1.336 0 2.591.52 3.536 1.464l21.86 21.86c.944.944 1.465 2.2 1.465 3.536 0 1.337-.521 2.593-1.465 3.537zm186.858-302.114.599 10.219c3.026 51.7-16.24 102.354-52.861 138.977l-133.15 133.15-10.607-10.607 133.151-133.151c32.155-32.155 49.892-76.629 48.716-122.084 3.487-8.634 5.403-18.012 5.403-27.74 0-5.943-.72-11.719-2.041-17.264 3.151-8.887 8.015-17.185 14.21-24.285l10.644 10.644c-9.867 11.677-14.965 26.763-14.064 42.141z"/><path d="m329.127 179.299h18.583c2.762 0 5-2.238 5-5s-2.238-5-5-5h-18.583c-2.762 0-5 2.238-5 5s2.238 5 5 5z"/><path d="m387.71 187.681h-58.583c-2.762 0-5 2.238-5 5s2.238 5 5 5h58.583c2.762 0 5-2.238 5-5s-2.238-5-5-5z"/><path d="m387.71 206.063h-58.583c-2.762 0-5 2.238-5 5s2.238 5 5 5h58.583c2.762 0 5-2.238 5-5s-2.238-5-5-5z"/></g><path d="m184.195 260.969c-2.761 0-5-2.238-5-5 0-3.492-2.841-6.334-6.333-6.334-2.761 0-5-2.238-5-5s2.239-5 5-5c3.492 0 6.333-2.841 6.333-6.333 0-2.762 2.239-5 5-5s5 2.238 5 5c0 3.492 2.841 6.333 6.333 6.333 2.761 0 5 2.238 5 5s-2.239 5-5 5c-3.492 0-6.333 2.842-6.333 6.334 0 2.761-2.239 5-5 5z" fill="#ff4d4d"/><path d="m338.871 308.039c-2.762 0-5-2.238-5-5 0-3.492-2.841-6.333-6.333-6.333-2.762 0-5-2.238-5-5s2.238-5 5-5c3.492 0 6.333-2.842 6.333-6.334 0-2.762 2.238-5 5-5s5 2.238 5 5c0 3.492 2.842 6.334 6.334 6.334 2.762 0 5 2.238 5 5s-2.238 5-5 5c-3.492 0-6.334 2.841-6.334 6.333 0 2.762-2.238 5-5 5z" fill="#ff9d33"/><path d="m143.615 279.625c-2.761 0-5-2.238-5-5 0-3.492-2.841-6.334-6.333-6.334-2.761 0-5-2.238-5-5s2.239-5 5-5c3.492 0 6.333-2.841 6.333-6.333 0-2.762 2.239-5 5-5s5 2.238 5 5c0 3.492 2.841 6.333 6.333 6.333 2.761 0 5 2.238 5 5s-2.239 5-5 5c-3.492 0-6.333 2.842-6.333 6.334 0 2.762-2.239 5-5 5z" fill="#ff9d33"/><g fill="#ff4d4d"><g><path d="m424.763 196.029c-2.762 0-5-2.238-5-5v-.15c0-2.762 2.238-5 5-5s5 2.238 5 5v.15c0 2.762-2.239 5-5 5z"/><path d="m424.763 223.813c-2.762 0-5-2.238-5-5v-.15c0-2.762 2.238-5 5-5s5 2.238 5 5v.15c0 2.762-2.239 5-5 5z"/></g><g><path d="m412.792 202.938c-.845 0-1.701-.215-2.486-.666l-.131-.075c-2.395-1.376-3.22-4.432-1.844-6.826 1.377-2.394 4.432-3.219 6.826-1.844l.131.075c2.395 1.376 3.22 4.432 1.844 6.826-.925 1.61-2.609 2.51-4.34 2.51z"/><path d="m436.854 216.831c-.851 0-1.712-.217-2.5-.674l-.13-.075c-2.39-1.384-3.206-4.442-1.822-6.832 1.384-2.392 4.445-3.206 6.832-1.822l.13.075c2.39 1.384 3.206 4.442 1.822 6.832-.927 1.602-2.607 2.496-4.332 2.496z"/></g><g><path d="m412.671 216.831c-1.732 0-3.415-.9-4.34-2.51-1.376-2.395-.551-5.45 1.844-6.826l.131-.075c2.396-1.377 5.45-.551 6.826 1.844s.551 5.45-1.844 6.826l-.131.075c-.785.451-1.641.666-2.486.666z"/><path d="m436.733 202.938c-1.727 0-3.405-.895-4.332-2.496-1.384-2.39-.567-5.448 1.822-6.832l.13-.075c2.39-1.386 5.449-.567 6.832 1.822 1.384 2.39.567 5.448-1.822 6.832l-.13.075c-.788.458-1.65.674-2.5.674z"/></g></g><g fill="#6c6cff"><g><path d="m348.871 329.274c-2.762 0-5-2.238-5-5v-.15c0-2.762 2.238-5 5-5s5 2.238 5 5v.15c0 2.762-2.238 5-5 5z"/><path d="m348.871 357.059c-2.762 0-5-2.238-5-5v-.15c0-2.762 2.238-5 5-5s5 2.238 5 5v.15c0 2.761-2.238 5-5 5z"/></g><g><path d="m336.9 336.184c-.851 0-1.712-.217-2.5-.674l-.13-.075c-2.39-1.384-3.206-4.442-1.822-6.832 1.384-2.391 4.445-3.207 6.832-1.822l.13.075c2.39 1.384 3.206 4.442 1.822 6.832-.926 1.601-2.606 2.496-4.332 2.496z"/><path d="m360.963 350.076c-.845 0-1.701-.215-2.486-.666l-.131-.075c-2.395-1.376-3.22-4.432-1.844-6.826s4.431-3.22 6.826-1.844l.131.075c2.395 1.376 3.22 4.432 1.844 6.826-.925 1.61-2.609 2.51-4.34 2.51z"/></g><g><path d="m336.78 350.076c-1.727 0-3.405-.895-4.332-2.496-1.384-2.39-.567-5.448 1.822-6.832l.13-.075c2.39-1.386 5.449-.567 6.832 1.822 1.384 2.39.567 5.448-1.822 6.832l-.13.075c-.788.457-1.65.674-2.5.674z"/><path d="m360.842 336.184c-1.732 0-3.415-.9-4.34-2.51-1.376-2.395-.551-5.45 1.844-6.826l.131-.075c2.396-1.376 5.45-.55 6.826 1.844 1.376 2.395.551 5.45-1.844 6.826l-.131.075c-.785.451-1.641.666-2.486.666z"/></g></g></g></g></svg>