<svg id="Capa_1" enable-background="new 0 0 512 512" height="512" viewBox="0 0 512 512" width="512" xmlns="http://www.w3.org/2000/svg" xmlns:xlink="http://www.w3.org/1999/xlink"><linearGradient id="SVGID_1_" gradientUnits="userSpaceOnUse" x1="68.572" x2="395.005" y1="429.901" y2="40.873"><stop offset="0" stop-color="#fff3ee" stop-opacity="0"/><stop offset=".2938" stop-color="#ffeade" stop-opacity=".373"/><stop offset=".7874" stop-color="#ffd6bb"/></linearGradient><g><g><path d="m16.074 302.223c18.727 64.003 72.707 194.564 163.922 182.845 91.486-11.755 55.759-129.725 139.508-145.894 36.867-7.118 61.857 56.689 98.806 54.704 47.588-2.557 71.81-49.663 85.108-89.264 28.197-83.968-14.029-226.352-112.859-251.012-86.244-21.519-96.332 83.855-171.322 53.248-42.149-17.203-37.938-68.576-89.272-78.942-155.298-31.359-138.81 189.15-113.891 274.315z" fill="url(#SVGID_1_)"/></g><g><g fill="#2626bc" opacity=".1"><path d="m327.104 376.251h-18.583c-2.762 0-5 2.238-5 5s2.238 5 5 5h18.583c2.762 0 5-2.238 5-5s-2.239-5-5-5z"/><path d="m327.104 394.633h-58.583c-2.762 0-5 2.238-5 5s2.238 5 5 5h58.583c2.762 0 5-2.238 5-5s-2.239-5-5-5z"/><path d="m327.104 413.013h-58.583c-2.762 0-5 2.238-5 5s2.238 5 5 5h58.583c2.762 0 5-2.238 5-5s-2.239-5-5-5z"/><path d="m459.776 185.391-108.898-108.898c-3.905-3.905-10.237-3.905-14.142 0l-13.58 13.58c-3.905 3.905-3.905 10.237 0 14.142l3.784 3.784-145.421 145.421c-1.273 1.273-2.255 2.805-2.881 4.493l-37.941 102.303-36.755 36.755c-4.881 4.881-4.881 12.796 0 17.678l1.768 1.768-32.849 32.849-1.26-1.26c-2.977-2.977-7.803-2.977-10.78 0l-5.682 5.682c-7.692 7.692-7.878 20.468-.042 28.013 7.597 7.314 19.686 7.227 27.175-.262l5.991-5.991c2.977-2.977 2.977-7.803 0-10.78l-1.26-1.26 32.849-32.849 1.767 1.767c4.881 4.881 12.796 4.881 17.678 0l36.755-36.755 102.304-37.941c1.688-.626 3.22-1.608 4.493-2.881l23.432-23.432c12.428 18.858 33.783 31.312 58.056 31.312 38.38 0 69.494-31.113 69.494-69.494 0-24.274-12.454-45.629-31.312-58.056l25.75-25.75 3.784 3.784c3.905 3.905 10.237 3.905 14.142 0l13.58-13.58c3.906-3.905 3.906-10.237.001-14.142zm-163.696 120.771-28.978 28.978-84.539 31.352 42.306-42.306c3.905-3.905 3.905-10.237 0-14.142s-10.237-3.905-14.142 0l-39.355 39.355 29.757-80.234 53.699-53.699 13.534 13.534-.734.734c-1.953 1.953-1.953 5.118 0 7.071l31.716 31.716c-2.9 7.653-4.5 15.944-4.5 24.613-.001 4.456.435 8.807 1.236 13.028zm81.284-81.283c-4.222-.801-8.572-1.237-13.027-1.237-17.966 0-34.338 6.819-46.674 18.008l-27.44-27.44c-1.953-1.953-5.119-1.953-7.071 0l-.734.734-13.534-13.534 75.733-75.733 65.974 65.974z"/></g><g><path d="m248.192 206.485h93.302v19.88h-93.302z" fill="#b3b3ff" transform="matrix(.707 .707 -.707 .707 239.393 -145.096)"/><g><g><path d="m63.12 397.932h80.432v20h-80.432z" fill="#b3b3ff" transform="matrix(.707 -.707 .707 .707 -258.185 192.55)"/></g><g><path d="m94.202 385.058h44.017v20h-44.017z" fill="#9494ff" transform="matrix(.707 -.707 .707 .707 -245.311 197.883)"/></g></g><g><path d="m163.054 361.002 61.815-61.815c3.905-3.905 3.905-10.237 0-14.142-3.905-3.905-10.237-3.905-14.142 0l-61.815 61.815z" fill="#6c6cff"/></g><g><g><path d="m160.306 350.962c1.273-1.273 2.255-2.805 2.881-4.493l37.941-102.303 145.037-145.037c4.881-4.881 4.881-12.796 0-17.678-4.881-4.881-12.796-4.881-17.678 0l-146.968 146.969c-1.273 1.273-2.255 2.805-2.881 4.493l-37.941 102.303-36.755 36.755c-4.881 4.881-4.881 12.796 0 17.678l8.839 8.839z" fill="#d9d9ff"/></g><g><path d="m121.619 407.326c4.881 4.881 12.796 4.881 17.678 0l36.755-36.755 102.304-37.941c1.688-.626 3.22-1.608 4.493-2.881l146.968-146.968c4.881-4.881 4.881-12.796 0-17.678-4.881-4.881-12.796-4.881-17.678 0l-145.037 145.038-102.304 37.941c-1.688.626-3.22 1.608-4.493 2.881l-47.525 47.525z" fill="#b3b3ff"/></g></g><g><g><path d="m331.526 113.769 14.639-14.639c4.881-4.881 4.881-12.796 0-17.678-4.881-4.881-12.796-4.881-17.678 0l-14.639 14.639z" fill="#b3b3ff"/></g><g><path d="m415.178 197.421 14.639-14.639c4.881-4.881 4.881-12.796 0-17.678-4.881-4.881-12.796-4.881-17.678 0l-14.639 14.639z" fill="#9494ff"/></g></g><g><path d="m60.821 423.005-5.682 5.682c-7.692 7.692-7.878 20.468-.042 28.013 7.597 7.314 19.685 7.227 27.175-.262l5.991-5.991c2.977-2.977 2.977-7.803 0-10.78l-16.662-16.663c-2.977-2.975-7.803-2.975-10.78.001z" fill="#6c6cff"/></g><g fill="#ffab66"><path d="m299.463 243.641-31.835-31.835c-1.953-1.953-1.953-5.118 0-7.071l15.525-15.525c1.953-1.953 5.118-1.953 7.071 0l31.835 31.835c1.953 1.953 1.953 5.118 0 7.071l-15.525 15.525c-1.953 1.953-5.118 1.953-7.071 0z"/><path d="m432.054 188.113-108.898-108.898c-3.905-3.905-3.905-10.237 0-14.142l13.58-13.58c3.905-3.905 10.237-3.905 14.142 0l108.898 108.898c3.905 3.905 3.905 10.237 0 14.142l-13.58 13.58c-3.905 3.905-10.237 3.905-14.142 0z"/></g></g><g><g><circle cx="364.337" cy="268.135" fill="#ff4d4d" r="69.494"/><path d="m396.674 253.494h-17.695v-17.695c0-5.523-4.477-10-10-10h-9.282c-5.523 0-10 4.477-10 10v17.695h-17.695c-5.523 0-10 4.477-10 10v9.282c0 5.523 4.477 10 10 10h17.695v17.695c0 5.523 4.477 10 10 10h9.282c5.523 0 10-4.477 10-10v-17.695h17.695c5.523 0 10-4.477 10-10v-9.282c0-5.523-4.477-10-10-10z" fill="#fff"/></g></g><g fill="#00c"><path d="m463.311 156.855-108.898-108.897c-2.833-2.834-6.6-4.394-10.606-4.394s-7.773 1.56-10.607 4.394l-13.578 13.579c-2.833 2.833-4.394 6.6-4.394 10.606s1.56 7.773 4.394 10.606l.249.249-141.888 141.887c-1.769 1.768-3.163 3.942-4.033 6.29l-37.562 101.278-35.982 35.983c-6.221 6.221-6.751 15.989-1.627 22.84l-26.22 26.22c-1.908-1.116-4.079-1.723-6.348-1.723-3.371 0-6.541 1.313-8.925 3.697l-5.682 5.681c-4.708 4.707-7.371 11.248-7.309 17.946.063 6.601 2.667 12.711 7.334 17.204 4.693 4.52 10.806 6.772 16.915 6.772 6.269 0 12.535-2.372 17.263-7.101l5.991-5.991c2.385-2.384 3.697-5.554 3.697-8.925 0-2.269-.607-4.441-1.724-6.349l26.219-26.218c3.008 2.258 6.639 3.497 10.467 3.497 4.674 0 9.069-1.82 12.374-5.126l35.982-35.982 101.279-37.56c2.38-.883 4.496-2.239 6.29-4.034l19.303-19.304c13.648 17.421 34.856 28.648 58.65 28.648 41.076 0 74.494-33.418 74.494-74.493 0-23.794-11.227-45.003-28.647-58.65l18.086-18.086.249.249c2.924 2.925 6.765 4.387 10.606 4.387s7.683-1.462 10.607-4.387l13.578-13.579c2.834-2.833 4.395-6.601 4.395-10.607s-1.558-7.775-4.392-10.607zm-194.426 26.625 6.463 6.464-6.986 6.987-6.464-6.464zm28.845 51.357-26.566-26.567 15.524-15.525 23.896 23.896c-5.141 5.365-9.488 11.49-12.854 18.196zm-42.902-37.3 7.042 7.042c-.46 1.159-.707 2.405-.707 3.69 0 2.672 1.041 5.183 2.93 7.07l29.501 29.501c-2.421 7.334-3.75 15.159-3.75 23.294 0 3.852.294 7.637.861 11.333l-26.365 26.365-62.062 23.016 26.126-26.126c2.834-2.833 4.394-6.6 4.394-10.605 0-4.007-1.56-7.773-4.394-10.606-2.833-2.834-6.6-4.394-10.606-4.394s-7.773 1.56-10.606 4.394l-23.176 23.175 21.42-57.756zm-79.148 129.624 38.581-38.58c.944-.944 2.2-1.464 3.536-1.464s2.592.52 3.536 1.464 1.464 2.2 1.464 3.536c0 1.335-.52 2.591-1.464 3.535l-41.532 41.532-9.089 3.371zm-95.749 97.104 25.778-25.778 3.536 3.536c.002.002.004.003.005.004l3.531 3.531-25.779 25.778zm4.798 22.647-5.991 5.991c-5.512 5.51-14.56 5.598-20.172.195-2.717-2.616-4.232-6.201-4.27-10.096-.038-4.03 1.559-7.959 4.379-10.78l5.682-5.682c.495-.495 1.154-.768 1.854-.768s1.359.272 1.854.768l16.663 16.662c.495.496.768 1.154.768 1.854s-.272 1.361-.767 1.856zm194.584-120.697c-.769.769-1.676 1.35-2.696 1.728l-102.304 37.94c-.675.251-1.288.644-1.797 1.153l-36.755 36.755c-1.417 1.416-3.301 2.196-5.304 2.196s-3.887-.78-5.304-2.196l-5.303-5.304 43.991-43.99c.768-.769 1.674-1.35 2.693-1.728l102.305-37.94c.675-.251 1.288-.644 1.797-1.153l22.776-22.776c1.658 5.155 3.869 10.061 6.554 14.66zm149.518-58.079c0 35.562-28.932 64.493-64.494 64.493s-64.493-28.932-64.493-64.493c0-35.563 28.932-64.494 64.493-64.494 35.562-.001 64.494 28.931 64.494 64.494zm-27.069-64.37c-4.6-2.685-9.506-4.895-14.661-6.554l23.491-23.491 10.607 10.608zm54.477-32.768-13.578 13.58c-1.951 1.949-5.123 1.949-7.072 0l-34.298-34.299c-1.951-1.953-5.119-1.953-7.07 0-1.953 1.952-1.953 5.118 0 7.07l9.301 9.301-27.851 27.851c-3.696-.567-7.481-.861-11.334-.861-17.517 0-33.628 6.093-46.362 16.25l-24.215-24.215c-1.889-1.89-4.399-2.931-7.071-2.931-1.285 0-2.531.246-3.691.707l-7.042-7.043 51.595-51.595c1.953-1.952 1.953-5.118 0-7.07-1.951-1.953-5.119-1.953-7.07 0l-55.12 55.12c-.003.003-.007.005-.011.009s-.005.007-.009.011l-14.043 14.043c-.002.002-.004.003-.005.004s-.003.004-.004.005l-53.695 53.695c-.51.509-.902 1.122-1.152 1.797l-37.943 102.303c-.379 1.021-.96 1.928-1.729 2.696l-43.99 43.989-5.303-5.302c-2.925-2.925-2.925-7.683-.001-10.607l36.755-36.756c.51-.509.902-1.122 1.152-1.797l37.941-102.302c.374-1.007.972-1.939 1.729-2.697l141.887-141.885 46.703 46.703c1.951 1.953 5.119 1.953 7.07 0 1.953-1.952 1.953-5.118 0-7.07l-54.022-54.022c-.944-.944-1.464-2.2-1.464-3.536 0-1.335.52-2.591 1.465-3.535l13.578-13.58c.944-.944 2.2-1.464 3.536-1.464s2.592.52 3.536 1.464l108.898 108.898c.944.944 1.465 2.199 1.465 3.535s-.52 2.591-1.466 3.536z"/><path d="m327.104 351.251h-18.583c-2.762 0-5 2.238-5 5s2.238 5 5 5h18.583c2.762 0 5-2.238 5-5s-2.239-5-5-5z"/><path d="m327.104 369.633h-58.583c-2.762 0-5 2.238-5 5s2.238 5 5 5h58.583c2.762 0 5-2.238 5-5s-2.239-5-5-5z"/><path d="m327.104 388.013h-58.583c-2.762 0-5 2.238-5 5s2.238 5 5 5h58.583c2.762 0 5-2.238 5-5s-2.239-5-5-5z"/></g><path d="m103.336 318.715c-2.762 0-5-2.238-5-5 0-3.492-2.841-6.333-6.333-6.333-2.762 0-5-2.238-5-5s2.238-5 5-5c3.492 0 6.333-2.841 6.333-6.333 0-2.762 2.238-5 5-5s5 2.238 5 5c0 3.492 2.842 6.333 6.334 6.333 2.762 0 5 2.238 5 5s-2.238 5-5 5c-3.492 0-6.334 2.841-6.334 6.333 0 2.761-2.238 5-5 5z" fill="#ff9d33"/><path d="m462.705 247.644c-2.762 0-5-2.238-5-5 0-3.492-2.842-6.333-6.334-6.333-2.762 0-5-2.238-5-5s2.238-5 5-5c3.492 0 6.334-2.842 6.334-6.334 0-2.762 2.238-5 5-5s5 2.238 5 5c0 3.492 2.841 6.334 6.333 6.334 2.762 0 5 2.238 5 5s-2.238 5-5 5c-3.492 0-6.333 2.841-6.333 6.333 0 2.762-2.238 5-5 5z" fill="#ff4d4d"/><g fill="#6c6cff"><g><path d="m119.98 238.637c-2.762 0-5-2.238-5-5v-.15c0-2.762 2.238-5 5-5s5 2.238 5 5v.15c0 2.762-2.238 5-5 5z"/><path d="m119.98 266.422c-2.762 0-5-2.238-5-5v-.15c0-2.762 2.238-5 5-5s5 2.238 5 5v.15c0 2.761-2.238 5-5 5z"/></g><g><path d="m108.01 245.547c-.841 0-1.693-.213-2.476-.66l-.13-.074c-2.397-1.37-3.23-4.424-1.86-6.821 1.369-2.397 4.422-3.231 6.821-1.86l.13.074c2.397 1.37 3.23 4.424 1.86 6.821-.922 1.614-2.609 2.52-4.345 2.52z"/><path d="m132.071 259.439c-.851 0-1.712-.217-2.5-.674l-.13-.075c-2.39-1.384-3.206-4.442-1.822-6.832 1.384-2.391 4.445-3.206 6.832-1.822l.13.075c2.39 1.384 3.206 4.442 1.822 6.832-.926 1.602-2.606 2.496-4.332 2.496z"/></g><g><path d="m107.89 259.439c-1.727 0-3.405-.895-4.332-2.496-1.384-2.39-.567-5.448 1.822-6.832l.13-.075c2.39-1.386 5.449-.567 6.832 1.822 1.384 2.39.567 5.448-1.822 6.832l-.13.075c-.788.457-1.651.674-2.5.674z"/><path d="m131.951 245.547c-1.736 0-3.423-.905-4.346-2.521-1.37-2.397-.537-5.451 1.86-6.821l.13-.074c2.398-1.37 5.452-.536 6.821 1.86 1.37 2.397.537 5.451-1.86 6.821l-.13.074c-.781.448-1.634.661-2.475.661z"/></g></g><g fill="#ff9d33"><g><path d="m268.129 60.761c-2.762 0-5-2.238-5-5v-.15c0-2.762 2.238-5 5-5s5 2.238 5 5v.15c0 2.761-2.238 5-5 5z"/><path d="m268.129 88.545c-2.762 0-5-2.238-5-5v-.15c0-2.762 2.238-5 5-5s5 2.238 5 5v.15c0 2.761-2.238 5-5 5z"/></g><g><path d="m256.158 67.67c-.841 0-1.693-.213-2.476-.66l-.13-.074c-2.397-1.37-3.23-4.424-1.86-6.821 1.369-2.398 4.423-3.231 6.821-1.86l.13.074c2.397 1.37 3.23 4.424 1.86 6.821-.922 1.614-2.608 2.52-4.345 2.52z"/><path d="m280.221 81.562c-.845 0-1.701-.215-2.486-.666l-.131-.075c-2.395-1.376-3.22-4.432-1.844-6.826 1.377-2.395 4.432-3.22 6.826-1.844l.131.075c2.395 1.376 3.22 4.432 1.844 6.826-.925 1.61-2.609 2.51-4.34 2.51z"/></g><g><path d="m256.038 81.562c-1.727 0-3.405-.895-4.332-2.496-1.384-2.39-.567-5.448 1.822-6.832l.13-.075c2.39-1.386 5.449-.567 6.832 1.822 1.384 2.39.567 5.448-1.822 6.832l-.13.075c-.788.458-1.65.674-2.5.674z"/><path d="m280.1 67.67c-1.742 0-3.434-.911-4.354-2.534-1.362-2.402-.52-5.454 1.883-6.816l.131-.074c2.404-1.361 5.454-.52 6.816 1.883s.52 5.454-1.883 6.816l-.131.074c-.78.441-1.626.651-2.462.651z"/></g></g><g fill="#ff4d4d"><g><path d="m376.433 377.433c-2.762 0-5-2.238-5-5v-.149c0-2.762 2.238-5 5-5s5 2.238 5 5v.149c0 2.762-2.239 5-5 5z"/><path d="m376.433 405.218c-2.762 0-5-2.238-5-5v-.149c0-2.762 2.238-5 5-5s5 2.238 5 5v.149c0 2.761-2.239 5-5 5z"/></g><g><path d="m364.462 384.344c-.851 0-1.712-.217-2.5-.674l-.13-.075c-2.39-1.384-3.206-4.442-1.822-6.832 1.384-2.392 4.445-3.206 6.832-1.822l.13.075c2.39 1.384 3.206 4.442 1.822 6.832-.927 1.601-2.606 2.496-4.332 2.496z"/><path d="m388.524 398.235c-.845 0-1.701-.215-2.486-.666l-.131-.075c-2.395-1.376-3.22-4.432-1.844-6.826s4.432-3.221 6.826-1.844l.131.075c2.395 1.376 3.22 4.432 1.844 6.826-.925 1.61-2.608 2.51-4.34 2.51z"/></g><g><path d="m364.342 398.235c-1.727 0-3.405-.895-4.332-2.496-1.384-2.39-.567-5.448 1.822-6.832l.13-.075c2.39-1.386 5.449-.567 6.832 1.822 1.384 2.39.567 5.448-1.822 6.832l-.13.075c-.788.457-1.651.674-2.5.674z"/><path d="m388.403 384.344c-1.732 0-3.415-.9-4.34-2.51-1.376-2.395-.551-5.45 1.844-6.826l.131-.075c2.396-1.376 5.45-.55 6.826 1.844 1.376 2.395.551 5.45-1.844 6.826l-.131.075c-.785.451-1.641.666-2.486.666z"/></g></g></g></g></svg>