<svg id="Capa_1" enable-background="new 0 0 512 512" height="512" viewBox="0 0 512 512" width="512" xmlns="http://www.w3.org/2000/svg" xmlns:xlink="http://www.w3.org/1999/xlink"><linearGradient id="SVGID_1_" gradientUnits="userSpaceOnUse" x1="96.524" x2="444.685" y1="453.699" y2="38.776"><stop offset="0" stop-color="#fff3ee" stop-opacity="0"/><stop offset=".2938" stop-color="#ffeade" stop-opacity=".373"/><stop offset=".7874" stop-color="#ffd6bb"/></linearGradient><g><g><path d="m4.896 324.259c17.448 172.871 292.417 167.142 420.804 136.265 82.47-19.834 87.596-59.472 86.106-144.001-.96-54.486 3.443-198.725-32.004-244.123-54.448-69.733-103.228-25.998-170.656-3.235-86.488 29.197-120.189-22.932-202.476-21.38-120.641 2.278-110.779 187.252-101.774 276.474z" fill="url(#SVGID_1_)"/></g><g><g fill="#2626bc" opacity=".1"><path d="m416.884 264.543c-33.71-23.759-104.378-90.983-173.056-90.983-19.067 0-38.285 5.185-56.825 13.177 2.251-6.839 3.485-14.139 3.485-21.732 0-38.38-31.113-69.494-69.494-69.494s-69.494 31.113-69.494 69.494c0 34.947 25.799 63.86 59.389 68.754-16.083 12.213-29.832 23.527-40.128 30.784-5.681 4.004-5.681 12.39 0 16.395 33.71 23.759 104.378 90.983 173.056 90.983 8.544 0 17.119-1.042 25.65-2.909v57.477c0 5.523 4.477 10 10 10h113.459c5.523 0 10-4.477 10-10v-63.83c0-5.523-4.477-10-10-10h-79.3c43.009-21.742 81.11-56.111 103.257-71.721 5.682-4.005 5.682-12.391.001-16.395z"/><path d="m245.923 394.725h-18.583c-2.761 0-5 2.238-5 5s2.239 5 5 5h18.583c2.761 0 5-2.238 5-5s-2.239-5-5-5z"/><path d="m245.923 413.106h-58.583c-2.761 0-5 2.238-5 5s2.239 5 5 5h58.583c2.761 0 5-2.238 5-5s-2.239-5-5-5z"/><path d="m245.923 431.488h-58.583c-2.761 0-5 2.238-5 5s2.239 5 5 5h58.583c2.761 0 5-2.238 5-5s-2.239-5-5-5z"/></g><g><circle cx="120.995" cy="140.005" fill="#ff4d4d" r="69.494"/><path d="m153.332 125.364h-17.695v-17.695c0-5.523-4.477-10-10-10h-9.282c-5.523 0-10 4.477-10 10v17.695h-17.697c-5.523 0-10 4.477-10 10v9.282c0 5.523 4.477 10 10 10h17.695v17.695c0 5.523 4.477 10 10 10h9.282c5.523 0 10-4.477 10-10v-17.695h17.695c5.523 0 10-4.477 10-10v-9.282c.002-5.522-4.476-10-9.998-10z" fill="#fff"/></g><path d="m243.828 148.56c-68.686 0-139.356 67.224-173.066 90.983-5.681 4.004-5.681 12.39 0 16.395 33.71 23.759 104.378 90.983 173.056 90.983 68.686 0 139.356-67.224 173.066-90.983 5.681-4.004 5.681-12.39 0-16.395-33.71-23.759-104.378-90.983-173.056-90.983z" fill="#fff"/><g><circle cx="243.823" cy="247.74" fill="#4d4dff" r="74.597"/><circle cx="243.823" cy="247.74" fill="#2c27ff" r="43.638"/><circle cx="270.776" cy="220.788" fill="#6c6cff" r="19.24"/><circle cx="284.8" cy="228.5" fill="#9494ff" r="10.334"/></g><g><g><path d="m392.928 411.488h-113.46c-5.523 0-10-4.477-10-10v-63.83c0-5.523 4.477-10 10-10h113.459c5.523 0 10 4.477 10 10v63.83c.001 5.523-4.477 10-9.999 10z" fill="#ff9d33"/><g><g><path d="m373.751 354.629h-18.583c-2.762 0-5-2.239-5-5s2.238-5 5-5h18.583c2.762 0 5 2.239 5 5s-2.239 5-5 5z" fill="#fff"/></g><g><path d="m373.751 373.01h-58.583c-2.762 0-5-2.239-5-5s2.238-5 5-5h58.583c2.762 0 5 2.239 5 5s-2.239 5-5 5z" fill="#fff"/></g><g><path d="m373.751 391.392h-58.583c-2.762 0-5-2.239-5-5s2.238-5 5-5h58.583c2.762 0 5 2.239 5 5s-2.239 5-5 5z" fill="#fff"/></g></g></g><g fill="#00c"><path d="m419.765 235.456c-6.006-4.232-13.2-9.865-21.53-16.387-38.407-30.068-96.447-75.509-154.406-75.509-16.666 0-33.338 3.761-49.548 9.829.798-4.397 1.209-8.872 1.209-13.383 0-41.076-33.417-74.494-74.494-74.494s-74.495 33.418-74.495 74.494c0 25.525 12.849 48.992 34.371 62.774.835.534 1.769.79 2.691.79 1.648 0 3.261-.814 4.215-2.305 1.489-2.325.812-5.418-1.514-6.907-18.637-11.935-29.763-32.253-29.763-54.353 0-35.563 28.932-64.494 64.494-64.494s64.494 28.932 64.494 64.494c0 6.139-.87 12.196-2.564 18.027-35.813 15.868-68.748 41.647-93.516 61.038-8.33 6.521-15.523 12.153-21.527 16.385-3.995 2.815-6.38 7.408-6.38 12.284s2.385 9.469 6.38 12.284c6.004 4.232 13.198 9.864 21.527 16.386 38.407 30.069 96.449 75.511 154.409 75.511 6.893 0 13.788-.651 20.65-1.836v51.403c0 8.271 6.729 15 15 15h53.342c2.762 0 5-2.238 5-5s-2.238-5-5-5h-53.342c-2.757 0-5-2.243-5-5v-63.83c0-2.757 2.243-5 5-5h113.46c2.757 0 5 2.243 5 5v63.83c0 2.757-2.243 5-5 5h-31.018c-2.762 0-5 2.238-5 5s2.238 5 5 5h31.018c8.271 0 15-6.729 15-15v-63.83c0-8.271-6.729-15-15-15h-59.799c24.672-14.607 47.061-32.119 65.108-46.248 8.329-6.521 15.523-12.153 21.527-16.386 3.996-2.815 6.382-7.408 6.382-12.284s-2.386-9.468-6.381-12.283zm-5.762 16.395c-6.21 4.377-13.495 10.081-21.932 16.686-21.534 16.859-49.427 38.667-79.637 54.122h-32.966c-8.271 0-15 6.729-15 15v2.273c-6.885 1.283-13.783 1.99-20.65 1.99-54.511 0-110.918-44.162-148.244-73.385-8.436-6.604-15.721-12.309-21.931-16.686-1.361-.959-2.141-2.457-2.141-4.11s.78-3.151 2.141-4.11c6.21-4.377 13.495-10.08 21.931-16.685 37.327-29.223 93.736-73.385 148.255-73.385 54.51 0 110.916 44.161 148.242 73.383 8.437 6.605 15.723 12.31 21.934 16.687 1.36.959 2.142 2.457 2.142 4.11s-.783 3.151-2.144 4.11z"/><path d="m245.922 369.725h-18.582c-2.761 0-5 2.238-5 5s2.239 5 5 5h18.583c2.761 0 5-2.238 5-5s-2.239-5-5.001-5z"/><path d="m245.922 388.106h-58.582c-2.761 0-5 2.238-5 5s2.239 5 5 5h58.583c2.761 0 5-2.238 5-5s-2.239-5-5.001-5z"/><path d="m245.922 406.488h-58.582c-2.761 0-5 2.238-5 5s2.239 5 5 5h58.583c2.761 0 5-2.238 5-5s-2.239-5-5.001-5z"/></g></g><path d="m97.696 360.962c-2.761 0-5-2.238-5-5 0-3.492-2.841-6.333-6.333-6.333-2.761 0-5-2.238-5-5s2.239-5 5-5c3.492 0 6.333-2.842 6.333-6.334 0-2.762 2.239-5 5-5s5 2.238 5 5c0 3.492 2.841 6.334 6.333 6.334 2.761 0 5 2.238 5 5s-2.239 5-5 5c-3.492 0-6.333 2.841-6.333 6.333 0 2.762-2.239 5-5 5z" fill="#ff4d4d"/><path d="m449.165 324.701c-2.762 0-5-2.238-5-5 0-3.492-2.841-6.333-6.333-6.333-2.762 0-5-2.238-5-5s2.238-5 5-5c3.492 0 6.333-2.841 6.333-6.333 0-2.762 2.238-5 5-5s5 2.238 5 5c0 3.492 2.842 6.333 6.334 6.333 2.762 0 5 2.238 5 5s-2.238 5-5 5c-3.492 0-6.334 2.841-6.334 6.333 0 2.762-2.238 5-5 5z" fill="#ff4d4d"/><path d="m301.349 133.258c-2.762 0-5-2.238-5-5 0-3.492-2.841-6.333-6.333-6.333-2.762 0-5-2.238-5-5s2.238-5 5-5c3.492 0 6.333-2.842 6.333-6.334 0-2.762 2.238-5 5-5s5 2.238 5 5c0 3.492 2.842 6.334 6.334 6.334 2.762 0 5 2.238 5 5s-2.238 5-5 5c-3.492 0-6.334 2.841-6.334 6.333 0 2.762-2.239 5-5 5z" fill="#6c6cff"/><g fill="#ff9d33"><g><path d="m120.995 376.251c-2.761 0-5-2.238-5-5v-.15c0-2.762 2.239-5 5-5s5 2.238 5 5v.15c0 2.762-2.239 5-5 5z"/><path d="m120.995 404.035c-2.761 0-5-2.238-5-5v-.15c0-2.762 2.239-5 5-5s5 2.238 5 5v.15c0 2.762-2.239 5-5 5z"/></g><g><path d="m109.025 383.16c-.839 0-1.688-.211-2.469-.655l-.13-.074c-2.4-1.366-3.238-4.42-1.872-6.819 1.367-2.4 4.421-3.235 6.819-1.872l.13.074c2.4 1.366 3.238 4.42 1.872 6.819-.922 1.619-2.612 2.527-4.35 2.527z"/><path d="m133.086 397.053c-.85 0-1.711-.217-2.5-.674l-.13-.075c-2.39-1.384-3.206-4.442-1.822-6.832 1.383-2.391 4.44-3.208 6.833-1.822l.13.075c2.39 1.384 3.206 4.442 1.822 6.832-.928 1.601-2.607 2.496-4.333 2.496z"/></g><g><path d="m108.904 397.053c-1.729 0-3.41-.897-4.336-2.503-1.38-2.392-.559-5.449 1.833-6.829l.13-.075c2.391-1.381 5.449-.559 6.829 1.833s.559 5.449-1.833 6.829l-.13.075c-.787.454-1.646.67-2.493.67z"/><path d="m132.965 383.16c-1.736 0-3.423-.905-4.346-2.521-1.37-2.397-.537-5.451 1.861-6.821l.13-.074c2.396-1.37 5.452-.538 6.822 1.86 1.37 2.397.537 5.451-1.861 6.821l-.13.074c-.782.448-1.634.661-2.476.661z"/></g></g><g fill="#ff4d4d"><g><path d="m245.922 88.852c-2.761 0-5-2.238-5-5v-.149c0-2.762 2.239-5 5-5s5 2.238 5 5v.149c0 2.761-2.238 5-5 5z"/><path d="m245.922 116.636c-2.761 0-5-2.238-5-5v-.149c0-2.762 2.239-5 5-5s5 2.238 5 5v.149c0 2.761-2.238 5-5 5z"/></g><g><path d="m233.952 95.762c-.85 0-1.711-.217-2.5-.674l-.13-.075c-2.39-1.384-3.206-4.442-1.822-6.832 1.383-2.391 4.441-3.207 6.833-1.822l.13.075c2.39 1.384 3.206 4.442 1.822 6.832-.928 1.601-2.607 2.496-4.333 2.496z"/><path d="m258.014 109.653c-.851 0-1.711-.217-2.5-.674l-.13-.075c-2.39-1.384-3.206-4.442-1.822-6.832 1.384-2.391 4.444-3.206 6.832-1.822l.13.075c2.39 1.384 3.206 4.442 1.822 6.832-.927 1.602-2.607 2.496-4.332 2.496z"/></g><g><path d="m233.832 109.653c-1.726 0-3.405-.895-4.332-2.496-1.384-2.39-.568-5.448 1.822-6.832l.13-.075c2.392-1.386 5.449-.568 6.833 1.822s.568 5.448-1.822 6.832l-.13.075c-.79.458-1.651.674-2.501.674z"/><path d="m257.894 95.762c-1.726 0-3.405-.895-4.332-2.496-1.384-2.39-.568-5.448 1.822-6.832l.13-.075c2.393-1.385 5.45-.567 6.833 1.822 1.384 2.39.567 5.448-1.822 6.832l-.13.075c-.79.457-1.652.674-2.501.674z"/></g></g></g></g></svg>