<svg id="Capa_1" enable-background="new 0 0 512 512" height="512" viewBox="0 0 512 512" width="512" xmlns="http://www.w3.org/2000/svg" xmlns:xlink="http://www.w3.org/1999/xlink"><linearGradient id="SVGID_1_" gradientUnits="userSpaceOnUse" x1="48.606" x2="438.791" y1="463.622" y2="-1.382"><stop offset="0" stop-color="#fff3ee" stop-opacity="0"/><stop offset=".2938" stop-color="#ffeade" stop-opacity=".373"/><stop offset=".7874" stop-color="#ffd6bb"/></linearGradient><g><g><path d="m418.32 2.5c-55.666-9.521-178.298 12.183-200.004 105.017-14.431 61.722-14.007 112.075-50.427 113.02-21.67.562-32.97-44.31-62.889-48.001-39.047-4.817-66.145 27.695-83.057 57.138-37.205 64.772-25.571 174.918 23.354 228.632 118.488 130.086 259.197-5.952 319.358-112.309 38.585-68.213 125.637-123.352 143.767-200.248 15.177-64.376-18.503-131.003-90.102-143.249z" fill="url(#SVGID_1_)"/></g><g><g><path d="m475.972 384.053h-14.728l-10.336-43.429c-1.072-4.505-5.097-7.685-9.728-7.685h-19.412v-42.51h17.056c2.761 0 5-2.239 5-5v-22.098c0-2.761-2.239-5-5-5h-1.007l-8.178-34.538c-1.068-4.511-5.096-7.696-9.731-7.696h-35.135c-4.635 0-8.663 3.185-9.731 7.696l-.825 3.483h-55.937v-31.056c0-5.523-4.477-10-10-10h-8.95c-7.156 0-14.204-1.742-20.536-5.076l-60.306-31.755c-1.076-4.361-5.004-7.6-4.698-7.6h-73.27c-9.694 0-13.621 3.239-14.698 7.6l-60.306 31.755c-6.332 3.334-13.38 5.076-20.536 5.076h-8.95c-5.523 0-10 4.477-10 10v93.168c0 5.523 4.477 10 10 10h8.95c7.156 0 14.204 1.742 20.536 5.076l60.306 31.755c1.077 4.361 5.004 7.6 9.698 7.6h68.27c4.694 0 8.621-3.239 9.698-7.6l60.306-31.755c6.332-3.334 13.38-5.076 20.536-5.076h8.95c5.523 0 10-4.477 10-10v-31.057h52.577c-2.761 0-5 2.239-5 5v22.098c0 2.761 2.239 5 5 5h17.055v42.51h-25.422c-3.452 0-6.66 1.78-8.486 4.71l-28.927 46.404h-17.817c-6.141 0-10.831 5.483-9.879 11.549l1.255 8.005c1.113 7.099 7.229 12.331 14.416 12.331h162.128c7.186 0 13.302-5.232 14.416-12.331l1.255-8.005c.951-6.066-3.739-11.549-9.879-11.549z" fill="#2626bc" opacity=".1"/><path d="m382.912 251.07h38.855v66.649h-38.855z" fill="#ebebff"/><path d="m382.912 251.07h38.855v33.881h-38.855z" fill="#d9d9ff"/><g><path d="m463.151 367.067-12.244-51.443c-1.072-4.505-5.097-7.685-9.728-7.685h-83.689c-3.452 0-6.66 1.78-8.486 4.71l-33.923 54.418z" fill="#fff"/><path d="m470.18 390.939h-162.128c-7.186 0-13.302-5.232-14.416-12.331l-1.255-8.005c-.951-6.066 3.739-11.549 9.879-11.549h173.711c6.141 0 10.831 5.483 9.879 11.549l-1.255 8.005c-1.113 7.099-7.229 12.331-14.415 12.331z" fill="#ebebff"/></g><path d="m438.822 265.429h-72.966c-2.761 0-5-2.239-5-5v-22.098c0-2.761 2.239-5 5-5h72.966c2.761 0 5 2.239 5 5v22.098c0 2.762-2.238 5-5 5z" fill="#b3b3ff"/><path d="m259.495 202.277h125.388v31.055h-125.388z" fill="#9494ff"/><path d="m437.816 233.332h-70.953l8.178-34.538c1.068-4.511 5.096-7.696 9.731-7.696h35.136c4.635 0 8.663 3.185 9.731 7.696z" fill="#ebebff"/><g><g><g><path d="m294.329 161.22c-7.156 0-14.204-1.742-20.536-5.076l-64.128-33.767v190.855l64.128-33.767c6.332-3.334 13.38-5.076 20.536-5.076h8.95c5.523 0 10-4.477 10-10v-93.169c0-5.523-4.477-10-10-10z" fill="#8383ff"/><path d="m313.276 171.224v93.16c0 5.53-4.47 10-10 10h-8.95c-3.4 0-6.79.4-10.08 1.18v-115.52c3.29.78 6.68 1.18 10.08 1.18h8.95c5.53 0 10 4.47 10 10z" fill="#ffab66"/></g><g><path d="m44.979 161.22c7.156 0 14.204-1.742 20.536-5.076l64.128-33.767v190.855l-64.128-33.767c-6.332-3.334-13.38-5.076-20.536-5.076h-8.95c-5.523 0-10-4.477-10-10v-93.169c0-5.523 4.477-10 10-10z" fill="#8383ff"/></g><path d="m55.066 160.044v115.52c-3.29-.78-6.68-1.18-10.09-1.18h-8.95c-5.52 0-10-4.47-10-10v-93.16c0-5.53 4.48-10 10-10h8.95c3.41 0 6.8-.4 10.09-1.18z" fill="#ffab66"/></g><path d="m203.789 116.789h-68.27c-5.523 0-10 4.477-10 10v182.03c0 5.523 4.477 10 10 10h68.27c5.523 0 10-4.477 10-10v-182.03c0-5.523-4.477-10-10-10z" fill="#b3b3ff"/><path d="m173.288 152.937h-47.768v42.337h47.768c2.761 0 5-2.239 5-5v-32.337c0-2.761-2.239-5-5-5z" fill="#d9d9ff"/><path d="m487.371 359.304c-2.854-3.337-7.009-5.25-11.399-5.25h-10.778l-1.991-8.366c1.758-.775 2.989-2.527 2.989-4.572 0-2.762-2.238-5-5-5h-.267l-5.153-21.65c-1.615-6.786-7.616-11.526-14.593-11.526h-14.412v-32.51h12.056c5.514 0 10-4.486 10-10v-22.098c0-4.445-2.918-8.219-6.938-9.516l-7.381-31.173c-1.608-6.798-7.61-11.545-14.596-11.545h-35.136c-6.872 0-12.782 4.599-14.504 11.218-.129-.01-.253-.039-.385-.039h-51.604v-26.057c0-8.271-6.729-15-15-15h-8.95c-6.319 0-12.615-1.557-18.207-4.5l-58.544-30.827c-2.295-5.348-7.611-9.104-13.789-9.104h-68.27c-6.205 0-11.542 3.787-13.821 9.171-.138.058-.28.097-.414.168l-58.098 30.592c-5.592 2.943-11.887 4.5-18.207 4.5h-8.95c-8.271 0-15 6.729-15 15v93.169c0 8.271 6.729 15 15 15h8.95c6.319 0 12.615 1.557 18.207 4.5l58.098 30.592c.14.074.283.133.426.192 2.285 5.371 7.614 9.147 13.81 9.147h68.27c6.178 0 11.493-3.756 13.788-9.103l58.545-30.828c5.592-2.943 11.888-4.5 18.207-4.5h8.95c8.271 0 15-6.729 15-15v-26.057h37.577v22.098c0 5.514 4.486 10 10 10h12.056v32.51h-20.423c-5.212 0-9.971 2.641-12.729 7.065l-16.276 26.111h-1.85c-2.762 0-5 2.238-5 5 0 1.401.579 2.664 1.508 3.571l-5.839 9.366h-15.042c-4.391 0-8.545 1.913-11.399 5.25-2.854 3.336-4.101 7.736-3.42 12.073l1.256 8.006c1.504 9.594 9.645 16.557 19.354 16.557h162.127c9.711 0 17.852-6.963 19.355-16.557l1.256-8.006c.681-4.336-.566-8.736-3.42-12.072zm-102.6-163.206h35.136c2.328 0 4.329 1.582 4.865 3.849l6.721 28.386h-58.308l6.721-28.387c.536-2.266 2.537-3.848 4.865-3.848zm-339.792 73.291h-8.95c-2.757 0-5-2.243-5-5v-93.169c0-2.757 2.243-5 5-5h8.95c7.936 0 15.843-1.954 22.866-5.652l52.674-27.736v169.945l-52.674-27.736c-7.022-3.698-14.929-5.652-22.866-5.652zm263.3-5c0 2.757-2.243 5-5 5h-8.95c-7.937 0-15.843 1.954-22.865 5.652l-52.675 27.737v-94.243c0-2.762-2.239-5-5-5s-5 2.238-5 5v100.285c0 2.757-2.243 5-5 5h-68.27c-2.757 0-5-2.243-5-5v-182.03c0-2.757 2.243-5 5-5h68.27c2.757 0 5 2.243 5 5v52.645c0 2.762 2.239 5 5 5s5-2.238 5-5v-46.602l52.675 27.736c7.022 3.698 14.929 5.652 22.865 5.652h8.95c2.757 0 5 2.243 5 5zm10-36.057v-21.055h49.615l-4.985 21.055zm47.577 10h1.007 70.952 1.007l.006 22.098h-72.972zm22.056 32.098h28.854v32.51h-28.854zm-34.665 44.865c.919-1.475 2.506-2.355 4.243-2.355h83.688c2.325 0 4.326 1.58 4.864 3.842l4.602 19.335h-110.376zm127.665 54.533-1.256 8.006c-.736 4.696-4.723 8.105-9.477 8.105h-162.127c-4.754 0-8.739-3.409-9.476-8.105l-1.256-8.006c-.229-1.467.175-2.896 1.141-4.024.965-1.129 2.314-1.75 3.8-1.75h45.189c2.762 0 5-2.238 5-5s-2.238-5-5-5h-18.364l4.948-7.938h118.991l1.889 7.938h-78.363c-2.762 0-5 2.238-5 5s2.238 5 5 5h99.421c1.485 0 2.835.621 3.8 1.75.965 1.128 1.37 2.557 1.14 4.024z" fill="#00c"/></g></g><g fill="#ff9d33"><g><path d="m97.167 358.25c-2.761 0-5-2.238-5-5v-.149c0-2.762 2.239-5 5-5s5 2.238 5 5v.149c0 2.762-2.239 5-5 5z"/><path d="m97.167 386.034c-2.761 0-5-2.238-5-5v-.149c0-2.762 2.239-5 5-5s5 2.238 5 5v.149c0 2.762-2.239 5-5 5z"/></g><g><path d="m85.196 365.16c-.848 0-1.706-.216-2.493-.67l-.13-.075c-2.392-1.38-3.213-4.438-1.833-6.829s4.436-3.213 6.829-1.833l.13.075c2.392 1.38 3.213 4.438 1.833 6.829-.926 1.606-2.607 2.503-4.336 2.503z"/><path d="m109.258 379.052c-.85 0-1.711-.217-2.5-.674l-.13-.075c-2.39-1.384-3.206-4.442-1.822-6.832s4.441-3.207 6.833-1.822l.13.075c2.39 1.384 3.206 4.442 1.822 6.832-.928 1.601-2.607 2.496-4.333 2.496z"/></g><g><path d="m85.076 379.052c-1.729 0-3.41-.897-4.336-2.503-1.38-2.392-.559-5.449 1.833-6.829l.13-.075c2.392-1.383 5.449-.56 6.829 1.833 1.38 2.392.559 5.449-1.833 6.829l-.13.075c-.787.454-1.646.67-2.493.67z"/><path d="m109.138 365.16c-1.726 0-3.405-.895-4.332-2.496-1.384-2.39-.568-5.448 1.822-6.832l.13-.075c2.392-1.385 5.449-.567 6.833 1.822 1.384 2.39.568 5.448-1.822 6.832l-.13.075c-.79.457-1.651.674-2.501.674z"/></g></g><g fill="#6c6cff"><g><path d="m315.081 101.211c-2.762 0-5-2.238-5-5v-.15c0-2.762 2.238-5 5-5s5 2.238 5 5v.15c0 2.762-2.238 5-5 5z"/><path d="m315.081 128.995c-2.762 0-5-2.238-5-5v-.15c0-2.762 2.238-5 5-5s5 2.238 5 5v.15c0 2.762-2.238 5-5 5z"/></g><g><path d="m303.11 108.12c-.851 0-1.712-.217-2.5-.674l-.13-.075c-2.39-1.384-3.206-4.442-1.822-6.832 1.384-2.391 4.445-3.206 6.832-1.822l.13.075c2.39 1.384 3.206 4.442 1.822 6.832-.926 1.602-2.606 2.496-4.332 2.496z"/><path d="m327.173 122.013c-.845 0-1.701-.215-2.486-.666l-.131-.075c-2.395-1.376-3.22-4.432-1.844-6.826s4.432-3.22 6.826-1.844l.131.075c2.395 1.376 3.22 4.432 1.844 6.826-.925 1.609-2.609 2.51-4.34 2.51z"/></g><g><path d="m302.99 122.013c-1.727 0-3.405-.895-4.332-2.496-1.384-2.39-.567-5.448 1.822-6.832l.13-.075c2.389-1.387 5.449-.568 6.832 1.822 1.384 2.39.567 5.448-1.822 6.832l-.13.075c-.788.457-1.65.674-2.5.674z"/><path d="m327.052 108.12c-1.732 0-3.415-.9-4.34-2.51-1.376-2.395-.551-5.45 1.844-6.826l.131-.075c2.396-1.377 5.45-.551 6.826 1.844s.551 5.45-1.844 6.826l-.131.075c-.785.451-1.642.666-2.486.666z"/></g></g><path d="m146.696 407.272c-2.761 0-5-2.238-5-5 0-3.492-2.841-6.333-6.333-6.333-2.761 0-5-2.238-5-5s2.239-5 5-5c3.492 0 6.333-2.841 6.333-6.333 0-2.762 2.239-5 5-5s5 2.238 5 5c0 3.492 2.841 6.333 6.333 6.333 2.761 0 5 2.238 5 5s-2.239 5-5 5c-3.492 0-6.333 2.841-6.333 6.333 0 2.762-2.239 5-5 5z" fill="#6c6cff"/><path d="m360.856 152.801c-2.762 0-5-2.238-5-5 0-3.492-2.842-6.334-6.334-6.334-2.762 0-5-2.238-5-5s2.238-5 5-5c3.492 0 6.334-2.841 6.334-6.333 0-2.762 2.238-5 5-5s5 2.238 5 5c0 3.492 2.841 6.333 6.333 6.333 2.762 0 5 2.238 5 5s-2.238 5-5 5c-3.492 0-6.333 2.842-6.333 6.334 0 2.762-2.238 5-5 5z" fill="#ff4d4d"/><path d="m271.324 353.837c-2.762 0-5-2.238-5-5 0-3.492-2.841-6.333-6.333-6.333-2.762 0-5-2.238-5-5s2.238-5 5-5c3.492 0 6.333-2.842 6.333-6.334 0-2.762 2.238-5 5-5s5 2.238 5 5c0 3.492 2.841 6.334 6.333 6.334 2.762 0 5 2.238 5 5s-2.238 5-5 5c-3.492 0-6.333 2.841-6.333 6.333 0 2.762-2.238 5-5 5z" fill="#ff9d33"/></g></g></svg>