<svg id="Capa_1" enable-background="new 0 0 512 512" height="512" viewBox="0 0 512 512" width="512" xmlns="http://www.w3.org/2000/svg" xmlns:xlink="http://www.w3.org/1999/xlink"><linearGradient id="SVGID_1_" gradientUnits="userSpaceOnUse" x1="0" x2="512" y1="256" y2="256"><stop offset="0" stop-color="#ffd9d9" stop-opacity="0"/><stop offset=".9981" stop-color="#ffb3b3"/></linearGradient><g><g><path d="m451.798 43.963c-160.556-97.869-410.51-8.611-439.594 61.949-38.908 94.394 26.578 110.528 38.743 187.874 9.761 62.061-51.182 121.495-16.394 176.282 37.883 59.663 163.465 44.681 211.198 16.447 87.376-51.683 43.309-112.012 84.684-187.299 39.407-71.707 116.244-42.625 160.961-99.99 42.5-54.521 14.31-122.402-39.598-155.263z" fill="url(#SVGID_1_)"/></g><g><g><g fill="#2626bc" opacity=".1"><path d="m439.339 158.67h-109.676c-5.523 0-10 4.477-10 10v47.394l-11.046-3.916c-2.431-.862-5.121-.579-7.319.769l-13.622 8.354c-.06.037-.116.08-.176.117.991-4.19 1.484-8.573 1.382-13.09-.638-28.235-24.336-50.515-52.578-50.515h-.004c-9.221 0-17.544-5.526-21.123-14.025l-.852-2.024h-19.305c-3.638-36.069-34.857-63.997-72.245-62.368-36.294 1.581-65.512 31.431-66.367 67.749-.922 39.147 30.536 71.17 69.474 71.17 1.458 0 2.902-.06 4.338-.148 4.144 26.436 11.975 57.975 26.381 91.748 25.195 59.068 16.452 100.362 4.54 124.735-2.591 5.302-4.417 10.924-5.389 16.702-.729 4.338 2.622 8.293 7.021 8.293h122.3c59.605-7.325 110.977-39.135 111.188-100.251.1-28.791-6.026-55.368-18.1-76.746h61.179c5.523 0 10-4.477 10-10v-103.948c-.001-5.523-4.478-10-10.001-10z"/><path d="m114.735 238.537h-18.583c-2.761 0-5 2.238-5 5s2.239 5 5 5h18.583c2.761 0 5-2.238 5-5s-2.239-5-5-5z"/><path d="m114.735 256.919h-58.583c-2.761 0-5 2.238-5 5s2.239 5 5 5h58.583c2.761 0 5-2.238 5-5s-2.239-5-5-5z"/><path d="m114.735 275.301h-58.583c-2.761 0-5 2.238-5 5s2.239 5 5 5h58.583c2.761 0 5-2.238 5-5s-2.239-5-5-5z"/></g><g><path d="m439.339 257.62h-109.676c-5.523 0-10-4.477-10-10v-103.95c0-5.523 4.477-10 10-10h109.676c5.523 0 10 4.477 10 10v103.95c0 5.523-4.477 10-10 10z" fill="#fff"/><path d="m449.339 163.928v-20.258c0-5.523-4.477-10-10-10h-109.676c-5.523 0-10 4.477-10 10v20.258z" fill="#ff9d33"/><g><g><g><path d="m349.618 185.273h-5.691c-2.761 0-5-2.238-5-5s2.239-5 5-5h5.691c2.761 0 5 2.238 5 5s-2.239 5-5 5z" fill="#6c6cff"/></g><g><path d="m374.77 185.273h-5.691c-2.761 0-5-2.238-5-5s2.239-5 5-5h5.691c2.761 0 5 2.238 5 5s-2.239 5-5 5z" fill="#6c6cff"/></g><g><path d="m399.923 185.273h-5.691c-2.761 0-5-2.238-5-5s2.239-5 5-5h5.691c2.761 0 5 2.238 5 5s-2.239 5-5 5z" fill="#6c6cff"/></g><g><path d="m425.076 185.273h-5.691c-2.761 0-5-2.238-5-5s2.239-5 5-5h5.691c2.761 0 5 2.238 5 5s-2.239 5-5 5z" fill="#ff6c6c"/></g></g><g><g><path d="m349.618 203.003h-5.691c-2.761 0-5-2.238-5-5s2.239-5 5-5h5.691c2.761 0 5 2.238 5 5s-2.239 5-5 5z" fill="#6c6cff"/></g><g><path d="m374.77 203.003h-5.691c-2.761 0-5-2.238-5-5s2.239-5 5-5h5.691c2.761 0 5 2.238 5 5s-2.239 5-5 5z" fill="#6c6cff"/></g><g><path d="m399.923 203.003h-5.691c-2.761 0-5-2.238-5-5s2.239-5 5-5h5.691c2.761 0 5 2.238 5 5s-2.239 5-5 5z" fill="#6c6cff"/></g><g><path d="m425.076 203.003h-5.691c-2.761 0-5-2.238-5-5s2.239-5 5-5h5.691c2.761 0 5 2.238 5 5s-2.239 5-5 5z" fill="#ff6c6c"/></g></g><g><g><path d="m349.618 220.733h-5.691c-2.761 0-5-2.238-5-5s2.239-5 5-5h5.691c2.761 0 5 2.238 5 5s-2.239 5-5 5z" fill="#6c6cff"/></g><g><path d="m374.77 220.733h-5.691c-2.761 0-5-2.238-5-5s2.239-5 5-5h5.691c2.761 0 5 2.238 5 5s-2.239 5-5 5z" fill="#6c6cff"/></g><g><path d="m399.923 220.733h-5.691c-2.761 0-5-2.238-5-5s2.239-5 5-5h5.691c2.761 0 5 2.238 5 5s-2.239 5-5 5z" fill="#6c6cff"/></g><g><path d="m425.076 220.733h-5.691c-2.761 0-5-2.238-5-5s2.239-5 5-5h5.691c2.761 0 5 2.238 5 5s-2.239 5-5 5z" fill="#ff6c6c"/></g></g><g><g><path d="m349.618 238.463h-5.691c-2.761 0-5-2.238-5-5s2.239-5 5-5h5.691c2.761 0 5 2.238 5 5s-2.239 5-5 5z" fill="#6c6cff"/></g><g><path d="m374.77 238.463h-5.691c-2.761 0-5-2.238-5-5s2.239-5 5-5h5.691c2.761 0 5 2.238 5 5s-2.239 5-5 5z" fill="#6c6cff"/></g><g><path d="m399.923 238.463h-5.691c-2.761 0-5-2.238-5-5s2.239-5 5-5h5.691c2.761 0 5 2.238 5 5s-2.239 5-5 5z" fill="#ff6c6c"/></g><g><path d="m425.076 238.463h-5.691c-2.761 0-5-2.238-5-5s2.239-5 5-5h5.691c2.761 0 5 2.238 5 5s-2.239 5-5 5z" fill="#ff6c6c"/></g></g></g></g><g><path d="m288.894 206.548h-.05c-2.28 0-3.834-2.267-3.054-4.409 2.021-5.551 3.119-11.544 3.104-17.797-.07-28.644-23.947-51.557-52.591-51.557h-.003c-9.221 0-17.544-5.526-21.123-14.025l-.852-2.024h-87.369s-9.773 75.739 29.645 168.151c25.195 59.068 16.452 100.362 4.54 124.735-3.818 7.812-5.975 16.317-6.184 24.995h130.115c59.605-7.325 110.977-39.135 111.188-100.251.244-70.55-36.873-127.818-107.366-127.818z" fill="#ffd6bb"/><path d="m161.438 408.995c-.1.207-.197.423-.297.627-3.818 7.812-5.975 16.317-6.184 24.995h130.115c27.095-3.33 52.486-11.72 72.146-25.622z" fill="#8383ff"/><g fill="#9494ff"><path d="m181.946 408.995h16.143v25.622h-16.143z"/><path d="m220.665 408.995h16.143v25.622h-16.143z"/><path d="m259.385 408.995h16.143v25.622h-16.143z"/><path d="m314.248 408.991v19.83c-5.26 1.49-10.65 2.74-16.14 3.78v-23.61z"/><path d="m357.218 408.991c-6.26 4.43-13.1 8.3-20.39 11.62v-11.62z"/></g><path d="m356.858 230.921v1.68c-9.3-.48-23.58 2.7-30.12 18.51-6.25 15.09-18.9 41.4-27.7 59.38-2.88 5.87-7.29 10.66-12.62 13.99-5.34 3.32-11.58 5.18-18.12 5.18-13.72 0-26.11-8.2-31.49-20.82 10-16.47 60.33-80.25 75.93-99.91 17.35 3.63 32.08 11.27 44.12 21.99z" fill="#ffc599"/><path d="m335.126 196.545-26.509-9.397c-2.431-.862-5.121-.579-7.319.769l-13.622 8.354c-5.715 3.505-10.22 8.675-12.91 14.815l-14.759 33.685-27.03-69.686h-62.507l50.28 118.516c5.364 12.644 17.768 20.856 31.503 20.856 13.068 0 24.992-7.436 30.736-19.174 8.798-17.979 21.454-44.29 27.698-59.381 6.543-15.812 20.82-18.989 30.127-18.51v-12.797c-.001-3.616-2.279-6.841-5.688-8.05z" fill="#ffd6bb"/><path d="m370.055 337.243c9.49-9.49 9.49-24.875 0-34.365-9.49-9.49-24.875-9.49-34.365 0l-3.862 3.862-3.862-3.862c-9.49-9.49-24.875-9.49-34.365 0-9.49 9.49-9.49 24.875 0 34.365l35.843 35.843c1.317 1.317 3.451 1.317 4.768 0z" fill="#ff4d4d"/></g><g><circle cx="125.881" cy="123.793" fill="#ff4d4d" r="69.494"/><path d="m158.218 109.152h-17.695v-17.695c0-5.523-4.477-10-10-10h-9.282c-5.523 0-10 4.477-10 10v17.695h-17.696c-5.523 0-10 4.477-10 10v9.282c0 5.523 4.477 10 10 10h17.695v17.695c0 5.523 4.477 10 10 10h9.282c5.523 0 10-4.477 10-10v-17.695h17.695c5.523 0 10-4.477 10-10v-9.282c.001-5.523-4.476-10-9.999-10z" fill="#fff"/></g><path d="m139.988 368.004c-2.761 0-5-2.238-5-5 0-3.492-2.841-6.334-6.333-6.334-2.761 0-5-2.238-5-5s2.239-5 5-5c3.492 0 6.333-2.841 6.333-6.333 0-2.762 2.239-5 5-5s5 2.238 5 5c0 3.492 2.841 6.333 6.333 6.333 2.761 0 5 2.238 5 5s-2.239 5-5 5c-3.492 0-6.333 2.842-6.333 6.334 0 2.762-2.239 5-5 5z" fill="#ff4d4d"/><path d="m338.927 95.633c-2.761 0-5-2.238-5-5 0-3.492-2.841-6.333-6.333-6.333-2.761 0-5-2.238-5-5s2.239-5 5-5c3.492 0 6.333-2.841 6.333-6.333 0-2.762 2.239-5 5-5s5 2.238 5 5c0 3.492 2.841 6.333 6.333 6.333 2.761 0 5 2.238 5 5s-2.239 5-5 5c-3.492 0-6.333 2.841-6.333 6.333 0 2.762-2.239 5-5 5z" fill="#6c6cff"/><path d="m439.057 327.263c-2.761 0-5-2.238-5-5 0-3.492-2.841-6.333-6.333-6.333-2.761 0-5-2.238-5-5s2.239-5 5-5c3.492 0 6.333-2.841 6.333-6.333 0-2.762 2.239-5 5-5s5 2.238 5 5c0 3.492 2.841 6.333 6.333 6.333 2.761 0 5 2.238 5 5s-2.239 5-5 5c-3.492 0-6.333 2.841-6.333 6.333 0 2.761-2.239 5-5 5z" fill="#6c6cff"/><g fill="#ff9d33"><g><path d="m121.688 297.703c-2.761 0-5-2.238-5-5v-.15c0-2.762 2.239-5 5-5s5 2.238 5 5v.15c0 2.762-2.238 5-5 5z"/><path d="m121.688 325.487c-2.761 0-5-2.238-5-5v-.15c0-2.762 2.239-5 5-5s5 2.238 5 5v.15c0 2.762-2.238 5-5 5z"/></g><g><path d="m109.718 304.612c-.85 0-1.711-.217-2.5-.674l-.13-.075c-2.39-1.384-3.206-4.442-1.822-6.832 1.383-2.39 4.441-3.207 6.833-1.822l.13.075c2.39 1.384 3.206 4.442 1.822 6.832-.928 1.602-2.607 2.496-4.333 2.496z"/><path d="m133.78 318.504c-.848 0-1.706-.216-2.493-.67l-.13-.075c-2.392-1.38-3.213-4.438-1.833-6.829 1.38-2.393 4.436-3.214 6.829-1.833l.13.075c2.392 1.38 3.213 4.438 1.833 6.829-.926 1.605-2.607 2.503-4.336 2.503z"/></g><g><path d="m109.598 318.504c-1.726 0-3.405-.895-4.332-2.496-1.384-2.39-.568-5.448 1.822-6.832l.13-.075c2.392-1.385 5.45-.567 6.833 1.822 1.384 2.39.568 5.448-1.822 6.832l-.13.075c-.79.457-1.651.674-2.501.674z"/><path d="m133.659 304.612c-1.729 0-3.41-.897-4.336-2.503-1.38-2.392-.559-5.449 1.833-6.829l.13-.075c2.392-1.381 5.449-.559 6.829 1.833s.559 5.449-1.833 6.829l-.13.075c-.786.454-1.646.67-2.493.67z"/></g></g><g fill="#ff4d4d"><g><path d="m293.197 86.146c-2.761 0-5-2.238-5-5v-.15c0-2.762 2.239-5 5-5s5 2.238 5 5v.15c0 2.761-2.239 5-5 5z"/><path d="m293.197 113.93c-2.761 0-5-2.238-5-5v-.15c0-2.762 2.239-5 5-5s5 2.238 5 5v.15c0 2.761-2.239 5-5 5z"/></g><g><path d="m281.227 93.056c-.85 0-1.711-.217-2.5-.674l-.13-.075c-2.39-1.384-3.206-4.442-1.822-6.832 1.383-2.39 4.44-3.207 6.833-1.822l.13.075c2.39 1.384 3.206 4.442 1.822 6.832-.928 1.601-2.607 2.496-4.333 2.496z"/><path d="m305.288 106.947c-.85 0-1.711-.217-2.5-.674l-.13-.075c-2.39-1.384-3.206-4.442-1.822-6.832 1.383-2.39 4.44-3.207 6.833-1.822l.13.075c2.39 1.384 3.206 4.442 1.822 6.832-.928 1.602-2.607 2.496-4.333 2.496z"/></g><g><path d="m281.106 106.947c-1.726 0-3.405-.895-4.332-2.496-1.384-2.39-.568-5.448 1.822-6.832l.13-.075c2.391-1.385 5.45-.567 6.833 1.822 1.384 2.39.568 5.448-1.822 6.832l-.13.075c-.789.457-1.65.674-2.501.674z"/><path d="m305.168 93.056c-1.726 0-3.405-.895-4.332-2.496-1.384-2.39-.568-5.448 1.822-6.832l.13-.075c2.391-1.385 5.449-.567 6.833 1.822s.568 5.448-1.822 6.832l-.13.075c-.79.457-1.651.674-2.501.674z"/></g></g></g><g fill="#00c"><path d="m439.339 128.67h-109.675c-8.271 0-15 6.729-15 15v40.317l-4.376-1.551c-3.875-1.372-8.103-.926-11.604 1.22l-4.844 2.971c.029-.765.057-1.53.055-2.296-.076-31.18-25.911-56.546-57.594-56.546-7.228 0-13.71-4.304-16.515-10.964l-.852-2.024c-1.071-2.546-4.003-3.738-6.548-2.669-2.545 1.071-3.74 4.003-2.669 6.548l.853 2.025c4.37 10.378 14.47 17.084 25.734 17.084 26.179 0 47.528 20.892 47.591 46.569.007 3.032-.292 6.056-.862 9.009-5.638 3.972-10.059 9.356-12.847 15.718l-9.898 22.591-22.649-58.393c-.999-2.574-3.896-3.852-6.47-2.853-2.575.998-3.852 3.895-2.854 6.47l27.03 69.686c.732 1.887 2.53 3.146 4.554 3.19 2.044.075 3.875-1.138 4.687-2.992l14.759-33.686c2.292-5.23 6.077-9.573 10.945-12.559l13.622-8.355c.916-.562 2.023-.678 3.035-.318l26.507 9.396c1.411.5 2.359 1.842 2.359 3.338v7.905c-8.543.723-22.756 4.596-29.747 21.49-6.107 14.759-18.363 40.282-27.569 59.096-4.867 9.945-15.168 16.372-26.245 16.372-11.752 0-22.311-6.99-26.9-17.81l-37.53-88.463c-1.078-2.541-4.013-3.729-6.556-2.649-2.542 1.078-3.729 4.013-2.65 6.556l3.666 8.641h-5.655c-2.761 0-5 2.238-5 5s2.239 5 5 5h9.898l29.622 69.822c6.161 14.521 20.333 23.903 36.106 23.903 14.866 0 28.694-8.627 35.227-21.978 9.269-18.941 21.621-44.668 27.827-59.666 4.803-11.605 14.207-14.667 20.712-15.313 17.6 9.275 31.413 23.996 41.049 43.783 9.372 19.244 14.28 42.779 14.192 68.063-.094 27.192-10.684 49.544-31.474 66.435-18.611 15.119-44.658 25.104-75.324 28.871-2.741.337-4.689 2.832-4.353 5.572.312 2.534 2.467 4.392 4.957 4.392.204 0 .409-.013.616-.038 32.533-3.998 60.338-14.729 80.409-31.035 22.904-18.607 35.065-44.252 35.169-74.161.092-26.804-5.164-51.865-15.202-72.477-9.494-19.493-23.333-35.031-40.245-45.327v-11.984c0-5.722-3.624-10.851-9.018-12.764l-12.132-4.301v-43.861c0-2.757 2.243-5 5-5h109.675c2.757 0 5 2.243 5 5v103.95c0 2.757-2.243 5-5 5h-30.468c-2.761 0-5 2.238-5 5s2.239 5 5 5h30.468c8.271 0 15-6.729 15-15v-103.95c.001-8.272-6.728-15-14.999-15z"/><path d="m136.023 197.583c30.806-4.262 56.426-27.632 62.82-58.698.557-2.704-1.185-5.349-3.889-5.905-2.705-.563-5.349 1.184-5.906 3.89-6.133 29.794-32.698 51.418-63.167 51.418-35.562 0-64.494-28.932-64.494-64.494s28.932-64.493 64.494-64.493c30.029 0 56.51 21.26 62.965 50.552.594 2.696 3.257 4.401 5.959 3.807 2.697-.595 4.401-3.262 3.807-5.959-3.594-16.311-12.746-31.128-25.768-41.724-13.216-10.755-29.894-16.677-46.963-16.677-41.076 0-74.494 33.418-74.494 74.493 0 41.076 33.417 74.494 74.494 74.494.039 0 .078-.003.117-.003 5.104 30.266 13.841 60.052 26.003 88.564 24.488 57.41 16.043 97.259 4.647 120.578-4.215 8.625-6.465 17.732-6.69 27.069-.066 2.761 2.118 5.053 4.878 5.119.041.001.082.001.123.001 2.706 0 4.931-2.16 4.996-4.88.189-7.887 2.1-15.598 5.677-22.919 12.313-25.193 21.538-68.005-4.433-128.893-11.724-27.484-20.181-56.181-25.176-85.34z"/><path d="m114.735 213.538h-18.583c-2.761 0-5 2.238-5 5s2.239 5 5 5h18.583c2.761 0 5-2.238 5-5s-2.239-5-5-5z"/><path d="m114.735 231.919h-58.583c-2.761 0-5 2.238-5 5s2.239 5 5 5h58.583c2.761 0 5-2.238 5-5s-2.239-5-5-5z"/><path d="m114.735 250.301h-58.583c-2.761 0-5 2.238-5 5s2.239 5 5 5h58.583c2.761 0 5-2.238 5-5s-2.239-5-5-5z"/></g></g></g></svg>