<svg id="Capa_1" enable-background="new 0 0 512 512" height="512" viewBox="0 0 512 512" width="512" xmlns="http://www.w3.org/2000/svg" xmlns:xlink="http://www.w3.org/1999/xlink"><linearGradient id="SVGID_1_" gradientUnits="userSpaceOnUse" x1="96.524" x2="444.685" y1="446.558" y2="31.635"><stop offset="0" stop-color="#fff3ee" stop-opacity="0"/><stop offset=".2938" stop-color="#ffeade" stop-opacity=".373"/><stop offset=".7874" stop-color="#ffd6bb"/></linearGradient><g><g><path d="m4.896 317.118c17.448 172.872 292.417 167.143 420.804 136.266 82.47-19.834 87.596-59.472 86.106-144.001-.96-54.486 3.443-198.725-32.004-244.123-54.448-69.733-103.228-25.998-170.656-3.235-86.488 29.197-120.189-22.932-202.476-21.38-120.641 2.278-110.779 187.251-101.774 276.473z" fill="url(#SVGID_1_)"/></g><g><path d="m478.191 419.615c-.765-6.861-6.948-11.803-13.809-11.037l-54.676 6.098c-6.112-11.612-16.866-20.393-29.8-23.876v-22.722c4.311-1.112 7.5-5.014 7.5-9.672v-51.609c0-4.658-3.189-8.561-7.5-9.672v-23.926c0-32.835-26.713-59.549-59.548-59.549h-9.393-102.104-35.99v-119.15c0-11.787-9.555-21.343-21.343-21.343-9.406 0-17.374 6.093-20.216 14.541-8.466-8.328-20.067-13.477-32.852-13.477h-16.302c-6.903 0-12.5 5.597-12.5 12.5s5.597 12.5 12.5 12.5h16.302c12.064 0 21.88 9.815 21.88 21.88v92.548h-17.909c-6.903 0-12.5 5.597-12.5 12.5s5.597 12.5 12.5 12.5h17.909v48.478c-48.835 6.146-86.61 47.824-86.61 98.327 0 54.736 44.373 99.109 99.109 99.109s99.109-44.373 99.109-99.109c0-5.814-.505-11.509-1.466-17.048h124.424v22.434c-20.246 5.517-35.136 24.024-35.136 46.019 0 26.347 21.358 47.705 47.705 47.705 25.552 0 46.41-20.09 47.645-45.335l52.035-5.803c6.86-.768 11.802-6.95 11.036-13.811zm-301.018-122.82c-1.415-.709-2.849-1.385-4.302-2.027v-56.12h35.99v7.608c0 5.523 4.477 10 10 10h82.105c5.523 0 10-4.477 10-10v-7.608h9.393c19.05 0 34.548 15.498 34.548 34.549v23.598z" fill="#2626bc" opacity=".1"/><g><g><path d="m383.053 412.803 84.101-9.379c6.861-.765 11.803-6.948 11.038-13.808-.765-6.861-6.948-11.803-13.808-11.038l-84.101 9.379z" fill="#b3b3ff"/></g><g><path d="m172.871 289.14h-42.685v-224.64c0-11.787 9.555-21.343 21.343-21.343 11.787 0 21.343 9.555 21.343 21.343v224.64z" fill="#ff8b00"/><path d="m130.186 200.653h42.685v25.34h-42.685z" fill="#ff7300"/></g><g><path d="m132.84 288.844c-6.903 0-12.5-5.597-12.5-12.5v-185.244c0-12.064-9.815-21.88-21.88-21.88h-16.302c-6.903 0-12.5-5.597-12.5-12.5s5.597-12.5 12.5-12.5h16.302c25.85 0 46.88 21.03 46.88 46.88v185.243c0 6.904-5.597 12.501-12.5 12.501z" fill="#9494ff"/></g><g><path d="m132.84 288.844c-6.903 0-12.5-5.597-12.5-12.5v-185.244c0-12.064-9.815-21.88-21.88-21.88h-16.302c-6.903 0-12.5-5.597-12.5-12.5s5.597-12.5 12.5-12.5h16.302c25.85 0 46.88 21.03 46.88 46.88v185.243c0 6.904-5.597 12.501-12.5 12.501z" fill="#9494ff"/></g><g><path d="m120.34 200.653h25v25.34h-25z" fill="#8383ff"/></g><g><path d="m367.406 412.803c-6.903 0-12.5-5.597-12.5-12.5v-157.106c0-19.051-15.498-34.549-34.548-34.549h-217.927c-6.903 0-12.5-5.597-12.5-12.5s5.597-12.5 12.5-12.5h217.928c32.835 0 59.548 26.714 59.548 59.549v157.105c-.001 6.904-5.597 12.501-12.501 12.501z" fill="#b3b3ff"/></g><g><path d="m354.906 315.53v84.773c0 6.903 5.597 12.5 12.5 12.5s12.5-5.597 12.5-12.5v-84.773z" fill="#9494ff"/></g><path d="m300.966 226.256h-82.105c-5.523 0-10-4.477-10-10v-32.608h102.105v32.608c0 5.523-4.477 10-10 10z" fill="#4d4dff"/><g><circle cx="367.475" cy="406.857" fill="#4d4dff" r="47.705"/><circle cx="367.475" cy="406.857" fill="#ffab66" r="23.308"/></g><g><path d="m377.407 338.405h-244.567v-71.609h244.567c5.523 0 10 4.477 10 10v51.609c0 5.522-4.478 10-10 10z" fill="#ffab66"/><path d="m323.737 338.405h-41.108v-40.701c0-2.761 2.239-5 5-5h31.108c2.761 0 5 2.239 5 5z" fill="#ffd6bb"/></g><g><circle cx="132.84" cy="355.453" fill="#4d4dff" r="99.109"/><circle cx="132.84" cy="355.453" fill="#d9d9ff" r="72.749"/><circle cx="132.84" cy="355.453" fill="#ffab66" r="41.725"/><path d="m483.16 389.061c-1.069-9.59-9.76-16.523-19.331-15.452l-51.423 5.735c-6.294-10.24-15.989-18.168-27.5-22.215v-15.753c4.476-2.598 7.5-7.433 7.5-12.971v-51.609c0-5.598-3.087-10.48-7.643-13.057.086-.368.143-.747.143-1.141v-19.399c0-35.593-28.956-64.549-64.548-64.549h-142.487v-114.15c0-14.525-11.817-26.343-26.343-26.343-8.868 0-16.966 4.421-21.804 11.575-8.701-6.592-19.532-10.512-31.265-10.512h-16.301c-9.649 0-17.5 7.851-17.5 17.5s7.851 17.5 17.5 17.5h16.302c9.308 0 16.88 7.572 16.88 16.88v63.858c0 2.762 2.238 5 5 5s5-2.238 5-5v-63.857c0-14.821-12.059-26.88-26.88-26.88h-16.302c-4.136 0-7.5-3.364-7.5-7.5s3.364-7.5 7.5-7.5h16.302c23.093 0 41.88 18.787 41.88 41.88v87.548h-37.909c-9.649 0-17.5 7.851-17.5 17.5s7.851 17.5 17.5 17.5h12.909v39.174c-49.102 8.347-86.609 51.187-86.609 102.63 0 57.406 46.703 104.109 104.109 104.109 57.405 0 104.108-46.703 104.108-104.109 0-34.241-16.619-64.672-42.213-83.657h182.671c2.757 0 5 2.243 5 5v51.609c0 2.757-2.243 5-5 5h-115.073c-2.762 0-5 2.238-5 5s2.238 5 5 5h87.573v13.77c-20.448 7.252-35.136 26.78-35.136 49.683 0 29.062 23.643 52.704 52.704 52.704 26.736 0 48.869-20.015 52.243-45.845.164-.002.33-.009.496-.028l47.494-5.297c4.646-.518 8.812-2.813 11.729-6.465 2.92-3.651 4.243-8.22 3.724-12.866zm-108.254-145.864v18.598h-15v-18.598c0-21.808-17.741-39.549-39.548-39.549h-4.393v-15h4.393c30.079.001 54.548 24.471 54.548 54.549zm-68.94-54.548v27.607c0 2.757-2.243 5-5 5h-82.106c-2.757 0-5-2.243-5-5v-27.607zm-168.764-132.002c2.849-5.203 8.302-8.49 14.326-8.49 9.012 0 16.343 7.331 16.343 16.343v114.148h-17.531v-87.547c0-13.215-4.974-25.284-13.138-34.454zm-42.271 139.502c0-4.136 3.364-7.5 7.5-7.5h101.43v15h-101.43c-4.136 0-7.5-3.365-7.5-7.5zm55.409 56.674v-39.174h17.531v43.766c-5.637-2.021-11.496-3.566-17.531-4.592zm-25-39.174h15v37.968c-2.478-.177-4.978-.272-7.5-.272s-5.022.095-7.5.272zm101.608 141.803c0 51.893-42.217 94.109-94.108 94.109s-94.11-42.216-94.11-94.109c0-51.892 42.218-94.108 94.109-94.108s94.109 42.217 94.109 94.108zm-49.077-93.856v-47.947h25.989v2.607c0 8.271 6.729 15 15 15h82.105c8.271 0 15-6.729 15-15v-2.607h4.393c16.293 0 29.548 13.256 29.548 29.549v18.598h-171.631c-.135-.067-.269-.135-.404-.2zm182.035 81.808h15v11.282c-2.43-.344-4.908-.534-7.432-.534-2.57 0-5.095.194-7.568.551zm7.569 106.158c-23.547 0-42.704-19.157-42.704-42.704 0-23.548 19.157-42.705 42.704-42.705s42.704 19.157 42.704 42.705c0 23.546-19.158 42.704-42.704 42.704zm104.152-53.879c-1.251 1.565-3.036 2.549-5.026 2.771l-46.529 5.189c-.312-5.15-1.359-10.104-3.05-14.754l47.915-5.343c4.11-.479 7.827 2.513 8.286 6.622.221 1.992-.346 3.95-1.596 5.515z" fill="#00c"/></g></g><path d="m263.604 140.986c-2.762 0-5-2.238-5-5 0-3.492-2.841-6.333-6.333-6.333-2.762 0-5-2.238-5-5s2.238-5 5-5c3.492 0 6.333-2.842 6.333-6.334 0-2.762 2.238-5 5-5s5 2.238 5 5c0 3.492 2.842 6.334 6.334 6.334 2.762 0 5 2.238 5 5s-2.238 5-5 5c-3.492 0-6.334 2.841-6.334 6.333 0 2.762-2.239 5-5 5z" fill="#ff4d4d"/><path d="m256 432.863c-2.762 0-5-2.238-5-5 0-3.492-2.841-6.333-6.333-6.333-2.762 0-5-2.238-5-5s2.238-5 5-5c3.492 0 6.333-2.841 6.333-6.333 0-2.762 2.238-5 5-5s5 2.238 5 5c0 3.492 2.841 6.333 6.333 6.333 2.762 0 5 2.238 5 5s-2.238 5-5 5c-3.492 0-6.333 2.841-6.333 6.333 0 2.762-2.238 5-5 5z" fill="#6c6cff"/><path d="m435.431 320.322c-2.762 0-5-2.238-5-5 0-3.492-2.841-6.334-6.333-6.334-2.762 0-5-2.238-5-5s2.238-5 5-5c3.492 0 6.333-2.841 6.333-6.333 0-2.762 2.238-5 5-5s5 2.238 5 5c0 3.492 2.842 6.333 6.334 6.333 2.762 0 5 2.238 5 5s-2.238 5-5 5c-3.492 0-6.334 2.842-6.334 6.334 0 2.762-2.239 5-5 5z" fill="#ff4d4d"/><g fill="#ff9d33"><g><g><path d="m315.966 127.169c-2.762 0-5-2.238-5-5v-.149c0-2.762 2.238-5 5-5s5 2.238 5 5v.149c0 2.762-2.238 5-5 5z"/><path d="m315.966 154.953c-2.762 0-5-2.238-5-5v-.15c0-2.762 2.238-5 5-5s5 2.238 5 5v.15c0 2.762-2.238 5-5 5z"/></g><g><path d="m303.995 134.079c-.851 0-1.712-.217-2.5-.674l-.13-.075c-2.39-1.384-3.206-4.442-1.822-6.832 1.384-2.391 4.445-3.207 6.832-1.822l.13.075c2.39 1.384 3.206 4.442 1.822 6.832-.927 1.602-2.606 2.496-4.332 2.496z"/><path d="m328.057 147.971c-.851 0-1.712-.217-2.5-.674l-.13-.075c-2.39-1.384-3.206-4.442-1.822-6.832 1.384-2.391 4.444-3.206 6.832-1.822l.13.075c2.39 1.384 3.206 4.442 1.822 6.832-.927 1.601-2.607 2.496-4.332 2.496z"/></g><g><path d="m303.875 147.971c-1.727 0-3.405-.895-4.332-2.496-1.384-2.39-.567-5.448 1.822-6.832l.13-.075c2.391-1.386 5.449-.567 6.832 1.822 1.384 2.39.567 5.448-1.822 6.832l-.13.075c-.788.457-1.65.674-2.5.674z"/><path d="m327.937 134.079c-1.727 0-3.405-.895-4.332-2.496-1.384-2.39-.567-5.448 1.822-6.832l.13-.075c2.39-1.386 5.449-.567 6.832 1.822 1.384 2.39.567 5.448-1.822 6.832l-.13.075c-.789.457-1.651.674-2.5.674z"/></g></g><g><g><path d="m55.091 223.338c-2.762 0-5-2.238-5-5v-.15c0-2.762 2.238-5 5-5s5 2.238 5 5v.15c0 2.762-2.238 5-5 5z"/><path d="m55.091 251.121c-2.762 0-5-2.238-5-5v-.149c0-2.762 2.238-5 5-5s5 2.238 5 5v.149c0 2.762-2.238 5-5 5z"/></g><g><path d="m43.12 230.247c-.845 0-1.701-.215-2.486-.666l-.131-.075c-2.395-1.376-3.22-4.432-1.844-6.826s4.432-3.219 6.826-1.844l.131.075c2.395 1.376 3.22 4.432 1.844 6.826-.925 1.61-2.608 2.51-4.34 2.51z"/><path d="m67.182 244.139c-.851 0-1.712-.217-2.5-.674l-.13-.075c-2.39-1.384-3.206-4.442-1.822-6.832 1.383-2.391 4.444-3.207 6.832-1.822l.13.075c2.39 1.384 3.206 4.442 1.822 6.832-.927 1.601-2.607 2.496-4.332 2.496z"/></g><g><path d="m42.999 244.139c-1.732 0-3.415-.9-4.34-2.51-1.376-2.395-.551-5.45 1.844-6.826l.131-.075c2.395-1.376 5.45-.551 6.826 1.844s.551 5.45-1.844 6.826l-.131.075c-.785.451-1.641.666-2.486.666z"/><path d="m67.062 230.247c-1.727 0-3.405-.895-4.332-2.496-1.384-2.39-.567-5.448 1.822-6.832l.13-.075c2.39-1.386 5.449-.567 6.832 1.822 1.384 2.39.567 5.448-1.822 6.832l-.13.075c-.789.457-1.651.674-2.5.674z"/></g></g></g></g></g></svg>