<svg id="Capa_1" enable-background="new 0 0 512 512" height="512" viewBox="0 0 512 512" width="512" xmlns="http://www.w3.org/2000/svg" xmlns:xlink="http://www.w3.org/1999/xlink"><linearGradient id="SVGID_1_" gradientUnits="userSpaceOnUse" x1="8.753" x2="524.202" y1="401.161" y2="103.566"><stop offset="0" stop-color="#fff" stop-opacity="0"/><stop offset=".2532" stop-color="#eef" stop-opacity=".403"/><stop offset=".629" stop-color="#d9d9ff"/></linearGradient><g><g><path d="m418.32 2.5c-55.666-9.521-178.298 12.183-200.004 105.017-14.431 61.722-14.007 112.075-50.427 113.02-21.67.562-32.97-44.31-62.889-48.001-39.047-4.817-66.145 27.695-83.057 57.138-37.205 64.772-25.571 174.918 23.354 228.632 118.488 130.086 259.197-5.952 319.358-112.309 38.585-68.213 125.637-123.352 143.767-200.248 15.177-64.376-18.503-131.003-90.102-143.249z" fill="url(#SVGID_1_)"/></g><g><g><g><path d="m429.05 412.793h-6.991l1.313-13.704c.503-5.252-3.141-9.859-8.135-10.777v-101.059h3.894c4.418 0 8-3.582 8-8v-69.998c0-4.418-3.582-8-8-8h-3.894v-47.65c0-18.237-14.837-33.074-33.075-33.074-17.123 0-31.248 13.08-32.91 29.772-4.862 1.927-8.305 6.662-8.305 12.209 0 5.485 3.364 10.181 8.139 12.149v140.283c0 15.316-8.508 29.091-22.203 35.949-17.103 8.563-27.727 25.764-27.727 44.89v80.763c0 12.664-10.304 22.968-22.968 22.968s-22.968-10.304-22.968-22.968v-58.001c0-16.005-13.021-29.026-29.026-29.026s-29.026 13.021-29.026 29.026v56.8c0 13.327-10.842 24.169-24.169 24.169s-24.169-10.842-24.169-24.169v-103.697h2.67c5.523 0 10-4.477 10-10v-31.088h43.607v31.088c0 5.523 4.477 10 10 10h5.34c5.523 0 10-4.477 10-10v-31.088h34.742c13.17 0 23.84-10.67 23.84-23.84v-202.35c0-13.17-10.67-23.84-23.84-23.84h-156.4c-13.17 0-23.84 10.67-23.84 23.84v202.35c0 13.17 10.67 23.84 23.84 23.84h17.37v31.088c0 5.523 4.477 10 10 10h2.67v103.696c0 18.841 15.328 34.169 34.169 34.169s34.169-15.328 34.169-34.169v-56.8c0-10.491 8.535-19.026 19.026-19.026s19.026 8.535 19.026 19.026v58.001c0 18.179 14.79 32.968 32.969 32.968s32.968-14.789 32.968-32.968v-80.763c0-15.316 8.508-29.091 22.204-35.948 17.102-8.563 27.726-25.765 27.726-44.891v-140.282c4.775-1.968 8.139-6.663 8.139-12.149 0-5.401-3.261-10.036-7.919-12.056 1.541-11.239 11.2-19.926 22.855-19.926 12.724 0 23.075 10.351 23.075 23.074l.014 47.65h-3.908c-4.418 0-8 3.582-8 8v69.998c0 4.418 3.582 8 8 8h3.933l.03 101.048c-5.03.888-8.71 5.512-8.205 10.788l3.084 32.183c.325 3.395 2.328 6.25 5.136 7.799l.012 41.041c0 2.762 2.239 5 5 5s5-2.238 5-5l-.07-41.104c2.749-1.562 4.703-4.386 5.024-7.735l.812-8.479h7.949c2.761 0 5-2.238 5-5s-2.235-5-4.997-5z" fill="#2626bc" opacity=".1"/><g><g><path d="m149.5 346.648h-15.34c-5.523 0-10-4.477-10-10v-41.088h35.34v41.088c0 5.523-4.478 10-10 10z" fill="#ebebff"/><path d="m124.159 295.56h35.34v26.28h-35.34z" fill="#d9d9ff"/></g><g><path d="m218.447 346.648h-5.34c-5.523 0-10-4.477-10-10v-41.088h25.34v41.088c0 5.523-4.477 10-10 10z" fill="#ebebff"/><path d="m203.107 295.56h25.34v26.28h-25.34z" fill="#d9d9ff"/></g><path d="m287.03 79.37v202.35c0 13.17-10.67 23.84-23.84 23.84h-156.4c-13.17 0-23.84-10.67-23.84-23.84v-202.35c0-13.17 10.67-23.84 23.84-23.84h156.4c13.17 0 23.84 10.67 23.84 23.84z" fill="#ebebff"/><path d="m287.03 111v170.72c0 13.17-10.67 23.84-23.84 23.84h-156.4c-13.17 0-23.84-10.67-23.84-23.84v-146.2c23.88 6.55 63.5 11.49 105.53-8.52 36.65-17.44 73-18.59 98.55-16z" fill="#b3b3ff"/><path d="m248.192 264.361h-126.405c-2.761 0-5-2.239-5-5v-70.099c0-2.761 2.239-5 5-5h126.405c2.761 0 5 2.239 5 5v70.099c0 2.761-2.238 5-5 5z" fill="#fff"/><path d="m253.192 208.303v-19.042c0-2.761-2.239-5-5-5h-126.405c-2.761 0-5 2.239-5 5v19.042z" fill="#ff4d4d"/><g><circle cx="184.99" cy="124.586" fill="#ff4d4d" r="30.718"/><path d="m199.283 118.114h-7.822v-7.822c0-2.441-1.979-4.42-4.42-4.42h-4.103c-2.441 0-4.42 1.979-4.42 4.42v7.822h-7.822c-2.441 0-4.42 1.979-4.42 4.42v4.103c0 2.441 1.979 4.42 4.42 4.42h7.822v7.822c0 2.441 1.979 4.42 4.42 4.42h4.103c2.441 0 4.42-1.979 4.42-4.42v-7.822h7.822c2.441 0 4.42-1.979 4.42-4.42v-4.103c.001-2.441-1.978-4.42-4.42-4.42z" fill="#fff"/></g><g><path d="m232.841 229.369c2.761 0 5-2.239 5-5v-.115c0-2.761-2.239-5-5-5s-5 2.239-5 5v.115c0 2.761 2.239 5 5 5z" fill="#ff4d4d"/></g><path d="m419.131 262.253h-17.787c-4.418 0-8-3.582-8-8v-69.998c0-4.418 3.582-8 8-8h17.787c4.418 0 8 3.582 8 8v69.998c0 4.418-3.582 8-8 8z" fill="#ebebff"/><g><path d="m415.237 176.24v7.951c0 2.762-2.239 5-5 5s-5-2.238-5-5v-7.951z" fill="#6c6cff"/></g><path d="m393.344 224.352v29.901c0 4.418 3.582 8 8 8h17.787c4.418 0 8-3.582 8-8v-29.901z" fill="#b3b3ff"/><circle cx="354.087" cy="137.512" fill="#ebebff" r="13.139"/><g fill="#b3b3ff"><circle cx="410.237" cy="198.799" r="4.151"/><circle cx="410.237" cy="212.558" r="4.151"/><path d="m407.057 363.135h6.362c5.9 0 10.517 5.081 9.954 10.954l-3.084 32.182c-.492 5.13-4.801 9.046-9.954 9.046h-.194c-5.153 0-9.463-3.916-9.954-9.046l-3.084-32.182c-.563-5.873 4.054-10.954 9.954-10.954z"/></g><path d="m398.894 392.793 1.292 13.479c.492 5.13 4.801 9.046 9.954 9.046h.194c5.153 0 9.463-3.916 9.954-9.046l1.292-13.479z" fill="#6c6cff"/><g fill="#00c"><path d="m177.059 60.528h86.131c10.388 0 18.838 8.451 18.838 18.839v126.561c0 2.762 2.239 5 5 5s5-2.238 5-5v-126.561c0-15.901-12.937-28.839-28.838-28.839h-86.131c-2.761 0-5 2.238-5 5s2.239 5 5 5z"/><path d="m429.05 387.793h-1.968l1.267-13.228c.402-4.199-.994-8.397-3.831-11.519-2.425-2.669-5.737-4.354-9.281-4.79v-91.004h3.894c7.168 0 13-5.832 13-13v-69.998c0-7.168-5.832-13-13-13h-3.894v-42.65c0-18.237-14.837-33.074-33.075-33.074-15.18 0-27.995 10.283-31.867 24.247-8.187 1.749-14.348 9.033-14.348 17.734 0 8.266 5.564 15.245 13.14 17.423v135.009c0 15.316-8.508 29.091-22.203 35.949-17.103 8.563-27.727 25.764-27.727 44.89v80.763c0 12.664-10.304 22.968-22.968 22.968s-22.968-10.304-22.968-22.968v-58.001c0-16.005-13.021-29.026-29.026-29.026s-29.026 13.021-29.026 29.026v56.8c0 13.327-10.842 24.169-24.169 24.169s-24.169-10.842-24.169-24.169v-98.695h2.67c8.271 0 15-6.729 15-15v-26.088h33.607v26.088c0 8.271 6.729 15 15 15h5.34c8.271 0 15-6.729 15-15v-26.088h29.743c15.901 0 28.838-12.938 28.838-28.839v-46.693c0-2.762-2.239-5-5-5s-5 2.238-5 5v46.693c0 10.388-8.451 18.839-18.838 18.839h-156.4c-10.388 0-18.838-8.451-18.838-18.839v-202.355c0-10.388 8.451-18.839 18.838-18.839h41.169c2.761 0 5-2.238 5-5s-2.239-5-5-5h-41.17c-15.901 0-28.838 12.938-28.838 28.839v202.354c0 15.901 12.937 28.839 28.838 28.839h12.37v26.088c0 8.271 6.729 15 15 15h2.67v98.695c0 18.841 15.328 34.169 34.169 34.169s34.169-15.328 34.169-34.169v-56.8c0-10.491 8.535-19.026 19.026-19.026s19.026 8.535 19.026 19.026v58.001c0 18.179 14.79 32.968 32.969 32.968s32.968-14.789 32.968-32.968v-80.763c0-15.316 8.508-29.091 22.204-35.948 17.102-8.563 27.726-25.765 27.726-44.891v-135.007c7.576-2.178 13.14-9.156 13.14-17.423 0-7.729-4.868-14.327-11.693-16.935 3.266-8.777 11.727-15.047 21.628-15.047 12.724 0 23.075 10.351 23.075 23.074v42.65h-3.894c-7.168 0-13 5.832-13 13v69.998c0 7.168 5.832 13 13 13h3.894v91.004c-3.545.436-6.856 2.12-9.281 4.79-2.837 3.121-4.233 7.319-3.831 11.519l3.084 32.183c.58 6.061 4.654 10.94 10.125 12.775v35.588c0 2.762 2.239 5 5 5s5-2.238 5-5v-35.654c5.374-1.884 9.358-6.719 9.932-12.709l.858-8.955h2.926c2.761 0 5-2.238 5-5s-2.238-5-5-5zm-205.603-51.145c0 2.757-2.243 5-5 5h-5.34c-2.757 0-5-2.243-5-5v-26.088h15.34zm-94.288 0v-26.088h25.34v26.088c0 2.757-2.243 5-5 5h-15.34c-2.757 0-5-2.243-5-5zm224.928-190.997c-4.488 0-8.14-3.651-8.14-8.14s3.651-8.14 8.14-8.14 8.14 3.651 8.14 8.14-3.651 8.14-8.14 8.14zm44.257 108.602v-69.998c0-1.654 1.346-3 3-3h17.787c1.654 0 3 1.346 3 3v69.998c0 1.654-1.346 3-3 3h-17.787c-1.655 0-3-1.346-3-3zm16.968 151.541c-.247 2.579-2.387 4.523-4.978 4.523h-.194c-2.59 0-4.73-1.944-4.977-4.522l-3.084-32.183c-.136-1.421.318-2.784 1.277-3.841.959-1.056 2.273-1.637 3.7-1.637h6.361c1.427 0 2.741.581 3.7 1.637.959 1.057 1.413 2.42 1.277 3.841l-1.359 14.181h-1.702c-2.761 0-5 2.238-5 5s2.239 5 5 5h.744z"/></g></g><path d="m94.284 370.013c-2.761 0-5-2.238-5-5 0-3.492-2.841-6.333-6.333-6.333-2.761 0-5-2.238-5-5s2.239-5 5-5c3.492 0 6.333-2.842 6.333-6.334 0-2.762 2.239-5 5-5s5 2.238 5 5c0 3.492 2.841 6.334 6.333 6.334 2.761 0 5 2.238 5 5s-2.239 5-5 5c-3.492 0-6.333 2.841-6.333 6.333 0 2.761-2.239 5-5 5z" fill="#ff9d33"/><path d="m365.421 454.742c-2.761 0-5-2.238-5-5 0-3.492-2.841-6.334-6.333-6.334-2.761 0-5-2.238-5-5s2.239-5 5-5c3.492 0 6.333-2.841 6.333-6.333 0-2.762 2.239-5 5-5s5 2.238 5 5c0 3.492 2.841 6.333 6.333 6.333 2.761 0 5 2.238 5 5s-2.239 5-5 5c-3.492 0-6.333 2.842-6.333 6.334 0 2.762-2.239 5-5 5z" fill="#ff9d33"/><path d="m352.281 80.621c-2.761 0-5-2.238-5-5 0-3.492-2.841-6.333-6.333-6.333-2.761 0-5-2.238-5-5s2.239-5 5-5c3.492 0 6.333-2.842 6.333-6.334 0-2.762 2.239-5 5-5s5 2.238 5 5c0 3.492 2.841 6.334 6.333 6.334 2.761 0 5 2.238 5 5s-2.239 5-5 5c-3.492 0-6.333 2.841-6.333 6.333 0 2.762-2.239 5-5 5z" fill="#6c6cff"/><g fill="#ff4d4d"><g><g><path d="m63.822 380.409c-2.761 0-5-2.238-5-5v-.15c0-2.762 2.239-5 5-5s5 2.238 5 5v.15c0 2.762-2.239 5-5 5z"/><path d="m63.822 408.193c-2.761 0-5-2.238-5-5v-.15c0-2.762 2.239-5 5-5s5 2.238 5 5v.15c0 2.762-2.239 5-5 5z"/></g><g><path d="m51.852 387.318c-.841 0-1.694-.213-2.476-.66l-.13-.074c-2.398-1.37-3.231-4.424-1.861-6.821 1.37-2.398 4.427-3.229 6.822-1.86l.13.074c2.398 1.37 3.231 4.424 1.861 6.821-.923 1.615-2.611 2.52-4.346 2.52z"/><path d="m75.914 401.211c-.848 0-1.706-.216-2.493-.67l-.13-.075c-2.392-1.38-3.213-4.438-1.833-6.829 1.379-2.393 4.436-3.214 6.829-1.833l.13.075c2.392 1.38 3.213 4.438 1.833 6.829-.926 1.605-2.607 2.503-4.336 2.503z"/></g><g><path d="m51.731 401.211c-1.726 0-3.405-.895-4.332-2.496-1.384-2.39-.568-5.448 1.822-6.832l.13-.075c2.392-1.385 5.449-.568 6.833 1.822s.568 5.448-1.822 6.832l-.13.075c-.789.457-1.65.674-2.501.674z"/><path d="m75.792 387.318c-1.738 0-3.428-.908-4.35-2.527-1.366-2.399-.528-5.453 1.872-6.819l.13-.074c2.399-1.367 5.452-.529 6.819 1.872 1.366 2.399.528 5.453-1.872 6.819l-.13.074c-.78.444-1.63.655-2.469.655z"/></g></g><g><g><path d="m398.895 44.138c-2.761 0-5-2.238-5-5v-.15c0-2.762 2.239-5 5-5s5 2.238 5 5v.15c0 2.761-2.239 5-5 5z"/><path d="m398.895 71.922c-2.761 0-5-2.238-5-5v-.15c0-2.762 2.239-5 5-5s5 2.238 5 5v.15c0 2.762-2.239 5-5 5z"/></g><g><path d="m386.924 51.047c-.848 0-1.706-.216-2.493-.67l-.13-.075c-2.392-1.38-3.213-4.438-1.833-6.829 1.38-2.393 4.437-3.214 6.829-1.833l.13.075c2.392 1.38 3.213 4.438 1.833 6.829-.926 1.605-2.607 2.503-4.336 2.503z"/><path d="m410.985 64.939c-.85 0-1.711-.217-2.5-.674l-.13-.075c-2.39-1.384-3.206-4.442-1.822-6.832 1.384-2.391 4.441-3.207 6.833-1.822l.13.075c2.39 1.384 3.206 4.442 1.822 6.832-.927 1.602-2.607 2.496-4.333 2.496z"/></g><g><path d="m386.803 64.939c-1.729 0-3.41-.897-4.336-2.503-1.38-2.392-.559-5.449 1.833-6.829l.13-.075c2.392-1.382 5.449-.56 6.829 1.833 1.38 2.392.559 5.449-1.833 6.829l-.13.075c-.786.455-1.646.67-2.493.67z"/><path d="m410.865 51.047c-1.726 0-3.405-.895-4.332-2.496-1.384-2.39-.568-5.448 1.822-6.832l.13-.075c2.391-1.385 5.449-.568 6.833 1.822s.568 5.448-1.822 6.832l-.13.075c-.789.457-1.651.674-2.501.674z"/></g></g></g></g><g><g><path d="m229.865 240.376h-89.965c-2.761 0-5 2.239-5 5 0 2.761 2.239 5 5 5h90.18c2.924 0 5.261-2.51 4.976-5.492-.248-2.599-2.58-4.508-5.191-4.508z" fill="#ff9d33"/></g><g><path d="m174.865 220.426h-34.965c-2.761 0-5 2.239-5 5 0 2.761 2.239 5 5 5h35.18c2.924 0 5.261-2.51 4.976-5.492-.248-2.599-2.58-4.508-5.191-4.508z" fill="#ff9d33"/></g></g></g><g><path d="m120.858 105.53h-8.142c-2.761 0-5-2.238-5-5s2.239-5 5-5h8.142c2.761 0 5 2.238 5 5s-2.239 5-5 5z" fill="#6c6cff"/></g><g><path d="m120.858 124.586h-8.142c-2.761 0-5-2.238-5-5s2.239-5 5-5h8.142c2.761 0 5 2.238 5 5s-2.239 5-5 5z" fill="#6c6cff"/></g><g><path d="m120.858 143.642h-8.142c-2.761 0-5-2.238-5-5s2.239-5 5-5h8.142c2.761 0 5 2.238 5 5s-2.239 5-5 5z" fill="#6c6cff"/></g><g><path d="m120.858 162.698h-8.142c-2.761 0-5-2.238-5-5s2.239-5 5-5h8.142c2.761 0 5 2.238 5 5s-2.239 5-5 5z" fill="#6c6cff"/></g></g></g></svg>