<svg id="Capa_1" enable-background="new 0 0 512 512" height="512" viewBox="0 0 512 512" width="512" xmlns="http://www.w3.org/2000/svg" xmlns:xlink="http://www.w3.org/1999/xlink"><linearGradient id="SVGID_1_" gradientUnits="userSpaceOnUse" x1="8.753" x2="524.202" y1="401.161" y2="103.566"><stop offset="0" stop-color="#fff3ee" stop-opacity="0"/><stop offset=".2938" stop-color="#ffeade" stop-opacity=".373"/><stop offset=".7874" stop-color="#ffd6bb"/></linearGradient><g><g><path d="m418.32 2.5c-55.666-9.521-178.298 12.183-200.004 105.017-14.431 61.722-14.007 112.075-50.427 113.02-21.67.562-32.97-44.31-62.889-48.001-39.047-4.817-66.145 27.695-83.057 57.138-37.205 64.772-25.571 174.918 23.354 228.632 118.488 130.086 259.197-5.952 319.358-112.309 38.585-68.213 125.637-123.352 143.767-200.248 15.177-64.376-18.503-131.003-90.102-143.249z" fill="url(#SVGID_1_)"/></g><g><g fill="#2626bc" opacity=".1"><path d="m428.441 108.559c-20.933-20.933-55.114-20.122-75.03 1.781l-78.578 86.418c.15-1.863.248-3.741.248-5.643 0-38.38-31.113-69.494-69.494-69.494s-69.494 31.114-69.494 69.494 31.114 69.494 69.494 69.494c4.971 0 9.816-.532 14.491-1.524-1.344 2.098-2.62 4.242-3.806 6.438-12.659 23.447-47.515 83.182-99.717 135.384l-44.136 44.136c-5.395 5.395-5.395 14.142 0 19.537s14.142 5.395 19.537 0l44.136-44.136c52.202-52.202 111.937-87.057 135.384-99.717 7.115-3.841 13.738-8.525 19.72-13.964l135.463-123.173c21.903-19.916 22.715-54.097 1.782-75.031z"/><path d="m137.051 277.048h18.583c2.762 0 5-2.238 5-5s-2.238-5-5-5h-18.583c-2.762 0-5 2.238-5 5s2.238 5 5 5z"/><path d="m97.051 295.43h58.583c2.762 0 5-2.238 5-5s-2.238-5-5-5h-58.583c-2.762 0-5 2.238-5 5s2.238 5 5 5z"/><path d="m97.051 313.812h58.583c2.762 0 5-2.238 5-5s-2.238-5-5-5h-58.583c-2.762 0-5 2.238-5 5s2.238 5 5 5z"/></g><g><path d="m428.441 83.559c-20.933-20.933-55.114-20.122-75.03 1.781l-123.176 135.464c-5.44 5.982-10.123 12.605-13.964 19.72-12.66 23.447-47.515 83.182-99.717 135.384l19.538 19.538c52.202-52.202 111.937-87.057 135.384-99.717 7.115-3.841 13.738-8.525 19.72-13.964l135.463-123.175c21.903-19.916 22.715-54.097 1.782-75.031z" fill="#d9d9ff"/><path d="m275.08 184.17c0 37.25-29.3 67.65-66.11 69.41 2.94-5.09 5.38-9.5 7.3-13.06 3.84-7.11 8.53-13.73 13.97-19.72l43.87-48.24c.64 3.77.97 7.65.97 11.61z" fill="#b3b3ff"/><path d="m304.794 269.396c-3.28-3.28-7.808-4.98-12.438-4.703-11.734.701-23.695-3.426-32.659-12.39s-13.092-20.925-12.39-32.659c.277-4.63-1.424-9.158-4.703-12.437l-12.365 13.596c-5.442 5.984-10.127 12.609-13.97 19.727-12.662 23.45-47.516 83.181-99.715 135.379l19.538 19.538c52.198-52.198 111.929-87.053 135.379-99.715 7.117-3.843 13.743-8.528 19.727-13.97z" fill="#8383ff"/><path d="m250.08 237.55c-11.24 9.39-25.5 15.28-41.11 16.03 2.94-5.09 5.38-9.5 7.3-13.06 3.84-7.11 8.53-13.73 13.97-19.72l12.36-13.59c3.28 3.28 4.98 7.8 4.71 12.43-.36 6.06.56 12.18 2.77 17.91z" fill="#6c6cff"/><path d="m234.988 317.232c-28.206 17.939-65.124 44.449-98.896 78.22l-19.545-19.545c33.771-33.771 60.281-70.689 78.22-98.896 8.259 4.497 16.009 10.239 22.995 17.225 6.987 6.987 12.729 14.737 17.226 22.996z" fill="#6c6cff"/><path d="m91.956 439.582 44.136-44.136-19.537-19.537-44.136 44.136c-5.395 5.395-5.395 14.142 0 19.537 5.394 5.395 14.142 5.395 19.537 0z" fill="#fff"/><path d="m300.496 226.065-15.81-15.81c-1.953-1.953-1.953-5.118 0-7.071l41.899-41.899c1.953-1.953 5.118-1.953 7.071 0l15.81 15.81c1.953 1.953 1.953 5.118 0 7.071l-41.899 41.899c-1.953 1.952-5.119 1.952-7.071 0z" fill="#ffab66"/><circle cx="377.202" cy="133.548" fill="#b3b3ff" r="24.121"/><g><path d="m365.171 145.579c-1.953-1.953-1.953-5.118 0-7.071l5.309-5.309c1.953-1.953 5.118-1.953 7.071 0s1.953 5.118 0 7.071l-5.309 5.309c-1.952 1.952-5.118 1.952-7.071 0z" fill="#8383ff"/></g><g><path d="m321.441 194.419-5.11-5.11c-1.953-1.953-1.953-5.118 0-7.071s5.118-1.953 7.071 0l5.11 5.11c1.953 1.953 1.953 5.118 0 7.071s-5.119 1.953-7.071 0z" fill="#ffd6bb"/></g><g><path d="m331.196 184.663-5.11-5.11c-1.953-1.953-1.953-5.118 0-7.071s5.118-1.953 7.071 0l5.11 5.11c1.953 1.953 1.953 5.118 0 7.071-1.952 1.953-5.118 1.953-7.071 0z" fill="#ffd6bb"/></g></g><circle cx="205.586" cy="166.116" fill="#ffab66" r="69.494"/><g><g fill="#fff"><path d="m182.22 174.17h-5.183c3.195-3.311 6.239-7.032 7.593-10.307 1.887-4.564 1.447-9.632-1.177-13.555-2.447-3.66-6.42-5.76-10.898-5.76-7.412 0-13.442 6.03-13.442 13.442 0 2.762 2.238 5 5 5s5-2.238 5-5c0-1.898 1.544-3.442 3.442-3.442 1.131 0 2.001.443 2.586 1.318.752 1.125.847 2.725.247 4.176-1.561 3.776-9.363 11.179-14.405 15.228-1.654 1.329-2.29 3.558-1.586 5.559s2.594 3.341 4.716 3.341h18.107c2.762 0 5-2.238 5-5s-2.238-5-5-5z"/><path d="m210.991 144.637c-2.762 0-5 2.238-5 5v7.936h-5.623v-7.936c0-2.762-2.238-5-5-5s-5 2.238-5 5v12.936c0 2.762 2.238 5 5 5h10.623v11.51c0 2.762 2.238 5 5 5s5-2.238 5-5v-29.445c0-2.763-2.238-5.001-5-5.001z"/><path d="m231.441 147.134c-1.383-2.389-4.442-3.208-6.832-1.822l-.13.075c-2.39 1.384-3.206 4.442-1.822 6.832.927 1.602 2.605 2.496 4.332 2.496.85 0 1.712-.217 2.5-.674l.13-.075c2.39-1.384 3.206-4.443 1.822-6.832z"/></g><g><path d="m242.069 184.17c-3.891.001-7.74-1.503-10.626-4.39-5.858-5.857-5.858-15.39 0-21.247 4.79-4.791 12.239-5.772 18.11-2.391 2.393 1.378 3.216 4.435 1.838 6.828-1.377 2.393-4.436 3.217-6.828 1.838-1.965-1.132-4.451-.802-6.05.795-1.959 1.959-1.959 5.147 0 7.106 1.6 1.598 4.088 1.926 6.051.796 2.396-1.38 5.45-.554 6.827 1.839 1.378 2.394.555 5.45-1.839 6.827-2.334 1.345-4.918 1.999-7.483 1.999z" fill="#fff"/></g></g><g fill="#00c"><path d="m431.976 80.024c-11.1-11.102-25.855-16.999-41.55-16.637-15.694.373-30.154 6.975-40.715 18.59l-53.917 59.295c-1.857 2.044-1.708 5.206.336 7.063 2.043 1.857 5.205 1.71 7.063-.336l53.917-59.296c8.704-9.571 20.62-15.012 33.554-15.319 12.896-.287 25.094 4.563 34.242 13.71 9.147 9.148 14.017 21.309 13.71 34.242-.308 12.934-5.748 24.85-15.319 33.554l-118.75 107.977c-3.695-2.295-8.052-3.427-12.489-3.166-10.731.636-21.234-3.344-28.825-10.934-6.606-6.607-10.478-15.423-10.948-24.672 16.935-13.667 27.795-34.574 27.795-57.979 0-35.03-24.849-65.685-59.086-72.889-2.7-.57-5.354 1.161-5.922 3.863-.569 2.702 1.161 5.354 3.863 5.922 29.635 6.236 51.145 32.775 51.145 63.104 0 35.562-28.932 64.493-64.493 64.493-35.563 0-64.494-28.932-64.494-64.493 0-30.166 21.376-56.674 50.826-63.029 2.699-.583 4.415-3.243 3.833-5.942s-3.24-4.411-5.942-3.833c-34.022 7.342-58.717 37.961-58.717 72.805 0 41.075 33.418 74.493 74.494 74.493 1.7 0 3.381-.078 5.052-.191-13.426 24.546-47.482 81.816-97.619 131.954l-44.138 44.136c-7.334 7.336-7.334 19.272.001 26.609 3.668 3.667 8.486 5.501 13.305 5.501 4.817 0 9.636-1.834 13.304-5.501v-.001l44.136-44.137c51.755-51.753 111.108-86.371 134.224-98.853 7.481-4.039 14.449-8.973 20.708-14.664l135.464-123.175c11.615-10.561 18.217-25.021 18.59-40.715.37-15.693-5.538-30.449-16.638-41.549zm-343.555 356.023c-3.437 3.436-9.03 3.438-12.467 0s-3.437-9.03-.001-12.468l40.602-40.6 12.466 12.466zm199.411-157.982c-5.661 5.146-11.963 9.609-18.732 13.264-22.976 12.405-81.168 46.325-132.989 97.063l-12.503-12.503c50.738-51.821 84.658-110.014 97.064-132.991.804-1.489 1.667-2.964 2.555-4.418 7.025-1.713 13.658-4.425 19.749-7.976 1.687 9.513 6.24 18.387 13.186 25.333 9.61 9.611 22.909 14.659 36.492 13.846 1.33-.083 2.644.086 3.892.458z"/><path d="m155.634 252.048c2.762 0 5-2.238 5-5s-2.238-5-5-5h-18.583c-2.762 0-5 2.238-5 5s2.238 5 5 5z"/><path d="m97.051 270.43h58.583c2.762 0 5-2.238 5-5s-2.238-5-5-5h-58.583c-2.762 0-5 2.238-5 5s2.238 5 5 5z"/><path d="m97.051 288.812h58.583c2.762 0 5-2.238 5-5s-2.238-5-5-5h-58.583c-2.762 0-5 2.238-5 5s2.238 5 5 5z"/></g><path d="m239.554 386.512c-2.762 0-5-2.238-5-5 0-3.492-2.841-6.333-6.333-6.333-2.762 0-5-2.238-5-5s2.238-5 5-5c3.492 0 6.333-2.841 6.333-6.333 0-2.762 2.238-5 5-5s5 2.238 5 5c0 3.492 2.842 6.333 6.334 6.333 2.762 0 5 2.238 5 5s-2.238 5-5 5c-3.492 0-6.334 2.841-6.334 6.333 0 2.761-2.239 5-5 5z" fill="#ff4d4d"/><path d="m286.413 98.433c-2.762 0-5-2.238-5-5 0-3.492-2.841-6.333-6.333-6.333-2.762 0-5-2.238-5-5s2.238-5 5-5c3.492 0 6.333-2.841 6.333-6.333 0-2.762 2.238-5 5-5s5 2.238 5 5c0 3.492 2.842 6.333 6.334 6.333 2.762 0 5 2.238 5 5s-2.238 5-5 5c-3.492 0-6.334 2.841-6.334 6.333 0 2.761-2.238 5-5 5z" fill="#6c6cff"/><path d="m246.321 72.219c-2.762 0-5-2.238-5-5 0-3.492-2.841-6.333-6.333-6.333-2.762 0-5-2.238-5-5s2.238-5 5-5c3.492 0 6.333-2.842 6.333-6.334 0-2.762 2.238-5 5-5s5 2.238 5 5c0 3.492 2.841 6.334 6.333 6.334 2.762 0 5 2.238 5 5s-2.238 5-5 5c-3.492 0-6.333 2.841-6.333 6.333 0 2.761-2.238 5-5 5z" fill="#ff9d33"/><g fill="#ff9d33"><g><path d="m210.674 401.84c-2.762 0-5-2.238-5-5v-.15c0-2.762 2.238-5 5-5s5 2.238 5 5v.15c0 2.762-2.238 5-5 5z"/><path d="m210.674 429.624c-2.762 0-5-2.238-5-5v-.15c0-2.762 2.238-5 5-5s5 2.238 5 5v.15c0 2.762-2.238 5-5 5z"/></g><g><path d="m198.703 408.75c-.851 0-1.712-.217-2.5-.674l-.13-.075c-2.39-1.384-3.206-4.442-1.822-6.832 1.384-2.391 4.445-3.206 6.832-1.822l.13.075c2.39 1.384 3.206 4.442 1.822 6.832-.927 1.601-2.606 2.496-4.332 2.496z"/><path d="m222.766 422.642c-.845 0-1.701-.215-2.486-.666l-.131-.075c-2.395-1.376-3.22-4.432-1.844-6.826s4.431-3.22 6.826-1.844l.131.075c2.395 1.376 3.22 4.432 1.844 6.826-.925 1.609-2.609 2.51-4.34 2.51z"/></g><g><path d="m198.583 422.642c-1.727 0-3.405-.895-4.332-2.496-1.384-2.39-.567-5.448 1.822-6.832l.13-.075c2.389-1.387 5.449-.567 6.832 1.822 1.384 2.39.567 5.448-1.822 6.832l-.13.075c-.788.457-1.65.674-2.5.674z"/><path d="m222.645 408.75c-1.732 0-3.415-.9-4.34-2.51-1.376-2.395-.551-5.45 1.844-6.826l.131-.075c2.395-1.376 5.451-.551 6.826 1.844 1.376 2.395.551 5.45-1.844 6.826l-.131.075c-.785.451-1.642.666-2.486.666z"/></g></g><g fill="#ff4d4d"><g><path d="m413.288 226.793c-2.762 0-5-2.238-5-5v-.15c0-2.762 2.238-5 5-5s5 2.238 5 5v.15c0 2.762-2.238 5-5 5z"/><path d="m413.288 254.577c-2.762 0-5-2.238-5-5v-.15c0-2.762 2.238-5 5-5s5 2.238 5 5v.15c0 2.762-2.238 5-5 5z"/></g><g><path d="m401.317 233.702c-.851 0-1.712-.217-2.5-.674l-.13-.075c-2.39-1.384-3.206-4.442-1.822-6.832 1.384-2.391 4.445-3.206 6.832-1.822l.13.075c2.39 1.384 3.206 4.442 1.822 6.832-.926 1.602-2.606 2.496-4.332 2.496z"/><path d="m425.379 247.595c-.851 0-1.712-.217-2.5-.674l-.13-.075c-2.39-1.384-3.206-4.442-1.822-6.832 1.384-2.391 4.444-3.206 6.832-1.822l.13.075c2.39 1.384 3.206 4.442 1.822 6.832-.927 1.601-2.607 2.496-4.332 2.496z"/></g><g><path d="m401.197 247.595c-1.727 0-3.405-.895-4.332-2.496-1.384-2.39-.567-5.448 1.822-6.832l.13-.075c2.39-1.386 5.449-.567 6.832 1.822 1.384 2.39.567 5.448-1.822 6.832l-.13.075c-.788.457-1.65.674-2.5.674z"/><path d="m425.259 233.702c-1.727 0-3.405-.895-4.332-2.496-1.384-2.39-.567-5.448 1.822-6.832l.13-.075c2.39-1.386 5.449-.567 6.832 1.822 1.384 2.39.567 5.448-1.822 6.832l-.13.075c-.788.457-1.651.674-2.5.674z"/></g></g></g></g></svg>