<svg id="Capa_1" enable-background="new 0 0 512 512" height="512" viewBox="0 0 512 512" width="512" xmlns="http://www.w3.org/2000/svg" xmlns:xlink="http://www.w3.org/1999/xlink"><linearGradient id="SVGID_1_" gradientUnits="userSpaceOnUse" x1="0" x2="512" y1="256" y2="256"><stop offset="0" stop-color="#ffd9d9" stop-opacity="0"/><stop offset=".9981" stop-color="#ffb3b3"/></linearGradient><g><g><path d="m451.798 43.963c-160.556-97.869-410.51-8.611-439.594 61.949-38.908 94.394 26.578 110.528 38.743 187.874 9.761 62.061-51.182 121.495-16.394 176.282 37.883 59.663 163.465 44.681 211.198 16.447 87.376-51.683 43.309-112.012 84.684-187.299 39.407-71.707 116.244-42.625 160.961-99.99 42.5-54.521 14.31-122.402-39.598-155.263z" fill="url(#SVGID_1_)"/></g><g><g fill="#2626bc" opacity=".1"><path d="m442.429 435.335h-5.447l-12.746-62.369c-.951-4.655-5.046-7.998-9.797-7.998h-1.03v-138.952c0-73.85-59.867-133.718-133.718-133.718-36.275 0-69.17 14.451-93.26 37.903-7.621-30.109-34.889-52.392-67.367-52.392-38.38 0-69.494 31.114-69.494 69.494s31.113 69.494 69.494 69.494c9.868 0 19.249-2.07 27.751-5.778-.55 4.924-.842 9.926-.842 14.997v138.951h-1.03c-4.751 0-8.846 3.343-9.797 7.998l-12.746 62.369h-5.447c-5.523 0-10 4.477-10 10v18.855c0 5.523 4.477 10 10 10h325.474c5.523 0 10-4.477 10-10v-18.855c.002-5.522-4.475-9.999-9.998-9.999z"/><path d="m122.918 252.048c2.762 0 5-2.238 5-5s-2.238-5-5-5h-18.583c-2.762 0-5 2.238-5 5s2.238 5 5 5z"/><path d="m59.335 265.43c0 2.762 2.238 5 5 5h58.583c2.762 0 5-2.238 5-5s-2.238-5-5-5h-58.583c-2.762 0-5 2.238-5 5z"/><path d="m127.918 283.812c0-2.762-2.238-5-5-5h-58.583c-2.762 0-5 2.238-5 5s2.238 5 5 5h58.583c2.762 0 5-2.239 5-5z"/></g><g><g><path d="m413.41 387.721h-267.436v-186.705c0-73.85 59.867-133.718 133.718-133.718 73.85 0 133.718 59.867 133.718 133.718z" fill="#ff4d4d"/><path d="m413.412 201.02v19.16c-38.08 26.02-84.12 41.24-133.72 41.24s-95.64-15.22-133.72-41.24v-19.16c0-73.85 59.87-133.72 133.72-133.72 36.92 0 70.36 14.97 94.55 39.17 24.2 24.2 39.17 57.62 39.17 94.55z" fill="#ff6c6c"/><path d="m188.562 149.46c0 28.84-17.57 53.58-42.59 64.1v-12.54c0-33.46 12.29-64.04 32.59-87.49 6.35 10.48 10 22.78 10 35.93z" fill="#ff4d4d"/><ellipse cx="279.692" cy="228.429" fill="#ffab66" rx="34.98" ry="70.108"/><path d="m241.682 285.799v54.169h76.021v-54.169c0-2.761-2.239-5-5-5h-66.021c-2.762 0-5 2.239-5 5z" fill="#6c6cff"/><path d="m438.64 418.447h-317.896l14.403-70.481c.951-4.655 5.046-7.998 9.798-7.998h269.494c4.751 0 8.846 3.343 9.798 7.998z" fill="#9494ff"/><path d="m208.887 339.968h83.623v78.479h-83.623z" fill="#8383ff"/><path d="m178.479 339.968h41.389v78.479h-41.389z" fill="#b3b3ff"/><path d="m442.429 449.19h-325.474c-5.523 0-10-4.477-10-10v-18.855c0-5.523 4.477-10 10-10h325.474c5.523 0 10 4.477 10 10v18.855c0 5.523-4.477 10-10 10z" fill="#4d4dff"/><g><g><circle cx="119.065" cy="122.304" fill="#ff4d4d" r="69.494"/><path d="m151.401 107.663h-17.695v-17.696c0-5.523-4.477-10-10-10h-9.282c-5.523 0-10 4.477-10 10v17.695h-17.696c-5.523 0-10 4.477-10 10v9.282c0 5.523 4.477 10 10 10h17.695v17.695c0 5.523 4.477 10 10 10h9.282c5.523 0 10-4.477 10-10v-17.695h17.695c5.523 0 10-4.477 10-10v-9.282c.001-5.522-4.476-9.999-9.999-9.999z" fill="#fff"/></g><g fill="#00c"><path d="m442.429 405.335h-1.365l-11.928-58.371c-1.148-5.611-5.398-9.977-10.726-11.452v-134.495c0-76.489-62.229-138.718-138.718-138.718-33.617 0-65.636 11.995-90.865 33.902-10.6-28.238-37.868-48.391-69.763-48.391-41.075 0-74.493 33.418-74.493 74.494s33.418 74.494 74.493 74.494c41.076 0 74.494-33.418 74.494-74.494 0-5.294-.565-10.458-1.62-15.443 23.903-22.294 55.009-34.562 87.754-34.562 70.976 0 128.718 57.742 128.718 128.718v133.951h-257.435v-118.403c0-2.762-2.238-5-5-5s-5 2.238-5 5v118.946c-5.328 1.476-9.579 5.842-10.726 11.454l-11.928 58.37h-1.366c-8.271 0-15 6.729-15 15v18.855c0 8.271 6.729 15 15 15h325.474c8.271 0 15-6.729 15-15v-18.855c0-8.272-6.729-15-15-15zm-323.365-218.537c-35.562 0-64.493-28.932-64.493-64.494s28.932-64.494 64.493-64.494c35.563 0 64.494 28.932 64.494 64.494s-28.931 64.494-64.494 64.494zm328.365 252.392c0 2.757-2.243 5-5 5h-325.474c-2.757 0-5-2.243-5-5v-18.855c0-2.757 2.243-5 5-5h247.121c2.762 0 5-2.238 5-5s-2.238-5-5-5h-235.549l11.519-56.368c.474-2.317 2.534-3.999 4.899-3.999h269.494c2.365 0 4.425 1.683 4.899 3.999l11.519 56.368h-37.68c-2.762 0-5 2.238-5 5s2.238 5 5 5h49.251c2.757 0 5 2.243 5 5v18.855z"/><path d="m122.918 227.048c2.762 0 5-2.238 5-5s-2.238-5-5-5h-18.583c-2.762 0-5 2.238-5 5s2.238 5 5 5z"/><path d="m59.335 240.43c0 2.762 2.238 5 5 5h58.583c2.762 0 5-2.238 5-5s-2.238-5-5-5h-58.583c-2.762 0-5 2.238-5 5z"/><path d="m127.918 258.812c0-2.762-2.238-5-5-5h-58.583c-2.762 0-5 2.238-5 5s2.238 5 5 5h58.583c2.762 0 5-2.239 5-5z"/></g></g></g><g><path d="m271.112 305.79h-15.017c-2.762 0-5-2.238-5-5s2.238-5 5-5h15.017c2.762 0 5 2.238 5 5s-2.238 5-5 5z" fill="#4d4dff"/></g><g><path d="m271.112 322.684h-15.017c-2.762 0-5-2.238-5-5s2.238-5 5-5h15.017c2.762 0 5 2.238 5 5s-2.238 5-5 5z" fill="#4d4dff"/></g><ellipse cx="287.255" cy="220.252" fill="#ffd6bb" rx="18.771" ry="33.224"/><ellipse cx="276.112" cy="240.43" fill="#ffc599" rx="9.507" ry="16.828"/></g><g fill="#ff4d4d"><g><path d="m74.335 329.126c-2.762 0-5-2.238-5-5v-.149c0-2.762 2.238-5 5-5s5 2.238 5 5v.149c0 2.762-2.238 5-5 5z"/><path d="m74.335 356.91c-2.762 0-5-2.238-5-5v-.149c0-2.762 2.238-5 5-5s5 2.238 5 5v.149c0 2.762-2.238 5-5 5z"/></g><g><path d="m62.364 336.036c-.851 0-1.712-.217-2.5-.674l-.13-.075c-2.39-1.384-3.206-4.442-1.822-6.832 1.384-2.391 4.445-3.206 6.832-1.822l.13.075c2.39 1.384 3.206 4.442 1.822 6.832-.926 1.602-2.606 2.496-4.332 2.496z"/><path d="m86.427 349.928c-.851 0-1.712-.217-2.5-.674l-.13-.075c-2.39-1.384-3.206-4.442-1.822-6.832 1.384-2.392 4.445-3.207 6.832-1.822l.13.075c2.39 1.384 3.206 4.442 1.822 6.832-.927 1.601-2.607 2.496-4.332 2.496z"/></g><g><path d="m62.244 349.928c-1.727 0-3.405-.895-4.332-2.496-1.384-2.39-.567-5.448 1.822-6.832l.13-.075c2.39-1.386 5.449-.567 6.832 1.822 1.384 2.39.567 5.448-1.822 6.832l-.13.075c-.788.457-1.65.674-2.5.674z"/><path d="m86.307 336.036c-1.727 0-3.405-.895-4.332-2.496-1.384-2.39-.567-5.448 1.822-6.832l.13-.075c2.389-1.386 5.449-.567 6.832 1.822 1.384 2.39.567 5.448-1.822 6.832l-.13.075c-.788.457-1.651.674-2.5.674z"/></g></g><g fill="#ff9d33"><g><path d="m452.429 251.612c-2.762 0-5-2.238-5-5v-.149c0-2.762 2.238-5 5-5s5 2.238 5 5v.149c0 2.762-2.239 5-5 5z"/><path d="m452.429 279.396c-2.762 0-5-2.238-5-5v-.149c0-2.762 2.238-5 5-5s5 2.238 5 5v.149c0 2.762-2.239 5-5 5z"/></g><g><path d="m440.458 258.522c-.851 0-1.712-.217-2.5-.674l-.13-.075c-2.39-1.384-3.206-4.442-1.822-6.832 1.384-2.392 4.445-3.207 6.832-1.822l.13.075c2.39 1.384 3.206 4.442 1.822 6.832-.927 1.602-2.606 2.496-4.332 2.496z"/><path d="m464.52 272.414c-.851 0-1.712-.217-2.5-.674l-.13-.075c-2.39-1.384-3.206-4.442-1.822-6.832 1.384-2.391 4.445-3.206 6.832-1.822l.13.075c2.39 1.384 3.206 4.442 1.822 6.832-.927 1.602-2.607 2.496-4.332 2.496z"/></g><g><path d="m440.338 272.414c-1.727 0-3.405-.895-4.332-2.496-1.384-2.39-.567-5.448 1.822-6.832l.13-.075c2.391-1.385 5.449-.567 6.832 1.822 1.384 2.39.567 5.448-1.822 6.832l-.13.075c-.788.457-1.65.674-2.5.674z"/><path d="m464.399 258.522c-1.727 0-3.405-.895-4.332-2.496-1.384-2.39-.567-5.448 1.822-6.832l.13-.075c2.39-1.386 5.449-.567 6.832 1.822 1.384 2.39.567 5.448-1.822 6.832l-.13.075c-.788.458-1.65.674-2.5.674z"/></g></g><path d="m109.335 321.717c-2.762 0-5-2.238-5-5 0-3.492-2.841-6.333-6.333-6.333-2.762 0-5-2.238-5-5s2.238-5 5-5c3.492 0 6.333-2.842 6.333-6.334 0-2.762 2.238-5 5-5s5 2.238 5 5c0 3.492 2.841 6.334 6.333 6.334 2.762 0 5 2.238 5 5s-2.238 5-5 5c-3.492 0-6.333 2.841-6.333 6.333 0 2.762-2.238 5-5 5z" fill="#ff9d33"/><path d="m402.076 83.633c-2.762 0-5-2.238-5-5 0-3.492-2.841-6.333-6.333-6.333-2.762 0-5-2.238-5-5s2.238-5 5-5c3.492 0 6.333-2.841 6.333-6.333 0-2.762 2.238-5 5-5s5 2.238 5 5c0 3.492 2.842 6.333 6.334 6.333 2.762 0 5 2.238 5 5s-2.238 5-5 5c-3.492 0-6.334 2.841-6.334 6.333 0 2.762-2.238 5-5 5z" fill="#ff4d4d"/><path d="m449.974 107.634c-2.762 0-5-2.238-5-5 0-3.492-2.841-6.333-6.333-6.333-2.762 0-5-2.238-5-5s2.238-5 5-5c3.492 0 6.333-2.842 6.333-6.334 0-2.762 2.238-5 5-5s5 2.238 5 5c0 3.492 2.841 6.334 6.333 6.334 2.762 0 5 2.238 5 5s-2.238 5-5 5c-3.492 0-6.333 2.841-6.333 6.333 0 2.762-2.239 5-5 5z" fill="#6c6cff"/></g></g></svg>