<svg id="Capa_1" enable-background="new 0 0 512 512" height="512" viewBox="0 0 512 512" width="512" xmlns="http://www.w3.org/2000/svg" xmlns:xlink="http://www.w3.org/1999/xlink"><linearGradient id="SVGID_1_" gradientUnits="userSpaceOnUse" x1="-21.409" x2="490.399" y1="373.272" y2="77.779"><stop offset="0" stop-color="#fff" stop-opacity="0"/><stop offset=".2532" stop-color="#eef" stop-opacity=".403"/><stop offset=".629" stop-color="#d9d9ff"/></linearGradient><g><g><path d="m451.798 43.963c-160.556-97.869-410.51-8.611-439.594 61.949-38.908 94.394 26.578 110.528 38.743 187.874 9.761 62.061-51.182 121.495-16.394 176.282 37.883 59.663 163.465 44.681 211.198 16.447 87.376-51.683 43.309-112.012 84.684-187.299 39.407-71.707 116.244-42.625 160.961-99.99 42.5-54.521 14.31-122.402-39.598-155.263z" fill="url(#SVGID_1_)"/></g><g><g><path d="m345.888 212.485c2.471 0 4.474-2.003 4.474-4.474v-50.826c0-2.471-2.003-4.474-4.474-4.474h-3.633v-69.265h-.113c-2.341-12.695-42.959-22.802-92.727-22.802s-90.385 10.107-92.727 22.802h-.111v2.314 79.22c-34.529 1.76-61.985 30.314-61.985 65.28s27.456 63.52 61.985 65.28v145.216 5.145s11.711 39.572 93.262 42.375c5.061.169 9.274-3.885 9.274-8.945v-14.738c46.715-1.252 83.141-11.448 83.141-23.837v-33.406h3.633c2.471 0 4.474-2.003 4.474-4.474v-50.826c0-2.471-2.003-4.474-4.474-4.474h-3.633v-37.658h3.633c2.471 0 4.474-2.003 4.474-4.474v-50.826c0-2.471-2.003-4.474-4.474-4.474h-3.633v-37.658h3.634z" fill="#2626bc" opacity=".1"/><g><g><g><path d="m342.255 58.446v357.311c0 13.235-41.566 23.967-92.839 23.967s-92.839-10.732-92.839-23.967v-357.311z" fill="#ffab66"/><g fill="#ff9d33"><path d="m301.423 208.286h40.832v-59.767h-40.832c-2.474 0-4.477 2.004-4.477 4.468v5.888l-12.755 3.311c-4.769 1.242-10.347 1.9-16.132 1.9s-11.363-.658-16.132-1.9l-12.755-3.311v-5.888c0-2.464-2.004-4.468-4.477-4.468h-44.463c-2.474 0-4.477 2.004-4.477 4.468v13.009c-7.911-3.405-16.63-5.296-25.792-5.296-1.138 0-2.267.028-3.386.085v130.567c1.119.057 2.248.085 3.386.085 9.162 0 17.881-1.9 25.792-5.305v15.116c0 2.474 2.004 4.477 4.477 4.477h44.463c2.474 0 4.477-2.004 4.477-4.477v-3.029l.376.094c8.889 2.305 18.483 3.471 28.51 3.471s19.621-1.166 28.51-3.471l.376-.094v3.029c0 2.474 2.004 4.477 4.477 4.477h40.832v-59.776h-40.832c-2.474 0-4.477 2.004-4.477 4.477v5.888l-12.755 3.311c-4.769 1.242-10.347 1.891-16.132 1.891s-11.363-.649-16.132-1.891l-12.755-3.311v-5.888c0-2.474-2.004-4.477-4.477-4.477h-12.454c1.994-6.274 3.085-12.952 3.085-19.885 0-6.161-.875-12.115-2.464-17.778h11.833c2.474 0 4.477-2.003 4.477-4.468v-3.038l.376.104c8.889 2.295 18.483 3.471 28.51 3.471s19.621-1.176 28.51-3.471l.376-.104v3.038c.004 2.464 2.007 4.468 4.481 4.468zm18.822-45.375h15.436v30.984h-15.436zm0 97.438h15.436v30.974h-15.436zm-104.371 30.974h-15.436v-13.959c6.001-4.731 11.146-10.488 15.182-17.016h.254zm0-99.131c-4.063-6.697-9.312-12.595-15.436-17.43v-11.852h15.436z"/><path d="m215.877 388.757h-15.436v-30.979h15.436zm119.801 0h-15.436v-30.979h15.436zm-34.255-45.38c-2.474 0-4.477 2.003-4.477 4.477v5.888l-12.755 3.311c-4.769 1.242-10.347 1.9-16.132 1.9s-11.363-.659-16.132-1.9l-12.755-3.311v-5.888c0-2.474-2.004-4.477-4.477-4.477h-44.463c-2.474 0-4.477 2.003-4.477 4.477v50.831c0 2.464 2.004 4.468 4.477 4.468h44.463c2.474 0 4.477-2.004 4.477-4.468v-3.038l.376.103c8.889 2.295 18.483 3.471 28.51 3.471s19.621-1.176 28.51-3.471l.376-.103v3.038c0 2.464 2.004 4.468 4.477 4.468h40.832v-59.776z"/></g></g><g><path d="m157.007 60.757-.428-1.153s.124.415.428 1.153z" fill="#ffc599"/><path d="m259.114 110.932v343.4c0 5.06-4.214 9.115-9.274 8.945-81.551-2.803-93.262-42.375-93.262-42.375v-360.142c2.69 6.537 20.092 38.857 93.826 41.227 4.844.16 8.71 4.101 8.71 8.945z" fill="#ffc599"/><g><g><path d="m251.928 357.053-12.755-3.311v-5.888c0-2.474-2.004-4.477-4.477-4.477h-44.463c-2.474 0-4.477 2.003-4.477 4.477v50.831c0 2.464 2.004 4.468 4.477 4.468h44.463c2.474 0 4.477-2.004 4.477-4.468v-3.038l.376.103c6.208 1.599 12.764 2.662 19.565 3.151v-40.493c-2.54-.31-4.948-.771-7.186-1.355zm-36.054 31.709h-15.436v-30.984h15.436z" fill="#ffab66"/></g><path d="m239.173 203.818v-3.038l.376.104c6.208 1.599 12.764 2.662 19.565 3.151v-40.503c-2.54-.31-4.948-.762-7.186-1.345l-12.755-3.311v-5.888c0-2.464-2.004-4.468-4.477-4.468h-44.463c-2.474 0-4.477 2.004-4.477 4.468v13.009c-7.911-3.405-16.63-5.296-25.792-5.296-1.138 0-2.267.028-3.386.085v130.567c1.119.057 2.248.085 3.386.085 9.162 0 17.881-1.9 25.792-5.305v15.116c0 2.474 2.004 4.477 4.477 4.477h44.463c2.474 0 4.477-2.004 4.477-4.477v-3.029l.376.094c6.208 1.609 12.764 2.662 19.565 3.151v-40.495c-2.54-.31-4.948-.762-7.186-1.345l-12.755-3.311v-5.888c0-2.474-2.004-4.477-4.477-4.477h-12.454c1.994-6.274 3.085-12.952 3.085-19.885 0-6.161-.875-12.115-2.464-17.778h11.833c2.474 0 4.477-2.004 4.477-4.468zm-23.299 87.505h-15.436v-13.959c6.001-4.731 11.146-10.488 15.182-17.016h.254zm0-99.131c-4.063-6.697-9.312-12.595-15.436-17.43v-11.852h15.436z" fill="#ffab66"/></g></g><ellipse cx="249.416" cy="59.604" fill="#ff8b00" rx="92.836" ry="23.96"/><path d="m296.233 31.385v30.8c-12.331 2.022-28.08 3.481-46.817 3.481-14.926 0-27.954-.922-38.871-2.327 18.747-4.823 60.052-16.975 79.568-34.692 2.353-2.139 6.12-.439 6.12 2.738z" fill="#ffab66"/></g><g><g><path d="m302.994 136.507v41.896l-6.425 1.673c-8.886 2.3-18.478 3.472-28.509 3.472s-19.623-1.172-28.509-3.472l-6.425-1.673v-41.896l18.8 4.877c4.769 1.244 10.353 1.897 16.134 1.897s11.364-.653 16.134-1.897z" fill="#fff"/></g><g fill="#b3b3ff"><path d="m185.757 132.185v50.826c0 2.471 2.003 4.474 4.474 4.474h44.464c2.471 0 4.474-2.003 4.474-4.474v-50.826c0-2.471-2.003-4.474-4.474-4.474h-44.464c-2.47 0-4.474 2.003-4.474 4.474zm30.12 40.902h-15.436v-30.979h15.436z"/><path d="m350.362 183.011v-50.826c0-2.471-2.003-4.474-4.474-4.474h-44.464c-2.471 0-4.474 2.003-4.474 4.474v50.826c0 2.471 2.003 4.474 4.474 4.474h44.464c2.471 0 4.474-2.003 4.474-4.474zm-30.12-40.903h15.436v30.979h-15.436z"/></g></g><g><g><path d="m302.994 233.939v41.896l-6.425 1.673c-8.886 2.3-18.478 3.472-28.509 3.472s-19.623-1.172-28.509-3.472l-6.425-1.673v-41.896l18.8 4.877c4.769 1.244 10.353 1.897 16.134 1.897s11.364-.653 16.134-1.897z" fill="#fff"/></g><g fill="#b3b3ff"><path d="m185.757 229.617v50.826c0 2.471 2.003 4.474 4.474 4.474h44.464c2.471 0 4.474-2.003 4.474-4.474v-50.826c0-2.471-2.003-4.474-4.474-4.474h-44.464c-2.47 0-4.474 2.003-4.474 4.474zm30.12 40.903h-15.436v-30.979h15.436z"/><path d="m350.362 280.443v-50.826c0-2.471-2.003-4.474-4.474-4.474h-44.464c-2.471 0-4.474 2.003-4.474 4.474v50.826c0 2.471 2.003 4.474 4.474 4.474h44.464c2.471.001 4.474-2.003 4.474-4.474zm-30.12-40.902h15.436v30.979h-15.436z"/></g></g><g><g><path d="m302.994 331.372v41.896l-6.425 1.673c-8.886 2.3-18.478 3.472-28.509 3.472s-19.623-1.172-28.509-3.472l-6.425-1.673v-41.896l18.8 4.877c4.769 1.244 10.353 1.897 16.134 1.897s11.364-.653 16.134-1.897z" fill="#fff"/></g><g fill="#b3b3ff"><path d="m185.757 327.05v50.826c0 2.471 2.003 4.474 4.474 4.474h44.464c2.471 0 4.474-2.003 4.474-4.474v-50.826c0-2.471-2.003-4.474-4.474-4.474h-44.464c-2.47 0-4.474 2.003-4.474 4.474zm30.12 40.902h-15.436v-30.979h15.436z"/><path d="m350.362 377.876v-50.826c0-2.471-2.003-4.474-4.474-4.474h-44.464c-2.471 0-4.474 2.003-4.474 4.474v50.826c0 2.471 2.003 4.474 4.474 4.474h44.464c2.471 0 4.474-2.003 4.474-4.474zm-30.12-40.902h15.436v30.979h-15.436z"/></g></g></g><g><circle cx="159.96" cy="205.261" fill="#ff4d4d" r="65.367"/><path d="m190.376 191.489h-16.645v-16.645c0-5.195-4.211-9.406-9.406-9.406h-8.731c-5.195 0-9.406 4.211-9.406 9.406v16.645h-16.645c-5.195 0-9.406 4.211-9.406 9.406v8.731c0 5.195 4.211 9.406 9.406 9.406h16.645v16.645c0 5.195 4.211 9.406 9.406 9.406h8.731c5.195 0 9.406-4.211 9.406-9.406v-16.645h16.645c5.195 0 9.406-4.211 9.406-9.406v-8.731c0-5.195-4.211-9.406-9.406-9.406z" fill="#fff"/></g><g fill="#00c"><path d="m355.361 183.011v-50.826c0-4.76-3.531-8.699-8.109-9.364v-64.374c0-.751-.177-1.456-.474-2.095-2.176-7.388-12.616-16.146-45.546-21.703v-3.265c0-3.435-2.03-6.553-5.173-7.943-3.174-1.405-6.744-.83-9.308 1.502-2.617 2.376-5.681 4.65-9.042 6.822-9.128-.741-18.639-1.123-28.295-1.123-25.207 0-48.964 2.548-66.895 7.176-20.532 5.299-30.942 12.628-30.942 21.784 0 .275.011.548.029.82-.008.112-.029.22-.029.333v74.653c-34.862 4.159-61.986 33.887-61.986 69.85 0 38.8 31.566 70.367 70.367 70.367 7.237 0 14.221-1.101 20.797-3.139v7.955c0 5.224 4.25 9.474 9.474 9.474h44.464c4.128 0 7.639-2.658 8.934-6.35 3.415.701 6.912 1.25 10.48 1.644v46.42c-.31-.074-.625-.144-.928-.223l-9.012-2.338v-2.022c0-5.224-4.25-9.474-9.474-9.474h-44.464c-5.224 0-9.474 4.25-9.474 9.474v50.826c0 5.224 4.25 9.474 9.474 9.474h44.464c4.128 0 7.639-2.658 8.934-6.35 3.415.701 6.912 1.25 10.48 1.644v71.685c0 1.079-.428 2.086-1.205 2.837-.781.754-1.807 1.148-2.894 1.112-22.16-.762-52.913-4.957-73.574-20.617-10.372-7.86-14.016-15.555-14.857-17.629v-120.56c0-2.761-2.239-5-5-5s-5 2.239-5 5v121.439c0 .48.069.958.206 1.419.52 1.756 13.7 43.053 97.882 45.946.166.006.331.008.496.008 3.636 0 7.061-1.382 9.69-3.922 2.745-2.652 4.257-6.214 4.257-10.029v-9.909c33.016-1.416 83.143-8.767 83.143-28.659v-28.521c4.578-.665 8.109-4.605 8.109-9.364v-50.826c0-4.76-3.531-8.699-8.109-9.364v-27.878c4.578-.665 8.109-4.605 8.109-9.364v-50.826c0-4.76-3.531-8.699-8.109-9.364v-27.878c4.579-.666 8.11-4.606 8.11-9.365zm-121.192 194.339h-43.412v-49.774h43.412zm111.192-147.206v49.774h-43.411v-49.774zm-43.937-10c-5.224 0-9.474 4.25-9.474 9.474v2.021l-9.019 2.34c-4.354 1.135-9.496 1.735-14.872 1.735-1.334 0-2.653-.037-3.95-.11v-47.115c1.31.039 2.626.06 3.95.06 8.474 0 16.661-.819 24.431-2.413 1.295 3.691 4.805 6.35 8.933 6.35h35.828v27.659h-35.827zm-9.474 53.328c-7.533 1.664-15.552 2.509-23.891 2.509-8.341 0-16.361-.845-23.89-2.508v-31.503l6.495 1.685c5.166 1.347 11.181 2.059 17.396 2.059s12.23-.712 17.39-2.057l6.501-1.687v31.502zm-86.509-14.581c1.902-1.616 3.715-3.332 5.436-5.138v11.767h-5.436zm5.436-102.122c-1.721-1.806-3.533-3.522-5.436-5.138v-4.522h5.436zm10 13.338v-27.999c0-2.761-2.239-5-5-5h-15.436c-2.761 0-5 2.239-5 5v2.424c-1.528-.896-3.086-1.745-4.684-2.526v-9.295h43.412v49.774h-7.647c-1.486-4.332-3.382-8.472-5.645-12.378zm-30.646-47.396c-5.224 0-9.474 4.25-9.474 9.474v5.848c-6.083-1.885-12.52-2.946-19.178-3.098v-58.206c11.974 12.578 37.225 28.605 88.664 30.26 2.168.069 3.867 1.803 3.867 3.947v25.831c-.31-.074-.625-.144-.928-.223l-9.012-2.338v-2.021c0-5.224-4.25-9.474-9.474-9.474zm53.938 21.826 6.495 1.685c5.166 1.347 11.181 2.059 17.396 2.059s12.23-.712 17.39-2.057l6.501-1.687v31.502c-7.533 1.664-15.552 2.509-23.891 2.509-8.341 0-16.361-.845-23.89-2.508v-31.503zm101.192-11.826v49.774h-43.411v-49.774zm-54.129-98.422v23.602c-.13.019-.262.037-.393.056-1.437.204-2.891.399-4.37.581-.033.004-.065.008-.098.012-11.411 1.396-24.008 2.126-36.955 2.126-3.804 0-7.552-.062-11.235-.182-.052-.002-.102-.004-.154-.005 18.799-6.265 39.751-15.055 53.205-26.19zm-106.212 13.214c17.138-4.423 40.007-6.859 64.396-6.859 3.849 0 7.663.078 11.448.2-18.392 8.447-39.297 14.462-50.633 17.41-8.672-1.148-15.151-2.488-19.361-3.509-2.684-.653-5.387.997-6.038 3.68-.651 2.684.997 5.387 3.68 6.038 9.553 2.317 30.167 6.205 60.903 6.205 30.735 0 51.351-3.887 60.904-6.205 2.684-.651 4.331-3.354 3.681-6.038-.651-2.683-3.353-4.332-6.038-3.68-1.82.441-4.07.943-6.729 1.462v-11.406c27.081 4.817 36.02 11.948 36.02 14.803 0 1.94-5.714 8.652-31.101 13.863-2.705.555-4.447 3.198-3.892 5.903.485 2.366 2.567 3.996 4.893 3.996.333 0 .671-.034 1.011-.103 12.852-2.638 22.56-5.925 29.089-9.83v49.278h-35.828c-5.224 0-9.474 4.25-9.474 9.474v2.021l-9.019 2.34c-4.354 1.135-9.496 1.735-14.872 1.735-1.334 0-2.653-.037-3.95-.11v-27.235c0-7.574-5.95-13.698-13.545-13.942-31.251-1.005-51.871-7.538-65.35-14.944 17.584 4.206 40.232 6.514 64.202 6.514 10.063 0 19.979-.409 29.474-1.216 2.751-.234 4.792-2.654 4.559-5.405s-2.634-4.788-5.406-4.559c-9.214.783-18.845 1.18-28.626 1.18-24.388 0-47.258-2.436-64.396-6.859-14.477-3.736-20.44-7.751-22.504-10.225-.402-.703-.705-1.296-.928-1.765-.004-.038-.008-.076-.008-.111-.003-1.683 4.208-7.138 23.438-12.101zm-85.427 157.758c0-33.286 27.081-60.367 60.367-60.367s60.367 27.081 60.367 60.367-27.081 60.367-60.367 60.367c-33.287-.001-60.367-27.081-60.367-60.367zm134.576 74.656h-43.412v-11.402c1.598-.781 3.156-1.63 4.684-2.526v4.531c0 2.761 2.239 5 5 5h15.436c2.761 0 5-2.239 5-5v-30.105c1.894-3.269 3.536-6.698 4.891-10.271h8.401zm-5.441-59.773c1.038-4.8 1.599-9.776 1.599-14.883 0-4.364-.42-8.63-1.184-12.776h5.552c4.128 0 7.639-2.658 8.934-6.35 3.415.701 6.912 1.25 10.48 1.644v46.42c-.31-.074-.625-.144-.928-.223l-9.012-2.338v-2.021c0-5.224-4.25-9.474-9.474-9.474h-5.967zm35.381 65.777c1.31.039 2.626.06 3.95.06 8.474 0 16.661-.819 24.431-2.413 1.295 3.691 4.805 6.35 8.933 6.35h35.828v27.658h-35.828c-5.224 0-9.474 4.25-9.474 9.474v2.021l-9.019 2.34c-4.354 1.135-9.496 1.735-14.872 1.735-1.334 0-2.653-.037-3.95-.11v-47.115zm81.252 41.655v49.774h-43.411v-49.774zm-94.697 13.511c5.166 1.347 11.181 2.059 17.396 2.059s12.23-.712 17.39-2.057l6.501-1.687v31.502c-7.533 1.664-15.552 2.509-23.891 2.509-8.341 0-16.361-.845-23.89-2.508v-31.502zm66.167 85.957c-13.851 3.941-32.42 6.524-52.722 7.37v-51.061c1.31.039 2.626.06 3.95.06 8.474 0 16.661-.819 24.431-2.413 1.295 3.691 4.805 6.35 8.933 6.35h35.828v28.411c.001 1.522-3.668 6.516-20.42 11.283z"/><path d="m320.242 178.087h15.436c2.762 0 5-2.239 5-5v-30.979c0-2.761-2.238-5-5-5h-15.436c-2.762 0-5 2.239-5 5v30.979c0 2.762 2.238 5 5 5zm5-30.979h5.436v20.979h-5.436z"/><path d="m320.242 275.52h15.436c2.762 0 5-2.239 5-5v-30.979c0-2.761-2.238-5-5-5h-15.436c-2.762 0-5 2.239-5 5v30.979c0 2.761 2.238 5 5 5zm5-30.979h5.436v20.979h-5.436z"/><path d="m200.441 372.953h15.436c2.761 0 5-2.239 5-5v-30.979c0-2.761-2.239-5-5-5h-15.436c-2.761 0-5 2.239-5 5v30.979c0 2.761 2.239 5 5 5zm5-30.979h5.436v20.979h-5.436z"/><path d="m320.242 372.953h15.436c2.762 0 5-2.239 5-5v-30.979c0-2.761-2.238-5-5-5h-15.436c-2.762 0-5 2.239-5 5v30.979c0 2.761 2.238 5 5 5zm5-30.979h5.436v20.979h-5.436z"/><path d="m131.551 287.277h-17.479c-2.761 0-5 2.239-5 5s2.239 5 5 5h17.479c2.761 0 5-2.239 5-5s-2.239-5-5-5z"/><path d="m131.551 304.567h-55.104c-2.761 0-5 2.239-5 5s2.239 5 5 5h55.104c2.761 0 5-2.239 5-5s-2.239-5-5-5z"/><path d="m131.551 321.857h-55.104c-2.761 0-5 2.239-5 5s2.239 5 5 5h55.104c2.761 0 5-2.239 5-5s-2.239-5-5-5z"/></g><g opacity=".1"><g><path d="m131.551 322.277h-17.479c-2.761 0-5-2.239-5-5s2.239-5 5-5h17.479c2.761 0 5 2.239 5 5s-2.239 5-5 5z" fill="#2626bc"/></g><g><path d="m131.551 339.567h-55.104c-2.761 0-5-2.239-5-5s2.239-5 5-5h55.104c2.761 0 5 2.239 5 5s-2.239 5-5 5z" fill="#2626bc"/></g><g><path d="m131.551 356.857h-55.104c-2.761 0-5-2.239-5-5s2.239-5 5-5h55.104c2.761 0 5 2.239 5 5s-2.239 5-5 5z" fill="#2626bc"/></g></g></g><path d="m394.027 307.333c-2.762 0-5-2.239-5-5 0-3.492-2.841-6.333-6.333-6.333-2.762 0-5-2.239-5-5s2.238-5 5-5c3.492 0 6.333-2.841 6.333-6.333 0-2.761 2.238-5 5-5s5 2.239 5 5c0 3.492 2.842 6.333 6.334 6.333 2.762 0 5 2.239 5 5s-2.238 5-5 5c-3.492 0-6.334 2.841-6.334 6.333 0 2.762-2.238 5-5 5z" fill="#ff9d33"/><g fill="#6c6cff"><g><path d="m110.137 93.489c-2.761 0-5-2.239-5-5v-.15c0-2.761 2.239-5 5-5s5 2.239 5 5v.15c0 2.761-2.239 5-5 5z"/><path d="m110.137 121.273c-2.761 0-5-2.239-5-5v-.15c0-2.761 2.239-5 5-5s5 2.239 5 5v.15c0 2.762-2.239 5-5 5z"/></g><g><path d="m98.167 100.399c-.85 0-1.711-.217-2.5-.674l-.13-.075c-2.39-1.384-3.206-4.442-1.822-6.833 1.383-2.389 4.442-3.206 6.833-1.822l.13.075c2.39 1.384 3.206 4.442 1.822 6.833-.928 1.601-2.607 2.496-4.333 2.496z"/><path d="m122.229 114.291c-.848 0-1.706-.216-2.493-.67l-.13-.075c-2.392-1.379-3.213-4.437-1.833-6.829s4.437-3.213 6.829-1.833l.13.075c2.392 1.379 3.213 4.437 1.833 6.829-.926 1.605-2.607 2.503-4.336 2.503z"/></g><g><path d="m98.046 114.291c-1.726 0-3.405-.895-4.332-2.496-1.384-2.39-.568-5.449 1.822-6.833l.13-.075c2.391-1.383 5.45-.568 6.833 1.822 1.384 2.39.568 5.449-1.822 6.833l-.13.075c-.789.457-1.651.674-2.501.674z"/><path d="m122.108 100.399c-1.729 0-3.41-.898-4.336-2.503-1.38-2.392-.559-5.45 1.833-6.829l.13-.075c2.391-1.382 5.449-.559 6.829 1.833s.559 5.45-1.833 6.829l-.13.075c-.787.454-1.646.67-2.493.67z"/></g></g><g fill="#6c6cff"><g><path d="m397.278 182.129c-2.762 0-5-2.239-5-5v-.15c0-2.761 2.238-5 5-5s5 2.239 5 5v.15c0 2.762-2.238 5-5 5z"/><path d="m397.278 209.914c-2.762 0-5-2.239-5-5v-.15c0-2.761 2.238-5 5-5s5 2.239 5 5v.15c0 2.761-2.238 5-5 5z"/></g><g><path d="m385.308 189.039c-.846 0-1.702-.215-2.488-.667l-.13-.075c-2.394-1.376-3.218-4.433-1.841-6.827 1.376-2.393 4.432-3.219 6.827-1.841l.13.075c2.394 1.376 3.218 4.433 1.841 6.827-.925 1.608-2.608 2.508-4.339 2.508z"/><path d="m409.369 202.931c-.846 0-1.702-.215-2.488-.667l-.13-.075c-2.394-1.376-3.218-4.433-1.841-6.827 1.376-2.394 4.432-3.219 6.827-1.841l.13.075c2.394 1.376 3.218 4.433 1.841 6.827-.925 1.608-2.607 2.508-4.339 2.508z"/></g><g><path d="m385.188 202.931c-1.731 0-3.414-.9-4.339-2.508-1.377-2.394-.553-5.451 1.841-6.827l.13-.075c2.396-1.378 5.451-.552 6.827 1.841 1.377 2.394.553 5.451-1.841 6.827l-.13.075c-.786.452-1.643.667-2.488.667z"/><path d="m409.249 189.039c-1.731 0-3.414-.9-4.339-2.508-1.377-2.394-.553-5.451 1.841-6.827l.13-.075c2.396-1.377 5.451-.552 6.827 1.841 1.377 2.394.553 5.451-1.841 6.827l-.13.075c-.786.452-1.642.667-2.488.667z"/></g></g><g fill="#ff4d4d"><path d="m415.577 267.208c-2.762 0-5-2.239-5-5 0-3.492-2.841-6.333-6.333-6.333-2.762 0-5-2.239-5-5s2.238-5 5-5c3.492 0 6.333-2.841 6.333-6.333 0-2.761 2.238-5 5-5s5 2.239 5 5c0 3.492 2.841 6.333 6.333 6.333 2.762 0 5 2.239 5 5s-2.238 5-5 5c-3.492 0-6.333 2.841-6.333 6.333 0 2.761-2.238 5-5 5z"/><path d="m114.072 408.355c-2.761 0-5-2.239-5-5 0-3.492-2.841-6.333-6.333-6.333-2.761 0-5-2.239-5-5s2.239-5 5-5c3.492 0 6.333-2.841 6.333-6.333 0-2.761 2.239-5 5-5s5 2.239 5 5c0 3.492 2.841 6.333 6.333 6.333 2.761 0 5 2.239 5 5s-2.239 5-5 5c-3.492 0-6.333 2.841-6.333 6.333 0 2.762-2.239 5-5 5z"/></g></g></g></svg>