<svg id="Capa_1" enable-background="new 0 0 512 512" height="512" viewBox="0 0 512 512" width="512" xmlns="http://www.w3.org/2000/svg" xmlns:xlink="http://www.w3.org/1999/xlink"><linearGradient id="SVGID_1_" gradientUnits="userSpaceOnUse" x1="0" x2="512" y1="256" y2="256"><stop offset="0" stop-color="#ffd9d9" stop-opacity="0"/><stop offset=".9981" stop-color="#ffb3b3"/></linearGradient><g><g><path d="m4.896 324.259c17.448 172.871 292.417 167.142 420.804 136.265 82.47-19.834 87.596-59.472 86.106-144.001-.96-54.486 3.443-198.725-32.004-244.123-54.448-69.733-103.228-25.998-170.656-3.235-86.488 29.197-120.189-22.932-202.476-21.38-120.641 2.278-110.779 187.252-101.774 276.474z" fill="url(#SVGID_1_)"/></g><g><g fill="#2626bc" opacity=".1"><path d="m374.388 238.179c11.034-12.301 17.752-28.553 17.752-46.378 0-38.38-31.114-69.494-69.494-69.494-15.308 0-29.452 4.961-40.935 13.348v-17.123c0-11.04-8.95-20-20-20h-175.68c-11.04 0-20 8.96-20 20v175.68c0 11.05 8.96 20 20 20h118.615c-3.458 11.37-5.325 23.433-5.325 35.934 0 68.109 55.214 123.323 123.323 123.323s123.323-55.214 123.323-123.323c.002-49.63-29.319-92.405-71.579-111.967z"/><path d="m170.688 340.098h-18.582c-2.762 0-5 2.239-5 5s2.238 5 5 5h18.582c2.762 0 5-2.239 5-5s-2.239-5-5-5z"/><path d="m170.688 358.479h-58.582c-2.762 0-5 2.239-5 5s2.238 5 5 5h58.582c2.762 0 5-2.239 5-5s-2.239-5-5-5z"/><path d="m170.688 376.861h-58.582c-2.762 0-5 2.239-5 5s2.238 5 5 5h58.582c2.762 0 5-2.239 5-5s-2.239-5-5-5z"/></g><g><g><g><g><g><circle cx="322.645" cy="325.145" fill="#ff9d33" r="123.323"/><path d="m281.711 208.771v84.64c0 11.05-8.95 20-20 20h-61.83c4.58-48.61 37.37-89 81.83-104.64z" fill="#ff8b00"/><path d="m386.101 219.381c-10.86 24.24-35.19 41.12-63.46 41.12s-52.6-16.89-63.45-41.13c18.54-11.14 40.24-17.55 63.45-17.55s44.92 6.41 63.46 17.56z" fill="#ff8b00"/><path d="m385.151 272.641v105.01c0 5.52-4.48 10-10 10h-105.01c-5.52 0-10-4.48-10-10v-105.01c0-5.52 4.48-10 10-10h105.01c5.52 0 10 4.48 10 10z" fill="#fff"/><path d="m281.711 262.641v30.77c0 11.05-8.95 20-20 20h-1.57v-40.77c0-5.52 4.48-10 10-10z" fill="#ebebff"/><g><g><path d="m279.098 291.911c-2.762 0-5-2.239-5-5v-.115c0-2.761 2.238-5 5-5s5 2.239 5 5v.115c0 2.761-2.239 5-5 5z" fill="#b3b3ff"/></g><g><path d="m279.098 311.057c-2.762 0-5-2.239-5-5v-.115c0-2.761 2.238-5 5-5s5 2.239 5 5v.115c0 2.761-2.239 5-5 5z" fill="#b3b3ff"/></g><g><path d="m279.098 330.203c-2.762 0-5-2.239-5-5v-.115c0-2.761 2.238-5 5-5s5 2.239 5 5v.115c0 2.761-2.239 5-5 5z" fill="#b3b3ff"/></g><g><path d="m300.871 282.338c-2.762 0-5-2.239-5-5v-.115c0-2.761 2.238-5 5-5s5 2.239 5 5v.115c0 2.761-2.238 5-5 5z" fill="#b3b3ff"/></g><g><path d="m300.871 301.484c-2.762 0-5-2.239-5-5v-.115c0-2.761 2.238-5 5-5s5 2.239 5 5v.115c0 2.761-2.238 5-5 5z" fill="#b3b3ff"/></g><g><path d="m300.871 320.63c-2.762 0-5-2.239-5-5v-.115c0-2.761 2.238-5 5-5s5 2.239 5 5v.115c0 2.761-2.238 5-5 5z" fill="#b3b3ff"/></g><g><path d="m322.645 291.911c-2.762 0-5-2.239-5-5v-.115c0-2.761 2.238-5 5-5s5 2.239 5 5v.115c0 2.761-2.238 5-5 5z" fill="#b3b3ff"/></g><g><path d="m322.645 311.057c-2.762 0-5-2.239-5-5v-.115c0-2.761 2.238-5 5-5s5 2.239 5 5v.115c0 2.761-2.238 5-5 5z" fill="#b3b3ff"/></g><g><path d="m322.645 330.203c-2.762 0-5-2.239-5-5v-.115c0-2.761 2.238-5 5-5s5 2.239 5 5v.115c0 2.761-2.238 5-5 5z" fill="#b3b3ff"/></g><g><path d="m344.419 282.338c-2.762 0-5-2.239-5-5v-.115c0-2.761 2.238-5 5-5s5 2.239 5 5v.115c0 2.761-2.238 5-5 5z" fill="#b3b3ff"/></g><g><path d="m344.419 301.484c-2.762 0-5-2.239-5-5v-.115c0-2.761 2.238-5 5-5s5 2.239 5 5v.115c0 2.761-2.238 5-5 5z" fill="#b3b3ff"/></g><g><path d="m344.419 320.63c-2.762 0-5-2.239-5-5v-.115c0-2.761 2.238-5 5-5s5 2.239 5 5v.115c0 2.761-2.238 5-5 5z" fill="#b3b3ff"/></g><g><path d="m366.193 291.911c-2.762 0-5-2.239-5-5v-.115c0-2.761 2.238-5 5-5s5 2.239 5 5v.115c0 2.761-2.238 5-5 5z" fill="#b3b3ff"/></g><g><path d="m366.193 311.057c-2.762 0-5-2.239-5-5v-.115c0-2.761 2.238-5 5-5s5 2.239 5 5v.115c0 2.761-2.238 5-5 5z" fill="#b3b3ff"/></g><g><path d="m366.193 330.203c-2.762 0-5-2.239-5-5v-.115c0-2.761 2.238-5 5-5s5 2.239 5 5v.115c0 2.761-2.238 5-5 5z" fill="#b3b3ff"/></g><g><path d="m279.098 349.349c-2.762 0-5-2.239-5-5v-.115c0-2.761 2.238-5 5-5s5 2.239 5 5v.115c0 2.761-2.239 5-5 5z" fill="#b3b3ff"/></g><g><path d="m279.098 368.495c-2.762 0-5-2.239-5-5v-.115c0-2.761 2.238-5 5-5s5 2.239 5 5v.115c0 2.761-2.239 5-5 5z" fill="#b3b3ff"/></g><g><path d="m300.871 339.776c-2.762 0-5-2.239-5-5v-.115c0-2.761 2.238-5 5-5s5 2.239 5 5v.115c0 2.761-2.238 5-5 5z" fill="#b3b3ff"/></g><g><path d="m300.871 358.922c-2.762 0-5-2.239-5-5v-.115c0-2.761 2.238-5 5-5s5 2.239 5 5v.115c0 2.761-2.238 5-5 5z" fill="#b3b3ff"/></g><g><path d="m300.871 378.068c-2.762 0-5-2.239-5-5v-.115c0-2.761 2.238-5 5-5s5 2.239 5 5v.115c0 2.761-2.238 5-5 5z" fill="#b3b3ff"/></g><g><path d="m322.645 349.349c-2.762 0-5-2.239-5-5v-.115c0-2.761 2.238-5 5-5s5 2.239 5 5v.115c0 2.761-2.238 5-5 5z" fill="#b3b3ff"/></g><g><path d="m322.645 368.495c-2.762 0-5-2.239-5-5v-.115c0-2.761 2.238-5 5-5s5 2.239 5 5v.115c0 2.761-2.238 5-5 5z" fill="#b3b3ff"/></g><g><path d="m344.419 339.776c-2.762 0-5-2.239-5-5v-.115c0-2.761 2.238-5 5-5s5 2.239 5 5v.115c0 2.761-2.238 5-5 5z" fill="#b3b3ff"/></g><g><path d="m344.419 358.922c-2.762 0-5-2.239-5-5v-.115c0-2.761 2.238-5 5-5s5 2.239 5 5v.115c0 2.761-2.238 5-5 5z" fill="#b3b3ff"/></g><g><path d="m344.419 378.068c-2.762 0-5-2.239-5-5v-.115c0-2.761 2.238-5 5-5s5 2.239 5 5v.115c0 2.761-2.238 5-5 5z" fill="#b3b3ff"/></g><g><path d="m366.193 349.349c-2.762 0-5-2.239-5-5v-.115c0-2.761 2.238-5 5-5s5 2.239 5 5v.115c0 2.761-2.238 5-5 5z" fill="#b3b3ff"/></g><g><path d="m366.193 368.495c-2.762 0-5-2.239-5-5v-.115c0-2.761 2.238-5 5-5s5 2.239 5 5v.115c0 2.761-2.238 5-5 5z" fill="#b3b3ff"/></g></g><path d="m431.163 325.145c8.37 0 14.874 7.337 13.823 15.641-7.686 60.725-59.53 107.682-122.341 107.682s-114.655-46.957-122.341-107.682c-1.051-8.304 5.453-15.641 13.823-15.641z" fill="#ffe8dc"/><path d="m439.356 365.077c2.65-7.746 4.551-15.84 5.617-24.194 1.064-8.342-5.402-15.738-13.811-15.738h-217.032c-8.409 0-14.875 7.396-13.811 15.738 1.065 8.354 2.967 16.448 5.617 24.194z" fill="#ffd6bb"/><path d="m443.487 349.873c.609-2.993 1.11-6.026 1.499-9.094 1.051-8.301-5.457-15.634-13.824-15.634h-217.033c-8.367 0-14.875 7.333-13.824 15.634.388 3.068.889 6.1 1.499 9.094z" fill="#fff3ee"/></g></g><g><g><path d="m281.711 93.531v175.68c0 11.05-8.95 20-20 20h-175.68c-11.04 0-20-8.95-20-20v-175.68c0-11.04 8.96-20 20-20h175.68c11.05 0 20 8.96 20 20z" fill="#ffab66"/><path d="m281.711 134.841v112.33c-17.31-12.64-28.56-33.09-28.56-56.17s11.25-43.53 28.56-56.16z" fill="#ff9d33"/></g><path d="m226.379 243.879h-105.012c-5.523 0-10-4.477-10-10v-105.012c0-5.523 4.477-10 10-10h105.012c5.523 0 10 4.477 10 10v105.012c0 5.523-4.477 10-10 10z" fill="#ff9d33"/><g><g><path d="m130.325 148.139c-2.762 0-5-2.239-5-5v-.115c0-2.761 2.238-5 5-5s5 2.239 5 5v.115c0 2.761-2.238 5-5 5z" fill="#ff7300"/></g><g><path d="m130.325 167.285c-2.762 0-5-2.239-5-5v-.115c0-2.761 2.238-5 5-5s5 2.239 5 5v.115c0 2.761-2.238 5-5 5z" fill="#ff7300"/></g><g><path d="m130.325 186.431c-2.762 0-5-2.239-5-5v-.115c0-2.761 2.238-5 5-5s5 2.239 5 5v.115c0 2.761-2.238 5-5 5z" fill="#ff7300"/></g><g><path d="m152.099 138.566c-2.762 0-5-2.239-5-5v-.115c0-2.761 2.238-5 5-5s5 2.239 5 5v.115c0 2.761-2.238 5-5 5z" fill="#ff7300"/></g><g><path d="m152.099 157.712c-2.762 0-5-2.239-5-5v-.115c0-2.761 2.238-5 5-5s5 2.239 5 5v.115c0 2.761-2.238 5-5 5z" fill="#ff7300"/></g><g><path d="m152.099 176.858c-2.762 0-5-2.239-5-5v-.115c0-2.761 2.238-5 5-5s5 2.239 5 5v.115c0 2.761-2.238 5-5 5z" fill="#ff7300"/></g><g><path d="m173.873 148.139c-2.762 0-5-2.239-5-5v-.115c0-2.761 2.238-5 5-5s5 2.239 5 5v.115c0 2.761-2.238 5-5 5z" fill="#ff7300"/></g><g><path d="m173.873 167.285c-2.762 0-5-2.239-5-5v-.115c0-2.761 2.238-5 5-5s5 2.239 5 5v.115c0 2.761-2.238 5-5 5z" fill="#ff7300"/></g><g><path d="m173.873 186.431c-2.762 0-5-2.239-5-5v-.115c0-2.761 2.238-5 5-5s5 2.239 5 5v.115c0 2.761-2.238 5-5 5z" fill="#ff7300"/></g><g><path d="m195.647 138.566c-2.762 0-5-2.239-5-5v-.115c0-2.761 2.238-5 5-5s5 2.239 5 5v.115c0 2.761-2.238 5-5 5z" fill="#ff7300"/></g><g><path d="m195.647 157.712c-2.762 0-5-2.239-5-5v-.115c0-2.761 2.238-5 5-5s5 2.239 5 5v.115c0 2.761-2.238 5-5 5z" fill="#ff7300"/></g><g><path d="m195.647 176.858c-2.762 0-5-2.239-5-5v-.115c0-2.761 2.238-5 5-5s5 2.239 5 5v.115c0 2.761-2.238 5-5 5z" fill="#ff7300"/></g><g><path d="m217.421 148.139c-2.762 0-5-2.239-5-5v-.115c0-2.761 2.238-5 5-5s5 2.239 5 5v.115c0 2.761-2.238 5-5 5z" fill="#ff7300"/></g><g><path d="m217.421 167.285c-2.762 0-5-2.239-5-5v-.115c0-2.761 2.238-5 5-5s5 2.239 5 5v.115c0 2.761-2.238 5-5 5z" fill="#ff7300"/></g><g><path d="m217.421 186.431c-2.762 0-5-2.239-5-5v-.115c0-2.761 2.238-5 5-5s5 2.239 5 5v.115c0 2.761-2.238 5-5 5z" fill="#ff7300"/></g><g><path d="m130.325 205.577c-2.762 0-5-2.239-5-5v-.115c0-2.761 2.238-5 5-5s5 2.239 5 5v.115c0 2.761-2.238 5-5 5z" fill="#ff7300"/></g><g><path d="m130.325 224.723c-2.762 0-5-2.239-5-5v-.115c0-2.761 2.238-5 5-5s5 2.239 5 5v.115c0 2.761-2.238 5-5 5z" fill="#ff7300"/></g><g><path d="m152.099 196.004c-2.762 0-5-2.239-5-5v-.115c0-2.761 2.238-5 5-5s5 2.239 5 5v.115c0 2.761-2.238 5-5 5z" fill="#ff7300"/></g><g><path d="m152.099 215.15c-2.762 0-5-2.239-5-5v-.115c0-2.761 2.238-5 5-5s5 2.239 5 5v.115c0 2.761-2.238 5-5 5z" fill="#ff7300"/></g><g><path d="m152.099 234.296c-2.762 0-5-2.239-5-5v-.115c0-2.761 2.238-5 5-5s5 2.239 5 5v.115c0 2.761-2.238 5-5 5z" fill="#ff7300"/></g><g><path d="m173.873 205.577c-2.762 0-5-2.239-5-5v-.115c0-2.761 2.238-5 5-5s5 2.239 5 5v.115c0 2.761-2.238 5-5 5z" fill="#ff7300"/></g><g><path d="m173.873 224.723c-2.762 0-5-2.239-5-5v-.115c0-2.761 2.238-5 5-5s5 2.239 5 5v.115c0 2.761-2.238 5-5 5z" fill="#ff7300"/></g><g><path d="m195.647 196.004c-2.762 0-5-2.239-5-5v-.115c0-2.761 2.238-5 5-5s5 2.239 5 5v.115c0 2.761-2.238 5-5 5z" fill="#ff7300"/></g><g><path d="m195.647 215.15c-2.762 0-5-2.239-5-5v-.115c0-2.761 2.238-5 5-5s5 2.239 5 5v.115c0 2.761-2.238 5-5 5z" fill="#ff7300"/></g><g><path d="m195.647 234.296c-2.762 0-5-2.239-5-5v-.115c0-2.761 2.238-5 5-5s5 2.239 5 5v.115c0 2.761-2.238 5-5 5z" fill="#ff7300"/></g><g><path d="m217.421 205.577c-2.762 0-5-2.239-5-5v-.115c0-2.761 2.238-5 5-5s5 2.239 5 5v.115c0 2.761-2.238 5-5 5z" fill="#ff7300"/></g><g><path d="m217.421 224.723c-2.762 0-5-2.239-5-5v-.115c0-2.761 2.238-5 5-5s5 2.239 5 5v.115c0 2.761-2.238 5-5 5z" fill="#ff7300"/></g></g></g></g><g><circle cx="322.646" cy="166.8" fill="#ff4d4d" r="69.494"/><path d="m354.983 152.159h-17.695v-17.695c0-5.523-4.477-10-10-10h-9.282c-5.523 0-10 4.477-10 10v17.695h-17.695c-5.523 0-10 4.477-10 10v9.282c0 5.523 4.477 10 10 10h17.695v17.695c0 5.523 4.477 10 10 10h9.282c5.523 0 10-4.477 10-10v-17.695h17.695c5.523 0 10-4.477 10-10v-9.282c0-5.523-4.478-10-10-10z" fill="#fff"/></g></g><g fill="#ff4d4d"><g><path d="m168.873 390.113c-2.762 0-5-2.239-5-5v-.15c0-2.761 2.238-5 5-5s5 2.239 5 5v.15c0 2.762-2.238 5-5 5z"/><path d="m168.873 417.897c-2.762 0-5-2.239-5-5v-.15c0-2.761 2.238-5 5-5s5 2.239 5 5v.15c0 2.762-2.238 5-5 5z"/></g><g><path d="m156.902 397.023c-.851 0-1.712-.217-2.5-.674l-.13-.075c-2.39-1.384-3.206-4.442-1.822-6.833 1.383-2.389 4.444-3.204 6.832-1.822l.13.075c2.39 1.384 3.206 4.442 1.822 6.833-.926 1.601-2.606 2.496-4.332 2.496z"/><path d="m180.964 410.915c-.851 0-1.712-.217-2.5-.674l-.13-.075c-2.39-1.384-3.206-4.442-1.822-6.833 1.384-2.389 4.445-3.205 6.832-1.822l.13.075c2.39 1.384 3.206 4.442 1.822 6.833-.927 1.601-2.607 2.496-4.332 2.496z"/></g><g><path d="m156.782 410.915c-1.727 0-3.405-.895-4.332-2.496-1.384-2.39-.567-5.449 1.822-6.833l.13-.075c2.39-1.384 5.449-.567 6.832 1.822 1.384 2.39.567 5.449-1.822 6.833l-.13.075c-.788.457-1.65.674-2.5.674z"/><path d="m180.844 397.023c-1.727 0-3.405-.895-4.332-2.496-1.384-2.39-.567-5.449 1.822-6.833l.13-.075c2.39-1.384 5.449-.567 6.832 1.822 1.384 2.39.567 5.449-1.822 6.833l-.13.075c-.788.457-1.651.674-2.5.674z"/></g></g><g fill="#6c6cff"><g><path d="m371.193 51.799c-2.762 0-5-2.239-5-5v-.15c0-2.761 2.238-5 5-5s5 2.239 5 5v.15c0 2.761-2.238 5-5 5z"/><path d="m371.193 79.583c-2.762 0-5-2.239-5-5v-.15c0-2.761 2.238-5 5-5s5 2.239 5 5v.15c0 2.761-2.238 5-5 5z"/></g><g><path d="m359.223 58.708c-.851 0-1.712-.217-2.5-.674l-.13-.075c-2.39-1.384-3.206-4.442-1.822-6.833 1.384-2.39 4.445-3.205 6.832-1.822l.13.075c2.39 1.384 3.206 4.442 1.822 6.833-.927 1.601-2.607 2.496-4.332 2.496z"/><path d="m383.284 72.601c-.851 0-1.712-.217-2.5-.674l-.13-.075c-2.39-1.384-3.206-4.442-1.822-6.833 1.384-2.39 4.445-3.205 6.832-1.822l.13.075c2.39 1.384 3.206 4.442 1.822 6.833-.927 1.601-2.606 2.496-4.332 2.496z"/></g><g><path d="m359.103 72.601c-1.727 0-3.405-.895-4.332-2.496-1.384-2.39-.567-5.449 1.822-6.833l.13-.075c2.391-1.384 5.449-.567 6.832 1.822 1.384 2.39.567 5.449-1.822 6.833l-.13.075c-.789.456-1.651.674-2.5.674z"/><path d="m383.164 58.708c-1.727 0-3.405-.895-4.332-2.496-1.384-2.39-.567-5.449 1.822-6.833l.13-.075c2.39-1.384 5.449-.567 6.832 1.822 1.384 2.39.567 5.449-1.822 6.833l-.13.075c-.788.457-1.65.674-2.5.674z"/></g></g><g fill="#00c"><path d="m445.733 334.181c-2.736-.311-5.22 1.663-5.53 4.407-6.759 59.792-57.298 104.881-117.558 104.881-65.244 0-118.323-53.08-118.323-118.323 0-10.701 1.443-21.068 4.118-30.934h53.272c13.785 0 25-11.215 25-25v-37.184c10.663 5.898 22.911 9.266 35.935 9.266 20.623 0 39.311-8.427 52.813-22.015 34.513 17.248 59.684 50.903 64.625 91.375.335 2.74 2.819 4.696 5.568 4.357 2.741-.334 4.692-2.828 4.357-5.569-5.25-43.003-31.551-78.915-67.808-97.949 9.373-12.459 14.937-27.938 14.937-44.693 0-41.076-33.418-74.494-74.493-74.494-13.024 0-25.272 3.369-35.935 9.266v-8.038c0-13.785-11.215-25-25-25h-95.62c-2.762 0-5 2.239-5 5s2.238 5 5 5h95.62c8.271 0 15 6.729 15 15v14.685c-17.37 13.65-28.56 34.827-28.56 58.581s11.19 44.931 28.56 58.581v43.831c0 8.271-6.729 15-15 15h-175.677c-8.271 0-15-6.729-15-15v-175.678c0-8.271 6.729-15 15-15h50.957c2.762 0 5-2.239 5-5s-2.238-5-5-5h-50.957c-13.785 0-25 11.215-25 25v175.678c0 13.785 11.215 25 25 25h112.07c-2.463 9.912-3.782 20.271-3.782 30.934 0 70.758 57.565 128.323 128.323 128.323 65.353 0 120.163-48.905 127.495-113.758.31-2.744-1.662-5.22-4.407-5.53zm-187.581-167.381c0-35.562 28.932-64.494 64.494-64.494s64.493 28.932 64.493 64.494-28.932 64.494-64.493 64.494c-35.562 0-64.494-28.932-64.494-64.494z"/><path d="m170.688 315.098h-18.582c-2.762 0-5 2.239-5 5s2.238 5 5 5h18.582c2.762 0 5-2.239 5-5s-2.239-5-5-5z"/><path d="m170.688 333.479h-58.582c-2.762 0-5 2.239-5 5s2.238 5 5 5h58.582c2.762 0 5-2.239 5-5s-2.239-5-5-5z"/><path d="m170.688 351.861h-58.582c-2.762 0-5 2.239-5 5s2.238 5 5 5h58.582c2.762 0 5-2.239 5-5s-2.239-5-5-5z"/></g><path d="m118.992 438.602c-2.762 0-5-2.239-5-5 0-3.492-2.841-6.333-6.333-6.333-2.762 0-5-2.239-5-5s2.238-5 5-5c3.492 0 6.333-2.841 6.333-6.333 0-2.761 2.238-5 5-5s5 2.239 5 5c0 3.492 2.841 6.333 6.333 6.333 2.762 0 5 2.239 5 5s-2.238 5-5 5c-3.492 0-6.333 2.841-6.333 6.333 0 2.761-2.238 5-5 5z" fill="#ff9d33"/><path d="m429.089 211.795c-2.762 0-5-2.239-5-5 0-3.492-2.841-6.333-6.333-6.333-2.762 0-5-2.239-5-5s2.238-5 5-5c3.492 0 6.333-2.841 6.333-6.333 0-2.761 2.238-5 5-5s5 2.239 5 5c0 3.492 2.841 6.333 6.333 6.333 2.762 0 5 2.239 5 5s-2.238 5-5 5c-3.492 0-6.333 2.841-6.333 6.333 0 2.761-2.238 5-5 5z" fill="#6c6cff"/><path d="m317.646 80.724c-2.762 0-5-2.239-5-5 0-3.492-2.841-6.333-6.333-6.333-2.762 0-5-2.239-5-5s2.238-5 5-5c3.492 0 6.333-2.841 6.333-6.333 0-2.761 2.238-5 5-5s5 2.239 5 5c0 3.492 2.841 6.333 6.333 6.333 2.762 0 5 2.239 5 5s-2.238 5-5 5c-3.492 0-6.333 2.841-6.333 6.333 0 2.761-2.239 5-5 5z" fill="#ff4d4d"/></g></g></g></svg>