<svg id="Capa_1" enable-background="new 0 0 512 512" height="512" viewBox="0 0 512 512" width="512" xmlns="http://www.w3.org/2000/svg" xmlns:xlink="http://www.w3.org/1999/xlink"><linearGradient id="SVGID_1_" gradientUnits="userSpaceOnUse" x1="96.524" x2="444.685" y1="444.05" y2="29.127"><stop offset="0" stop-color="#fff3ee" stop-opacity="0"/><stop offset=".2938" stop-color="#ffeade" stop-opacity=".373"/><stop offset=".7874" stop-color="#ffd6bb"/></linearGradient><g><g><path d="m4.896 314.61c17.448 172.872 292.417 167.143 420.804 136.265 82.47-19.834 87.596-59.472 86.106-144.001-.628-35.613 1.036-109.569-7.634-169.208-4.595-31.606-12.092-59.19-24.37-74.915-54.448-69.733-103.228-25.998-170.656-3.235-86.488 29.197-120.189-22.932-202.476-21.38-120.641 2.278-110.779 187.252-101.774 276.474z" fill="url(#SVGID_1_)"/></g><g><g><g fill="#2626bc" opacity=".1"><path d="m406.353 209.572 64.701-64.701c4.234-4.234 4.234-11.098 0-15.332s-11.098-4.234-15.332 0l-64.702 64.701-36.502 31.237c-6.336-1.411-13.012.331-17.854 4.768l-221.319 202.823c-13.049 11.958-13.494 32.382-.979 44.898 12.139 12.139 31.821 12.139 43.961 0l134.5-134.5c1.506 37.049 32.003 66.626 69.421 66.626 38.38 0 69.494-31.113 69.494-69.494 0-37.419-29.577-67.916-66.626-69.421l20.523-20.523c2.789-2.789 3.484-6.608 2.491-9.936l.017.001z"/><path d="m157.482 320.465c6.336 1.411 13.012-.331 17.854-4.768l221.319-202.822c13.049-11.958 13.494-32.382.979-44.898-12.139-12.139-31.821-12.139-43.961 0l-227.312 227.312c-2.789 2.789-3.484 6.608-2.491 9.936l-.017-.001-18.205 31.146-64.701 64.701c-4.234 4.234-4.234 11.098 0 15.332s11.098 4.234 15.332 0l64.701-64.701z"/><path d="m308.647 416.271h-18.583c-2.761 0-5 2.239-5 5s2.239 5 5 5h18.583c2.761 0 5-2.239 5-5s-2.238-5-5-5z"/><path d="m308.647 434.652h-58.583c-2.761 0-5 2.239-5 5s2.239 5 5 5h58.583c2.761 0 5-2.239 5-5s-2.238-5-5-5z"/><path d="m308.647 453.034h-58.583c-2.761 0-5 2.239-5 5s2.239 5 5 5h58.583c2.761 0 5-2.239 5-5s-2.238-5-5-5z"/></g><g><g><path d="m406.353 184.572 64.701-64.701c4.234-4.234 4.234-11.098 0-15.332-4.234-4.234-11.098-4.234-15.332 0l-64.702 64.701z" fill="#ebebff"/><path d="m339.847 213.033 51.173-43.793 15.333 15.332-18.206 31.146z" fill="#9494ff"/><path d="m114.367 452.965c12.139 12.139 31.821 12.139 43.961 0l227.312-227.312c5.293-5.293 3.108-14.312-4.021-16.595l-25.341-8.115c-6.836-2.189-14.32-.547-19.612 4.302l-221.321 202.823c-13.049 11.958-13.494 32.382-.978 44.897z" fill="#9494ff"/><path d="m309.64 230.012-67.735 62.073 38.651 38.651 64.904-64.904z" fill="#d9d9ff"/><path d="m278.266 258.763-15.86 14.535 37.794 37.795 15.197-15.198z" fill="#b3b3ff"/><path d="m269.331 266.951-11.219 10.282 37.973 37.974 10.751-10.751z" fill="#9494ff"/><g><path d="m231.769 347.943-41.424 41.424c-1.953 1.953-5.119 1.952-7.071 0s-1.953-5.118 0-7.071l41.424-41.424c1.953-1.953 5.119-1.952 7.071 0s1.953 5.118 0 7.071z" fill="#6c6cff"/></g><circle cx="140.78" cy="431.862" fill="#6c6cff" r="6.712"/></g><g><path d="m105.647 311.371-64.701 64.701c-4.234 4.234-4.234 11.098 0 15.332 4.234 4.234 11.098 4.234 15.332 0l64.701-64.701z" fill="#ebebff"/><path d="m172.153 282.91-51.173 43.793-15.333-15.332 18.206-31.146z" fill="#9494ff"/><path d="m397.633 42.977c-12.139-12.139-31.821-12.139-43.961 0l-227.311 227.313c-5.293 5.293-3.108 14.312 4.021 16.595l25.341 8.115c6.836 2.189 14.32.547 19.612-4.302l221.32-202.823c13.049-11.958 13.494-32.382.978-44.898z" fill="#9494ff"/><path d="m202.36 265.931 67.735-62.074-38.651-38.651-64.904 64.904z" fill="#d9d9ff"/><path d="m233.734 237.179 15.86-14.534-37.794-37.795-15.197 15.198z" fill="#b3b3ff"/><path d="m242.669 228.992 11.219-10.283-37.973-37.973-10.751 10.751z" fill="#9494ff"/><g><path d="m280.231 147.999 41.424-41.424c1.953-1.953 5.119-1.952 7.071 0s1.953 5.118 0 7.071l-41.424 41.424c-1.953 1.953-5.119 1.952-7.071 0s-1.953-5.118 0-7.071z" fill="#6c6cff"/></g><circle cx="371.22" cy="64.081" fill="#6c6cff" r="6.712"/></g></g><g><g><circle cx="362.249" cy="315.598" fill="#ff4d4d" r="69.494"/><path d="m394.585 300.956h-17.695v-17.695c0-5.523-4.477-10-10-10h-9.282c-5.523 0-10 4.477-10 10v17.695h-17.695c-5.523 0-10 4.477-10 10v9.282c0 5.523 4.477 10 10 10h17.695v17.695c0 5.523 4.477 10 10 10h9.282c5.523 0 10-4.477 10-10v-17.695h17.695c5.523 0 10-4.477 10-10v-9.282c0-5.522-4.477-10-10-10z" fill="#fff"/></g><g fill="#00c"><path d="m474.589 123.407c2.992-2.992 4.64-6.97 4.64-11.202s-1.648-8.209-4.64-11.201-6.97-4.64-11.202-4.64c-4.231 0-8.209 1.647-11.202 4.64l-64.565 64.565-34.579 29.592c-7.119-.815-14.369 1.462-19.755 6.399l-221.319 202.821c-7.326 6.713-11.48 15.882-11.697 25.817s3.534 19.276 10.561 26.303c6.815 6.815 15.877 10.569 25.516 10.569s18.701-3.753 25.516-10.569l112.087-112.087c1.953-1.953 1.953-5.119 0-7.071s-5.118-1.952-7.071 0l-112.087 112.087c-4.927 4.927-11.477 7.64-18.444 7.64-6.968 0-13.518-2.713-18.445-7.641-5.08-5.079-7.791-11.832-7.634-19.013.157-7.182 3.159-13.81 8.455-18.663l221.319-202.822c3.959-3.629 9.595-4.864 14.709-3.227l25.341 8.115c2.413.773 3.136 2.764 3.334 3.585.199.82.468 2.921-1.324 4.712l-19.008 19.008c-.283-.003-.563-.021-.847-.021-41.076 0-74.494 33.417-74.494 74.494 0 17.083 5.931 33.772 16.7 46.993 10.612 13.028 25.448 22.175 41.777 25.756 2.696.591 5.364-1.115 5.955-3.813.592-2.697-1.115-5.363-3.813-5.955-29.331-6.432-50.619-32.919-50.619-62.981 0-35.562 28.932-64.494 64.494-64.494s64.494 28.932 64.494 64.494c0 30.435-21.597 56.994-51.353 63.151-2.704.56-4.443 3.206-3.883 5.91.489 2.363 2.569 3.988 4.891 3.988.335 0 .677-.034 1.018-.104 34.376-7.114 59.326-37.792 59.326-72.944 0-36.387-26.23-66.744-60.771-73.205l13.203-13.203c3.356-3.356 4.886-7.974 4.255-12.6l16.914-28.937zm-15.332-15.332c2.278-2.278 5.985-2.277 8.261 0 2.278 2.277 2.278 5.983 0 8.261l-61.166 61.165-8.261-8.261zm-71.597 98.568c-1.337-1.013-2.855-1.815-4.517-2.347l-18.481-5.918 26.094-22.331 9.333 9.333z"/><path d="m158.974 300.769c.941.107 1.883.178 2.824.178 6.172 0 12.245-2.283 16.916-6.563l221.319-202.823c7.326-6.713 11.48-15.882 11.697-25.817.216-9.935-3.534-19.275-10.561-26.302l-3.536 3.535 3.536-3.536c-6.815-6.815-15.877-10.569-25.516-10.569s-18.701 3.753-25.516 10.569l-227.312 227.313c-3.356 3.356-4.886 7.974-4.255 12.6l-16.914 28.937-64.246 64.245c-2.992 2.992-4.64 6.97-4.64 11.202s1.648 8.209 4.64 11.201 6.97 4.64 11.202 4.64c4.231 0 8.209-1.647 11.202-4.64l64.565-64.565zm-29.078-26.944 227.312-227.312c4.927-4.927 11.477-7.64 18.444-7.64 6.968 0 13.518 2.713 18.445 7.641 5.08 5.079 7.791 11.832 7.634 19.013-.157 7.182-3.159 13.81-8.455 18.663l-221.318 202.821c-3.958 3.628-9.596 4.864-14.709 3.227l-25.341-8.115c-2.413-.773-3.136-2.764-3.334-3.585-.2-.82-.47-2.922 1.322-4.713zm-5.556 15.474c1.337 1.013 2.855 1.815 4.517 2.347l18.481 5.918-26.095 22.331-9.333-9.333zm-71.597 98.569c-2.277 2.279-5.984 2.278-8.261 0-2.278-2.277-2.278-5.983 0-8.261l61.166-61.165 8.261 8.261z"/><path d="m308.647 391.271h-18.583c-2.761 0-5 2.239-5 5s2.239 5 5 5h18.583c2.761 0 5-2.239 5-5s-2.238-5-5-5z"/><path d="m308.647 409.652h-58.583c-2.761 0-5 2.239-5 5s2.239 5 5 5h58.583c2.761 0 5-2.239 5-5s-2.238-5-5-5z"/><path d="m308.647 428.034h-58.583c-2.761 0-5 2.239-5 5s2.239 5 5 5h58.583c2.761 0 5-2.239 5-5s-2.238-5-5-5z"/></g></g></g><path d="m209.531 109.301c-2.761 0-5-2.239-5-5 0-3.492-2.841-6.333-6.333-6.333-2.761 0-5-2.239-5-5s2.239-5 5-5c3.492 0 6.333-2.841 6.333-6.333 0-2.761 2.239-5 5-5s5 2.239 5 5c0 3.492 2.841 6.333 6.333 6.333 2.761 0 5 2.239 5 5s-2.239 5-5 5c-3.492 0-6.333 2.841-6.333 6.333 0 2.761-2.239 5-5 5z" fill="#6c6cff"/><path d="m256.905 85.414c-2.761 0-5-2.239-5-5 0-3.492-2.841-6.333-6.333-6.333-2.761 0-5-2.239-5-5s2.239-5 5-5c3.492 0 6.333-2.841 6.333-6.333 0-2.761 2.239-5 5-5s5 2.239 5 5c0 3.492 2.841 6.333 6.333 6.333 2.761 0 5 2.239 5 5s-2.239 5-5 5c-3.492 0-6.333 2.841-6.333 6.333 0 2.761-2.238 5-5 5z" fill="#ff9d33"/><g fill="#ff4d4d"><g><path d="m196.809 130.291c-2.761 0-5-2.239-5-5v-.15c0-2.761 2.239-5 5-5s5 2.239 5 5v.15c0 2.761-2.239 5-5 5z"/><path d="m196.809 158.075c-2.761 0-5-2.239-5-5v-.15c0-2.761 2.239-5 5-5s5 2.239 5 5v.15c0 2.762-2.239 5-5 5z"/></g><g><path d="m184.838 137.2c-.846 0-1.702-.215-2.488-.667l-.13-.075c-2.394-1.376-3.218-4.433-1.841-6.827 1.376-2.393 4.433-3.218 6.827-1.841l.13.075c2.394 1.376 3.218 4.433 1.841 6.827-.925 1.608-2.608 2.508-4.339 2.508z"/><path d="m208.9 151.092c-.848 0-1.706-.216-2.493-.67l-.13-.075c-2.392-1.379-3.213-4.437-1.833-6.829 1.379-2.392 4.437-3.213 6.829-1.833l.13.075c2.392 1.379 3.213 4.437 1.833 6.829-.925 1.605-2.607 2.503-4.336 2.503z"/></g><g><path d="m184.718 151.092c-1.726 0-3.405-.895-4.332-2.496-1.384-2.39-.568-5.449 1.822-6.833l.13-.075c2.391-1.384 5.449-.567 6.833 1.822 1.384 2.39.568 5.449-1.822 6.833l-.13.075c-.789.457-1.651.674-2.501.674z"/><path d="m208.78 137.2c-1.734 0-3.419-.903-4.343-2.515-1.373-2.396-.543-5.451 1.853-6.824l.13-.075c2.396-1.374 5.451-.543 6.824 1.853s.543 5.451-1.853 6.824l-.13.075c-.784.449-1.638.662-2.481.662z"/></g></g><g fill="#ff4d4d"><g><path d="m453.399 241.162c-2.761 0-5-2.239-5-5v-.15c0-2.761 2.239-5 5-5s5 2.239 5 5v.15c0 2.761-2.238 5-5 5z"/><path d="m453.399 268.946c-2.761 0-5-2.239-5-5v-.15c0-2.761 2.239-5 5-5s5 2.239 5 5v.15c0 2.761-2.238 5-5 5z"/></g><g><path d="m441.429 248.071c-.846 0-1.702-.215-2.488-.667l-.13-.075c-2.394-1.376-3.218-4.433-1.841-6.827 1.376-2.394 4.433-3.218 6.827-1.841l.13.075c2.394 1.376 3.218 4.433 1.841 6.827-.925 1.608-2.608 2.508-4.339 2.508z"/><path d="m465.491 261.963c-.846 0-1.702-.215-2.488-.667l-.13-.075c-2.394-1.376-3.218-4.433-1.841-6.827 1.377-2.393 4.432-3.218 6.827-1.841l.13.075c2.394 1.376 3.218 4.433 1.841 6.827-.925 1.608-2.608 2.508-4.339 2.508z"/></g><g><path d="m441.309 261.963c-1.731 0-3.414-.9-4.339-2.508-1.377-2.394-.553-5.451 1.841-6.827l.13-.075c2.394-1.378 5.451-.552 6.827 1.841 1.377 2.394.553 5.451-1.841 6.827l-.13.075c-.786.452-1.643.667-2.488.667z"/><path d="m465.371 248.071c-1.731 0-3.414-.9-4.339-2.508-1.377-2.394-.553-5.451 1.841-6.827l.13-.075c2.394-1.379 5.451-.553 6.827 1.841 1.377 2.394.553 5.451-1.841 6.827l-.13.075c-.786.452-1.643.667-2.488.667z"/></g></g><g fill="#ff9d33"><g><path d="m359.509 434.217c-2.761 0-5-2.239-5-5v-.15c0-2.761 2.239-5 5-5s5 2.239 5 5v.15c0 2.762-2.239 5-5 5z"/><path d="m359.509 462.002c-2.761 0-5-2.239-5-5v-.15c0-2.761 2.239-5 5-5s5 2.239 5 5v.15c0 2.761-2.239 5-5 5z"/></g><g><path d="m347.538 441.127c-.846 0-1.702-.215-2.488-.667l-.13-.075c-2.394-1.376-3.218-4.433-1.841-6.827 1.376-2.394 4.431-3.218 6.827-1.841l.13.075c2.394 1.376 3.218 4.433 1.841 6.827-.925 1.608-2.608 2.508-4.339 2.508z"/><path d="m371.6 455.019c-.846 0-1.702-.215-2.488-.667l-.13-.075c-2.394-1.376-3.218-4.433-1.841-6.827s4.432-3.218 6.827-1.841l.13.075c2.394 1.376 3.218 4.433 1.841 6.827-.925 1.608-2.608 2.508-4.339 2.508z"/></g><g><path d="m347.418 455.019c-1.731 0-3.414-.9-4.339-2.508-1.377-2.394-.553-5.451 1.841-6.827l.13-.075c2.395-1.378 5.451-.552 6.827 1.841 1.377 2.394.553 5.451-1.841 6.827l-.13.075c-.785.452-1.643.667-2.488.667z"/><path d="m371.479 441.127c-1.731 0-3.414-.9-4.339-2.508-1.377-2.394-.553-5.451 1.841-6.827l.13-.075c2.394-1.378 5.451-.552 6.827 1.841 1.377 2.394.553 5.451-1.841 6.827l-.13.075c-.785.452-1.642.667-2.488.667z"/></g></g></g></g></svg>