<svg width="14" height="15" viewBox="0 0 14 15" fill="none" xmlns="http://www.w3.org/2000/svg">
<path d="M13.554 13.033L10.088 9.567C10.8873 8.46496 11.2443 7.10317 11.0882 5.75071C10.9322 4.39826 10.2745 3.15354 9.24514 2.2625C8.2158 1.37147 6.88968 0.898947 5.52882 0.938311C4.16797 0.977674 2.87137 1.52606 1.89526 2.4751C0.919142 3.42414 0.334514 4.7048 0.256898 6.06401C0.179282 7.42323 0.614324 8.76211 1.47606 9.8161C2.3378 10.8701 3.56353 11.5625 4.91106 11.7565C6.25859 11.9506 7.62989 11.6321 8.75397 10.864L12.239 14.349L13.554 13.033ZM1.84797 6.377C1.84816 5.6174 2.07358 4.87493 2.49571 4.24343C2.91784 3.61193 3.51773 3.11978 4.21954 2.82919C4.92135 2.53859 5.69357 2.46261 6.43855 2.61085C7.18354 2.75909 7.86785 3.12489 8.40496 3.662C8.94208 4.19911 9.30788 4.88342 9.45611 5.62841C9.60435 6.3734 9.52837 7.14561 9.23778 7.84742C8.94719 8.54923 8.45503 9.14913 7.82354 9.57126C7.19204 9.99339 6.44956 10.2188 5.68997 10.219C4.67133 10.2179 3.69472 9.81282 2.97443 9.09253C2.25415 8.37225 1.84903 7.39563 1.84797 6.377Z" fill="white"/>
</svg>
