<svg width="238" height="47" viewBox="0 0 238 47" fill="none" xmlns="http://www.w3.org/2000/svg">
<path d="M33.8749 46.9731H18.5549V41.2993H28.2009V28.1992H41.3009V18.7729H28.3879V13.0991H46.9739V33.873H33.8739L33.8749 46.9731Z" />
<path d="M18.731 33.874H0V13.1001H13.1V0H28.916V5.67529H18.774V18.7749H5.674V28.2012H18.731V33.874Z" />
<path d="M62.989 15.2928H68.7151C70.3098 15.2257 71.8842 15.6696 73.209 16.5598C73.7941 16.9921 74.2614 17.564 74.5683 18.2234C74.8753 18.8829 75.012 19.6088 74.9661 20.3347C74.9826 21.1844 74.7609 22.0216 74.326 22.7517C73.9038 23.4487 73.3063 24.0228 72.593 24.4168L76.2201 30.804H72.2281L69.3281 25.4197H66.5461V30.804H62.9871L62.989 15.2928ZM68.601 18.1678H66.5481V22.5926H68.6481C69.3241 22.6241 69.9899 22.4187 70.5301 22.011C70.7675 21.818 70.9563 21.5716 71.0811 21.2923C71.206 21.013 71.2635 20.7082 71.2491 20.4026C71.2741 20.0875 71.2252 19.7712 71.1063 19.4783C70.9874 19.1854 70.8017 18.9241 70.5641 18.7156C69.9911 18.3149 69.2987 18.1214 68.601 18.1668V18.1678Z" />
<path d="M79.458 30.8042V15.293H89.244L89.677 18.0991H83.017V21.5889H87.944L88.377 24.395H83.017V28.022H90.157L90.59 30.8042H79.458Z" />
<path d="M104.757 30.8042H94.0571V15.293H97.6161V28.022H104.345L104.757 30.8042Z" />
<path d="M107.996 30.8042V15.293H111.555V30.8042H107.996Z" />
<path d="M116.459 30.8042V15.293H126.246L126.68 18.0991H120.019V21.5889H124.946L125.38 24.395H120.019V28.022H127.159L127.592 30.8042H116.459Z" />
<path d="M139.84 24.604H134.617V30.8042H131.058V15.3164H140.503L140.913 18.0991H134.613V21.7944H139.427L139.84 24.604Z" />
<path d="M149.627 29.824L150.653 27.0399C151.233 27.3369 151.841 27.578 152.467 27.7591C153.09 27.9635 153.739 28.0746 154.394 28.0897C155.005 28.1262 155.615 27.9875 156.15 27.6898C156.338 27.5839 156.494 27.43 156.603 27.2435C156.711 27.0569 156.768 26.8445 156.767 26.6287C156.757 26.468 156.71 26.3117 156.629 26.1727C156.547 26.0337 156.434 25.9161 156.299 25.8289C155.813 25.4718 155.307 25.1443 154.782 24.848C154.63 24.772 154.402 24.6425 154.098 24.4598C153.064 23.8365 152.254 23.3194 151.669 22.908C151.068 22.4829 150.543 21.9585 150.117 21.3577C149.673 20.7481 149.438 20.0121 149.445 19.2581C149.451 18.471 149.695 17.7038 150.145 17.0579C150.634 16.38 151.301 15.8512 152.073 15.5301C153.004 15.1391 154.007 14.9486 155.016 14.971C155.811 14.9759 156.601 15.0873 157.366 15.3021C158.11 15.4968 158.824 15.7921 159.488 16.18L158.393 18.7801C157.808 18.527 157.207 18.3134 156.593 18.1409C156.093 18.016 155.58 17.9547 155.065 17.9588C154.58 17.9385 154.1 18.0616 153.685 18.3128C153.518 18.4125 153.38 18.5547 153.286 18.7249C153.192 18.8951 153.145 19.0876 153.149 19.2821C153.151 19.4525 153.193 19.6201 153.27 19.7723C153.346 19.9244 153.457 20.057 153.593 20.16C154.038 20.506 154.515 20.8073 155.019 21.0599C155.281 21.1762 155.533 21.3141 155.772 21.472C156.867 22.11 157.704 22.6307 158.281 23.034C158.874 23.452 159.391 23.9691 159.809 24.5628C160.25 25.1768 160.481 25.916 160.47 26.6717C160.481 27.4893 160.229 28.289 159.752 28.9529C159.221 29.6622 158.502 30.2076 157.676 30.5277C156.656 30.9285 155.567 31.1223 154.471 31.097C153.61 31.0755 152.756 30.9453 151.928 30.7098C151.123 30.5235 150.349 30.2255 149.627 29.824Z" />
<path d="M163.975 30.8042V15.293H173.762L174.195 18.0991H167.534V21.5889H172.461L172.894 24.395H167.533V28.022H174.673L175.106 30.8042H163.975Z" />
<path d="M178.574 30.8042V15.293H188.359L188.792 18.0991H182.131V21.5889H187.059L187.492 24.395H182.132V28.022H189.272L189.706 30.8042H178.574Z" />
<path d="M202.436 30.804L198.125 24.6921L196.756 26.0593V30.804H193.174V15.2922H196.756V21.2229L203.235 14.9509L205.95 16.9583L200.635 22.2053L206.935 30.8049L202.436 30.804Z" />
<path d="M210.168 30.8042V15.293H219.955L220.388 18.0991H213.727V21.5889H218.654L219.087 24.395H213.727V28.022H220.867L221.3 30.8042H210.168Z" />
<path d="M224.767 15.2932H230.493C232.088 15.2264 233.663 15.6703 234.988 16.5603C235.573 16.9927 236.04 17.5649 236.347 18.2243C236.653 18.8838 236.79 19.6094 236.744 20.3352C236.761 21.1847 236.539 22.0218 236.105 22.7522C235.682 23.4491 235.085 24.0232 234.371 24.4172L237.998 30.8044H234.002L231.102 25.4201H228.319V30.8044H224.76L224.767 15.2932ZM230.379 18.1682H228.326V22.593H230.426C231.1 22.6239 231.764 22.4188 232.302 22.0124C232.54 21.8196 232.728 21.5735 232.853 21.2942C232.978 21.0148 233.036 20.7097 233.021 20.404C233.046 20.089 232.997 19.7726 232.879 19.4797C232.76 19.1869 232.574 18.9256 232.337 18.717C231.765 18.3173 231.075 18.1236 230.379 18.1672V18.1682Z" />
</svg>
