<svg id="Capa_1" enable-background="new 0 0 512 512" height="512" viewBox="0 0 512 512" width="512" xmlns="http://www.w3.org/2000/svg" xmlns:xlink="http://www.w3.org/1999/xlink"><linearGradient id="SVGID_1_" gradientUnits="userSpaceOnUse" x1="0" x2="512" y1="256" y2="256"><stop offset="0" stop-color="#ffd9d9" stop-opacity="0"/><stop offset=".9981" stop-color="#ffb3b3"/></linearGradient><g><g><path d="m451.798 43.963c-160.556-97.869-410.51-8.611-439.594 61.949-38.908 94.394 26.578 110.528 38.743 187.874 9.761 62.061-51.182 121.495-16.394 176.282 37.883 59.663 163.465 44.681 211.198 16.447 87.376-51.683 43.309-112.012 84.684-187.299 39.407-71.707 116.244-42.625 160.961-99.99 42.5-54.521 14.31-122.402-39.598-155.263z" fill="url(#SVGID_1_)"/></g><g><path d="m479.421 394.643c-13.764-61.444-56.051-218.813-128.113-218.813h-27.426c-14.889 0-26.959 12.07-26.959 26.959v42.735c-17-2.534-30.083-17.227-30.083-34.921v-118.877c0-.374-.019-.744-.056-1.108-.555-5.466-5.171-9.732-10.784-9.732s-10.229 4.266-10.784 9.732c-.037.364-.056.734-.056 1.108v118.877c0 17.694-13.083 32.387-30.083 34.921v-42.735c0-14.889-12.07-26.959-26.959-26.959h-27.426c-72.062 0-114.349 157.369-128.113 218.813-3.366 15.026.341 30.767 10.026 42.739 9.585 11.849 24.01 18.733 39.251 18.733 73.576 0 133.221-59.645 133.221-133.221v-55.549c16.808-1.537 31.521-10.4 40.923-23.363 9.402 12.963 24.115 21.826 40.923 23.363v55.549c0 73.576 59.645 133.221 133.221 133.221 15.24 0 29.665-6.885 39.251-18.733 9.685-11.973 13.392-27.713 10.026-42.739z" fill="#2626bc" opacity=".1"/><g><g><path d="m215.077 177.789v120.105c0 73.576-59.645 133.221-133.221 133.221-15.24 0-29.665-6.885-39.251-18.733-9.685-11.972-13.392-27.712-10.026-42.739 13.764-61.444 56.051-218.813 128.113-218.813h27.426c14.889 0 26.959 12.07 26.959 26.959z" fill="#ff6c6c"/><g><g><path d="m256 55.886c-5.987 0-10.84 4.854-10.84 10.84v118.877c0 19.47-15.84 35.311-35.311 35.311h-25.844c-5.987 0-10.84 4.854-10.84 10.84 0 5.987 4.854 10.84 10.84 10.84h25.844c31.425 0 56.992-25.566 56.992-56.992v-118.876c-.001-5.987-4.854-10.84-10.841-10.84z" fill="#6c6cff"/></g><path d="m195.046 202.044c-6.484 8.735-9.912 19.086-9.912 29.933 0 10.846 3.428 21.197 9.913 29.933h-31.733v-59.865h31.732z" fill="#ff6c6c"/></g></g><g><path d="m296.923 177.789v120.105c0 73.576 59.645 133.221 133.221 133.221 15.24 0 29.665-6.885 39.251-18.733 9.685-11.972 13.392-27.712 10.026-42.739-13.764-61.444-56.051-218.813-128.113-218.813h-27.426c-14.889 0-26.959 12.07-26.959 26.959z" fill="#ff6c6c"/><g><g><path d="m256 55.886c5.987 0 10.84 4.854 10.84 10.84v118.877c0 19.47 15.84 35.311 35.311 35.311h25.844c5.987 0 10.84 4.854 10.84 10.84 0 5.987-4.854 10.84-10.84 10.84h-25.844c-31.425 0-56.992-25.566-56.992-56.992v-118.876c.001-5.987 4.854-10.84 10.841-10.84z" fill="#9494ff"/></g><path d="m316.954 202.044c6.484 8.735 9.912 19.086 9.912 29.933 0 10.846-3.428 21.197-9.913 29.933h31.733v-59.865h-31.732z" fill="#ff6c6c"/><path d="m484.3 368.55c-6.546-29.223-20.774-85.414-42.519-133.418-26.841-59.257-57.281-89.302-90.473-89.302h-27.426c-17.622 0-31.959 14.337-31.959 31.959v36.345c-11.695-4.206-20.083-15.405-20.083-28.53v-118.878c0-8.734-7.106-15.84-15.84-15.84s-15.84 7.105-15.84 15.84v118.878c0 13.125-8.388 24.325-20.083 28.53v-36.345c0-17.622-14.337-31.959-31.959-31.959h-27.426c-33.192 0-63.631 30.045-90.473 89.302-21.744 48.004-35.973 104.195-42.519 133.418-3.719 16.602.296 33.724 11.018 46.976 10.585 13.085 26.309 20.589 43.138 20.589 76.215 0 138.221-62.006 138.221-138.221v-51.147c5.201-.865 10.262-2.387 15.125-4.575 2.519-1.132 3.642-4.092 2.509-6.61-1.133-2.519-4.093-3.644-6.611-2.509-6.703 3.015-13.853 4.543-21.252 4.543h-19.367c-.229-1.851-.348-3.726-.348-5.618 0-2.044.143-4.067.411-6.063h19.305c14.362 0 26.986-7.556 34.127-18.895 7.596 20.567 25.806 36.024 47.947 39.717v51.158c0 76.215 62.005 138.221 138.221 138.221 16.83 0 32.553-7.504 43.138-20.589 10.721-13.254 14.737-30.376 11.018-46.977zm-291.222-152.636c1.467-3.845 3.468-7.503 5.982-10.89 1.646-2.217 1.183-5.349-1.034-6.995-2.218-1.646-5.349-1.182-6.995 1.034-7.129 9.603-10.897 20.984-10.897 32.913s3.769 23.31 10.898 32.913c.981 1.321 2.49 2.02 4.019 2.02 1.036 0 2.081-.32 2.977-.985 2.217-1.646 2.68-4.778 1.034-6.995-2.611-3.517-4.668-7.326-6.148-11.334h16.936c.076 0 .152-.006.228-.006v50.305c0 70.701-57.52 128.221-128.221 128.221-13.797 0-26.686-6.151-35.364-16.878-8.789-10.864-12.082-24.896-9.034-38.501 6.462-28.848 20.495-84.288 41.87-131.478 25.076-55.358 52.451-83.428 81.364-83.428h27.426c12.108 0 21.959 9.851 21.959 21.959v38.119c-.076.001-.152.006-.228.006zm57.082-30.31v-118.878c0-3.22 2.62-5.84 5.84-5.84s5.84 2.62 5.84 5.84v118.878c0 22.228 18.083 40.311 40.311 40.311h19.305c.267 1.996.411 4.019.411 6.063 0 1.892-.119 3.767-.348 5.618h-19.367c-28.669-.001-51.992-23.325-51.992-51.992zm215.348 223.632c-8.678 10.727-21.567 16.878-35.364 16.878-70.701 0-128.221-57.52-128.221-128.221v-50.305c.076 0 .152.006.228.006h16.936c-1.481 4.008-3.537 7.817-6.148 11.334-1.646 2.217-1.183 5.349 1.034 6.995.896.665 1.94.985 2.977.985 1.528 0 3.038-.698 4.019-2.02 7.13-9.604 10.898-20.984 10.898-32.913s-3.768-23.311-10.897-32.913c-1.646-2.216-4.778-2.68-6.995-1.034s-2.68 4.778-1.034 6.995c2.514 3.387 4.515 7.044 5.982 10.89h-16.771c-.076 0-.152-.005-.228-.006v-38.119c0-12.108 9.851-21.959 21.959-21.959h27.426c28.913 0 56.288 28.069 81.364 83.428 21.375 47.189 35.408 102.63 41.87 131.478 3.046 13.605-.247 27.637-9.035 38.501z" fill="#00c"/></g></g></g><g><g><circle cx="154.302" cy="338.315" fill="#ff4d4d" r="26.464"/><circle cx="133.301" cy="364.779" fill="#ffb3b3" r="18.713"/></g><g><circle cx="357.698" cy="338.315" fill="#ff4d4d" r="26.464"/><circle cx="378.699" cy="364.779" fill="#ffb3b3" r="18.713"/></g></g><path d="m296.923 418.877c-2.761 0-5-2.238-5-5 0-3.492-2.841-6.334-6.333-6.334-2.761 0-5-2.238-5-5s2.239-5 5-5c3.492 0 6.333-2.841 6.333-6.333 0-2.762 2.239-5 5-5s5 2.238 5 5c0 3.492 2.841 6.333 6.333 6.333 2.761 0 5 2.238 5 5s-2.239 5-5 5c-3.492 0-6.333 2.842-6.333 6.334 0 2.762-2.238 5-5 5z" fill="#ff9d33"/><path d="m397.413 139.99c-2.761 0-5-2.238-5-5 0-3.492-2.841-6.334-6.333-6.334-2.761 0-5-2.238-5-5s2.239-5 5-5c3.492 0 6.333-2.841 6.333-6.333 0-2.762 2.239-5 5-5s5 2.238 5 5c0 3.492 2.841 6.333 6.333 6.333 2.761 0 5 2.238 5 5s-2.239 5-5 5c-3.492 0-6.333 2.842-6.333 6.334 0 2.762-2.239 5-5 5z" fill="#6c6cff"/><path d="m123.22 107.989c-2.761 0-5-2.238-5-5 0-3.492-2.841-6.334-6.333-6.334-2.761 0-5-2.238-5-5s2.239-5 5-5c3.492 0 6.333-2.841 6.333-6.333 0-2.762 2.239-5 5-5s5 2.238 5 5c0 3.492 2.841 6.333 6.333 6.333 2.761 0 5 2.238 5 5s-2.239 5-5 5c-3.492 0-6.333 2.842-6.333 6.334 0 2.762-2.239 5-5 5z" fill="#ff4d4d"/><g fill="#ff9d33"><g><path d="m89.741 119.84c-2.761 0-5-2.238-5-5v-.15c0-2.762 2.239-5 5-5s5 2.238 5 5v.15c0 2.762-2.239 5-5 5z"/><path d="m89.741 147.624c-2.761 0-5-2.238-5-5v-.15c0-2.762 2.239-5 5-5s5 2.238 5 5v.15c0 2.762-2.239 5-5 5z"/></g><g><path d="m77.771 126.749c-.85 0-1.711-.217-2.5-.674l-.131-.075c-2.39-1.384-3.206-4.442-1.822-6.832 1.383-2.39 4.441-3.207 6.833-1.822l.13.075c2.39 1.384 3.206 4.442 1.822 6.832-.927 1.601-2.606 2.496-4.332 2.496z"/><path d="m101.833 140.641c-.839 0-1.688-.211-2.469-.655l-.13-.074c-2.4-1.366-3.238-4.42-1.872-6.819 1.367-2.4 4.421-3.236 6.819-1.872l.13.074c2.4 1.366 3.238 4.42 1.872 6.819-.922 1.618-2.612 2.527-4.35 2.527z"/></g><g><path d="m77.65 140.641c-1.736 0-3.423-.905-4.346-2.521-1.37-2.397-.537-5.451 1.861-6.821l.13-.074c2.396-1.37 5.452-.538 6.822 1.86 1.37 2.397.537 5.451-1.861 6.821l-.13.074c-.782.448-1.635.661-2.476.661z"/><path d="m101.712 126.749c-1.729 0-3.41-.897-4.336-2.503-1.38-2.392-.559-5.449 1.833-6.829l.13-.075c2.391-1.382 5.45-.56 6.829 1.833 1.38 2.392.559 5.449-1.833 6.829l-.13.075c-.787.454-1.646.67-2.493.67z"/></g></g><g fill="#6c6cff"><g><path d="m264.75 361.602c-2.761 0-5-2.238-5-5v-.15c0-2.762 2.239-5 5-5s5 2.238 5 5v.15c0 2.761-2.239 5-5 5z"/><path d="m264.75 389.386c-2.761 0-5-2.238-5-5v-.15c0-2.762 2.239-5 5-5s5 2.238 5 5v.15c0 2.761-2.239 5-5 5z"/></g><g><path d="m252.779 368.511c-.85 0-1.711-.217-2.5-.674l-.13-.075c-2.39-1.384-3.206-4.442-1.822-6.832 1.383-2.391 4.441-3.207 6.833-1.822l.13.075c2.39 1.384 3.206 4.442 1.822 6.832-.927 1.601-2.607 2.496-4.333 2.496z"/><path d="m276.841 382.403c-.85 0-1.711-.217-2.5-.674l-.13-.075c-2.39-1.384-3.206-4.442-1.822-6.832 1.383-2.391 4.441-3.208 6.833-1.822l.13.075c2.39 1.384 3.206 4.442 1.822 6.832-.928 1.602-2.607 2.496-4.333 2.496z"/></g><g><path d="m252.659 382.403c-1.726 0-3.405-.895-4.332-2.496-1.384-2.39-.568-5.448 1.822-6.832l.13-.075c2.391-1.386 5.449-.568 6.833 1.822s.568 5.448-1.822 6.832l-.13.075c-.789.458-1.651.674-2.501.674z"/><path d="m276.721 368.511c-1.726 0-3.405-.895-4.332-2.496-1.384-2.39-.568-5.448 1.822-6.832l.13-.075c2.391-1.385 5.449-.568 6.833 1.822s.568 5.448-1.822 6.832l-.13.075c-.79.457-1.651.674-2.501.674z"/></g></g></g></g></svg>