<svg id="Capa_1" enable-background="new 0 0 512 512" height="512" viewBox="0 0 512 512" width="512" xmlns="http://www.w3.org/2000/svg" xmlns:xlink="http://www.w3.org/1999/xlink"><linearGradient id="SVGID_1_" gradientUnits="userSpaceOnUse" x1="0" x2="512" y1="254.559" y2="254.559"><stop offset="0" stop-color="#ffd9d9" stop-opacity="0"/><stop offset=".9981" stop-color="#ffb3b3"/></linearGradient><g><g><path d="m4.896 322.818c17.448 172.871 292.417 167.142 420.804 136.265 82.47-19.834 87.596-59.472 86.106-144.001-.96-54.486 3.443-198.725-32.004-244.123-54.448-69.733-103.228-25.998-170.656-3.235-86.488 29.197-120.189-22.932-202.476-21.38-120.641 2.278-110.779 187.252-101.774 276.474z" fill="url(#SVGID_1_)"/></g><g><path d="m443.4 175.088h-112.775v-37.166c0-13.785-11.215-25-25-25h-99.761c-13.785 0-25 11.215-25 25v37.166h-112.774c-5.523 0-10 4.477-10 10v230.906c0 5.523 4.477 10 10 10h27.87v15.201c0 2.761 2.239 5 5 5h68.555c2.761 0 5-2.239 5-5v-15.201h162.46v15.201c0 2.761 2.239 5 5 5h68.555c2.761 0 5-2.239 5-5v-15.201h27.87c5.523 0 10-4.477 10-10v-230.906c0-5.523-4.478-10-10-10zm-242.536-37.166c0-2.757 2.243-5 5-5h99.761c2.757 0 5 2.243 5 5v37.166h-109.761z" fill="#2626bc" opacity=".1"/><g><g><path d="m200.864 153.538v-40.617c0-2.757 2.243-5 5-5h99.761c2.757 0 5 2.243 5 5v40.617h20v-40.617c0-13.785-11.215-25-25-25h-99.761c-13.785 0-25 11.215-25 25v40.617z" fill="#9494ff"/></g><g fill="#9494ff"><path d="m169.515 421.196h-68.555c-2.761 0-5-2.239-5-5v-22.693h78.555v22.693c0 2.761-2.239 5-5 5z"/><path d="m410.53 421.196h-68.555c-2.761 0-5-2.239-5-5v-22.693h78.555v22.693c0 2.761-2.239 5-5 5z"/></g><g><path d="m443.4 400.994h-375.31c-5.523 0-10-4.477-10-10v-230.906c0-5.523 4.477-10 10-10h375.31c5.523 0 10 4.477 10 10v230.906c0 5.523-4.478 10-10 10z" fill="#fff"/><g fill="#ebebff"><path d="m138.825 211.963h-37.865c-2.761 0-5-2.239-5-5v-51.875c0-2.761 2.239-5 5-5h37.865c2.761 0 5 2.239 5 5v51.875c0 2.761-2.239 5-5 5z"/><path d="m410.53 211.963h-37.865c-2.761 0-5-2.239-5-5v-51.875c0-2.761 2.239-5 5-5h37.865c2.761 0 5 2.239 5 5v51.875c0 2.761-2.239 5-5 5z"/></g></g><g><circle cx="255.745" cy="275.541" fill="#ff4d4d" r="69.494"/><path d="m288.081 260.9h-17.695v-17.695c0-5.523-4.477-10-10-10h-9.282c-5.523 0-10 4.477-10 10v17.695h-17.695c-5.523 0-10 4.477-10 10v9.282c0 5.523 4.477 10 10 10h17.695v17.695c0 5.523 4.477 10 10 10h9.282c5.523 0 10-4.477 10-10v-17.695h17.695c5.523 0 10-4.477 10-10v-9.282c0-5.523-4.477-10-10-10z" fill="#fff"/></g><g><g><path d="m138.825 192.957h-37.865c-2.761 0-5-2.239-5-5v-41.875c0-2.761 2.239-5 5-5h37.865c2.761 0 5 2.239 5 5v41.875c0 2.761-2.239 5-5 5z" fill="#ff4d4d"/><path d="m143.825 161.422v-15.34c0-2.761-2.239-5-5-5h-37.865c-2.761 0-5 2.239-5 5v15.34z" fill="#ff9494"/></g><g><path d="m410.53 192.957h-37.865c-2.761 0-5-2.239-5-5v-41.875c0-2.761 2.239-5 5-5h37.865c2.761 0 5 2.239 5 5v41.875c0 2.761-2.239 5-5 5z" fill="#ff4d4d"/><path d="m415.53 161.422v-15.34c0-2.761-2.239-5-5-5h-37.865c-2.761 0-5 2.239-5 5v15.34z" fill="#ff9494"/><path d="m443.399 145.088h-22.92c-.5-5.049-4.771-9.006-9.95-9.006h-37.865c-5.179 0-9.449 3.957-9.95 9.006h-27.09v-32.167c0-16.542-13.458-30-30-30h-99.761c-16.542 0-30 13.458-30 30v32.167h-27.09c-.5-5.049-4.771-9.006-9.95-9.006h-37.865c-5.179 0-9.449 3.957-9.95 9.006h-22.918c-8.271 0-15 6.729-15 15v60.969c0 2.761 2.239 5 5 5s5-2.239 5-5v-60.969c0-2.757 2.243-5 5-5h22.87v32.869c0 5.514 4.486 10 10 10h37.865c5.514 0 10-4.486 10-10v-32.869h213.84v32.869c0 5.514 4.486 10 10 10h37.865c5.514 0 10-4.486 10-10v-32.869h22.87c2.757 0 5 2.243 5 5v230.906c0 2.757-2.243 5-5 5h-375.31c-2.757 0-5-2.243-5-5v-140.837c0-2.761-2.239-5-5-5s-5 2.239-5 5v140.837c0 8.271 6.729 15 15 15h22.87v10.202c0 5.514 4.486 10 10 10h68.555c5.514 0 10-4.486 10-10v-10.202h152.46v10.202c0 5.514 4.486 10 10 10h14.15c2.761 0 5-2.239 5-5s-2.239-5-5-5h-14.15v-10.202h68.555v10.202h-25.304c-2.761 0-5 2.239-5 5s2.239 5 5 5h25.304c5.514 0 10-4.486 10-10v-10.202h22.87c8.271 0 15-6.729 15-15v-230.906c-.001-8.271-6.73-15-15.001-15zm-257.535-32.166c0-11.028 8.972-20 20-20h99.761c11.028 0 20 8.972 20 20v32.167h-10v-32.167c0-5.514-4.486-10-10-10h-99.761c-5.514 0-10 4.486-10 10v32.167h-10zm119.761 32.166h-99.761v-32.167h99.761zm-204.666 42.869v-41.875h37.865l.006 41.875zm271.706 0v-41.875h37.865l.006 41.875zm-203.15 228.239h-68.555v-10.202h68.555z" fill="#00c"/></g></g></g><g fill="#ff9d33"><g><path d="m130.701 74.627c-2.761 0-5-2.239-5-5v-.15c0-2.761 2.239-5 5-5s5 2.239 5 5v.15c0 2.761-2.239 5-5 5z"/><path d="m130.701 102.411c-2.761 0-5-2.239-5-5v-.15c0-2.761 2.239-5 5-5s5 2.239 5 5v.15c0 2.761-2.239 5-5 5z"/></g><g><path d="m118.73 81.537c-.85 0-1.711-.217-2.5-.674l-.13-.075c-2.39-1.384-3.206-4.442-1.822-6.833 1.384-2.389 4.441-3.205 6.833-1.822l.13.075c2.39 1.384 3.206 4.442 1.822 6.833-.928 1.601-2.607 2.496-4.333 2.496z"/><path d="m142.792 95.429c-.85 0-1.711-.217-2.5-.674l-.13-.075c-2.39-1.384-3.206-4.442-1.822-6.833 1.383-2.389 4.442-3.206 6.833-1.822l.13.075c2.39 1.384 3.206 4.442 1.822 6.833-.928 1.601-2.607 2.496-4.333 2.496z"/></g><g><path d="m118.61 95.429c-1.726 0-3.405-.895-4.332-2.496-1.384-2.39-.568-5.449 1.822-6.833l.13-.075c2.392-1.384 5.449-.567 6.833 1.822 1.384 2.39.568 5.449-1.822 6.833l-.13.075c-.79.457-1.651.674-2.501.674z"/><path d="m142.672 81.537c-1.726 0-3.405-.895-4.332-2.496-1.384-2.39-.568-5.449 1.822-6.833l.13-.075c2.391-1.383 5.449-.568 6.833 1.822s.568 5.449-1.822 6.833l-.13.075c-.79.456-1.651.674-2.501.674z"/></g></g><g fill="#ff4d4d"><g><g><path d="m247.763 428.372c-2.761 0-5-2.239-5-5v-.15c0-2.761 2.239-5 5-5s5 2.239 5 5v.15c0 2.761-2.239 5-5 5z"/><path d="m247.763 456.155c-2.761 0-5-2.239-5-5v-.15c0-2.761 2.239-5 5-5s5 2.239 5 5v.15c0 2.762-2.239 5-5 5z"/></g><g><path d="m235.792 435.281c-.85 0-1.711-.217-2.5-.674l-.13-.075c-2.39-1.384-3.206-4.442-1.822-6.833 1.383-2.389 4.442-3.206 6.833-1.822l.13.075c2.39 1.384 3.206 4.442 1.822 6.833-.928 1.601-2.607 2.496-4.333 2.496z"/><path d="m259.854 449.173c-.848 0-1.706-.216-2.493-.67l-.13-.075c-2.392-1.379-3.213-4.437-1.833-6.829 1.379-2.392 4.436-3.213 6.829-1.833l.13.075c2.392 1.379 3.213 4.437 1.833 6.829-.926 1.605-2.607 2.503-4.336 2.503z"/></g><g><path d="m235.672 449.173c-1.726 0-3.405-.895-4.332-2.496-1.384-2.39-.568-5.449 1.822-6.833l.13-.075c2.391-1.383 5.449-.568 6.833 1.822s.568 5.449-1.822 6.833l-.13.075c-.79.457-1.651.674-2.501.674z"/><path d="m259.733 435.281c-1.729 0-3.41-.898-4.336-2.503-1.38-2.392-.559-5.45 1.833-6.829l.13-.075c2.392-1.381 5.449-.558 6.829 1.833 1.38 2.392.559 5.45-1.833 6.829l-.13.075c-.786.454-1.645.67-2.493.67z"/></g></g><g><g><path d="m441.814 95.675c-2.761 0-5-2.239-5-5v-.15c0-2.761 2.239-5 5-5s5 2.239 5 5v.15c0 2.762-2.238 5-5 5z"/><path d="m441.814 123.46c-2.761 0-5-2.239-5-5v-.15c0-2.761 2.239-5 5-5s5 2.239 5 5v.15c0 2.761-2.238 5-5 5z"/></g><g><path d="m429.844 102.585c-.848 0-1.706-.216-2.493-.67l-.13-.075c-2.392-1.379-3.213-4.437-1.833-6.829 1.379-2.392 4.436-3.213 6.829-1.833l.13.075c2.392 1.379 3.213 4.437 1.833 6.829-.926 1.605-2.607 2.503-4.336 2.503z"/><path d="m453.905 116.477c-.85 0-1.711-.217-2.5-.674l-.13-.075c-2.39-1.384-3.206-4.442-1.822-6.833 1.383-2.389 4.442-3.206 6.833-1.822l.13.075c2.39 1.384 3.206 4.442 1.822 6.833-.927 1.601-2.607 2.496-4.333 2.496z"/></g><g><path d="m429.723 116.477c-1.729 0-3.41-.898-4.336-2.503-1.38-2.392-.559-5.45 1.833-6.829l.13-.075c2.391-1.381 5.45-.559 6.829 1.833 1.38 2.392.559 5.45-1.833 6.829l-.13.075c-.786.454-1.646.67-2.493.67z"/><path d="m453.785 102.585c-1.726 0-3.405-.895-4.332-2.496-1.384-2.39-.568-5.449 1.822-6.833l.13-.075c2.391-1.383 5.45-.568 6.833 1.822 1.384 2.39.568 5.449-1.822 6.833l-.13.075c-.789.457-1.651.674-2.501.674z"/></g></g><path d="m173.182 72.138c-2.761 0-5-2.239-5-5 0-3.492-2.841-6.333-6.333-6.333-2.761 0-5-2.239-5-5s2.239-5 5-5c3.492 0 6.333-2.841 6.333-6.333 0-2.761 2.239-5 5-5s5 2.239 5 5c0 3.492 2.841 6.333 6.333 6.333 2.761 0 5 2.239 5 5s-2.239 5-5 5c-3.492 0-6.333 2.841-6.333 6.333 0 2.761-2.239 5-5 5z"/></g><path d="m200.864 478.862c-2.761 0-5-2.239-5-5 0-3.492-2.841-6.333-6.333-6.333-2.761 0-5-2.239-5-5s2.239-5 5-5c3.492 0 6.333-2.841 6.333-6.333 0-2.761 2.239-5 5-5s5 2.239 5 5c0 3.492 2.841 6.333 6.333 6.333 2.761 0 5 2.239 5 5s-2.239 5-5 5c-3.492 0-6.333 2.841-6.333 6.333 0 2.762-2.239 5-5 5z" fill="#6c6cff"/></g></g></svg>