<svg id="Capa_1" enable-background="new 0 0 512 512" height="512" viewBox="0 0 512 512" width="512" xmlns="http://www.w3.org/2000/svg" xmlns:xlink="http://www.w3.org/1999/xlink"><linearGradient id="SVGID_1_" gradientUnits="userSpaceOnUse" x1="0" x2="512" y1="256" y2="256"><stop offset="0" stop-color="#ffd9d9" stop-opacity="0"/><stop offset=".9981" stop-color="#ffb3b3"/></linearGradient><g><g><path d="m418.32 2.5c-55.666-9.521-178.298 12.183-200.004 105.017-14.431 61.722-14.007 112.075-50.427 113.02-21.67.562-32.97-44.31-62.889-48.001-39.047-4.817-66.145 27.695-83.057 57.138-37.205 64.772-25.571 174.918 23.354 228.632 118.488 130.086 259.197-5.952 319.358-112.309 38.585-68.213 125.637-123.352 143.767-200.248 15.177-64.376-18.503-131.003-90.102-143.249z" fill="url(#SVGID_1_)"/></g><g><g opacity=".1"><path d="m450.452 115.332-26.772-26.772c-4.176-4.176-10.947-4.176-15.123 0l-126.641 126.64c-1.358-37.184-31.912-66.917-69.429-66.917-38.38 0-69.494 31.113-69.494 69.494 0 37.516 29.733 68.071 66.917 69.429l-32.879 32.879c-4.163 4.163-5.711 10.273-4.032 15.916 1.473 4.95.115 10.31-3.537 13.962l-30.401 30.401-.007-.007c-2.016-2.016-5.258-2.096-7.371-.182l-70.79 64.135c-3.195 2.895-3.318 7.875-.269 10.924 15.647 15.647 41.204 15.017 56.062-1.382l42.15-46.524c1.914-2.112 1.834-5.355-.182-7.371l-.007-.007 30.401-30.401c3.652-3.652 9.011-5.01 13.962-3.537 5.643 1.679 11.752.131 15.916-4.032l231.525-231.525c4.177-4.176 4.177-10.947.001-15.123z" fill="#2626bc"/><g><g><path d="m205.276 409.3h-18.583c-2.762 0-5-2.239-5-5s2.238-5 5-5h18.583c2.762 0 5 2.239 5 5s-2.238 5-5 5z" fill="#2626bc"/></g><g><path d="m245.276 427.681h-58.583c-2.762 0-5-2.239-5-5s2.238-5 5-5h58.583c2.762 0 5 2.239 5 5s-2.238 5-5 5z" fill="#2626bc"/></g><g><path d="m245.276 446.063h-58.583c-2.762 0-5-2.239-5-5s2.238-5 5-5h58.583c2.762 0 5 2.239 5 5s-2.238 5-5 5z" fill="#2626bc"/></g></g></g><g><path d="m450.452 90.332-26.772-26.772c-4.176-4.176-10.947-4.176-15.123 0l-231.525 231.525c-4.163 4.163-5.711 10.273-4.032 15.916 1.473 4.95.115 10.31-3.537 13.962l-42.962 42.962 19.587 19.587 42.962-42.962c3.652-3.652 9.011-5.01 13.962-3.537 5.643 1.679 11.752.131 15.916-4.032l231.525-231.525c4.175-4.177 4.175-10.948-.001-15.124z" fill="#9494ff"/><path d="m281.98 215.3c0 38.38-31.11 69.5-69.49 69.5-7.58 0-14.88-1.21-21.71-3.46l87.74-87.74c2.25 6.83 3.46 14.12 3.46 21.7z" fill="#8383ff"/><path d="m441.62 114.287 8.832-8.832c4.176-4.176 4.176-10.947 0-15.123l-26.772-26.772c-4.176-4.176-10.947-4.176-15.123 0l-8.832 8.832z" fill="#4d4dff"/><path d="m307.209 97.089h59.248v160.179h-59.248z" fill="#ebebff" transform="matrix(.707 .707 -.707 .707 223.94 -186.283)"/><path d="m281.98 215.3c0 6.2-.81 12.22-2.35 17.94l-20.37-20.37 19.26-19.27c2.25 6.83 3.46 14.12 3.46 21.7z" fill="#ebebff"/><path d="m335.951 134.888h59.248v27.098h-59.248z" fill="#9494ff" transform="matrix(.707 .707 -.707 .707 212.035 -215.025)"/><path d="m320.571 155.615h59.248v16.404h-59.248z" fill="#b3b3ff" transform="matrix(.707 .707 -.707 .707 218.406 -199.644)"/><path d="m127.884 343.565h57.425v27.7h-57.425z" fill="#6c6cff" transform="matrix(.707 -.707 .707 .707 -206.865 215.415)"/><g><path d="m60.625 430.233c-3.049-3.049-2.926-8.029.269-10.924l70.79-64.135c2.113-1.914 5.355-1.834 7.371.182l19.601 19.601c2.016 2.016 2.096 5.258.182 7.371l-42.15 46.524c-14.858 16.399-40.415 17.029-56.063 1.381z" fill="#ebebff"/><path d="m116.687 428.852 42.15-46.524c1.914-2.112 1.834-5.355-.182-7.371l-8.842-8.842-77.476 72.155c14.797 6.541 32.804 3.326 44.35-9.418z" fill="#d9d9ff"/></g></g><g><circle cx="212.488" cy="192.778" fill="#ff4d4d" r="69.494"/><path d="m244.824 178.136h-17.695v-17.695c0-5.523-4.477-10-10-10h-9.282c-5.523 0-10 4.477-10 10v17.695h-17.695c-5.523 0-10 4.477-10 10v9.282c0 5.523 4.477 10 10 10h17.695v17.695c0 5.523 4.477 10 10 10h9.282c5.523 0 10-4.477 10-10v-17.695h17.695c5.523 0 10-4.477 10-10v-9.282c0-5.522-4.477-10-10-10z" fill="#fff"/></g><g fill="#00c"><path d="m453.987 86.796-26.772-26.772c-6.119-6.119-16.075-6.118-22.194 0l-100.256 100.258c-1.953 1.953-1.953 5.119 0 7.071s5.118 1.952 7.071 0l100.257-100.257c2.22-2.22 5.832-2.22 8.052 0l26.771 26.772c2.22 2.22 2.22 5.832 0 8.052l-231.525 231.524c-2.868 2.869-7.067 3.932-10.954 2.775-6.718-1.998-13.968-.161-18.923 4.794l-26.865 26.865-12.516-12.516 26.865-26.865c4.955-4.955 6.792-12.206 4.794-18.923-1.157-3.888-.093-8.086 2.775-10.954l31.359-31.36c.187.001.373.01.561.01 41.076 0 74.494-33.418 74.494-74.494s-33.418-74.494-74.494-74.494-74.494 33.417-74.494 74.494c0 14.385 4.127 28.363 11.935 40.424 1.5 2.317 4.595 2.98 6.915 1.48 2.318-1.5 2.98-4.596 1.48-6.915-6.758-10.438-10.33-22.538-10.33-34.99 0-35.562 28.932-64.494 64.494-64.494s64.494 28.932 64.494 64.494-28.932 64.494-64.494 64.494c-12.49 0-24.619-3.591-35.077-10.386-2.316-1.504-5.413-.847-6.917 1.469s-.847 5.412 1.469 6.917c8.271 5.374 17.446 9.011 27.039 10.773l-25.505 25.506c-5.467 5.466-7.494 13.466-5.29 20.876.95 3.195.076 6.644-2.281 9.001l-27.776 27.776c-3.338-.965-7.071-.227-9.823 2.266l-70.79 64.135c-2.533 2.295-4.033 5.57-4.118 8.986-.084 3.417 1.253 6.762 3.67 9.179 8.282 8.282 19.207 12.803 30.87 12.803.371 0 .744-.004 1.116-.014 12.081-.298 23.203-5.394 31.317-14.35l42.15-46.523c2.493-2.753 3.232-6.485 2.267-9.824l27.775-27.776c2.357-2.357 5.805-3.23 9.001-2.28 7.41 2.203 15.41.177 20.877-5.289l231.525-231.525c6.12-6.117 6.12-16.073.001-22.193zm-298.856 292.175-42.15 46.523c-6.257 6.907-14.835 10.837-24.152 11.067-9.328.242-18.078-3.273-24.668-9.864-.671-.671-.754-1.454-.744-1.861s.132-1.185.834-1.822l70.789-64.134c.066-.061.15-.09.234-.09.088 0 .177.034.245.102l19.601 19.601c.131.131.136.341.011.478z"/><path d="m186.693 384.3h18.583c2.761 0 5-2.239 5-5s-2.239-5-5-5h-18.583c-2.761 0-5 2.239-5 5s2.239 5 5 5z"/><path d="m245.276 392.681h-58.583c-2.761 0-5 2.239-5 5s2.239 5 5 5h58.583c2.761 0 5-2.239 5-5s-2.238-5-5-5z"/><path d="m245.276 411.063h-58.583c-2.761 0-5 2.239-5 5s2.239 5 5 5h58.583c2.761 0 5-2.239 5-5s-2.238-5-5-5z"/></g><g fill="#6c6cff"><g><path d="m383.5 253.455c-2.761 0-5-2.239-5-5v-.15c0-2.761 2.239-5 5-5s5 2.239 5 5v.15c0 2.761-2.239 5-5 5z"/><path d="m383.5 281.238c-2.761 0-5-2.239-5-5v-.15c0-2.761 2.239-5 5-5s5 2.239 5 5v.15c0 2.762-2.239 5-5 5z"/></g><g><path d="m371.529 260.364c-.85 0-1.711-.217-2.5-.674l-.13-.075c-2.39-1.384-3.206-4.442-1.822-6.833 1.383-2.389 4.442-3.206 6.833-1.822l.13.075c2.39 1.384 3.206 4.442 1.822 6.833-.928 1.601-2.607 2.496-4.333 2.496z"/><path d="m395.59 274.256c-.85 0-1.711-.217-2.5-.674l-.13-.075c-2.39-1.384-3.206-4.442-1.822-6.833 1.383-2.389 4.442-3.205 6.833-1.822l.13.075c2.39 1.384 3.206 4.442 1.822 6.833-.927 1.601-2.607 2.496-4.333 2.496z"/></g><g><path d="m371.409 274.256c-1.726 0-3.405-.895-4.332-2.496-1.384-2.39-.568-5.449 1.822-6.833l.13-.075c2.391-1.383 5.45-.568 6.833 1.822 1.384 2.39.568 5.449-1.822 6.833l-.13.075c-.79.457-1.651.674-2.501.674z"/><path d="m395.47 260.364c-1.726 0-3.405-.895-4.332-2.496-1.384-2.39-.568-5.449 1.822-6.833l.13-.075c2.391-1.384 5.449-.567 6.833 1.822 1.384 2.39.568 5.449-1.822 6.833l-.13.075c-.789.456-1.651.674-2.501.674z"/></g></g><g fill="#ff9d33"><g><path d="m342.735 284.55c-2.761 0-5-2.239-5-5v-.15c0-2.761 2.239-5 5-5s5 2.239 5 5v.15c0 2.762-2.238 5-5 5z"/><path d="m342.735 312.334c-2.761 0-5-2.239-5-5v-.15c0-2.761 2.239-5 5-5s5 2.239 5 5v.15c0 2.762-2.238 5-5 5z"/></g><g><path d="m330.764 291.46c-.85 0-1.711-.217-2.5-.674l-.13-.075c-2.39-1.384-3.206-4.442-1.822-6.833 1.383-2.389 4.441-3.206 6.833-1.822l.13.075c2.39 1.384 3.206 4.442 1.822 6.833-.928 1.601-2.607 2.496-4.333 2.496z"/><path d="m354.826 305.352c-.85 0-1.711-.217-2.5-.674l-.13-.075c-2.39-1.384-3.206-4.442-1.822-6.833 1.383-2.389 4.442-3.205 6.833-1.822l.13.075c2.39 1.384 3.206 4.442 1.822 6.833-.928 1.601-2.607 2.496-4.333 2.496z"/></g><g><path d="m330.644 305.352c-1.726 0-3.405-.895-4.332-2.496-1.384-2.39-.568-5.449 1.822-6.833l.13-.075c2.392-1.383 5.449-.568 6.833 1.822s.568 5.449-1.822 6.833l-.13.075c-.79.457-1.651.674-2.501.674z"/><path d="m354.706 291.46c-1.726 0-3.405-.895-4.332-2.496-1.384-2.39-.568-5.449 1.822-6.833l.13-.075c2.391-1.384 5.449-.567 6.833 1.822 1.384 2.39.568 5.449-1.822 6.833l-.13.075c-.79.457-1.651.674-2.501.674z"/></g></g><g fill="#ff9d33"><g><path d="m104.8 219.603c-2.761 0-5-2.239-5-5v-.15c0-2.761 2.239-5 5-5s5 2.239 5 5v.15c0 2.761-2.239 5-5 5z"/><path d="m104.8 247.387c-2.761 0-5-2.239-5-5v-.15c0-2.761 2.239-5 5-5s5 2.239 5 5v.15c0 2.761-2.239 5-5 5z"/></g><g><path d="m92.829 226.513c-.85 0-1.711-.217-2.5-.674l-.13-.075c-2.39-1.384-3.206-4.442-1.822-6.833 1.383-2.389 4.441-3.206 6.833-1.822l.13.075c2.39 1.384 3.206 4.442 1.822 6.833-.928 1.601-2.607 2.496-4.333 2.496z"/><path d="m116.891 240.404c-.843 0-1.697-.213-2.481-.663l-.13-.075c-2.396-1.373-3.225-4.428-1.853-6.824 1.373-2.395 4.427-3.225 6.824-1.853l.13.075c2.396 1.373 3.225 4.428 1.853 6.824-.923 1.613-2.609 2.516-4.343 2.516z"/></g><g><path d="m92.709 240.404c-1.731 0-3.414-.9-4.339-2.508-1.377-2.394-.553-5.451 1.841-6.827l.13-.075c2.395-1.377 5.451-.552 6.827 1.841 1.377 2.394.553 5.451-1.841 6.827l-.13.075c-.785.452-1.643.667-2.488.667z"/><path d="m116.771 226.513c-1.729 0-3.41-.898-4.336-2.503-1.38-2.392-.559-5.45 1.833-6.829l.13-.075c2.392-1.382 5.449-.559 6.829 1.833s.559 5.45-1.833 6.829l-.13.075c-.787.454-1.646.67-2.493.67z"/></g></g><path d="m104.8 299.25c-2.761 0-5-2.239-5-5 0-3.492-2.841-6.333-6.333-6.333-2.761 0-5-2.239-5-5s2.239-5 5-5c3.492 0 6.333-2.841 6.333-6.333 0-2.761 2.239-5 5-5s5 2.239 5 5c0 3.492 2.841 6.333 6.333 6.333 2.761 0 5 2.239 5 5s-2.239 5-5 5c-3.492 0-6.333 2.841-6.333 6.333 0 2.761-2.239 5-5 5z" fill="#ff4d4d"/><path d="m300.042 134.617c-2.761 0-5-2.239-5-5 0-3.492-2.841-6.333-6.333-6.333-2.761 0-5-2.239-5-5s2.239-5 5-5c3.492 0 6.333-2.841 6.333-6.333 0-2.761 2.239-5 5-5s5 2.239 5 5c0 3.492 2.841 6.333 6.333 6.333 2.761 0 5 2.239 5 5s-2.239 5-5 5c-3.492 0-6.333 2.841-6.333 6.333 0 2.761-2.239 5-5 5z" fill="#ff9d33"/></g></g></svg>