<svg id="Capa_1" enable-background="new 0 0 512 512" height="512" viewBox="0 0 512 512" width="512" xmlns="http://www.w3.org/2000/svg" xmlns:xlink="http://www.w3.org/1999/xlink"><linearGradient id="SVGID_1_" gradientUnits="userSpaceOnUse" x1="23.821" x2="459.531" y1="336.004" y2="84.446"><stop offset="0" stop-color="#fff" stop-opacity="0"/><stop offset=".2532" stop-color="#eef" stop-opacity=".403"/><stop offset=".629" stop-color="#d9d9ff"/></linearGradient><g><g><path d="m16.074 295.615c18.727 64.003 72.707 194.564 163.922 182.845 91.486-11.755 55.759-129.725 139.508-145.894 36.867-7.118 61.857 56.689 98.806 54.704 47.588-2.557 71.81-49.663 85.108-89.264 28.197-83.968-14.029-226.352-112.859-251.012-86.244-21.519-96.332 83.855-171.322 53.248-42.149-17.203-37.938-68.576-89.272-78.942-155.298-31.359-138.81 189.151-113.891 274.315z" fill="url(#SVGID_1_)"/></g><g><g><g fill="#2626bc" opacity=".1"><path d="m445.411 169.749c-26.503-26.503-69.628-26.504-96.132 0 26.503-26.503 26.504-69.628 0-96.131-26.503-26.503-69.628-26.503-96.131 0-4.115 4.115-7.589 8.633-10.427 13.425-11.978-9.796-27.281-15.678-43.962-15.678-38.38 0-69.494 31.113-69.494 69.494s31.113 69.494 69.494 69.494c25.917 0 48.504-14.198 60.451-35.229 9.696 7.63 21.003 12.249 32.651 13.854l-184.47 184.471-48.606 48.606c-10.862 10.862-14.782 26.865-10.17 41.518l8.458 26.871c1.057 3.36 5.302 4.399 7.792 1.909l76.862-76.862v-.001l188.326-188.326c1.952 14.172 8.356 27.843 19.229 38.715 26.503 26.503 69.627 26.503 96.131 0 26.501-26.502 26.501-69.626-.002-96.13zm-178.121-14.142c-.172-.172-.33-.351-.499-.525.955-4.592 1.462-9.348 1.462-14.223 0-13.963-4.133-26.954-11.221-37.845 2.335-5.546 5.747-10.743 10.258-15.254 18.706-18.706 49.142-18.706 67.847 0 18.705 18.705 18.705 49.141 0 67.847-18.705 18.705-49.141 18.705-67.847 0zm163.978 96.131c-18.705 18.705-49.141 18.705-67.846 0-18.706-18.706-18.706-49.142-.001-67.847 18.706-18.706 49.141-18.706 67.847 0s18.706 49.142 0 67.847z"/><path d="m120.826 227.36h18.583c2.761 0 5-2.239 5-5s-2.239-5-5-5h-18.583c-2.761 0-5 2.239-5 5s2.238 5 5 5z"/><path d="m120.826 245.742h58.583c2.761 0 5-2.239 5-5s-2.239-5-5-5h-58.583c-2.761 0-5 2.239-5 5s2.238 5 5 5z"/><path d="m120.826 264.124h58.583c2.761 0 5-2.239 5-5s-2.239-5-5-5h-58.583c-2.761 0-5 2.239-5 5s2.238 5 5 5z"/></g><g><g><path d="m445.411 144.749c-26.503-26.503-69.628-26.504-96.132 0l-226.33 226.33 15.559 22.63 191.543-191.543c1.952 14.172 8.356 27.843 19.228 38.715 26.503 26.503 69.627 26.503 96.131 0s26.504-69.628.001-96.132zm-81.989 81.989c-18.706-18.706-18.706-49.142-.001-67.847 18.706-18.706 49.142-18.706 67.847 0 18.705 18.705 18.705 49.141 0 67.847-18.705 18.705-49.141 18.705-67.846 0z" fill="#6c6cff"/><path d="m176.958 317.07 172.321-172.321c26.503-26.503 26.504-69.628 0-96.131s-69.628-26.503-96.131 0-26.503 69.627 0 96.131c10.872 10.872 24.542 17.276 38.714 19.228l-184.471 184.472 31.117 45.26 57.544-57.544zm90.332-186.463c-18.705-18.705-18.705-49.141 0-67.846 18.706-18.706 49.142-18.706 67.847 0 18.705 18.705 18.705 49.141 0 67.847-18.705 18.704-49.141 18.704-67.847-.001z" fill="#9494ff"/></g><g><path d="m57.072 465.444-8.458-26.871c-4.612-14.653-.692-30.655 10.17-41.518l51.823-51.823 31.118 45.26-76.862 76.862c-2.489 2.489-6.734 1.45-7.791-1.91z" fill="#d9d9ff"/><path d="m141.726 390.491-70.549 70.549-5.438-17.294c-4.61-14.651-.7-30.653 10.161-41.514l43.787-43.787z" fill="#ebebff"/></g><g><path d="m145.625 348.404c1.952 1.952 5.119 1.952 7.071 0l.081-.081c1.952-1.952 1.952-5.119 0-7.071s-5.119-1.952-7.071 0l-.081.081c-1.952 1.952-1.952 5.118 0 7.071z" fill="#4d4dff"/></g></g><g><g><circle cx="198.76" cy="115.859" fill="#ff4d4d" r="69.494"/><path d="m231.096 101.218h-17.695v-17.696c0-5.523-4.477-10-10-10h-9.282c-5.523 0-10 4.477-10 10v17.695h-17.695c-5.523 0-10 4.477-10 10v9.282c0 5.523 4.477 10 10 10h17.695v17.695c0 5.523 4.477 10 10 10h9.282c5.523 0 10-4.477 10-10v-17.694h17.695c5.523 0 10-4.477 10-10v-9.282c0-5.523-4.477-10-10-10z" fill="#fff"/></g><g fill="#00c"><path d="m397.345 245.767c14.164 0 27.468-5.502 37.458-15.494 9.992-9.991 15.494-23.294 15.494-37.459s-5.502-27.468-15.493-37.459c-20.654-20.654-54.264-20.654-74.918 0-9.991 9.991-15.494 23.294-15.493 37.459 0 14.165 5.502 27.468 15.494 37.459 9.99 9.992 23.294 15.494 37.458 15.494zm-30.389-83.34c8.38-8.379 19.382-12.567 30.389-12.567 11.004 0 22.011 4.19 30.389 12.567 8.102 8.103 12.563 18.895 12.563 30.388 0 11.494-4.462 22.286-12.564 30.388-8.103 8.103-18.895 12.565-30.388 12.565s-22.285-4.462-30.388-12.565-12.564-18.895-12.564-30.388c-.001-11.494 4.461-22.286 12.563-30.388z"/><path d="m448.945 141.214c-13.762-13.763-32.088-21.342-51.601-21.342-10.268 0-20.199 2.119-29.318 6.113 11.682-26.725 6.625-59.065-15.212-80.902-28.453-28.452-74.75-28.452-103.202 0-3.063 3.063-5.77 6.344-8.171 9.777-12.098-8.49-26.812-13.494-42.682-13.494-41.076 0-74.494 33.417-74.494 74.494s33.417 74.494 74.494 74.494c25.739 0 48.467-13.124 61.854-33.028 6.475 4.347 13.583 7.615 21.148 9.682l-226.511 226.511c-12.225 12.225-16.595 30.063-11.405 46.555l8.458 26.871c1.026 3.259 3.62 5.69 6.939 6.503.778.19 1.562.284 2.337.284 2.532 0 4.972-.995 6.821-2.844l172.804-172.805c1.953-1.953 1.953-5.119 0-7.071s-5.118-1.952-7.071 0l-38.08 38.08-12.023-12.023 14.883-14.883 153.902-153.902c11.874-11.874 27.688-18.413 44.53-18.413s32.656 6.54 44.53 18.414 18.413 27.688 18.413 44.53-6.539 32.656-18.413 44.53-27.688 18.413-44.53 18.413c-16.841 0-32.656-6.539-44.53-18.413-9.764-9.765-15.923-22.166-17.811-35.862-.259-1.88-1.561-3.452-3.36-4.057-1.802-.608-3.786-.139-5.128 1.204l-71.806 71.806c-1.953 1.953-1.953 5.119 0 7.071s5.12 1.953 7.071 0l65.241-65.241c3.316 12.137 9.688 23.116 18.723 32.151 13.763 13.763 32.088 21.342 51.601 21.342s37.839-7.579 51.601-21.342c13.764-13.763 21.343-32.088 21.343-51.601-.002-19.514-7.581-37.839-21.345-51.602zm-250.185 39.139c-35.562 0-64.494-28.932-64.494-64.494s28.932-64.494 64.494-64.494 64.494 28.932 64.494 64.494-28.932 64.494-64.494 64.494zm-137.072 283.104-8.305-26.386c-4.067-12.923-.643-26.902 8.937-36.481l47.573-47.573 25.356 36.879zm111.734-149.923c-.938.938-1.464 2.209-1.464 3.536s.527 2.598 1.464 3.536l15.559 15.559-46.541 46.541-25.356-36.879 178.313-178.313c1.343-1.342 1.81-3.329 1.204-5.129-.604-1.799-2.177-3.101-4.057-3.36-9.8-1.35-18.933-4.894-26.915-10.377 1.508-3.063 2.803-6.245 3.885-9.526 9.363 7.002 20.529 10.512 31.699 10.512 13.565 0 27.131-5.164 37.458-15.491 9.992-9.991 15.494-23.294 15.494-37.459s-5.502-27.468-15.493-37.458c-17.101-17.101-43.588-20.453-64.41-8.155-2.378 1.404-3.167 4.47-1.762 6.848 1.404 2.378 4.472 3.167 6.848 1.762 16.891-9.979 38.38-7.258 52.253 6.615 8.103 8.102 12.564 18.894 12.564 30.388 0 11.493-4.462 22.285-12.564 30.388-16.312 16.312-42.576 16.738-59.418 1.291.691-4.068 1.07-8.241 1.07-12.504 0-21.612-9.259-41.096-24.009-54.716 2.16-3.166 4.632-6.182 7.44-8.99 24.552-24.553 64.503-24.555 89.06 0 24.553 24.554 24.553 64.506 0 89.06z"/><path d="m120.826 202.36h18.583c2.761 0 5-2.239 5-5s-2.239-5-5-5h-18.583c-2.761 0-5 2.239-5 5s2.238 5 5 5z"/><path d="m120.826 220.742h58.583c2.761 0 5-2.239 5-5s-2.239-5-5-5h-58.583c-2.761 0-5 2.239-5 5s2.238 5 5 5z"/><path d="m120.826 239.124h58.583c2.761 0 5-2.239 5-5s-2.239-5-5-5h-58.583c-2.761 0-5 2.239-5 5s2.238 5 5 5z"/></g></g></g><path d="m337.833 308.318c-2.762 0-5-2.239-5-5 0-3.492-2.842-6.333-6.334-6.333-2.762 0-5-2.239-5-5s2.238-5 5-5c3.492 0 6.334-2.841 6.334-6.333 0-2.761 2.238-5 5-5s5 2.239 5 5c0 3.492 2.841 6.333 6.333 6.333 2.762 0 5 2.239 5 5s-2.238 5-5 5c-3.492 0-6.333 2.841-6.333 6.333 0 2.762-2.238 5-5 5z" fill="#ff4d4d"/><path d="m289.881 361.565c-2.762 0-5-2.239-5-5 0-3.492-2.842-6.333-6.334-6.333-2.762 0-5-2.239-5-5s2.238-5 5-5c3.492 0 6.334-2.841 6.334-6.333 0-2.761 2.238-5 5-5s5 2.239 5 5c0 3.492 2.841 6.333 6.333 6.333 2.762 0 5 2.239 5 5s-2.238 5-5 5c-3.492 0-6.333 2.841-6.333 6.333 0 2.761-2.238 5-5 5z" fill="#ff9d33"/><path d="m94.219 165.448c-2.761 0-5-2.239-5-5 0-3.492-2.841-6.333-6.333-6.333-2.761 0-5-2.239-5-5s2.239-5 5-5c3.492 0 6.333-2.841 6.333-6.333 0-2.761 2.239-5 5-5s5 2.239 5 5c0 3.492 2.841 6.333 6.333 6.333 2.761 0 5 2.239 5 5s-2.239 5-5 5c-3.492 0-6.333 2.841-6.333 6.333 0 2.761-2.239 5-5 5z" fill="#6c6cff"/><g fill="#6c6cff"><g><path d="m337.833 363.809c-2.762 0-5-2.239-5-5v-.15c0-2.761 2.238-5 5-5s5 2.239 5 5v.15c0 2.761-2.238 5-5 5z"/><path d="m337.833 391.593c-2.762 0-5-2.239-5-5v-.15c0-2.761 2.238-5 5-5s5 2.239 5 5v.15c0 2.761-2.238 5-5 5z"/></g><g><path d="m325.862 370.719c-.845 0-1.701-.214-2.486-.666l-.131-.075c-2.395-1.376-3.22-4.432-1.844-6.827 1.376-2.394 4.432-3.22 6.826-1.844l.131.075c2.395 1.376 3.22 4.432 1.844 6.827-.925 1.609-2.608 2.51-4.34 2.51z"/><path d="m349.924 384.611c-.851 0-1.712-.217-2.5-.674l-.13-.075c-2.39-1.384-3.206-4.442-1.822-6.833 1.383-2.39 4.445-3.204 6.832-1.822l.13.075c2.39 1.384 3.206 4.442 1.822 6.833-.927 1.601-2.607 2.496-4.332 2.496z"/></g><g><path d="m325.741 384.611c-1.732 0-3.415-.9-4.34-2.51-1.376-2.395-.551-5.451 1.844-6.827l.131-.075c2.396-1.375 5.451-.55 6.826 1.844 1.376 2.395.551 5.451-1.844 6.827l-.131.075c-.785.451-1.641.666-2.486.666z"/><path d="m349.804 370.719c-1.727 0-3.405-.895-4.332-2.496-1.384-2.39-.567-5.449 1.822-6.833l.13-.075c2.39-1.384 5.449-.567 6.832 1.822 1.384 2.39.567 5.449-1.822 6.833l-.13.075c-.788.456-1.651.674-2.5.674z"/></g></g><g fill="#ff9d33"><g><path d="m82.123 275.377c-2.761 0-5-2.239-5-5v-.15c0-2.761 2.239-5 5-5s5 2.239 5 5v.15c0 2.761-2.239 5-5 5z"/><path d="m82.123 303.161c-2.761 0-5-2.239-5-5v-.15c0-2.761 2.239-5 5-5s5 2.239 5 5v.15c0 2.761-2.239 5-5 5z"/></g><g><path d="m70.152 282.286c-.846 0-1.702-.215-2.488-.667l-.13-.075c-2.394-1.376-3.218-4.433-1.841-6.827 1.376-2.394 4.432-3.218 6.827-1.841l.13.075c2.394 1.376 3.218 4.433 1.841 6.827-.925 1.608-2.608 2.508-4.339 2.508z"/><path d="m94.214 296.178c-.843 0-1.697-.213-2.481-.663l-.13-.075c-2.396-1.373-3.225-4.428-1.853-6.824 1.373-2.396 4.429-3.226 6.824-1.853l.13.075c2.396 1.373 3.225 4.428 1.853 6.824-.923 1.613-2.609 2.516-4.343 2.516z"/></g><g><path d="m70.032 296.178c-1.731 0-3.414-.9-4.339-2.508-1.377-2.394-.553-5.451 1.841-6.827l.13-.075c2.395-1.378 5.45-.552 6.827 1.841 1.377 2.394.553 5.451-1.841 6.827l-.13.075c-.785.452-1.643.667-2.488.667z"/><path d="m94.094 282.286c-1.734 0-3.419-.903-4.343-2.515-1.373-2.396-.543-5.451 1.853-6.824l.13-.075c2.396-1.375 5.451-.543 6.824 1.853s.543 5.451-1.853 6.824l-.13.075c-.784.449-1.638.662-2.481.662z"/></g></g></g></g></svg>