<svg id="Capa_1" enable-background="new 0 0 512 512" height="512" viewBox="0 0 512 512" width="512" xmlns="http://www.w3.org/2000/svg" xmlns:xlink="http://www.w3.org/1999/xlink"><linearGradient id="SVGID_1_" gradientUnits="userSpaceOnUse" x1="23.821" x2="459.531" y1="343.269" y2="91.711"><stop offset="0" stop-color="#fff" stop-opacity="0"/><stop offset=".2532" stop-color="#eef" stop-opacity=".403"/><stop offset=".629" stop-color="#d9d9ff"/></linearGradient><g><g><path d="m16.074 302.88c18.727 64.003 72.707 194.564 163.922 182.845 91.486-11.755 55.758-129.725 139.508-145.894 36.867-7.118 61.857 56.689 98.806 54.704 47.588-2.557 71.81-49.663 85.108-89.264 28.197-83.968-14.029-226.352-112.858-251.011-86.244-21.519-96.332 83.855-171.322 53.248-42.149-17.203-37.938-68.576-89.272-78.942-155.299-31.36-138.811 189.15-113.892 274.314z" fill="url(#SVGID_1_)"/></g><g><g><g opacity=".1"><g><path d="m372.548 402.666c33.039.003 65.607-15.297 86.468-44.101 34.554-47.707 23.891-114.392-23.815-148.946-52.411-37.961-114.378-58.026-179.201-58.026-64.825 0-126.794 20.065-179.203 58.028-47.706 34.555-58.367 101.24-23.812 148.946 34.554 47.708 101.244 58.366 148.945 23.812 15.779-11.428 34.477-17.47 54.07-17.47 19.592 0 38.29 6.041 54.07 17.471 18.904 13.692 40.796 20.284 62.478 20.286z" fill="#2626bc"/></g><g><circle cx="355.596" cy="174.145" fill="#2626bc" r="69.494"/></g><g><g><path d="m285.366 410.918h-18.583c-2.762 0-5-2.239-5-5s2.238-5 5-5h18.583c2.762 0 5 2.239 5 5s-2.238 5-5 5z" fill="#2626bc"/></g><g><path d="m325.366 429.3h-58.583c-2.762 0-5-2.239-5-5s2.238-5 5-5h58.583c2.762 0 5 2.239 5 5s-2.238 5-5 5z" fill="#2626bc"/></g><g><path d="m325.366 447.681h-58.583c-2.762 0-5-2.239-5-5s2.238-5 5-5h58.583c2.762 0 5 2.239 5 5s-2.238 5-5 5z" fill="#2626bc"/></g></g></g><g><g><path d="m372.548 377.666c33.039.003 65.607-15.297 86.468-44.101 34.554-47.707 23.891-114.392-23.815-148.946-52.411-37.961-114.378-58.026-179.201-58.026-64.825 0-126.794 20.065-179.203 58.028-47.706 34.555-58.367 101.24-23.812 148.946 34.554 47.708 101.244 58.366 148.945 23.812 15.779-11.428 34.477-17.47 54.07-17.47 19.592 0 38.29 6.041 54.07 17.471 18.904 13.692 40.796 20.284 62.478 20.286z" fill="#b3b3ff"/><path d="m425.08 177.59c-.69 37.79-31.53 68.21-69.48 68.21-38.38 0-69.5-31.12-69.5-69.5 0-17.66 6.59-33.79 17.45-46.05 43.38 6.76 84.62 22.78 121.53 47.34z" fill="#9494ff"/><path d="m78.171 332.383c-3.246-3.247-6.27-6.795-8.988-10.548-13.579-18.747-19.045-41.66-15.391-64.516s15.991-42.923 34.737-56.502c48.975-35.474 106.885-54.225 167.471-54.225 60.582 0 118.492 18.75 167.469 54.224 3.753 2.719 7.301 5.742 10.546 8.987 14.394 14.394 23.265 33.571 24.98 53.998 1.731 20.63-4.014 41.238-16.177 58.031-16.252 22.44-42.521 35.835-70.268 35.832-18.313-.001-35.862-5.7-50.748-16.482-19.212-13.917-41.967-21.274-65.801-21.274-23.837 0-46.591 7.356-65.803 21.273-16.793 12.163-37.401 17.91-58.03 16.181-20.424-1.713-39.602-10.585-53.995-24.977-.002-.001-.001 0-.002-.002z" fill="#9494ff"/><path d="m421.22 199.21c-9.46 27.13-35.27 46.59-65.62 46.59-38.38 0-69.5-31.12-69.5-69.5 0-9.77 2.02-19.07 5.66-27.5 46.59 5.79 90.75 22.92 129.46 50.41z" fill="#8383ff"/></g><g><path d="m203.834 297.717-27.114 27.114c-4.4 4.4-11.299 5.04-16.451 1.551-7.354-4.98-14.768-11.084-21.857-18.172-7.088-7.088-13.192-14.503-18.172-21.857-3.49-5.153-2.85-12.051 1.551-16.451l27.114-27.114c4.4-4.4 11.299-5.041 16.451-1.551 7.354 4.98 14.768 11.084 21.857 18.172 7.088 7.088 13.192 14.503 18.172 21.857 3.489 5.152 2.849 12.05-1.551 16.451z" fill="#fff3ee"/><path d="m193.962 266.581-48.374 48.374c-2.426-2.138-4.817-4.391-7.179-6.754-2.357-2.357-4.61-4.748-6.742-7.168l48.374-48.374c2.42 2.132 4.811 4.386 7.168 6.742 2.362 2.363 4.615 4.754 6.753 7.18z" fill="#ffab66"/></g><g><path d="m159.19 327.28c0 8.98-.84 17.55-2.34 25.37-.24 1.25-.67 2.42-1.27 3.48-7.66 1.46-15.53 1.89-23.41 1.23-11.77-.99-23.12-4.35-33.38-9.78-.96-6.4-1.48-13.22-1.48-20.3 0-8.99.84-17.56 2.34-25.38 1.05-5.48 5.83-9.44 11.41-9.44h34.38c5.58 0 10.36 3.96 11.41 9.44 1.5 7.82 2.34 16.39 2.34 25.38z" fill="#fff"/><path d="m158.918 336.101h-61.33c-.182-2.893-.27-5.837-.27-8.832 0-2.988.087-5.932.27-8.818h61.33c.182 2.886.27 5.83.27 8.818 0 2.995-.088 5.939-.27 8.832z" fill="#ffc599"/></g><path d="m455.376 296.753c-.021-.318-.042-.636-.071-.948-1.711-20.421-10.578-39.598-24.975-53.995-3.246-3.246-6.795-6.272-10.543-8.987-48.981-35.476-106.893-54.228-167.471-54.221-60.585 0-118.497 18.752-167.471 54.221-15.372 11.144-26.446 26.644-31.94 44.47-.474-6.583-.191-13.287.884-19.976 3.663-22.854 15.995-42.921 34.74-56.505 48.974-35.468 106.886-54.221 167.471-54.221s118.497 18.753 167.471 54.221c3.755 2.722 7.297 5.742 10.543 8.987 14.397 14.397 23.264 33.573 24.982 54.002.941 11.194-.325 22.374-3.62 32.952z" fill="#8383ff"/><path d="m421.22 199.21c-3.21 9.2-8.29 17.51-14.8 24.48-36.48-23.43-77.34-38.06-120.19-43.11-.09-1.42-.13-2.84-.13-4.28 0-9.77 2.02-19.07 5.66-27.5 46.59 5.79 90.75 22.92 129.46 50.41z" fill="#6c6cff"/></g><g><circle cx="355.596" cy="149.145" fill="#ff4d4d" r="69.494"/><path d="m387.932 134.504h-17.695v-17.695c0-5.523-4.477-10-10-10h-9.282c-5.523 0-10 4.477-10 10v17.695h-17.695c-5.523 0-10 4.477-10 10v9.282c0 5.523 4.477 10 10 10h17.695v17.695c0 5.523 4.477 10 10 10h9.282c5.523 0 10-4.477 10-10v-17.695h17.695c5.523 0 10-4.477 10-10v-9.282c0-5.523-4.477-10-10-10z" fill="#fff"/></g><g fill="#00c"><path d="m438.135 180.569c-3.869-2.802-7.837-5.534-11.828-8.157 2.449-7.372 3.783-15.201 3.783-23.267 0-41.076-33.418-74.494-74.494-74.494s-74.494 33.417-74.494 74.494c0 34.906 24.746 65.537 58.841 72.832 2.702.58 5.357-1.142 5.936-3.843.577-2.7-1.144-5.358-3.844-5.936-29.513-6.315-50.933-32.833-50.933-63.054 0-35.562 28.932-64.494 64.494-64.494s64.494 28.932 64.494 64.494c0 30.274-21.465 56.802-51.038 63.078-2.701.573-4.426 3.228-3.853 5.929.499 2.351 2.574 3.963 4.886 3.963.344 0 .693-.036 1.043-.11 22.82-4.843 41.447-20.129 51.311-40.162 3.316 2.21 6.608 4.491 9.83 6.825 45.396 32.881 55.58 96.566 22.698 141.964-19.063 26.322-49.868 42.034-82.409 42.034-.002 0-.007 0-.009 0-21.493-.001-42.083-6.687-59.545-19.334-16.638-12.052-36.35-18.422-57.003-18.422-20.655 0-40.366 6.37-57.004 18.42-21.99 15.93-48.87 22.339-75.681 18.054-26.814-4.287-50.354-18.759-66.282-40.75-32.882-45.396-22.701-109.082 22.695-141.964 50.646-36.685 110.5-56.416 173.09-57.061 2.761-.028 4.977-2.29 4.948-5.051-.028-2.744-2.262-4.948-4.999-4.948-.018 0-.035 0-.053 0-64.673.666-126.519 21.055-178.852 58.961-49.862 36.118-61.045 106.068-24.927 155.93 17.495 24.155 43.351 40.051 72.803 44.759 5.968.954 11.936 1.425 17.863 1.425 23.328 0 46.004-7.305 65.262-21.255 14.92-10.807 32.604-16.519 51.138-16.519 18.533 0 36.216 5.713 51.138 16.521 19.178 13.891 41.797 21.234 65.41 21.235h.01c35.734-.001 69.57-17.259 90.508-46.167 36.114-49.864 24.929-119.814-24.933-155.93z"/><path d="m266.783 385.918h18.583c2.762 0 5-2.239 5-5s-2.238-5-5-5h-18.583c-2.762 0-5 2.239-5 5s2.238 5 5 5z"/><path d="m325.366 394.3h-58.583c-2.762 0-5 2.239-5 5s2.238 5 5 5h58.583c2.762 0 5-2.239 5-5s-2.238-5-5-5z"/><path d="m325.366 412.681h-58.583c-2.762 0-5 2.239-5 5s2.238 5 5 5h58.583c2.762 0 5-2.239 5-5s-2.238-5-5-5z"/></g><path d="m158.05 345.11c-.33 2.58-.73 5.1-1.2 7.54-.24 1.25-.67 2.42-1.27 3.48-7.66 1.46-15.53 1.89-23.41 1.23-11.77-.99-23.12-4.35-33.38-9.78-.54-3.59-.94-7.31-1.18-11.14 10.57 5.8 22.34 9.39 34.56 10.41 8.73.73 17.45.13 25.88-1.74z" fill="#fff3ee"/></g><path d="m365.596 444.015c-2.762 0-5-2.239-5-5 0-3.492-2.841-6.333-6.333-6.333-2.762 0-5-2.239-5-5s2.238-5 5-5c3.492 0 6.333-2.841 6.333-6.333 0-2.761 2.238-5 5-5s5 2.239 5 5c0 3.492 2.841 6.333 6.333 6.333 2.762 0 5 2.239 5 5s-2.238 5-5 5c-3.492 0-6.333 2.841-6.333 6.333 0 2.761-2.239 5-5 5z" fill="#ff4d4d"/><path d="m239.586 83.306c-2.762 0-5-2.239-5-5 0-3.492-2.841-6.333-6.333-6.333-2.762 0-5-2.239-5-5s2.238-5 5-5c3.492 0 6.333-2.841 6.333-6.333 0-2.761 2.238-5 5-5s5 2.239 5 5c0 3.492 2.842 6.333 6.334 6.333 2.762 0 5 2.239 5 5s-2.238 5-5 5c-3.492 0-6.334 2.841-6.334 6.333 0 2.761-2.238 5-5 5z" fill="#ff4d4d"/><path d="m227.365 408.584c-2.762 0-5-2.239-5-5 0-3.492-2.841-6.333-6.333-6.333-2.762 0-5-2.239-5-5s2.238-5 5-5c3.492 0 6.333-2.841 6.333-6.333 0-2.761 2.238-5 5-5s5 2.239 5 5c0 3.492 2.841 6.333 6.333 6.333 2.762 0 5 2.239 5 5s-2.238 5-5 5c-3.492 0-6.333 2.841-6.333 6.333 0 2.762-2.238 5-5 5z" fill="#ff9d33"/><g fill="#ff9d33"><g><path d="m199.67 84.483c-2.762 0-5-2.239-5-5v-.15c0-2.761 2.238-5 5-5s5 2.239 5 5v.15c0 2.762-2.238 5-5 5z"/><path d="m199.67 112.268c-2.762 0-5-2.239-5-5v-.15c0-2.761 2.238-5 5-5s5 2.239 5 5v.15c0 2.761-2.238 5-5 5z"/></g><g><path d="m187.699 91.393c-.851 0-1.712-.217-2.5-.674l-.13-.075c-2.39-1.384-3.206-4.442-1.822-6.833 1.384-2.39 4.445-3.205 6.832-1.822l.13.075c2.39 1.384 3.206 4.442 1.822 6.833-.927 1.601-2.606 2.496-4.332 2.496z"/><path d="m211.761 105.285c-.851 0-1.712-.217-2.5-.674l-.13-.075c-2.39-1.384-3.206-4.442-1.822-6.833 1.383-2.39 4.444-3.205 6.832-1.822l.13.075c2.39 1.384 3.206 4.442 1.822 6.833-.927 1.601-2.607 2.496-4.332 2.496z"/></g><g><path d="m187.579 105.285c-1.727 0-3.405-.895-4.332-2.496-1.384-2.39-.567-5.449 1.822-6.833l.13-.075c2.39-1.384 5.449-.567 6.832 1.822 1.384 2.39.567 5.449-1.822 6.833l-.13.075c-.788.457-1.65.674-2.5.674z"/><path d="m211.641 91.393c-1.727 0-3.405-.895-4.332-2.496-1.384-2.39-.567-5.449 1.822-6.833l.13-.075c2.391-1.384 5.449-.567 6.832 1.822 1.384 2.39.567 5.449-1.822 6.833l-.13.075c-.788.457-1.651.674-2.5.674z"/></g></g><g fill="#6c6cff"><g><path d="m148.286 61.699c-2.762 0-5-2.239-5-5v-.15c0-2.761 2.238-5 5-5s5 2.239 5 5v.15c0 2.761-2.238 5-5 5z"/><path d="m148.286 89.483c-2.762 0-5-2.239-5-5v-.15c0-2.761 2.238-5 5-5s5 2.239 5 5v.15c0 2.762-2.238 5-5 5z"/></g><g><path d="m136.315 68.609c-.851 0-1.712-.217-2.5-.674l-.13-.075c-2.39-1.384-3.206-4.442-1.822-6.833 1.384-2.389 4.444-3.204 6.832-1.822l.13.075c2.39 1.384 3.206 4.442 1.822 6.833-.926 1.601-2.606 2.496-4.332 2.496z"/><path d="m160.377 82.501c-.851 0-1.712-.217-2.5-.674l-.13-.075c-2.39-1.384-3.206-4.442-1.822-6.833 1.384-2.39 4.445-3.205 6.832-1.822l.13.075c2.39 1.384 3.206 4.442 1.822 6.833-.927 1.601-2.606 2.496-4.332 2.496z"/></g><g><path d="m136.195 82.501c-1.727 0-3.405-.895-4.332-2.496-1.384-2.39-.567-5.449 1.822-6.833l.13-.075c2.39-1.384 5.449-.567 6.832 1.822 1.384 2.39.567 5.449-1.822 6.833l-.13.075c-.788.457-1.65.674-2.5.674z"/><path d="m160.257 68.609c-1.727 0-3.405-.895-4.332-2.496-1.384-2.39-.567-5.449 1.822-6.833l.13-.075c2.39-1.384 5.449-.567 6.832 1.822 1.384 2.39.567 5.449-1.822 6.833l-.13.075c-.788.457-1.651.674-2.5.674z"/></g></g></g></g></svg>