<svg id="Capa_1" enable-background="new 0 0 512 512" height="512" viewBox="0 0 512 512" width="512" xmlns="http://www.w3.org/2000/svg" xmlns:xlink="http://www.w3.org/1999/xlink"><linearGradient id="SVGID_1_" gradientUnits="userSpaceOnUse" x1="27.58" x2="504.532" y1="384.318" y2="108.95"><stop offset="0" stop-color="#fff" stop-opacity="0"/><stop offset=".2532" stop-color="#eef" stop-opacity=".403"/><stop offset=".629" stop-color="#d9d9ff"/></linearGradient><g><g><g><path d="m4.896 319.148c17.448 172.872 292.417 167.142 420.804 136.265 82.47-19.834 87.596-59.472 86.106-144.001-.96-54.486 3.443-198.725-32.004-244.123-54.448-69.733-103.228-25.998-170.656-3.235-86.488 29.197-120.189-22.932-202.476-21.38-120.641 2.278-110.779 187.252-101.774 276.474z" fill="url(#SVGID_1_)"/></g><g><path d="m391.508 208.262v-18.483c0-5.523-4.477-10-10-10h-2.529v-36.744h2.672c5.523 0 10-4.477 10-10v-35.258c0-5.523-4.477-10-10-10h-2.672v-21.33h16.42c5.857 0 10.605-4.748 10.605-10.605s-4.748-10.605-10.605-10.605h-67.754c-5.857 0-10.605 4.748-10.605 10.605s4.748 10.605 10.605 10.605h16.42v21.33h-39.351c-10.799 0-19.88 7.342-22.534 17.305h-48.203v-7.304c0-5.52-4.48-10-10-10h-6.895c0-.001 0-.001 0-.002 0-13.891-11.261-25.153-25.153-25.153-13.891 0-25.153 11.261-25.153 25.153v.002h-68.31c-5.52 0-10 4.48-10 10v35.26c0 5.52 4.48 10 10 10h39.907v19.445h-11.638c-2.762 0-5 2.238-5 5s2.238 5 5 5h11.638v6.894h-24.308c-2.762 0-5 2.238-5 5s2.238 5 5 5h24.308v20.786h-4.073c-15.84 0-28.682 12.841-28.682 28.682v168.317c0 5.523 4.477 10 10 10h66.157c5.523 0 10-4.477 10-10v-161.192h26.855c3.859 0 7 3.141 7 7v180.229c0 3.453-2.809 6.262-6.262 6.262h-118.512c-9.588 0-17.389 7.801-17.389 17.389s7.801 17.389 17.389 17.389h139.912c3.453 0 6.262 2.81 6.262 6.263s-2.809 6.263-6.262 6.263h-152.3c-2.762 0-5 2.238-5 5s2.238 5 5 5h152.301c8.967 0 16.262-7.295 16.262-16.263s-7.295-16.263-16.262-16.263h-139.913c-4.074 0-7.389-3.314-7.389-7.389s3.314-7.389 7.389-7.389h118.514c8.967 0 16.262-7.295 16.262-16.262v-180.229c0-9.374-7.626-17-17-17h-26.999c-1.442-14.491-13.668-25.807-28.538-25.807h-4.073v-20.786h5.162c2.762 0 5-2.238 5-5s-2.238-5-5-5h-5.162v-6.894h5.162c2.762 0 5-2.238 5-5s-2.238-5-5-5h-5.162v-19.445h64.955c5.52 0 10-4.48 10-10v-7.309h48.203c2.653 9.964 11.735 17.305 22.534 17.305h39.351v36.744h-2.529c-5.523 0-10 4.477-10 10v18.483c-21.95 11.005-37.025 33.698-37.025 59.925v218.355c0 5.523 4.477 10 10 10h114.022c5.523 0 10-4.477 10-10v-218.354c0-26.227-15.075-48.919-37.025-59.925z" fill="#2626bc" opacity=".1"/><g><g><path d="m138.374 110.104h20.648v89.35h-20.648z" fill="#6c6cff"/></g><g fill="#4d4dff"><path d="m138.374 110.104h20.648v21.962h-20.648z"/><path d="m138.374 142.577h20.648v29.658h-20.648z"/></g><g><path d="m227.218 80.083h75.083v20.648h-75.083z" fill="#6c6cff"/><path d="m344.065 41.447h34.913v122.88h-34.913z" fill="#6c6cff"/><path d="m344.065 41.447h34.913v93.434h-34.913z" fill="#4d4dff"/><g><path d="m391.508 183.262v-18.483c0-5.523-4.477-10-10-10h-39.972c-5.523 0-10 4.477-10 10v18.483c-21.95 11.005-37.025 33.698-37.025 59.925v218.355c0 5.523 4.477 10 10 10h114.022c5.523 0 10-4.477 10-10v-218.355c0-26.227-15.075-48.919-37.025-59.925z" fill="#b3b3ff"/><path d="m428.533 259.894v-16.707c0-26.227-15.075-48.919-37.025-59.925v-18.483c0-5.523-4.477-10-10-10h-39.972c-5.523 0-10 4.477-10 10v18.483c-21.95 11.005-37.025 33.698-37.025 59.925v16.707z" fill="#9494ff"/><path d="m428.533 243.187c0-26.227-15.075-48.919-37.025-59.925v-18.483c0-5.523-4.477-10-10-10h-39.972c-5.523 0-10 4.477-10 10v18.483c-21.95 11.005-37.025 33.698-37.025 59.925z" fill="#fff"/></g><g><path d="m381.651 118.036h-76.937c-12.88 0-23.322-10.441-23.322-23.322v-8.615c0-12.88 10.441-23.322 23.322-23.322h76.937c5.523 0 10 4.477 10 10v35.258c0 5.524-4.477 10.001-10 10.001z" fill="#fff"/><path d="m305.68 62.777h16.143v55.258h-16.143z" fill="#d9d9ff"/><path d="m341.532 98.298h-35.852v19.738h45.852v-9.738c0-5.523-4.477-10-10-10z" fill="#b3b3ff"/></g><path d="m395.399 41.447h-67.754c-5.857 0-10.605-4.748-10.605-10.605 0-5.857 4.748-10.605 10.605-10.605h67.754c5.857 0 10.605 4.748 10.605 10.605 0 5.857-4.748 10.605-10.605 10.605z" fill="#ff9d33"/><g><path d="m233.977 72.779v35.26c0 5.52-4.48 10-10 10h-125.51c-5.52 0-10-4.48-10-10v-35.26c0-5.52 4.48-10 10-10h125.51c5.52 0 10 4.48 10 10z" fill="#ffc599"/><path d="m217.087 78.549c0 13.89-11.27 25.15-25.16 25.15s-25.15-11.26-25.15-25.15c0-5.97 2.08-11.46 5.57-15.77h39.17c3.49 4.31 5.57 9.8 5.57 15.77z" fill="#ffab66"/><path d="m233.977 87.859v5.09c0 2.96-2.39 5.35-5.35 5.35h-134.81c-2.96 0-5.35-2.39-5.35-5.35v-5.09c0-2.95 2.39-5.34 5.35-5.34h134.81c2.96 0 5.35 2.39 5.35 5.34z" fill="#ffd6bb"/><path d="m216.777 82.519c-1.01 6.38-4.43 11.96-9.29 15.78h-31.12c-4.86-3.82-8.27-9.4-9.28-15.78z" fill="#ffc599"/><circle cx="191.93" cy="62.777" fill="#ff9d33" r="25.153"/></g></g><path d="m181.777 392.162h-66.157c-5.523 0-10-4.477-10-10v-168.317c0-15.84 12.841-28.682 28.682-28.682h28.794c15.84 0 28.682 12.841 28.682 28.682v168.317c-.001 5.523-4.478 10-10.001 10z" fill="#d9d9ff"/><path d="m191.777 252.01v-38.166c0-15.84-12.841-28.682-28.682-28.682h-28.794c-15.84 0-28.682 12.841-28.682 28.682v38.166z" fill="#b3b3ff"/><path d="m191.777 238.495v-24.651c0-15.84-12.841-28.682-28.682-28.682h-28.794c-15.84 0-28.682 12.841-28.682 28.682v24.651z" fill="#6c6cff"/><path d="m396.508 180.25v-15.471c0-7.428-5.432-13.595-12.529-14.779v-27.164c7.167-1.124 12.673-7.323 12.673-14.801v-35.257c0-7.478-5.506-13.677-12.673-14.801v-11.53h11.42c8.604 0 15.605-7.001 15.605-15.605s-7.001-15.604-15.605-15.604h-67.754c-8.604 0-15.604 7-15.604 15.604s7 15.605 15.604 15.605h11.421v11.331h-34.352c-11.711 0-21.785 7.145-26.091 17.305h-39.648v-2.305c0-8.271-6.729-15-15-15h-2.316c-2.39-14.255-14.808-25.153-29.73-25.153-16.626 0-30.152 13.526-30.152 30.153 0 16.626 13.526 30.152 30.152 30.152 14.922 0 27.34-10.899 29.73-25.152h2.316c2.757 0 5 2.243 5 5v35.258c0 2.757-2.243 5-5 5h-125.506c-2.757 0-5-2.243-5-5v-35.258c0-2.757 2.243-5 5-5h39.207c2.762 0 5-2.238 5-5s-2.238-5-5-5h-39.207c-8.271 0-15 6.729-15 15v35.258c0 8.271 6.729 15 15 15h34.905v14.448h-6.638c-2.762 0-5 2.238-5 5s2.238 5 5 5h6.638v6.894h-19.308c-2.762 0-5 2.238-5 5s2.238 5 5 5h19.308v15.809c-18.144.494-32.755 15.397-32.755 33.658v168.317c0 8.271 6.729 15 15 15h66.158c8.271 0 15-6.729 15-15v-137.091c0-2.762-2.238-5-5-5s-5 2.238-5 5v137.091c0 2.757-2.243 5-5 5h-66.158c-2.757 0-5-2.243-5-5v-168.318c0-13.058 10.623-23.682 23.682-23.682h28.795c12.085 0 22.077 9.101 23.501 20.808h-17.907c-2.762 0-5 2.238-5 5s2.238 5 5 5h49.942c3.859 0 7 3.141 7 7v180.229c0 3.453-2.809 6.262-6.262 6.262h-118.514c-9.588 0-17.389 7.801-17.389 17.389s7.801 17.389 17.389 17.389h139.912c3.453 0 6.262 2.81 6.262 6.263s-2.809 6.263-6.262 6.263h-152.3c-2.762 0-5 2.238-5 5s2.238 5 5 5h152.301c8.967 0 16.262-7.295 16.262-16.263s-7.295-16.263-16.262-16.263h-139.913c-4.074 0-7.389-3.314-7.389-7.389s3.314-7.389 7.389-7.389h118.514c8.967 0 16.262-7.295 16.262-16.262v-180.229c0-9.374-7.626-17-17-17h-21.986c-1.438-16.927-15.442-30.316-32.624-30.784v-15.809h.161c2.762 0 5-2.238 5-5s-2.238-5-5-5h-.161v-6.894h.161c2.762 0 5-2.238 5-5s-2.238-5-5-5h-.161v-14.448h59.953c8.271 0 15-6.729 15-15v-2.306h39.647c4.306 10.16 14.38 17.306 26.091 17.306h34.352v26.965c-7.097 1.184-12.529 7.351-12.529 14.779v15.471c-22.919 12.727-37.025 36.563-37.025 62.938v218.354c0 8.271 6.729 15 15 15h114.022c8.271 0 15-6.729 15-15v-218.355c0-26.374-14.106-50.211-37.025-62.937zm-204.578-97.32c-11.112 0-20.152-9.04-20.152-20.152s9.04-20.153 20.152-20.153 20.152 9.041 20.152 20.153-9.04 20.152-20.152 20.152zm-37.908 97.233h-10.648v-15.785h10.648zm0-25.786h-10.648v-6.894h10.648zm0-16.893h-10.648v-14.448h10.648zm84.954-41.754v-10.647h37.443c-.012.338-.026.676-.026 1.017v8.615c0 .341.014.678.026 1.016h-37.443zm83.064-64.889c0-3.091 2.514-5.604 5.604-5.604h67.754c3.091 0 5.605 2.514 5.605 5.604s-2.515 5.605-5.605 5.605h-67.754c-3.09.001-5.604-2.514-5.604-5.605zm27.025 15.606h24.913v11.331h-24.913zm-62.672 48.267v-8.615c0-10.103 8.219-18.321 18.321-18.321h76.938c2.757 0 5 2.243 5 5v35.258c0 2.757-2.243 5-5 5h-76.938c-10.103 0-18.321-8.219-18.321-18.322zm87.586 28.322v26.743h-24.913v-26.743zm49.554 338.506c0 2.757-2.243 5-5 5h-114.022c-2.757 0-5-2.243-5-5v-218.355c0-23.609 13.13-44.858 34.267-55.455 1.691-.848 2.759-2.578 2.759-4.47v-18.483c0-2.757 2.243-5 5-5h39.972c2.757 0 5 2.243 5 5v18.483c0 1.892 1.067 3.622 2.759 4.47 21.137 10.597 34.267 31.846 34.267 55.455v218.355z" fill="#00c"/><path d="m399.413 378.43h-50.348c-2.761 0-5-2.239-5-5v-92.075c0-2.761 2.239-5 5-5h50.348c2.761 0 5 2.239 5 5v92.075c0 2.762-2.238 5-5 5z" fill="#fff"/><g><g><path d="m386.45 301.933h-18.583c-2.762 0-5-2.238-5-5s2.238-5 5-5h18.583c2.762 0 5 2.238 5 5s-2.239 5-5 5z" fill="#ff9d33"/></g><g><path d="m386.45 320.314h-58.583c-2.762 0-5-2.238-5-5s2.238-5 5-5h58.583c2.762 0 5 2.238 5 5s-2.239 5-5 5z" fill="#ff6c6c"/></g><g><path d="m386.45 338.696h-58.583c-2.762 0-5-2.238-5-5s2.238-5 5-5h58.583c2.762 0 5 2.238 5 5s-2.239 5-5 5z" fill="#ff6c6c"/></g></g><g><path d="m191.929 64.611c-2.762 0-5-2.238-5-5v-4.505c0-2.762 2.238-5 5-5s5 2.238 5 5v4.505c0 2.762-2.238 5-5 5z" fill="#ff4d4d"/></g><g><path d="m362.675 88.883c-2.762 0-5-2.238-5-5v-.149c0-2.762 2.238-5 5-5s5 2.238 5 5v.149c0 2.762-2.239 5-5 5z" fill="#ff9d33"/></g></g></g><g fill="#6c6cff"><g><path d="m435.647 133.873c-2.762 0-5-2.238-5-5v-.15c0-2.762 2.238-5 5-5s5 2.238 5 5v.15c0 2.761-2.238 5-5 5z"/><path d="m435.647 161.657c-2.762 0-5-2.238-5-5v-.15c0-2.762 2.238-5 5-5s5 2.238 5 5v.15c0 2.761-2.238 5-5 5z"/></g><g><path d="m423.677 140.782c-.841 0-1.693-.213-2.476-.66l-.13-.074c-2.397-1.37-3.23-4.424-1.86-6.821 1.369-2.397 4.423-3.231 6.821-1.86l.13.074c2.397 1.37 3.23 4.424 1.86 6.821-.922 1.614-2.609 2.52-4.345 2.52z"/><path d="m447.738 154.674c-.851 0-1.712-.217-2.5-.674l-.13-.075c-2.39-1.384-3.206-4.442-1.822-6.832 1.384-2.392 4.445-3.206 6.832-1.822l.13.075c2.39 1.384 3.206 4.442 1.822 6.832-.926 1.602-2.606 2.496-4.332 2.496z"/></g><g><path d="m423.557 154.674c-1.727 0-3.405-.895-4.332-2.496-1.384-2.39-.567-5.448 1.822-6.832l.13-.075c2.39-1.386 5.449-.567 6.832 1.822 1.384 2.39.567 5.448-1.822 6.832l-.13.075c-.788.458-1.651.674-2.5.674z"/><path d="m447.618 140.782c-1.736 0-3.423-.905-4.346-2.521-1.37-2.397-.537-5.451 1.86-6.821l.13-.074c2.397-1.369 5.452-.536 6.821 1.86 1.37 2.397.537 5.451-1.86 6.821l-.13.074c-.781.448-1.634.661-2.475.661z"/></g></g><path d="m264.76 195.163c-2.762 0-5-2.238-5-5 0-3.492-2.841-6.333-6.333-6.333-2.762 0-5-2.238-5-5s2.238-5 5-5c3.492 0 6.333-2.841 6.333-6.333 0-2.762 2.238-5 5-5s5 2.238 5 5c0 3.492 2.841 6.333 6.333 6.333 2.762 0 5 2.238 5 5s-2.238 5-5 5c-3.492 0-6.333 2.841-6.333 6.333 0 2.761-2.239 5-5 5z" fill="#ff4d4d"/><path d="m458.946 213.5c-2.762 0-5-2.238-5-5 0-3.492-2.841-6.333-6.333-6.333-2.762 0-5-2.238-5-5s2.238-5 5-5c3.492 0 6.333-2.842 6.333-6.334 0-2.762 2.238-5 5-5s5 2.238 5 5c0 3.492 2.841 6.334 6.333 6.334 2.762 0 5 2.238 5 5s-2.238 5-5 5c-3.492 0-6.333 2.841-6.333 6.333 0 2.761-2.238 5-5 5z" fill="#ff9d33"/></g><g fill="#ff4d4d"><g><path d="m69.761 163.417c-2.762 0-5-2.238-5-5v-.149c0-2.762 2.238-5 5-5s5 2.238 5 5v.149c0 2.762-2.239 5-5 5z"/><path d="m69.761 191.202c-2.762 0-5-2.238-5-5v-.149c0-2.762 2.238-5 5-5s5 2.238 5 5v.149c0 2.761-2.239 5-5 5z"/></g><g><path d="m57.789 170.328c-.851 0-1.712-.217-2.5-.674l-.13-.075c-2.39-1.384-3.206-4.442-1.822-6.832 1.383-2.392 4.444-3.207 6.832-1.822l.13.075c2.39 1.384 3.206 4.442 1.822 6.832-.927 1.601-2.606 2.496-4.332 2.496z"/><path d="m81.852 184.219c-.851 0-1.712-.217-2.5-.674l-.13-.075c-2.39-1.384-3.206-4.442-1.822-6.832 1.384-2.391 4.444-3.206 6.832-1.822l.13.075c2.39 1.384 3.206 4.442 1.822 6.832-.927 1.602-2.607 2.496-4.332 2.496z"/></g><g><path d="m57.669 184.219c-1.727 0-3.405-.895-4.332-2.496-1.384-2.39-.567-5.448 1.822-6.832l.13-.075c2.39-1.386 5.449-.567 6.832 1.822 1.384 2.39.567 5.448-1.822 6.832l-.13.075c-.788.457-1.65.674-2.5.674z"/><path d="m81.731 170.328c-1.727 0-3.405-.895-4.332-2.496-1.384-2.39-.567-5.448 1.822-6.832l.13-.075c2.389-1.387 5.449-.567 6.832 1.822 1.384 2.39.567 5.448-1.822 6.832l-.13.075c-.788.457-1.65.674-2.5.674z"/></g></g><path d="m62.02 402.162c-2.762 0-5-2.238-5-5 0-3.492-2.842-6.333-6.334-6.333-2.762 0-5-2.238-5-5s2.238-5 5-5c3.492 0 6.334-2.841 6.334-6.333 0-2.762 2.238-5 5-5s5 2.238 5 5c0 3.492 2.841 6.333 6.333 6.333 2.762 0 5 2.238 5 5s-2.238 5-5 5c-3.492 0-6.333 2.841-6.333 6.333 0 2.761-2.239 5-5 5z" fill="#ff9d33"/></g></svg>