<svg id="Capa_1" enable-background="new 0 0 512 512" height="512" viewBox="0 0 512 512" width="512" xmlns="http://www.w3.org/2000/svg" xmlns:xlink="http://www.w3.org/1999/xlink"><linearGradient id="SVGID_1_" gradientUnits="userSpaceOnUse" x1="23.821" x2="459.531" y1="343.269" y2="91.711"><stop offset="0" stop-color="#fff" stop-opacity="0"/><stop offset=".2532" stop-color="#eef" stop-opacity=".403"/><stop offset=".629" stop-color="#d9d9ff"/></linearGradient><g><g><path d="m16.074 302.88c18.727 64.003 72.707 194.564 163.922 182.845 91.486-11.755 55.758-129.725 139.508-145.894 36.867-7.118 61.857 56.689 98.806 54.704 47.588-2.557 71.81-49.663 85.108-89.264 28.197-83.968-14.029-226.352-112.858-251.011-86.244-21.519-96.332 83.855-171.322 53.248-42.149-17.203-37.938-68.576-89.272-78.942-155.299-31.36-138.811 189.15-113.892 274.314z" fill="url(#SVGID_1_)"/></g><g><g><path d="m428.236 390.424-14.948-10.69c16.101-27.211 25.352-58.954 25.352-92.863 0-23.733-4.527-46.408-12.765-67.209-2.698-6.813-5.824-13.402-9.332-19.75l11.71-6.428c2.731-1.499 3.73-4.929 2.231-7.66l-10.048-18.303c-1.499-2.731-4.929-3.73-7.66-2.231l-14.431 7.922c-16.958-20.502-38.535-37.114-63.075-48.49l-60.693-28.135c-11.783-5.462-25.374-5.462-37.157 0l-60.685 28.132c-24.545 11.378-46.123 27.992-63.082 48.494l-14.432-7.922c-2.731-1.499-6.161-.501-7.66 2.231l-10.047 18.303c-1.499 2.731-.5 6.161 2.231 7.66l11.716 6.431c-3.6 6.512-6.8 13.277-9.547 20.278-8.33 21.229-12.8 44.397-12.546 68.641.349 33.265 9.504 64.319 25.232 90.979l-14.838 10.612c-2.534 1.812-3.119 5.336-1.307 7.87l12.146 16.984c1.812 2.534 5.336 3.119 7.87 1.307l14.856-10.624c33.466 38.964 83.123 63.551 138.672 63.55 55.409 0 105.05-24.679 138.545-63.64l14.981 10.714c2.534 1.812 6.058 1.227 7.87-1.307l12.146-16.984c1.814-2.536 1.229-6.059-1.305-7.872z" fill="#2626bc" opacity=".1"/><g><g><path d="m335.271 99.721-60.693-28.135c-11.784-5.462-25.374-5.462-37.157 0l-60.685 28.132c-41.295 19.143-74.195 53.104-90.821 95.475-8.33 21.229-12.8 44.397-12.546 68.641 1.054 100.391 82.234 180.678 182.631 180.678 100.87-.002 182.64-81.772 182.64-182.641 0-23.733-4.527-46.408-12.765-67.209-16.686-42.134-49.49-75.881-90.604-94.941z" fill="#ffab66"/><g><g><g><path d="m390.047 206.308 5.203-2.856c2.731-1.499 3.73-4.929 2.231-7.66l-24.265-44.203c-1.499-2.731-4.929-3.73-7.66-2.231l-5.203 2.856c-2.731 1.499-3.73 4.929-2.231 7.66l24.265 44.203c1.5 2.732 4.929 3.731 7.66 2.231z" fill="#ff8b00"/><path d="m428.254 168.484-45.315 24.875c-2.731 1.499-6.161.501-7.66-2.231l-10.047-18.303c-1.499-2.731-.501-6.161 2.231-7.66l45.315-24.875c2.731-1.499 6.161-.501 7.66 2.231l10.047 18.303c1.498 2.731.5 6.16-2.231 7.66z" fill="#fff"/></g><g><path d="m358.886 373.53 4.828 3.452c2.534 1.812 6.058 1.227 7.87-1.307l29.333-41.015c1.812-2.534 1.227-6.058-1.307-7.87l-4.827-3.452c-2.534-1.812-6.058-1.227-7.87 1.307l-29.333 41.015c-1.813 2.534-1.228 6.058 1.306 7.87z" fill="#ff8b00"/><path d="m409.527 391.585-42.047-30.071c-2.534-1.812-3.119-5.336-1.307-7.87l12.146-16.984c1.812-2.534 5.336-3.119 7.87-1.307l42.047 30.071c2.534 1.812 3.119 5.336 1.307 7.87l-12.146 16.984c-1.813 2.534-5.336 3.119-7.87 1.307z" fill="#fff"/></g></g><g><g><path d="m121.953 206.308-5.203-2.856c-2.731-1.499-3.73-4.929-2.231-7.66l24.265-44.203c1.499-2.731 4.929-3.73 7.66-2.231l5.203 2.856c2.731 1.499 3.73 4.929 2.231 7.66l-24.265 44.203c-1.5 2.732-4.929 3.731-7.66 2.231z" fill="#ff8b00"/><path d="m83.746 168.484 45.315 24.875c2.731 1.499 6.161.501 7.66-2.231l10.047-18.303c1.499-2.731.501-6.161-2.231-7.66l-45.314-24.875c-2.731-1.499-6.161-.501-7.66 2.231l-10.047 18.303c-1.499 2.731-.501 6.16 2.23 7.66z" fill="#fff"/></g><g><path d="m153.114 373.53-4.828 3.452c-2.534 1.812-6.058 1.227-7.87-1.307l-29.333-41.015c-1.812-2.534-1.227-6.058 1.307-7.87l4.828-3.452c2.534-1.812 6.058-1.227 7.87 1.307l29.333 41.015c1.812 2.534 1.227 6.058-1.307 7.87z" fill="#ff8b00"/><path d="m102.473 391.585 42.047-30.071c2.534-1.812 3.119-5.336 1.307-7.87l-12.146-16.984c-1.812-2.534-5.336-3.119-7.87-1.307l-42.047 30.071c-2.534 1.812-3.119 5.336-1.307 7.87l12.146 16.984c1.813 2.534 5.336 3.119 7.87 1.307z" fill="#fff"/><g fill="#00c"><path d="m431.145 361.356-11.269-8.059c15.542-27.807 23.765-59.378 23.765-91.426 0-20.978-3.438-41.576-10.219-61.225-.901-2.61-3.746-3.996-6.357-3.096-2.61.901-3.996 3.747-3.096 6.357 6.418 18.597 9.672 38.099 9.672 57.963 0 29.967-7.598 59.488-21.957 85.568l-22.586-16.152c-2.313-1.655-5.134-2.31-7.934-1.843-2.804.466-5.259 1.995-6.913 4.308l-12.146 16.983c-3.412 4.773-2.307 11.434 2.466 14.847l22.55 16.127c-33.651 36.8-81.124 57.802-131.12 57.802-41.891 0-82.51-14.742-114.377-41.512-2.112-1.775-5.269-1.502-7.044.612-1.776 2.114-1.502 5.269.612 7.044 33.665 28.28 76.569 43.855 120.809 43.855 53.215 0 103.721-22.523 139.31-61.945l11.306 8.086c1.826 1.307 3.968 1.989 6.168 1.989.586 0 1.177-.049 1.766-.146 2.804-.466 5.259-1.995 6.913-4.308l12.146-16.982c1.654-2.313 2.309-5.13 1.843-7.935-.467-2.802-1.996-5.257-4.308-6.912zm-5.669 9.031-12.146 16.982c-.103.144-.243.231-.417.26-.174.03-.335-.008-.478-.11-.001-.001-.001-.001-.001-.001l-42.046-30.069c-.288-.206-.354-.608-.148-.896l12.145-16.982c.103-.144.243-.231.417-.26.038-.007.075-.01.111-.01.132 0 .255.04.367.121l42.047 30.069c.144.103.231.243.26.417s-.008.335-.111.479z"/><path d="m147.43 365.581c4.771-3.412 5.877-10.072 2.465-14.846l-12.146-16.984c-1.653-2.312-4.108-3.841-6.912-4.307-2.806-.466-5.622.188-7.933 1.842l-22.693 16.229c-13.984-25.495-21.532-54.343-21.841-83.735-.242-23.05 3.862-45.512 12.2-66.762 2.035-5.186 4.368-10.306 6.927-15.283l29.157 16.006c1.593.874 3.341 1.318 5.107 1.318.999 0 2.004-.142 2.99-.429 2.728-.795 4.984-2.604 6.353-5.097l10.047-18.304c2.824-5.145.936-11.626-4.207-14.448l-25.48-13.987c15.809-17.768 35.541-32.42 57.374-42.541l60.685-28.132c10.472-4.853 22.481-4.853 32.953 0l60.692 28.136c21.834 10.122 41.565 24.77 57.371 42.535l-25.483 13.989c-5.144 2.822-7.032 9.304-4.208 14.449l10.047 18.304c1.368 2.491 3.625 4.301 6.353 5.096.986.287 1.991.429 2.99.429 1.767 0 3.515-.444 5.106-1.318l45.315-24.875c2.491-1.367 4.301-3.624 5.096-6.353s.479-5.604-.889-8.096l-10.048-18.303c-1.367-2.492-3.623-4.303-6.353-5.098-2.73-.794-5.604-.479-8.097.89l-10.86 5.962c-16.957-19.557-38.366-35.665-62.136-46.683l-60.69-28.135c-13.143-6.092-28.221-6.092-41.363 0l-60.685 28.132c-23.768 11.018-45.179 27.128-62.14 46.689l-10.863-5.963c-2.493-1.368-5.367-1.684-8.098-.89-2.729.795-4.985 2.605-6.353 5.097l-10.048 18.304c-2.823 5.144-.937 11.625 4.207 14.448l7.39 4.057c-2.762 5.351-5.278 10.861-7.469 16.443-8.81 22.452-13.147 46.178-12.892 70.52.33 31.438 8.514 62.289 23.658 89.481l-11.173 7.991c-2.312 1.653-3.841 4.108-4.307 6.912-.466 2.805.188 5.622 1.842 7.934l12.147 16.984c1.653 2.312 4.108 3.841 6.912 4.307.59.098 1.18.146 1.766.146 2.2 0 4.342-.683 6.168-1.989l-.001.001zm267.754-220.908c.098-.054.199-.081.304-.081.061 0 .121.009.184.027.169.049.298.152.383.308l10.048 18.304c.084.154.103.318.053.487-.049.169-.152.298-.307.383l-45.316 24.875c-.153.084-.318.104-.486.054-.17-.049-.299-.153-.384-.308l-10.047-18.302c-.085-.155-.103-.319-.054-.489.05-.169.152-.298.308-.383zm-329.286 18.557 10.048-18.305c.085-.154.214-.258.383-.307.171-.051.335-.031.488.054l45.315 24.876c.31.17.423.561.253.87l-10.047 18.302c-.085.155-.214.26-.384.309-.17.05-.334.03-.487-.054l-45.315-24.875c-.309-.169-.423-.56-.254-.87zm13.667 224.288c-.144.104-.306.143-.479.111-.174-.028-.314-.116-.416-.259l-12.147-16.984c-.103-.143-.14-.304-.11-.479.028-.174.116-.314.259-.416l42.049-30.071c.111-.08.234-.12.365-.12.037 0 .074.003.112.01.174.028.314.116.416.259l12.146 16.983c.206.288.14.69-.147.896z"/></g></g></g></g><g><path d="m320.827 328.181h-129.654c-5.514 0-10-4.486-10-10v-25.36c0-5.514 4.486-10 10-10h129.654c5.514 0 10 4.486 10 10v25.36c0 5.513-4.486 10-10 10zm-129.654-35.361v25.36h129.66l-.006-25.36z" fill="#ff7300"/></g><g><g><path d="m315.292 358.9h-118.584c-2.762 0-5-2.238-5-5s2.238-5 5-5h118.583c2.762 0 5 2.238 5 5s-2.238 5-4.999 5z" fill="#ff7300"/></g><g><path d="m295.292 379.62h-55.944c-2.762 0-5-2.238-5-5s2.238-5 5-5h55.944c2.762 0 5 2.238 5 5s-2.239 5-5 5z" fill="#ff7300"/></g><g><path d="m315.292 400.339h-73.444c-2.762 0-5-2.238-5-5s2.238-5 5-5h73.444c2.762 0 5 2.238 5 5s-2.239 5-5 5z" fill="#ff7300"/></g></g><g><path d="m323.438 134.441c-.729 0-1.47-.16-2.171-.499l-51.635-24.937c-8.662-4.184-18.601-4.184-27.263 0l-51.628 24.934c-2.49 1.204-5.477.157-6.677-2.327-1.201-2.487-.159-5.477 2.327-6.677l51.628-24.934c11.428-5.52 24.534-5.52 35.962 0l51.635 24.936c2.486 1.201 3.528 4.19 2.327 6.678-.862 1.785-2.647 2.826-4.505 2.826z" fill="#9494ff"/></g></g><path d="m223.446 394.456-11.092-20.788c-1.506-2.823-5.552-2.823-7.058 0l-11.092 20.788c-1.422 2.664.509 5.883 3.529 5.883h22.184c3.02 0 4.95-3.218 3.529-5.883z" fill="#ff4d4d"/><g><path d="m315.292 379.694c-2.762 0-5-2.238-5-5v-.149c0-2.762 2.238-5 5-5s5 2.238 5 5v.149c0 2.762-2.239 5-5 5z" fill="#ff7300"/></g></g><g fill="#6c6cff"><g><path d="m397.857 435.693c-2.762 0-5-2.238-5-5v-.149c0-2.762 2.238-5 5-5s5 2.238 5 5v.149c0 2.762-2.238 5-5 5z"/><path d="m397.857 463.478c-2.762 0-5-2.238-5-5v-.149c0-2.762 2.238-5 5-5s5 2.238 5 5v.149c0 2.761-2.238 5-5 5z"/></g><g><path d="m385.887 442.604c-.851 0-1.712-.217-2.5-.674l-.13-.075c-2.39-1.384-3.206-4.442-1.822-6.832 1.384-2.392 4.445-3.206 6.832-1.822l.13.075c2.39 1.384 3.206 4.442 1.822 6.832-.927 1.601-2.607 2.496-4.332 2.496z"/><path d="m409.948 456.495c-.851 0-1.712-.217-2.5-.674l-.13-.075c-2.39-1.384-3.206-4.442-1.822-6.832 1.383-2.391 4.445-3.206 6.832-1.822l.13.075c2.39 1.384 3.206 4.442 1.822 6.832-.926 1.602-2.606 2.496-4.332 2.496z"/></g><g><path d="m385.767 456.495c-1.727 0-3.405-.895-4.332-2.496-1.384-2.39-.567-5.448 1.822-6.832l.13-.075c2.39-1.386 5.449-.567 6.832 1.822 1.384 2.39.567 5.448-1.822 6.832l-.13.075c-.788.457-1.651.674-2.5.674z"/><path d="m409.828 442.604c-1.727 0-3.405-.895-4.332-2.496-1.384-2.39-.567-5.448 1.822-6.832l.13-.075c2.391-1.386 5.449-.567 6.832 1.822 1.384 2.39.567 5.448-1.822 6.832l-.13.075c-.788.457-1.65.674-2.5.674z"/></g></g><g fill="#ff9d33"><g><path d="m45.834 334.989c-2.762 0-5-2.238-5-5v-.15c0-2.762 2.238-5 5-5s5 2.238 5 5v.15c0 2.762-2.238 5-5 5z"/><path d="m45.834 362.773c-2.762 0-5-2.238-5-5v-.15c0-2.762 2.238-5 5-5s5 2.238 5 5v.15c0 2.762-2.238 5-5 5z"/></g><g><path d="m33.863 341.899c-.851 0-1.712-.217-2.5-.674l-.13-.075c-2.39-1.384-3.206-4.442-1.822-6.832 1.384-2.391 4.445-3.206 6.832-1.822l.13.075c2.39 1.384 3.206 4.442 1.822 6.832-.926 1.602-2.606 2.496-4.332 2.496z"/><path d="m57.925 355.791c-.851 0-1.712-.217-2.5-.674l-.13-.075c-2.39-1.384-3.206-4.442-1.822-6.832 1.384-2.392 4.445-3.207 6.832-1.822l.13.075c2.39 1.384 3.206 4.442 1.822 6.832-.927 1.601-2.607 2.496-4.332 2.496z"/></g><g><path d="m33.743 355.791c-1.727 0-3.405-.895-4.332-2.496-1.384-2.39-.567-5.448 1.822-6.832l.13-.075c2.39-1.386 5.449-.567 6.832 1.822 1.384 2.39.567 5.448-1.822 6.832l-.13.075c-.788.457-1.65.674-2.5.674z"/><path d="m57.805 341.899c-1.727 0-3.405-.895-4.332-2.496-1.384-2.39-.567-5.448 1.822-6.832l.13-.075c2.391-1.385 5.449-.567 6.832 1.822 1.384 2.39.567 5.448-1.822 6.832l-.13.075c-.788.458-1.651.674-2.5.674z"/></g></g><path d="m208.825 62.891c-2.762 0-5-2.238-5-5 0-3.492-2.842-6.333-6.334-6.333-2.762 0-5-2.238-5-5s2.238-5 5-5c3.492 0 6.334-2.841 6.334-6.333 0-2.762 2.238-5 5-5s5 2.238 5 5c0 3.492 2.841 6.333 6.333 6.333 2.762 0 5 2.238 5 5s-2.238 5-5 5c-3.492 0-6.333 2.841-6.333 6.333 0 2.761-2.238 5-5 5z" fill="#6c6cff"/><path d="m168.448 80.136c-2.762 0-5-2.238-5-5 0-3.492-2.841-6.333-6.333-6.333-2.762 0-5-2.238-5-5s2.238-5 5-5c3.492 0 6.333-2.842 6.333-6.334 0-2.762 2.238-5 5-5s5 2.238 5 5c0 3.492 2.841 6.334 6.333 6.334 2.762 0 5 2.238 5 5s-2.238 5-5 5c-3.492 0-6.333 2.841-6.333 6.333 0 2.761-2.238 5-5 5z" fill="#ff4d4d"/><path d="m449.974 432.749c-2.762 0-5-2.238-5-5 0-3.492-2.841-6.333-6.333-6.333-2.762 0-5-2.238-5-5s2.238-5 5-5c3.492 0 6.333-2.842 6.333-6.334 0-2.762 2.238-5 5-5s5 2.238 5 5c0 3.492 2.841 6.334 6.333 6.334 2.762 0 5 2.238 5 5s-2.238 5-5 5c-3.492 0-6.333 2.841-6.333 6.333 0 2.762-2.239 5-5 5z" fill="#ff9d33"/></g><g><g><path d="m212.452 159.47c-2.762 0-5-2.239-5-5v-.115c0-2.761 2.238-5 5-5s5 2.239 5 5v.115c0 2.761-2.238 5-5 5z" fill="#6c6cff"/></g><g><path d="m212.452 178.616c-2.762 0-5-2.239-5-5v-.116c0-2.761 2.238-5 5-5s5 2.239 5 5v.115c0 2.762-2.238 5.001-5 5.001z" fill="#6c6cff"/></g><g><path d="m234.226 149.897c-2.762 0-5-2.239-5-5v-.115c0-2.761 2.238-5 5-5s5 2.239 5 5v.115c0 2.761-2.238 5-5 5z" fill="#6c6cff"/></g><g><path d="m234.226 169.043c-2.762 0-5-2.239-5-5v-.115c0-2.761 2.238-5 5-5s5 2.239 5 5v.115c0 2.761-2.238 5-5 5z" fill="#6c6cff"/></g><g><path d="m256 140.324c-2.762 0-5-2.239-5-5v-.115c0-2.761 2.238-5 5-5s5 2.239 5 5v.115c0 2.761-2.238 5-5 5z" fill="#6c6cff"/></g><g><path d="m256 159.47c-2.762 0-5-2.239-5-5v-.115c0-2.761 2.238-5 5-5s5 2.239 5 5v.115c0 2.761-2.238 5-5 5z" fill="#6c6cff"/></g><g><path d="m256 178.616c-2.762 0-5-2.239-5-5v-.116c0-2.761 2.238-5 5-5s5 2.239 5 5v.115c0 2.762-2.238 5.001-5 5.001z" fill="#6c6cff"/></g><g><path d="m277.774 149.897c-2.762 0-5-2.239-5-5v-.115c0-2.761 2.238-5 5-5s5 2.239 5 5v.115c0 2.761-2.238 5-5 5z" fill="#6c6cff"/></g><g><path d="m277.774 169.043c-2.762 0-5-2.239-5-5v-.115c0-2.761 2.238-5 5-5s5 2.239 5 5v.115c0 2.761-2.238 5-5 5z" fill="#6c6cff"/></g><g><path d="m299.548 159.47c-2.762 0-5-2.239-5-5v-.115c0-2.761 2.238-5 5-5s5 2.239 5 5v.115c0 2.761-2.238 5-5 5z" fill="#6c6cff"/></g><g><path d="m299.548 178.616c-2.762 0-5-2.239-5-5v-.116c0-2.761 2.238-5 5-5s5 2.239 5 5v.115c0 2.762-2.238 5.001-5 5.001z" fill="#6c6cff"/></g><g><path d="m212.452 197.762c-2.762 0-5-2.239-5-5v-.115c0-2.761 2.238-5 5-5s5 2.239 5 5v.115c0 2.761-2.238 5-5 5z" fill="#6c6cff"/></g><g><path d="m234.226 188.189c-2.762 0-5-2.239-5-5v-.115c0-2.761 2.238-5 5-5s5 2.239 5 5v.115c0 2.761-2.238 5-5 5z" fill="#6c6cff"/></g><g><path d="m234.226 207.335c-2.762 0-5-2.239-5-5v-.115c0-2.761 2.238-5 5-5s5 2.239 5 5v.115c0 2.761-2.238 5-5 5z" fill="#6c6cff"/></g><g><path d="m256 197.762c-2.762 0-5-2.239-5-5v-.115c0-2.761 2.238-5 5-5s5 2.239 5 5v.115c0 2.761-2.238 5-5 5z" fill="#6c6cff"/></g><g><path d="m256 216.908c-2.762 0-5-2.239-5-5v-.115c0-2.761 2.238-5 5-5s5 2.239 5 5v.115c0 2.761-2.238 5-5 5z" fill="#6c6cff"/></g><g><path d="m277.774 188.189c-2.762 0-5-2.239-5-5v-.115c0-2.761 2.238-5 5-5s5 2.239 5 5v.115c0 2.761-2.238 5-5 5z" fill="#6c6cff"/></g><g><path d="m277.774 207.335c-2.762 0-5-2.239-5-5v-.115c0-2.761 2.238-5 5-5s5 2.239 5 5v.115c0 2.761-2.238 5-5 5z" fill="#6c6cff"/></g><g><path d="m299.548 197.762c-2.762 0-5-2.239-5-5v-.115c0-2.761 2.238-5 5-5s5 2.239 5 5v.115c0 2.761-2.238 5-5 5z" fill="#6c6cff"/></g></g></g></g></svg>