<svg id="Capa_1" enable-background="new 0 0 512 512" height="512" viewBox="0 0 512 512" width="512" xmlns="http://www.w3.org/2000/svg" xmlns:xlink="http://www.w3.org/1999/xlink"><linearGradient id="SVGID_1_" gradientUnits="userSpaceOnUse" x1="68.572" x2="395.005" y1="429.04" y2="40.012"><stop offset="0" stop-color="#fff3ee" stop-opacity="0"/><stop offset=".2938" stop-color="#ffeade" stop-opacity=".373"/><stop offset=".7874" stop-color="#ffd6bb"/></linearGradient><g><g><path d="m16.074 301.362c18.727 64.003 72.707 194.564 163.922 182.845 91.486-11.755 55.759-129.725 139.508-145.894 36.867-7.118 61.857 56.689 98.806 54.704 47.588-2.557 71.81-49.663 85.108-89.264 28.197-83.968-14.029-226.353-112.858-251.012-86.244-21.519-96.332 83.855-171.322 53.248-42.149-17.203-37.938-68.576-89.272-78.942-155.299-31.359-138.811 189.15-113.892 274.315z" fill="url(#SVGID_1_)"/></g><g><g opacity=".1"><path d="m317.695 247.126-19.447-10.708c8.831-6.272 14.599-16.575 14.599-28.231 0-6.4-1.738-12.393-4.767-17.534-7.379-12.524-11.341-26.765-11.873-41.291l-2.233-61.052c-.354-9.672-8.297-17.33-17.975-17.33s-17.622 7.658-17.975 17.33l-1.519 41.525c-10.616-24.792-35.23-42.165-63.907-42.165-38.38 0-69.494 31.114-69.494 69.494s31.113 69.494 69.494 69.494c17.916 0 34.246-6.783 46.57-17.918.181 11.427 5.892 21.505 14.582 27.677l-19.447 10.708c-5.71 3.144-9.258 9.147-9.258 15.666v207.307c0 9.877 8.007 17.884 17.884 17.884h66.138c9.877 0 17.884-8.007 17.884-17.884v-207.307c.002-6.518-3.545-12.521-9.256-15.665z" fill="#2626bc"/><g><path d="m196.453 261.909h-18.583c-2.761 0-5-2.239-5-5s2.239-5 5-5h18.583c2.761 0 5 2.239 5 5s-2.239 5-5 5z" fill="#2626bc"/></g><g><path d="m196.453 280.29h-58.583c-2.761 0-5-2.239-5-5s2.239-5 5-5h58.583c2.761 0 5 2.239 5 5s-2.239 5-5 5z" fill="#2626bc"/></g><g><path d="m196.453 298.672h-58.583c-2.761 0-5-2.239-5-5s2.239-5 5-5h58.583c2.761 0 5 2.239 5 5s-2.239 5-5 5z" fill="#2626bc"/></g></g><g><g><path d="m298.249 211.417c8.831-6.272 14.599-16.575 14.599-28.231 0-6.4-1.738-12.393-4.767-17.534-7.379-12.524-11.341-26.764-11.873-41.291l-2.233-61.051c-.354-9.672-8.297-17.33-17.975-17.33-9.678 0-17.622 7.658-17.975 17.33l-2.233 61.051c-.531 14.526-4.494 28.767-11.873 41.291-3.029 5.141-4.767 11.134-4.767 17.534 0 11.656 5.768 21.959 14.599 28.231l-19.447 10.708c-5.71 3.144-9.258 9.147-9.258 15.666v207.307c0 9.877 8.007 17.884 17.884 17.884h66.138c9.877 0 17.884-8.007 17.884-17.884v-207.307c0-6.519-3.547-12.521-9.258-15.666z" fill="#b3b3ff"/><path d="m298.249 211.417c8.831-6.272 14.599-16.575 14.599-28.231 0-6.4-1.738-12.393-4.767-17.534-7.379-12.524-11.341-26.764-11.873-41.291l-2.233-61.051c-.354-9.672-8.297-17.33-17.975-17.33-9.678 0-17.622 7.658-17.975 17.33l-2.233 61.051c-.531 14.526-4.494 28.767-11.873 41.291-3.029 5.141-4.767 11.134-4.767 17.534 0 11.656 5.768 21.959 14.599 28.231z" fill="#d9d9ff"/><path d="m225.047 257.15h101.906v162.819h-101.906z" fill="#fff"/><path d="m225.047 257.15h101.906v39.512h-101.906z" fill="#ff6c6c"/><g><path d="m326.953 281.515h-71.193c-2.762 0-5-2.239-5-5s2.238-5 5-5h71.193z" fill="#fff"/></g><g><path d="m326.953 331.059h-71.193c-2.762 0-5-2.239-5-5s2.238-5 5-5h71.193z" fill="#6c6cff"/></g><g><path d="m326.953 349.83h-46.193c-2.762 0-5-2.239-5-5s2.238-5 5-5h46.193z" fill="#6c6cff"/></g><g><path d="m326.953 368.601h-46.193c-2.762 0-5-2.239-5-5s2.238-5 5-5h46.193z" fill="#6c6cff"/></g><g><g><path d="m249.926 408.638c-1.28 0-2.559-.488-3.536-1.465-1.953-1.953-1.953-5.118 0-7.071l5.834-5.833c1.953-1.952 5.119-1.951 7.071 0l5.833 5.833c1.953 1.953 1.953 5.119 0 7.071s-5.118 1.952-7.071 0l-2.298-2.298-2.299 2.298c-.975.977-2.254 1.465-3.534 1.465z" fill="#b3b3ff"/></g></g></g><g fill="#ff9d33"><g><path d="m174.069 340.206c-2.761 0-5-2.239-5-5v-.15c0-2.761 2.239-5 5-5s5 2.239 5 5v.15c0 2.762-2.239 5-5 5z"/><path d="m174.069 367.991c-2.761 0-5-2.239-5-5v-.15c0-2.761 2.239-5 5-5s5 2.239 5 5v.15c0 2.761-2.239 5-5 5z"/></g><g><path d="m162.098 347.116c-.846 0-1.702-.215-2.488-.667l-.13-.075c-2.394-1.376-3.218-4.433-1.841-6.827 1.376-2.394 4.432-3.218 6.827-1.841l.13.075c2.394 1.376 3.218 4.433 1.841 6.827-.925 1.608-2.608 2.508-4.339 2.508z"/><path d="m186.16 361.008c-.848 0-1.706-.216-2.493-.67l-.13-.075c-2.392-1.379-3.213-4.437-1.833-6.829 1.379-2.392 4.437-3.213 6.829-1.833l.13.075c2.392 1.379 3.213 4.437 1.833 6.829-.926 1.605-2.607 2.503-4.336 2.503z"/></g><g><path d="m161.978 361.008c-1.726 0-3.405-.895-4.332-2.496-1.384-2.39-.568-5.449 1.822-6.833l.13-.075c2.392-1.384 5.449-.567 6.833 1.822 1.384 2.39.568 5.449-1.822 6.833l-.13.075c-.79.456-1.651.674-2.501.674z"/><path d="m186.04 347.116c-1.734 0-3.419-.903-4.343-2.515-1.373-2.396-.543-5.451 1.853-6.824l.13-.075c2.395-1.374 5.451-.544 6.824 1.853 1.373 2.396.543 5.451-1.853 6.824l-.13.075c-.784.448-1.639.662-2.481.662z"/></g></g><g fill="#ff4d4d"><g><path d="m392.278 406.896c-2.762 0-5-2.239-5-5v-.15c0-2.761 2.238-5 5-5s5 2.239 5 5v.15c0 2.761-2.238 5-5 5z"/><path d="m392.278 434.68c-2.762 0-5-2.239-5-5v-.15c0-2.761 2.238-5 5-5s5 2.239 5 5v.15c0 2.761-2.238 5-5 5z"/></g><g><path d="m380.308 413.805c-.851 0-1.712-.217-2.5-.674l-.13-.075c-2.39-1.384-3.206-4.442-1.822-6.833 1.384-2.39 4.446-3.205 6.832-1.822l.13.075c2.39 1.384 3.206 4.442 1.822 6.833-.927 1.601-2.607 2.496-4.332 2.496z"/><path d="m404.369 427.697c-.851 0-1.712-.217-2.5-.674l-.13-.075c-2.39-1.384-3.206-4.442-1.822-6.833 1.384-2.389 4.445-3.204 6.832-1.822l.13.075c2.39 1.384 3.206 4.442 1.822 6.833-.927 1.601-2.606 2.496-4.332 2.496z"/></g><g><path d="m380.188 427.697c-1.727 0-3.405-.895-4.332-2.496-1.384-2.39-.567-5.449 1.822-6.833l.13-.075c2.39-1.384 5.449-.567 6.832 1.822 1.384 2.39.567 5.449-1.822 6.833l-.13.075c-.789.457-1.651.674-2.5.674z"/><path d="m404.249 413.805c-1.727 0-3.405-.895-4.332-2.496-1.384-2.39-.567-5.449 1.822-6.833l.13-.075c2.391-1.384 5.449-.567 6.832 1.822 1.384 2.39.567 5.449-1.822 6.833l-.13.075c-.788.457-1.65.674-2.5.674z"/></g></g><path d="m134.439 405.349c-2.761 0-5-2.239-5-5 0-3.492-2.841-6.333-6.333-6.333-2.761 0-5-2.239-5-5s2.239-5 5-5c3.492 0 6.333-2.841 6.333-6.333 0-2.761 2.239-5 5-5s5 2.239 5 5c0 3.492 2.841 6.333 6.333 6.333 2.761 0 5 2.239 5 5s-2.239 5-5 5c-3.492 0-6.333 2.841-6.333 6.333 0 2.761-2.239 5-5 5z" fill="#6c6cff"/><path d="m350.677 149.526c-2.762 0-5-2.239-5-5 0-3.492-2.841-6.333-6.333-6.333-2.762 0-5-2.239-5-5s2.238-5 5-5c3.492 0 6.333-2.841 6.333-6.333 0-2.761 2.238-5 5-5s5 2.239 5 5c0 3.492 2.841 6.333 6.333 6.333 2.762 0 5 2.239 5 5s-2.238 5-5 5c-3.492 0-6.333 2.841-6.333 6.333 0 2.761-2.239 5-5 5z" fill="#ff4d4d"/><path d="m373.344 369.714c-2.762 0-5-2.239-5-5 0-3.492-2.842-6.333-6.334-6.333-2.762 0-5-2.239-5-5s2.238-5 5-5c3.492 0 6.334-2.841 6.334-6.333 0-2.761 2.238-5 5-5s5 2.239 5 5c0 3.492 2.841 6.333 6.333 6.333 2.762 0 5 2.239 5 5s-2.238 5-5 5c-3.492 0-6.333 2.841-6.333 6.333 0 2.761-2.239 5-5 5z" fill="#ff9d33"/></g><g><circle cx="192.599" cy="132.164" fill="#ff4d4d" r="69.494"/><path d="m224.936 117.523h-17.696v-17.695c0-5.523-4.477-10-10-10h-9.282c-5.523 0-10 4.477-10 10v17.695h-17.695c-5.523 0-10 4.477-10 10v9.282c0 5.523 4.477 10 10 10h17.695v17.695c0 5.523 4.477 10 10 10h9.282c5.523 0 10-4.477 10-10v-17.695h17.695c5.523 0 10-4.477 10-10v-9.282c.001-5.523-4.476-10-9.999-10z" fill="#fff"/></g><g fill="#00c"><path d="m320.107 217.746-13.186-7.26c6.938-7.302 10.926-17.069 10.926-27.299 0-7.07-1.888-14.011-5.459-20.072-6.808-11.555-10.675-25.018-11.184-38.935l-2.232-61.052c-.453-12.42-10.544-22.148-22.972-22.148s-22.519 9.728-22.972 22.147l-.889 24.322c-13.605-18.07-35.229-29.778-59.539-29.778-41.076 0-74.494 33.417-74.494 74.494 0 17.104 5.944 33.81 16.736 47.039 10.636 13.039 25.502 22.179 41.859 25.737 2.702.588 5.362-1.125 5.949-3.823.587-2.699-1.125-5.362-3.823-5.949-29.39-6.393-50.721-32.891-50.721-63.004 0-35.562 28.932-64.494 64.494-64.494s64.493 28.932 64.493 64.494c0 30.382-21.554 56.931-51.25 63.127-2.703.564-4.437 3.213-3.873 5.916.492 2.359 2.571 3.979 4.89 3.979.338 0 .682-.035 1.026-.106 10.136-2.115 19.441-6.295 27.536-12.022 1.683 6.515 5.001 12.527 9.657 17.427l-13.186 7.26c-7.307 4.023-11.846 11.705-11.846 20.046v114.89c0 2.761 2.239 5 5 5s5-2.239 5-5v-114.89c0-4.696 2.556-9.021 6.669-11.286l18.321-10.088h6.968c2.762 0 5-2.239 5-5s-2.238-5-5-5h-6.579c-6.418-5.076-10.449-12.59-11.152-20.694 14.149-13.703 22.818-32.858 22.818-53.559 0-9.97-1.983-19.481-5.552-28.18l1.481-40.491c.256-7.016 5.957-12.512 12.979-12.512s12.723 5.496 12.979 12.512l2.232 61.052c.57 15.572 4.914 30.665 12.563 43.646 2.665 4.524 4.074 9.71 4.074 14.996 0 9.058-4.191 17.628-11.274 23.231h-6.658c-2.762 0-5 2.239-5 5s2.238 5 5 5h7.047l18.32 10.088c4.114 2.265 6.67 6.59 6.67 11.286v207.307c0 7.104-5.779 12.884-12.884 12.884h-66.138c-7.104 0-12.884-5.78-12.884-12.884v-63.317c0-2.761-2.239-5-5-5s-5 2.239-5 5v63.317c0 12.618 10.266 22.884 22.884 22.884h66.138c12.618 0 22.884-10.266 22.884-22.884v-207.309c0-8.341-4.539-16.022-11.846-20.045z"/><path d="m196.453 226.909h-18.583c-2.761 0-5 2.239-5 5s2.239 5 5 5h18.583c2.761 0 5-2.239 5-5s-2.239-5-5-5z"/><path d="m196.453 245.29h-58.583c-2.761 0-5 2.239-5 5s2.239 5 5 5h58.583c2.761 0 5-2.239 5-5s-2.239-5-5-5z"/><path d="m196.453 263.672h-58.583c-2.761 0-5 2.239-5 5s2.239 5 5 5h58.583c2.761 0 5-2.239 5-5s-2.239-5-5-5z"/></g></g></g></svg>