<svg id="Capa_1" enable-background="new 0 0 512 512" height="512" viewBox="0 0 512 512" width="512" xmlns="http://www.w3.org/2000/svg" xmlns:xlink="http://www.w3.org/1999/xlink"><linearGradient id="SVGID_1_" gradientUnits="userSpaceOnUse" x1="8.753" x2="524.202" y1="401.161" y2="103.566"><stop offset="0" stop-color="#fff" stop-opacity="0"/><stop offset=".2532" stop-color="#eef" stop-opacity=".403"/><stop offset=".629" stop-color="#d9d9ff"/></linearGradient><g><g><path d="m418.32 2.5c-55.666-9.521-178.298 12.183-200.004 105.017-14.431 61.722-14.007 112.075-50.427 113.02-21.67.562-32.97-44.31-62.889-48.001-39.047-4.817-66.145 27.695-83.057 57.138-37.205 64.772-25.571 174.918 23.354 228.632 118.488 130.086 259.197-5.952 319.358-112.309 38.585-68.213 125.637-123.352 143.767-200.248 15.177-64.376-18.503-131.003-90.102-143.249z" fill="url(#SVGID_1_)"/></g><g><g><path d="m430.093 214.661c-10.491-13.257-29.742-15.5-42.999-5.009l-28.024 22.176v-32.581c0-5.52-4.47-10-10-10h-183.85c-5.52 0-10 4.48-10 10v49.97h-28.95c-5.523 0-10 4.477-10 10v63.83c0 5.523 4.477 10 10 10h28.95v107.021c0 18.64 15.12 33.76 33.77 33.76h136.32c18.65 0 33.76-15.12 33.76-33.76v-29.535h4.574c2.471 0 4.474-2.003 4.474-4.474v-50.826c0-2.471-2.003-4.474-4.474-4.474h-4.574v-40.859l66.014-52.239c13.257-10.491 15.5-29.742 5.009-43z" fill="#2626bc" opacity=".1"/><g><path d="m319.437 316.262-37.99-48.008 105.647-83.601c13.257-10.491 32.509-8.248 42.999 5.009 10.491 13.257 8.248 32.509-5.009 42.999z" fill="#ffd6bb"/><path d="m359.07 174.248v240.82c0 18.64-15.11 33.76-33.76 33.76h-136.32c-18.65 0-33.77-15.12-33.77-33.76v-240.82c0-5.52 4.48-10 10-10h183.85c5.53 0 10 4.48 10 10z" fill="#ffc599"/><path d="m319.18 347.948c-2.47 0-4.47 2-4.47 4.47v50.83c0 2.47 2 4.47 4.47 4.47h39.89v-59.77zm25.65 45.38h-15.44v-30.98h15.44z" fill="#ffab66"/><path d="m325.31 448.828h-136.32c-18.65 0-33.77-15.12-33.77-33.76v-98.44z" fill="#ff9d33"/><path d="m359.075 174.243v48.91l-162.57 225.68h-7.51c-18.65 0-33.77-15.13-33.77-33.76v-240.83c0-5.52 4.48-10 10-10h183.85c5.53 0 10 4.48 10 10z" fill="#ffab66"/><path d="m249.735 261.193v63.82c0 5.53-4.48 10-10 10h-84.51v-83.82h84.51c5.52 0 10 4.47 10 10z" fill="#ff9d33"/><path d="m359.07 174.248v173.7l-203.85-74v-99.7c0-5.52 4.48-10 10-10h183.85c5.53 0 10 4.48 10 10z" fill="#ff9d33"/><path d="m359.075 174.248v17l-203.85 137.99v-154.99c0-5.52 4.48-10 10-10h183.85c5.53 0 10 4.48 10 10z" fill="#ff8b00"/><path d="m359.07 174.248v91.91l-203.85-57.86v-34.05c0-5.52 4.48-10 10-10h183.85c5.53 0 10 4.48 10 10z" fill="#ffab66"/><g fill="#ffd6bb"><path d="m209.731 164.248h-46.463v-54.897c0-12.83 10.401-23.231 23.231-23.231 12.83 0 23.231 10.401 23.231 23.231v54.897z"/><path d="m256.194 164.248h-46.463v-73.004c0-12.83 10.401-23.231 23.231-23.231 12.83 0 23.231 10.401 23.231 23.231v73.004z"/><path d="m302.656 164.248h-46.463v-104.321c0-12.83 10.401-23.231 23.231-23.231 12.83 0 23.231 10.401 23.231 23.231v104.321z"/><path d="m349.119 164.248h-46.463v-82.245c0-12.83 10.401-23.231 23.231-23.231 12.83 0 23.231 10.401 23.231 23.231v82.245z"/></g><path d="m314.706 330.233v50.826c0 2.471 2.003 4.474 4.474 4.474h44.464c2.471 0 4.474-2.003 4.474-4.474v-50.826c0-2.471-2.003-4.474-4.474-4.474h-44.464c-2.47 0-4.474 2.003-4.474 4.474zm30.12 40.903h-15.436v-30.979h15.436z" fill="#b3b3ff"/></g><g><path d="m239.73 308.048h-113.459c-5.523 0-10-4.477-10-10v-63.83c0-5.523 4.477-10 10-10h113.459c5.523 0 10 4.477 10 10v63.83c0 5.522-4.477 10-10 10z" fill="#ff4d4d"/><g fill="#00c"><path d="m434.014 186.559c-12.185-15.398-34.625-18.013-50.023-5.827l-19.917 15.761v-22.245c0-6.5-4.162-12.03-9.955-14.108v-78.137c0-15.566-12.665-28.231-28.231-28.231-6.945 0-13.309 2.526-18.231 6.701v-.546c0-15.566-12.665-28.231-28.231-28.231s-28.231 12.665-28.231 28.231v9.787c-4.923-4.175-11.286-6.701-18.231-6.701-14.465 0-26.418 10.938-28.038 24.976-4.949-4.274-11.388-6.869-18.425-6.869-15.566 0-28.231 12.665-28.231 28.231v51.619c-4.776 2.512-8.044 7.517-8.044 13.278v44.97h-23.954c-8.271 0-15 6.729-15 15v63.83c0 8.271 6.729 15 15 15h113.458c8.271 0 15-6.729 15-15v-63.83c0-8.271-6.729-15-15-15h-79.505v-44.97c0-2.757 2.243-5 5-5h137.432c2.761 0 5-2.238 5-5v-82.245c0-10.053 8.179-18.231 18.231-18.231s18.231 8.179 18.231 18.231v77.245h-12.362c-2.761 0-5 2.238-5 5s2.239 5 5 5h17.317c2.757 0 5 2.243 5 5v146.511h-34.894c-5.224 0-9.474 4.25-9.474 9.475v50.826c0 5.224 4.25 9.474 9.474 9.474h34.894v24.53c0 15.862-12.905 28.767-28.767 28.767h-136.315c-15.862 0-28.767-12.904-28.767-28.767v-77.915c0-2.762-2.239-5-5-5s-5 2.238-5 5v77.915c0 21.376 17.391 38.767 38.767 38.767h136.315c21.376 0 38.767-17.391 38.767-38.767v-24.552c5.024-.227 9.044-4.373 9.044-9.452v-50.826c0-5.08-4.02-9.226-9.044-9.453v-33.465l64.112-50.734c7.459-5.902 12.173-14.356 13.274-23.805s-1.543-18.759-7.446-26.218zm-189.284 47.659v63.83c0 2.757-2.243 5-5 5h-113.459c-2.757 0-5-2.243-5-5v-63.83c0-2.757 2.243-5 5-5h113.459c2.757 0 5 2.243 5 5zm-76.461-124.866c0-10.053 8.178-18.231 18.231-18.231s18.231 8.179 18.231 18.231v49.896h-36.462zm46.462 0v-18.108c0-10.053 8.179-18.231 18.231-18.231s18.231 8.179 18.231 18.231v68.004h-36.463v-49.896zm46.463-18.108v-31.317c0-10.053 8.178-18.231 18.231-18.231s18.231 8.179 18.231 18.231v22.076 77.245h-36.462zm58.513 239.515h43.412v49.774h-43.412zm111.821-119.139c-.792 6.795-4.182 12.874-9.546 17.119l-57.907 45.824v-65.318l26.122-20.672c11.075-8.763 27.213-6.882 35.976 4.191 4.244 5.365 6.146 12.061 5.355 18.856z"/><path d="m344.826 335.157h-15.436c-2.761 0-5 2.238-5 5v30.979c0 2.762 2.239 5 5 5h15.436c2.761 0 5-2.238 5-5v-30.979c0-2.761-2.239-5-5-5zm-5 30.979h-5.436v-20.979h5.436z"/></g><g><g><path d="m220.553 251.188h-18.583c-2.762 0-5-2.239-5-5s2.238-5 5-5h18.583c2.762 0 5 2.239 5 5s-2.238 5-5 5z" fill="#fff"/></g><g><path d="m220.553 269.57h-58.583c-2.762 0-5-2.239-5-5s2.238-5 5-5h58.583c2.762 0 5 2.239 5 5s-2.238 5-5 5z" fill="#fff"/></g><g><path d="m220.553 287.951h-58.583c-2.762 0-5-2.239-5-5s2.238-5 5-5h58.583c2.762 0 5 2.239 5 5s-2.238 5-5 5z" fill="#fff"/></g></g></g></g><path d="m104.45 179.941c-2.761 0-5-2.238-5-5 0-3.492-2.841-6.334-6.333-6.334-2.761 0-5-2.238-5-5s2.239-5 5-5c3.492 0 6.333-2.841 6.333-6.333 0-2.762 2.239-5 5-5s5 2.238 5 5c0 3.492 2.841 6.333 6.333 6.333 2.761 0 5 2.238 5 5s-2.239 5-5 5c-3.492 0-6.333 2.842-6.333 6.334 0 2.762-2.239 5-5 5z" fill="#6c6cff"/><path d="m437.904 314.284c-2.761 0-5-2.238-5-5 0-3.492-2.841-6.333-6.333-6.333-2.761 0-5-2.238-5-5s2.239-5 5-5c3.492 0 6.333-2.841 6.333-6.333 0-2.762 2.239-5 5-5s5 2.238 5 5c0 3.492 2.841 6.333 6.333 6.333 2.761 0 5 2.238 5 5s-2.239 5-5 5c-3.492 0-6.333 2.841-6.333 6.333 0 2.762-2.238 5-5 5z" fill="#6c6cff"/><path d="m116.271 424.052c-2.761 0-5-2.238-5-5 0-3.492-2.841-6.334-6.333-6.334-2.761 0-5-2.238-5-5s2.239-5 5-5c3.492 0 6.333-2.841 6.333-6.333 0-2.762 2.239-5 5-5s5 2.238 5 5c0 3.492 2.841 6.333 6.333 6.333 2.761 0 5 2.238 5 5s-2.239 5-5 5c-3.492 0-6.333 2.842-6.333 6.334 0 2.761-2.239 5-5 5z" fill="#ff9d33"/><g fill="#ff4d4d"><g><path d="m121.271 97.303c-2.761 0-5-2.238-5-5v-.15c0-2.762 2.239-5 5-5s5 2.238 5 5v.15c0 2.761-2.239 5-5 5z"/><path d="m121.271 125.087c-2.761 0-5-2.238-5-5v-.15c0-2.762 2.239-5 5-5s5 2.238 5 5v.15c0 2.762-2.239 5-5 5z"/></g><g><path d="m109.3 104.213c-.85 0-1.711-.217-2.5-.674l-.13-.075c-2.39-1.384-3.206-4.442-1.822-6.832 1.383-2.391 4.441-3.207 6.833-1.822l.13.075c2.39 1.384 3.206 4.442 1.822 6.832-.928 1.601-2.607 2.496-4.333 2.496z"/><path d="m133.362 118.104c-.848 0-1.706-.216-2.493-.67l-.13-.075c-2.392-1.38-3.213-4.438-1.833-6.829 1.38-2.393 4.437-3.213 6.829-1.833l.13.075c2.392 1.38 3.213 4.438 1.833 6.829-.926 1.606-2.607 2.503-4.336 2.503z"/></g><g><path d="m109.18 118.104c-1.726 0-3.405-.895-4.332-2.496-1.384-2.39-.568-5.448 1.822-6.832l.13-.075c2.391-1.385 5.449-.568 6.833 1.822s.568 5.448-1.822 6.832l-.13.075c-.79.458-1.651.674-2.501.674z"/><path d="m133.241 104.213c-1.729 0-3.41-.897-4.336-2.503-1.38-2.392-.559-5.449 1.833-6.829l.13-.075c2.392-1.382 5.45-.56 6.829 1.833 1.38 2.392.559 5.449-1.833 6.829l-.13.075c-.786.454-1.646.67-2.493.67z"/></g></g><g fill="#ff9d33"><g><path d="m424.605 339.131c-2.761 0-5-2.238-5-5v-.15c0-2.762 2.239-5 5-5s5 2.238 5 5v.15c0 2.762-2.239 5-5 5z"/><path d="m424.605 366.915c-2.761 0-5-2.238-5-5v-.15c0-2.762 2.239-5 5-5s5 2.238 5 5v.15c0 2.762-2.239 5-5 5z"/></g><g><path d="m412.635 346.04c-.841 0-1.694-.213-2.476-.66l-.13-.074c-2.398-1.37-3.231-4.424-1.861-6.821 1.37-2.398 4.425-3.23 6.822-1.86l.13.074c2.398 1.37 3.231 4.424 1.861 6.821-.923 1.615-2.611 2.52-4.346 2.52z"/><path d="m436.696 359.933c-.85 0-1.711-.217-2.5-.674l-.13-.075c-2.39-1.384-3.206-4.442-1.822-6.832s4.441-3.208 6.833-1.822l.13.075c2.39 1.384 3.206 4.442 1.822 6.832-.928 1.601-2.607 2.496-4.333 2.496z"/></g><g><path d="m412.514 359.933c-1.726 0-3.405-.895-4.332-2.496-1.384-2.39-.568-5.448 1.822-6.832l.13-.075c2.391-1.386 5.449-.567 6.833 1.822 1.384 2.39.568 5.448-1.822 6.832l-.13.075c-.789.457-1.651.674-2.501.674z"/><path d="m436.575 346.04c-1.736 0-3.423-.905-4.346-2.521-1.37-2.397-.537-5.451 1.861-6.821l.13-.074c2.396-1.371 5.452-.538 6.822 1.86 1.37 2.397.537 5.451-1.861 6.821l-.13.074c-.782.448-1.634.661-2.476.661z"/></g></g></g></g></svg>