<svg id="Capa_1" enable-background="new 0 0 512 512" height="512" viewBox="0 0 512 512" width="512" xmlns="http://www.w3.org/2000/svg" xmlns:xlink="http://www.w3.org/1999/xlink"><linearGradient id="SVGID_1_" gradientUnits="userSpaceOnUse" x1="137.201" x2="425.884" y1="412.085" y2="68.046"><stop offset="0" stop-color="#fff3ee" stop-opacity="0"/><stop offset=".2938" stop-color="#ffeade" stop-opacity=".373"/><stop offset=".7874" stop-color="#ffd6bb"/></linearGradient><g><g><path d="m20.337 133.512c-23.967 39.398-26.493 107.613-8.937 150.256 15.377 37.351 45.966 72.409 86.12 76.801 14.766 1.615 29.858-1.024 44.472 1.638 50.257 9.152 68.952 71.09 108.01 104.014 27.182 22.913 64.898 31.021 100.174 26.607s68.302-20.363 97.376-40.824c22.957-16.157 44.436-36.022 55.764-61.707 23.744-53.839-4.19-118.501-47.587-158.239-13.516-12.377-28.581-23.294-39.875-37.727s-18.48-33.695-13.099-51.214c4.293-13.977 15.849-24.812 20.227-38.763 5.958-18.984-3.035-40.281-17.802-53.616s-34.308-20.039-53.666-24.64c-81.103-19.28-258.823-11.524-331.177 107.414z" fill="url(#SVGID_1_)"/></g><g><path d="m432.626 342.237h-69.246v-86.368h8.134c4.214 0 7.63-3.416 7.63-7.63v-65.347c0-4.214-3.416-7.63-7.63-7.63h-8.134v-68.832c0-11.04-8.95-20-20-20h-174.76c-11.05 0-20 8.96-20 20v30.157h-8.134c-4.214 0-7.63 3.416-7.63 7.63v35.347c0 4.214 3.416 7.63 7.63 7.63h8.134v18.069h-8.134c-4.214 0-7.63 3.416-7.63 7.63v35.347c0 4.214 3.416 7.63 7.63 7.63h8.134v202.92c0 11.05 8.95 20 20 20h174.76c11.05 0 20-8.95 20-20v-32.724h69.246c5.523 0 10-4.477 10-10v-63.83c0-5.522-4.477-9.999-10-9.999z" fill="#2626bc" opacity=".1"/><g><g fill="#6c6cff"><path d="m356.755 150.262h14.759c4.214 0 7.63 3.416 7.63 7.63v65.347c0 4.214-3.416 7.63-7.63 7.63h-14.759z"/><g><path d="m155.245 111.587h-14.759c-4.214 0-7.63 3.416-7.63 7.63v35.347c0 4.214 3.416 7.63 7.63 7.63h14.759z"/><path d="m155.245 180.262h-14.759c-4.214 0-7.63 3.416-7.63 7.63v35.347c0 4.214 3.416 7.63 7.63 7.63h14.759z"/></g></g><g><g><g><path d="m363.38 81.43v352.36c0 11.05-8.95 20-20 20h-174.76c-11.05 0-20-8.95-20-20v-352.36c0-11.04 8.95-20 20-20h174.76c11.05 0 20 8.96 20 20z" fill="#fff"/></g><path d="m363.38 336.09v83.83h-44.21c-5.53 0-10-4.48-10-10v-63.83c0-5.52 4.47-10 10-10z" fill="#ffe8dc"/><path d="m295.406 89.903h-77.472c-4.245 0-8.028-2.681-9.435-6.686l-7.652-21.784h111.645l-7.652 21.784c-1.406 4.005-5.189 6.686-9.434 6.686z" fill="#6c6cff"/><g><circle cx="211.762" cy="150.446" fill="#ff4d4d" r="30.718"/><path d="m226.056 143.974h-7.822v-7.822c0-2.441-1.979-4.42-4.42-4.42h-4.103c-2.441 0-4.42 1.979-4.42 4.42v7.822h-7.822c-2.441 0-4.42 1.979-4.42 4.42v4.103c0 2.441 1.979 4.42 4.42 4.42h7.822v7.822c0 2.441 1.979 4.42 4.42 4.42h4.103c2.441 0 4.42-1.979 4.42-4.42v-7.822h7.822c2.441 0 4.42-1.979 4.42-4.42v-4.103c0-2.441-1.979-4.42-4.42-4.42z" fill="#fff"/></g><g><path d="m331.811 158.358h-66.52c-2.762 0-5-2.239-5-5s2.238-5 5-5h66.52c2.762 0 5 2.239 5 5s-2.238 5-5 5z" fill="#6c6cff"/></g><g><path d="m331.811 176.529h-66.52c-2.762 0-5-2.239-5-5s2.238-5 5-5h66.52c2.762 0 5 2.239 5 5s-2.238 5-5 5z" fill="#6c6cff"/></g><g><path d="m291.811 132.867h-26.52c-2.762 0-5-2.239-5-5s2.238-5 5-5h26.52c2.762 0 5 2.239 5 5s-2.238 5-5 5z" fill="#ff4d4d"/></g><path d="m328.883 253.5h-145.766c-2.761 0-5-2.239-5-5v-35.096c0-2.761 2.239-5 5-5h145.767c2.761 0 5 2.239 5 5v35.096c-.001 2.761-2.239 5-5.001 5z" fill="#ffab66"/><path d="m224.498 208.404h-41.381c-2.761 0-5 2.239-5 5v35.096c0 2.761 2.239 5 5 5h41.381z" fill="#ffd6bb"/><g><path d="m306.811 235.952h-61.52c-2.762 0-5-2.239-5-5s2.238-5 5-5h61.52c2.762 0 5 2.239 5 5s-2.238 5-5 5z" fill="#ffd6bb"/></g><g><g><path d="m289.26 303.546h-70.18v10h70.18c2.762 0 5-2.239 5-5s-2.239-5-5-5z" fill="#ff9494"/></g><g><path d="m259.26 283.596h-40.18v10h40.18c2.762 0 5-2.239 5-5s-2.239-5-5-5z" fill="#ff9494"/></g><path d="m223.376 288.596c0-9.161-7.453-16.613-16.613-16.613-9.161 0-16.613 7.453-16.613 16.613 0 4.518 1.818 8.615 4.755 11.613-2.936 2.998-4.755 7.095-4.755 11.613 0 2.761 2.239 5 5 5s5-2.239 5-5c0-3.646 2.967-6.613 6.613-6.613 3.647 0 6.613 2.967 6.613 6.613 0 2.761 2.239 5 5 5s5-2.239 5-5c0-4.518-1.818-8.615-4.755-11.613 2.936-2.998 4.755-7.095 4.755-11.613zm-16.614-6.614c3.647 0 6.613 2.967 6.613 6.613s-2.967 6.613-6.613 6.613-6.613-2.967-6.613-6.613 2.967-6.613 6.613-6.613z" fill="#ff4d4d"/><g><g><g><path d="m317.836 347.333h-104.77c-2.762 0-5-2.239-5-5s2.238-5 5-5h104.77c2.762 0 5 2.239 5 5s-2.238 5-5 5z" fill="#6c6cff"/></g><g><path d="m194.164 347.391c2.761 0 5-2.239 5-5v-.115c0-2.761-2.239-5-5-5s-5 2.239-5 5v.115c0 2.761 2.238 5 5 5z" fill="#ff9d33"/></g><g><path d="m329.934 293.653c2.761 0 5-2.239 5-5v-.115c0-2.761-2.239-5-5-5s-5 2.239-5 5v.115c0 2.762 2.239 5 5 5z" fill="#ff9d33"/></g><g><path d="m314.167 293.653c2.761 0 5-2.239 5-5v-.115c0-2.761-2.239-5-5-5s-5 2.239-5 5v.115c0 2.762 2.239 5 5 5z" fill="#ff9d33"/></g></g><g><g><path d="m317.836 366.854h-104.77c-2.762 0-5-2.239-5-5s2.238-5 5-5h104.77c2.762 0 5 2.239 5 5s-2.238 5-5 5z" fill="#6c6cff"/></g><g><path d="m194.164 366.912c2.761 0 5-2.239 5-5v-.115c0-2.761-2.239-5-5-5s-5 2.239-5 5v.115c0 2.761 2.238 5 5 5z" fill="#ff9d33"/></g></g><g><g><path d="m317.836 386.376h-104.77c-2.762 0-5-2.239-5-5s2.238-5 5-5h104.77c2.762 0 5 2.239 5 5s-2.238 5-5 5z" fill="#6c6cff"/></g><g><path d="m194.164 386.434c2.761 0 5-2.239 5-5v-.115c0-2.761-2.239-5-5-5s-5 2.239-5 5v.115c0 2.761 2.238 5 5 5z" fill="#ff9d33"/></g></g></g></g></g></g></g><g fill="#ff4d4d"><g><path d="m88.032 308.005c-2.762 0-5-2.238-5-5v-.149c0-2.762 2.238-5 5-5s5 2.238 5 5v.149c0 2.762-2.238 5-5 5z"/><path d="m88.032 335.789c-2.762 0-5-2.238-5-5v-.149c0-2.762 2.238-5 5-5s5 2.238 5 5v.149c0 2.762-2.238 5-5 5z"/></g><g><path d="m76.062 314.915c-.851 0-1.712-.217-2.5-.674l-.13-.075c-2.39-1.384-3.206-4.442-1.822-6.832 1.383-2.391 4.445-3.207 6.832-1.822l.13.075c2.39 1.384 3.206 4.442 1.822 6.832-.927 1.602-2.607 2.496-4.332 2.496z"/><path d="m100.123 328.807c-.851 0-1.712-.217-2.5-.674l-.13-.075c-2.39-1.384-3.206-4.442-1.822-6.832 1.383-2.391 4.444-3.206 6.832-1.822l.13.075c2.39 1.384 3.206 4.442 1.822 6.832-.927 1.601-2.606 2.496-4.332 2.496z"/></g><g><path d="m75.941 328.807c-1.727 0-3.405-.895-4.332-2.496-1.384-2.39-.567-5.448 1.822-6.832l.13-.075c2.39-1.386 5.449-.567 6.832 1.822 1.384 2.39.567 5.448-1.822 6.832l-.13.075c-.788.457-1.65.674-2.5.674z"/><path d="m100.003 314.915c-1.727 0-3.405-.895-4.332-2.496-1.384-2.39-.567-5.448 1.822-6.832l.13-.075c2.389-1.386 5.449-.567 6.832 1.822 1.384 2.39.567 5.448-1.822 6.832l-.13.075c-.788.457-1.65.674-2.5.674z"/></g></g><path d="m418.528 92.001c-2.762 0-5-2.238-5-5 0-3.492-2.841-6.334-6.333-6.334-2.762 0-5-2.238-5-5s2.238-5 5-5c3.492 0 6.333-2.841 6.333-6.333 0-2.762 2.238-5 5-5s5 2.238 5 5c0 3.492 2.842 6.333 6.334 6.333 2.762 0 5 2.238 5 5s-2.238 5-5 5c-3.492 0-6.334 2.842-6.334 6.334 0 2.762-2.238 5-5 5z" fill="#6c6cff"/><path d="m107.829 284.499c-2.762 0-5-2.238-5-5 0-3.492-2.841-6.334-6.333-6.334-2.762 0-5-2.238-5-5s2.238-5 5-5c3.492 0 6.333-2.841 6.333-6.333 0-2.762 2.238-5 5-5s5 2.238 5 5c0 3.492 2.841 6.333 6.333 6.333 2.762 0 5 2.238 5 5s-2.238 5-5 5c-3.492 0-6.333 2.842-6.333 6.334 0 2.762-2.238 5-5 5z" fill="#ff9d33"/><g fill="#ff9d33"><g><path d="m455.984 273.165c-2.762 0-5-2.238-5-5v-.149c0-2.762 2.238-5 5-5s5 2.238 5 5v.149c0 2.762-2.238 5-5 5z"/><path d="m455.984 300.949c-2.762 0-5-2.238-5-5v-.149c0-2.762 2.238-5 5-5s5 2.238 5 5v.149c0 2.762-2.238 5-5 5z"/></g><g><path d="m444.014 280.075c-.851 0-1.712-.217-2.5-.674l-.13-.075c-2.39-1.384-3.206-4.442-1.822-6.832 1.383-2.391 4.444-3.206 6.832-1.822l.13.075c2.39 1.384 3.206 4.442 1.822 6.832-.927 1.602-2.607 2.496-4.332 2.496z"/><path d="m468.075 293.967c-.851 0-1.712-.217-2.5-.674l-.13-.075c-2.39-1.384-3.206-4.442-1.822-6.832 1.384-2.392 4.445-3.207 6.832-1.822l.13.075c2.39 1.384 3.206 4.442 1.822 6.832-.927 1.601-2.606 2.496-4.332 2.496z"/></g><g><path d="m443.894 293.967c-1.727 0-3.405-.895-4.332-2.496-1.384-2.39-.567-5.448 1.822-6.832l.13-.075c2.39-1.386 5.449-.567 6.832 1.822 1.384 2.39.567 5.448-1.822 6.832l-.13.075c-.789.457-1.651.674-2.5.674z"/><path d="m467.955 280.075c-1.727 0-3.405-.895-4.332-2.496-1.384-2.39-.567-5.448 1.822-6.832l.13-.075c2.39-1.385 5.449-.567 6.832 1.822 1.384 2.39.567 5.448-1.822 6.832l-.13.075c-.788.457-1.65.674-2.5.674z"/></g></g><path d="m407.195 283.315c-2.762 0-5-2.238-5-5 0-3.492-2.841-6.333-6.333-6.333-2.762 0-5-2.238-5-5s2.238-5 5-5c3.492 0 6.333-2.841 6.333-6.333 0-2.762 2.238-5 5-5s5 2.238 5 5c0 3.492 2.841 6.333 6.333 6.333 2.762 0 5 2.238 5 5s-2.238 5-5 5c-3.492 0-6.333 2.841-6.333 6.333 0 2.762-2.238 5-5 5z" fill="#ff4d4d"/><g><path d="m308.385 438.303h-104.77c-2.762 0-5-2.239-5-5s2.238-5 5-5h104.77c2.762 0 5 2.239 5 5s-2.238 5-5 5z" fill="#6c6cff"/></g><g><g><path d="m432.626 401.066h-113.459c-5.523 0-10-4.477-10-10v-63.83c0-5.523 4.477-10 10-10h113.459c5.523 0 10 4.477 10 10v63.83c0 5.523-4.477 10-10 10z" fill="#ff9d33"/><path d="m432.626 312.236h-113.459c-8.271 0-15 6.729-15 15v63.83c0 8.271 6.729 15 15 15h39.213v27.725c0 8.271-6.729 15-15 15h-174.76c-8.271 0-15-6.729-15-15v-352.359c0-8.271 6.729-15 15-15h174.76c8.271 0 15 6.729 15 15v207.563c0 2.762 2.238 5 5 5s5-2.238 5-5v-53.127h3.134c6.964 0 12.63-5.666 12.63-12.63v-65.347c0-6.964-5.666-12.629-12.63-12.629h-3.134v-63.83c0-13.785-11.215-25-25-25h-174.76c-13.785 0-25 11.215-25 25v25.155h-3.134c-6.964 0-12.63 5.666-12.63 12.63v35.347c0 6.964 5.666 12.63 12.63 12.63h3.134v8.069h-3.134c-6.964 0-12.63 5.665-12.63 12.629v35.347c0 6.964 5.666 12.63 12.63 12.63h3.134v197.923c0 13.785 11.215 25 25 25h174.76c13.785 0 25-11.215 25-25v-27.725h9.814c2.762 0 5-2.238 5-5s-2.238-5-5-5h-59.027c-2.757 0-5-2.243-5-5v-63.83c0-2.757 2.243-5 5-5h113.459c2.757 0 5 2.243 5 5v63.83c0 2.757-2.243 5-5 5h-25.331c-2.762 0-5 2.238-5 5s2.238 5 5 5h25.331c8.271 0 15-6.729 15-15v-63.83c0-8.272-6.729-15.001-15-15.001zm-61.112-156.973c1.45 0 2.63 1.18 2.63 2.629v65.347c0 1.45-1.18 2.63-2.63 2.63h-3.134v-70.605h3.134zm-231.028 1.93c-1.45 0-2.63-1.18-2.63-2.63v-35.347c0-1.45 1.18-2.63 2.63-2.63h3.134v40.606h-3.134zm0 68.675c-1.45 0-2.63-1.18-2.63-2.63v-35.347c0-1.449 1.18-2.629 2.63-2.629h3.134v40.605h-3.134z" fill="#00c"/><g><g><path d="m413.449 344.207h-18.583c-2.762 0-5-2.239-5-5s2.238-5 5-5h18.583c2.762 0 5 2.239 5 5s-2.238 5-5 5z" fill="#fff"/></g><g><path d="m413.449 362.589h-58.583c-2.762 0-5-2.239-5-5s2.238-5 5-5h58.583c2.762 0 5 2.239 5 5s-2.238 5-5 5z" fill="#fff"/></g><g><path d="m413.449 380.97h-58.583c-2.762 0-5-2.239-5-5s2.238-5 5-5h58.583c2.762 0 5 2.239 5 5s-2.238 5-5 5z" fill="#fff"/></g></g></g></g></g></g></svg>