<svg width="11" height="9" viewBox="0 0 11 9" fill="none" xmlns="http://www.w3.org/2000/svg">
<path d="M10.7824 4.12081L7.00637 0.291805C6.95352 0.238198 6.89055 0.195631 6.82111 0.166576C6.75167 0.137521 6.67714 0.122559 6.60187 0.122559C6.52659 0.122559 6.45207 0.137521 6.38263 0.166576C6.31319 0.195631 6.25021 0.238198 6.19737 0.291805L5.85437 0.639805C5.74668 0.749015 5.68664 0.896433 5.68737 1.0498C5.68662 1.20466 5.74657 1.35364 5.85437 1.46481L8.05437 3.7038H1.05437C0.979799 3.70406 0.906026 3.71914 0.837346 3.74819C0.768666 3.77724 0.706454 3.81966 0.654334 3.87299C0.602213 3.92632 0.561227 3.98949 0.533764 4.05882C0.5063 4.12815 0.492908 4.20225 0.494368 4.27681V4.76881C0.490057 4.9232 0.547087 5.07302 0.652976 5.18547C0.758866 5.29792 0.90499 5.36384 1.05937 5.3688H8.08237L5.85437 7.6128C5.74719 7.72136 5.6871 7.86776 5.6871 8.02031C5.6871 8.17285 5.74719 8.31926 5.85437 8.42781L6.19437 8.77681C6.24721 8.83041 6.31019 8.87298 6.37963 8.90203C6.44907 8.93109 6.52359 8.94605 6.59887 8.94605C6.67414 8.94605 6.74867 8.93109 6.81811 8.90203C6.88755 8.87298 6.95052 8.83041 7.00337 8.77681L10.7794 4.94781C10.8866 4.83749 10.9467 4.68968 10.9467 4.5358C10.9467 4.38193 10.8866 4.23413 10.7794 4.12381L10.7824 4.12081Z" fill="white"/>
</svg>
