<svg width="47" height="49" viewBox="0 0 47 49" fill="none" xmlns="http://www.w3.org/2000/svg">
<path d="M43.4127 19.7088L36.3221 15.5832L38.4582 9.32972L31.7445 11.0337L29.4238 5.03667L21.2922 14.0536C20.7729 13.6526 20.1677 13.3461 19.4951 13.1674C17.7729 12.7098 16.0189 13.1977 14.7823 14.3089C14.1463 13.6084 13.3099 13.0761 12.3297 12.8157C9.61681 12.0949 6.82275 13.7176 6.10124 16.4332C5.56353 18.4569 6.32697 20.5246 7.87352 21.7456C7.53282 22.2269 7.27028 22.7753 7.11018 23.3778C6.45528 25.8426 7.7298 28.3731 9.99925 29.3586C9.88458 29.6119 9.78815 29.8771 9.71439 30.1547C9.05136 32.6501 10.3667 35.2119 12.6894 36.1704C12.4817 36.5387 12.3165 36.9389 12.2029 37.3663C11.4814 40.0819 13.1015 42.8775 15.8145 43.5983C18.5274 44.3191 21.3215 42.6963 22.043 39.9808C22.1565 39.5534 22.2119 39.124 22.2142 38.7011C24.7064 39.022 27.12 37.451 27.783 34.9556C27.8567 34.6781 27.9047 34.3998 27.9309 34.123C30.3902 34.394 32.7527 32.8298 33.4076 30.365C33.5677 29.7625 33.612 29.156 33.5551 28.5691C35.5036 28.2771 37.1927 26.861 37.7305 24.8371C38.0108 23.7822 37.9363 22.7157 37.5831 21.7629L43.4127 19.7088ZM28.2587 11.3557L29.6813 15.0323L33.2641 14.123L32.2444 17.1081L35.4179 18.9548L35.2008 19.0313C34.8641 18.8522 34.5028 18.7073 34.1186 18.6052C33.1384 18.3447 32.1482 18.3916 31.2484 18.6841C30.7264 17.1055 29.4459 15.8114 27.7237 15.3539C26.5927 15.0534 25.4482 15.1613 24.4451 15.5849L28.2587 11.3557Z" fill="white" fill-opacity="0.45"/>
</svg>
