<svg width="78" height="83" viewBox="0 0 78 83" fill="none" xmlns="http://www.w3.org/2000/svg">
<path d="M73.0224 33.699L61.0956 26.7596L64.6886 16.2409L53.3958 19.1071L49.4922 9.01977L35.8145 24.1867C34.941 23.5122 33.9231 22.9966 32.7918 22.696C29.8949 21.9263 26.9446 22.747 24.8645 24.6161C23.7947 23.4379 22.388 22.5425 20.7393 22.1045C16.176 20.892 11.4762 23.6216 10.2626 28.1892C9.35817 31.5933 10.6423 35.0713 13.2437 37.1249C12.6706 37.9346 12.229 38.8569 11.9597 39.8705C10.8581 44.0164 13.0019 48.2728 16.8193 49.9304C16.6264 50.3564 16.4642 50.8027 16.3401 51.2696C15.2249 55.467 17.4373 59.776 21.3443 61.3881C20.9949 62.0077 20.717 62.681 20.526 63.3998C19.3124 67.9675 22.0374 72.6698 26.6007 73.8823C31.164 75.0947 35.8638 72.3652 37.0774 67.7975C37.2684 67.0787 37.3616 66.3564 37.3655 65.645C41.5574 66.1847 45.6172 63.5422 46.7324 59.3448C46.8564 58.8782 46.9372 58.41 46.9812 57.9444C51.1178 58.4002 55.0916 55.7692 56.1932 51.6233C56.4625 50.6098 56.537 49.5896 56.4413 48.6025C59.7189 48.1112 62.56 45.7293 63.4645 42.325C63.936 40.5507 63.8107 38.7568 63.2166 37.1541L73.0224 33.699ZM47.5325 19.6488L49.9254 25.8329L55.9518 24.3034L54.2367 29.3245L59.5747 32.4307L59.2095 32.5594C58.6431 32.2582 58.0354 32.0144 57.3892 31.8427C55.7405 31.4046 54.0749 31.4833 52.5613 31.9754C51.6833 29.3201 49.5294 27.1435 46.6326 26.3738C44.7303 25.8683 42.8051 26.0499 41.1178 26.7624L47.5325 19.6488Z" fill="white" fill-opacity="0.65"/>
</svg>
