<svg width="42" height="42" viewBox="0 0 42 42" fill="none" xmlns="http://www.w3.org/2000/svg">
<g clip-path="url(#clip0)">
<path d="M20.9087 19.113L21.2361 19.7624L21.8914 19.4469C22.5712 19.1194 28.5742 16.2141 29.9868 15.0394C30.9047 14.2764 31.4956 13.3987 31.9029 12.1938C32.8935 9.26248 31.2096 6.9844 29.0341 6.24906C27.8369 5.84439 26.7032 5.9199 25.7436 6.45077C25.4059 5.68339 24.7057 4.786 23.2558 4.29591C20.6838 3.42653 18.2668 4.6554 17.3782 7.28426C16.9727 8.48398 16.9116 9.54055 17.1795 10.7104C17.5894 12.5003 20.5702 18.4413 20.9087 19.113Z" fill="white" fill-opacity="0.55"/>
<path d="M20.8433 22.6394L20.5159 21.99L19.8606 22.3055C19.1808 22.633 13.178 25.5382 11.7652 26.713C10.8475 27.4761 10.2565 28.3539 9.84928 29.5587C8.85843 32.4901 10.5424 34.768 12.7179 35.5033C13.9148 35.9079 15.0485 35.8323 16.0083 35.3014C16.3458 36.0689 17.046 36.9663 18.496 37.4564C21.068 38.3258 23.485 37.097 24.3736 34.4681C24.779 33.2687 24.8402 32.2121 24.5723 31.0419C24.1625 29.252 21.1818 23.3111 20.8433 22.6394Z" fill="white" fill-opacity="0.55"/>
<path d="M35.3015 25.7432C36.069 25.4056 36.9664 24.7055 37.4565 23.2555C38.3258 20.6836 37.097 18.2666 34.4682 17.3781C33.2684 16.9725 32.2118 16.9113 31.0421 17.1793C29.2522 17.5892 23.3111 20.5698 22.6394 20.9085L21.9899 21.2359L22.3055 21.8911C22.6329 22.5709 25.5382 28.574 26.7129 29.9865C27.4758 30.9042 28.3536 31.4952 29.5588 31.9025C32.49 32.8933 34.7679 31.2095 35.5033 29.034C35.908 27.8367 35.8323 26.7029 35.3015 25.7432Z" fill="white" fill-opacity="0.55"/>
<path d="M19.1127 20.8431L19.7621 20.5157L19.4466 19.8604C19.1191 19.1806 16.214 13.1776 15.0393 11.765C14.2764 10.8474 13.3986 10.2564 12.1934 9.84905C9.26215 8.85839 6.98411 10.5421 6.24876 12.7176C5.84414 13.9147 5.9198 15.0485 6.45076 16.0083C5.68328 16.3458 4.78576 17.0459 4.29562 18.4959C3.42628 21.0678 4.65515 23.4848 7.28402 24.3734C8.48388 24.7789 9.54045 24.8401 10.7102 24.5721C12.5002 24.1623 18.4412 21.1816 19.1127 20.8431Z" fill="white" fill-opacity="0.55"/>
</g>
<defs>
<clipPath id="clip0">
<rect width="32.9388" height="32.9388" fill="white" transform="translate(10.5476) rotate(18.676)"/>
</clipPath>
</defs>
</svg>
