<svg width="244" height="244" viewBox="0 0 244 244" fill="none" xmlns="http://www.w3.org/2000/svg">
<path d="M121.572 46.5166C80.1873 46.5166 46.5178 80.1861 46.5178 121.571C46.5178 162.956 80.1873 196.625 121.572 196.625C162.956 196.625 196.626 162.956 196.626 121.571C196.626 80.1861 162.957 46.5166 121.572 46.5166ZM115.535 52.3601H127.178V64.003H115.535V52.3601ZM173.989 121.571C173.989 150.474 150.475 173.988 121.572 173.988C92.6699 173.988 69.1563 150.473 69.1563 121.571C69.1563 92.6686 92.6705 69.1544 121.572 69.1544C150.475 69.1544 173.989 92.6686 173.989 121.571ZM76.7494 68.5153L84.9823 76.7482L76.7494 84.981L68.5165 76.7482L76.7494 68.5153ZM63.7889 127.392H52.1459V115.749H63.7889V127.392ZM76.7494 174.627L68.5165 166.394L76.7494 158.162L84.9823 166.394L76.7494 174.627ZM127.178 190.782H115.535V179.139H127.178V190.782ZM166.395 174.627L158.162 166.394L166.395 158.162L174.628 166.394L166.395 174.627ZM166.395 84.981L158.162 76.7482L166.395 68.5153L174.628 76.7482L166.395 84.981ZM178.925 127.392V115.749H190.568V127.392H178.925Z" fill="#85004F"/>
<circle cx="121.55" cy="121.549" r="48.5123" fill="#85004F"/>
<path d="M111.763 96.9076L112.714 94.3725L118.444 95.8242L116.495 103.516C116.048 103.656 115.522 103.736 114.916 103.757C114.309 103.777 113.683 103.753 113.036 103.684C112.404 103.619 111.806 103.514 111.241 103.371C109.636 102.965 108.329 102.285 107.32 101.334C106.326 100.386 105.659 99.2443 105.317 97.9081C104.975 96.572 105 95.131 105.392 93.5851C105.697 92.3812 106.18 91.3488 106.841 90.4881C107.506 89.6126 108.291 88.9178 109.196 88.4037C110.116 87.8934 111.107 87.5748 112.167 87.448C113.242 87.325 114.344 87.4065 115.474 87.6927C115.875 87.7944 116.342 87.9521 116.873 88.1657C117.404 88.3794 117.922 88.645 118.427 88.9627C118.935 89.2656 119.365 89.5961 119.718 89.9542L118.06 92.0966C117.392 91.6743 116.824 91.3564 116.356 91.1429C115.892 90.9146 115.37 90.727 114.79 90.5801C114.047 90.3919 113.286 90.3969 112.508 90.5953C111.73 90.7936 111.024 91.2079 110.39 91.8381C109.756 92.4684 109.296 93.3483 109.01 94.4779C108.731 95.5778 108.691 96.5483 108.889 97.3894C109.106 98.2194 109.487 98.9012 110.032 99.4347C110.58 99.9534 111.234 100.309 111.992 100.501C112.348 100.591 112.679 100.659 112.984 100.705C113.293 100.735 113.579 100.761 113.843 100.78L114.639 97.6363L111.763 96.9076ZM129.941 107.801L119.061 105.044L122.902 89.883L132.466 92.3063L132.195 95.1559L125.685 93.5065L124.821 96.9178L129.637 98.1379L129.365 100.988L124.126 99.6601L123.228 103.205L130.206 104.973L129.941 107.801ZM147.067 96.0052L146.795 98.8549L141.779 97.584L138.633 110.003L135.132 109.116L138.278 96.6971L133.752 95.5505L134.447 92.8081L147.067 96.0052ZM103.817 113.474L103.524 116.318L98.4183 115.024L96.8819 121.088L93.4038 120.207L97.2392 105.069L106.47 107.407L106.182 110.229L100.028 108.67L99.1131 112.282L103.817 113.474ZM109.155 108.064L114.751 109.481C115.851 109.76 116.818 110.187 117.653 110.762C118.503 111.342 119.111 112.065 119.476 112.933C119.856 113.804 119.902 114.812 119.612 115.957C119.378 116.878 118.959 117.626 118.355 118.201C117.769 118.764 117.078 119.15 116.282 119.36L118.245 126.501L114.343 125.512L112.845 119.533L110.125 118.844L108.792 124.106L105.314 123.225L109.155 108.064ZM113.928 112.262L111.921 111.754L110.825 116.079L112.876 116.599C113.605 116.784 114.254 116.75 114.824 116.499C115.408 116.252 115.787 115.786 115.96 115.103C116.152 114.345 116.061 113.736 115.687 113.278C115.317 112.804 114.73 112.466 113.928 112.262ZM131.174 129.776L120.293 127.02L124.135 111.859L133.699 114.282L133.428 117.132L126.918 115.482L126.054 118.894L130.869 120.114L130.598 122.963L125.359 121.636L124.461 125.181L131.439 126.949L131.174 129.776ZM144.325 133.108L133.444 130.352L137.285 115.191L146.85 117.614L146.579 120.464L140.069 118.814L139.205 122.225L144.02 123.446L143.749 126.295L138.51 124.968L137.612 128.513L144.59 130.281L144.325 133.108ZM98.4211 127.886L96.7632 130.028C96.3141 129.74 95.9299 129.509 95.6106 129.333C95.3062 129.161 95.011 129.015 94.7251 128.895C94.4391 128.775 94.1029 128.666 93.7164 128.568C93.0178 128.391 92.3185 128.435 91.6185 128.701C90.9223 128.952 90.2924 129.409 89.7287 130.073C89.1799 130.74 88.7756 131.587 88.5158 132.613C88.271 133.579 88.2254 134.477 88.379 135.307C88.5326 136.136 88.852 136.842 89.3374 137.424C89.8265 137.991 90.4426 138.368 91.1858 138.557C91.7804 138.707 92.3566 138.774 92.9145 138.757C93.4724 138.74 93.9932 138.683 94.477 138.584L95.1371 141.503C94.456 141.694 93.6841 141.776 92.8214 141.747C91.9587 141.718 91.178 141.615 90.4794 141.438C88.8593 141.028 87.5691 140.345 86.6089 139.39C85.6674 138.424 85.0481 137.278 84.751 135.953C84.4726 134.617 84.5217 133.206 84.8983 131.72C85.2937 130.159 85.9616 128.865 86.902 127.838C87.8424 126.811 88.9621 126.106 90.2612 125.723C91.579 125.33 92.981 125.321 94.4674 125.698C95.0768 125.852 95.7528 126.118 96.4954 126.496C97.2528 126.878 97.8947 127.341 98.4211 127.886ZM105.075 128.694L108.353 129.524L110.309 145.964L106.774 145.495L106.434 141.684L100.927 140.289L98.9154 143.267L95.4373 142.386L105.075 128.694ZM106.109 138.66L105.518 133.504L102.609 137.773L106.109 138.66ZM111.612 145.464L113.304 142.998C113.545 143.233 113.853 143.485 114.228 143.754C114.607 144.008 115.013 144.245 115.447 144.466C115.882 144.687 116.3 144.848 116.701 144.95C117.459 145.142 118.065 145.153 118.519 144.983C118.989 144.817 119.276 144.526 119.381 144.11C119.445 143.858 119.372 143.586 119.161 143.295C118.965 143.008 118.694 142.702 118.349 142.378C118.008 142.038 117.662 141.689 117.309 141.331C116.864 140.902 116.418 140.449 115.969 139.972C115.536 139.498 115.147 139.004 114.802 138.49C114.458 137.975 114.207 137.437 114.049 136.875C113.891 136.313 113.891 135.72 114.049 135.096C114.267 134.297 114.671 133.64 115.26 133.125C115.853 132.595 116.596 132.253 117.489 132.1C118.401 131.935 119.421 131.996 120.551 132.282C121.309 132.474 122.054 132.782 122.785 133.204C123.516 133.627 124.128 134.082 124.622 134.571L122.907 136.842C122.332 136.427 121.824 136.093 121.382 135.838C120.944 135.569 120.435 135.361 119.856 135.214C119.306 135.075 118.822 135.079 118.405 135.226C118.007 135.363 117.757 135.632 117.655 136.033C117.58 136.33 117.633 136.62 117.814 136.904C117.996 137.187 118.251 137.489 118.581 137.81C118.93 138.12 119.295 138.457 119.677 138.823C120.133 139.271 120.585 139.733 121.034 140.211C121.501 140.677 121.906 141.167 122.251 141.682C122.595 142.196 122.839 142.732 122.982 143.29C123.14 143.852 123.14 144.446 122.982 145.07C122.771 145.902 122.352 146.587 121.726 147.124C121.099 147.662 120.301 148.005 119.33 148.154C118.358 148.304 117.256 148.222 116.022 147.91C115.562 147.793 115.042 147.598 114.462 147.325C113.898 147.055 113.358 146.752 112.842 146.416C112.326 146.079 111.916 145.762 111.612 145.464ZM136.878 152.885L133.4 152.004L134.964 145.828L129.323 144.399L127.759 150.575L124.281 149.693L128.122 134.532L131.634 135.28L130.024 141.634L135.665 143.063L137.241 136.843L140.719 137.724L136.878 152.885ZM141.265 148.16L143.474 137.758L147.019 138.656L143.781 149.841L141.265 148.16ZM142.19 150.316C142.695 150.444 143.081 150.732 143.348 151.179C143.614 151.626 143.681 152.109 143.549 152.63C143.418 153.15 143.128 153.543 142.681 153.81C142.238 154.061 141.763 154.123 141.258 153.995C140.738 153.863 140.343 153.581 140.073 153.149C139.806 152.702 139.739 152.218 139.871 151.698C140.003 151.177 140.292 150.784 140.739 150.518C141.186 150.251 141.67 150.184 142.19 150.316Z" fill="white"/>
</svg>
