<svg width="41" height="42" viewBox="0 0 41 42" fill="none" xmlns="http://www.w3.org/2000/svg">
<path d="M25.5647 13.5763C25.4834 12.7143 25.2652 11.8731 24.9121 11.0635C23.1079 6.92691 18.3057 5.01575 14.2074 6.80328C10.1091 8.5908 8.2427 13.4105 10.0469 17.5471C10.4 18.3567 10.8681 19.0889 11.4446 19.735C7.54423 21.617 5.80476 26.3088 7.56695 30.349C9.37118 34.4856 14.1733 36.3967 18.2716 34.6092C20.1712 33.7807 21.5906 32.3003 22.3879 30.5387L23.1756 36.7121L29.981 33.7438L25.9509 28.9169C27.8063 29.5615 29.8917 29.541 31.8213 28.6994C35.9196 26.9119 37.786 22.0922 35.9818 17.9555C34.2196 13.9153 29.5976 11.9982 25.5647 13.5763Z" fill="white" fill-opacity="0.6"/>
</svg>
