<svg width="64" height="63" viewBox="0 0 64 63" fill="none" xmlns="http://www.w3.org/2000/svg">
<path d="M47.9016 21.8442C48.4593 20.1724 48.7407 18.4281 48.7407 16.6332C48.7407 7.46167 41.2308 0 32 0C22.7692 0 15.2593 7.46167 15.2593 16.6332C15.2593 18.4281 15.5407 20.1724 16.0984 21.8442C7.16415 22.181 0 29.5076 0 38.4653C0 47.6368 7.50993 55.0985 16.7407 55.0985C21.0193 55.0985 24.9271 53.4941 27.8898 50.8604L24.285 63H39.6133L35.971 50.7341C38.9499 53.4423 42.9132 55.0985 47.2593 55.0985C56.4901 55.0985 64 47.6368 64 38.4653C64 29.5076 56.8359 22.181 47.9016 21.8442Z" fill="white" fill-opacity="0.6"/>
</svg>
