<svg width="49" height="66" viewBox="0 0 49 66" fill="none" xmlns="http://www.w3.org/2000/svg">
<path d="M29.604 13.2764C24.5376 13.2764 20.4165 17.3975 20.4165 22.4639C20.4165 27.5303 24.5376 31.6514 29.604 31.6514C34.6704 31.6514 38.7916 27.5303 38.7916 22.4639C38.7916 17.3975 34.6704 13.2764 29.604 13.2764ZM29.604 29.6098C25.6646 29.6098 22.4582 26.4033 22.4582 22.4639C22.4582 18.5245 25.6646 15.318 29.604 15.318C33.5434 15.318 36.7499 18.5245 36.7499 22.4639C36.7499 26.4033 33.5434 29.6098 29.604 29.6098Z" fill="#17A3E0"/>
<path d="M32.6669 21.4375H30.6252V19.3958C30.6252 18.8313 30.1689 18.375 29.6043 18.375C29.0398 18.375 28.5835 18.8313 28.5835 19.3958V21.4375H26.5418C25.9773 21.4375 25.521 21.8938 25.521 22.4583C25.521 23.0229 25.9773 23.4792 26.5418 23.4792H28.5835V25.5209C28.5835 26.0854 29.0398 26.5417 29.6043 26.5417C30.1689 26.5417 30.6252 26.0854 30.6252 25.5209V23.4792H32.6669C33.2314 23.4792 33.6877 23.0229 33.6877 22.4583C33.6877 21.8938 33.2314 21.4375 32.6669 21.4375Z" fill="#17A3E0"/>
<path d="M41.8541 0H17.3541C15.6656 0 14.2916 1.37405 14.2916 3.06251V20.529C12.9941 19.2019 11.1862 18.3751 9.18737 18.3751C8.62285 18.3751 8.16653 18.8314 8.16653 19.3959V51.3369L7.48053 51.099C7.43562 51.0827 7.38968 51.0888 7.34374 51.0796C7.27739 51.0663 7.21103 51.052 7.14468 51.0531C7.07832 51.0531 7.01707 51.0653 6.95276 51.0776C6.88845 51.0898 6.82618 51.1021 6.76493 51.1276C6.7047 51.1511 6.65468 51.1858 6.59955 51.2205C6.5434 51.2562 6.49032 51.2909 6.44234 51.3389C6.39436 51.3848 6.35863 51.4389 6.31984 51.4941C6.2933 51.5339 6.25553 51.5614 6.23307 51.6053L0.108049 63.8554C-0.144097 64.3597 0.0600707 64.9732 0.564364 65.2253C0.710344 65.2988 0.866531 65.3335 1.01966 65.3335C1.3943 65.3335 1.75466 65.1273 1.93433 64.769L7.65816 53.3214L28.2219 60.4733C28.2229 60.4744 28.225 60.4744 28.227 60.4754L29.1927 60.8112L27.6706 63.8554C27.4185 64.3597 27.6227 64.9732 28.127 65.2253C28.2729 65.2988 28.4291 65.3335 28.5822 65.3335C28.9569 65.3335 29.3173 65.1273 29.4969 64.769L31.5386 60.6857C31.5478 60.6673 31.5457 60.6489 31.5539 60.6316C31.5641 60.6081 31.5804 60.5887 31.5896 60.5642C31.6049 60.5203 31.5988 60.4754 31.608 60.4305C31.6233 60.3621 31.6366 60.2947 31.6356 60.2263C31.6356 60.161 31.6233 60.0997 31.6121 60.0354C31.5988 59.9711 31.5876 59.9088 31.5621 59.8476C31.5365 59.7863 31.5029 59.7353 31.4671 59.6802C31.4314 59.625 31.3977 59.573 31.3508 59.525C31.3038 59.477 31.2487 59.4403 31.1935 59.4015C31.1548 59.3759 31.1272 59.3372 31.0833 59.3157C31.0619 59.3055 31.0394 59.3065 31.019 59.2973C30.9975 59.2892 30.9843 59.2718 30.9618 59.2647L30.3738 59.0605L41.2866 46.9585H41.8541C43.5426 46.9585 44.9167 45.5844 44.9167 43.896C47.1686 43.896 49 42.0646 49 39.8126C49 38.5866 48.4457 37.4984 47.5882 36.7501C48.4457 36.0008 49 34.9126 49 33.6866C49 32.4616 48.4467 31.3724 47.5892 30.6241C48.4467 29.8758 49 28.7866 49 27.5616C49 26.3366 48.4467 25.2484 47.5892 24.5001C48.4467 23.7508 49 22.6626 49 21.4376C49 19.1856 47.1686 17.3542 44.9167 17.3542V3.06251C44.9167 1.37405 43.5426 0 41.8541 0V0ZM28.2791 58.3337L10.2082 52.0474V20.5209C12.5347 20.9945 14.2916 23.0566 14.2916 25.5209V43.896C14.2916 45.5844 15.6656 46.9585 17.3541 46.9585H38.5385L28.2791 58.3337ZM41.8541 44.9168H17.3541C16.7906 44.9168 16.3332 44.4595 16.3332 43.896V3.06251C16.3332 2.49901 16.7906 2.04167 17.3541 2.04167H41.8541C42.4176 2.04167 42.875 2.49901 42.875 3.06251V17.4992C41.1181 17.9555 39.8125 19.5409 39.8125 21.4376C39.8125 22.6636 40.3668 23.7518 41.2243 24.5001C40.3668 25.2494 39.8125 26.3376 39.8125 27.5636C39.8125 28.7886 40.3658 29.8778 41.2233 30.6261C40.3658 31.3744 39.8125 32.4636 39.8125 33.6886C39.8125 34.9136 40.3658 36.0019 41.2233 36.7501C40.3658 37.4994 39.8125 38.5876 39.8125 39.8126C39.8125 41.7093 41.1181 43.2947 42.875 43.751V43.896C42.875 44.4595 42.4176 44.9168 41.8541 44.9168ZM44.9167 41.8543H43.8958C42.7698 41.8543 41.8541 40.9386 41.8541 39.8126C41.8541 38.6887 42.7678 37.774 43.8907 37.771C43.8928 37.771 43.8938 37.772 43.8958 37.772C43.8979 37.772 43.8989 37.771 43.9009 37.771H44.9167C46.0426 37.771 46.9583 38.6866 46.9583 39.8126C46.9583 40.9386 46.0426 41.8543 44.9167 41.8543ZM46.9583 33.6866C46.9583 34.8126 46.0426 35.7283 44.9167 35.7283C44.9146 35.7283 44.9136 35.7293 44.9115 35.7293H43.8958C43.8938 35.7293 43.8928 35.7293 43.8907 35.7293C42.7678 35.7272 41.8541 34.8126 41.8541 33.6886C41.8541 32.5626 42.7698 31.647 43.8958 31.647C43.8999 31.647 43.9019 31.6449 43.906 31.6449H44.9167C46.0426 31.6449 46.9583 32.5606 46.9583 33.6866ZM43.8958 29.6032C43.8938 29.6032 43.8917 29.6043 43.8887 29.6043C42.7678 29.6012 41.8541 28.6876 41.8541 27.5636C41.8541 26.4376 42.7698 25.5219 43.8958 25.5219H44.9167C44.9187 25.5219 44.9207 25.5209 44.9238 25.5209C46.0447 25.524 46.9583 26.4376 46.9583 27.5616C46.9583 28.6876 46.0426 29.6032 44.9167 29.6032H43.8958ZM46.9583 21.4376C46.9583 22.5615 46.0447 23.4762 44.9218 23.4792C44.9197 23.4792 44.9187 23.4782 44.9167 23.4782C44.9126 23.4782 44.9105 23.4803 44.9064 23.4803H43.9009C43.8989 23.4803 43.8979 23.4792 43.8958 23.4792C42.7698 23.4792 41.8541 22.5636 41.8541 21.4376C41.8541 20.3116 42.7698 19.3959 43.8958 19.3959H44.9167C46.0426 19.3959 46.9583 20.3116 46.9583 21.4376Z" fill="$style1"/>
<path d="M9.20807 58.187C8.64457 58.187 8.19336 58.6433 8.19336 59.2078C8.19336 59.7724 8.65478 60.2287 9.2193 60.2287C9.7828 60.2287 10.2401 59.7724 10.2401 59.2078C10.2401 58.6433 9.7828 58.187 9.2193 58.187H9.20807Z" fill="#17A3E0"/>
<path d="M29.604 37.771C27.9155 37.771 26.5415 39.145 26.5415 40.8335C26.5415 42.522 27.9155 43.896 29.604 43.896C31.2925 43.896 32.6665 42.522 32.6665 40.8335C32.6665 39.145 31.2925 37.771 29.604 37.771ZM29.604 41.8543C29.0405 41.8543 28.5832 41.397 28.5832 40.8335C28.5832 40.27 29.0405 39.8127 29.604 39.8127C30.1675 39.8127 30.6249 40.27 30.6249 40.8335C30.6249 41.397 30.1675 41.8543 29.604 41.8543Z" fill="#17A3E0"/>
<path d="M26.5723 6.12566C27.1358 6.12566 27.5931 5.66934 27.5931 5.10482C27.5931 4.5403 27.1358 4.08398 26.5723 4.08398H26.5621C25.9986 4.08398 25.5474 4.5403 25.5474 5.10482C25.5474 5.66934 26.0088 6.12566 26.5723 6.12566Z" fill="#17A3E0"/>
<path d="M29.6043 6.12566H32.6668C33.2314 6.12566 33.6877 5.66934 33.6877 5.10482C33.6877 4.5403 33.2314 4.08398 32.6668 4.08398H29.6043C29.0398 4.08398 28.5835 4.5403 28.5835 5.10482C28.5835 5.66934 29.0398 6.12566 29.6043 6.12566Z" fill="#17A3E0"/>
</svg>
