<svg width="17" height="17" viewBox="0 0 17 17" fill="none" xmlns="http://www.w3.org/2000/svg">
<path d="M8.5 17C13.1944 17 17 13.1944 17 8.5C17 3.80558 13.1944 0 8.5 0C3.80558 0 0 3.80558 0 8.5C0 13.1944 3.80558 17 8.5 17Z" fill="#F7573D"/>
<path d="M9.9298 4.42981C10.1812 4.89717 10.3068 5.42182 10.2944 5.95234C10.2819 6.48287 10.1319 7.00106 9.85897 7.45616L9.84269 7.48308C9.83309 7.49836 9.82928 7.51657 9.83197 7.53442C9.83465 7.55226 9.84366 7.56855 9.85732 7.58033C9.87099 7.59212 9.88841 7.59861 9.90646 7.59863C9.9245 7.59866 9.94196 7.59222 9.95566 7.58047C10.1025 7.45793 10.2449 7.32807 10.3828 7.19089C10.502 7.07165 10.6156 6.94887 10.7235 6.82256C10.752 6.78914 10.7884 6.76341 10.8294 6.74775C10.8704 6.73208 10.9146 6.72697 10.9581 6.7329C11.0016 6.73883 11.0429 6.75559 11.0782 6.78165C11.1135 6.80772 11.1417 6.84225 11.1602 6.88206C11.866 8.39789 12.4263 9.86449 12.4263 10.7003C12.4275 11.2397 12.3219 11.774 12.1156 12.2723C11.9093 12.7707 11.6065 13.2233 11.2244 13.6041C10.8424 13.9849 10.3888 14.2863 9.88979 14.4909C9.39075 14.6956 8.85614 14.7994 8.31677 14.7965C7.77741 14.7936 7.24394 14.6839 6.74715 14.4739C6.25035 14.2639 5.80005 13.9576 5.42218 13.5727C5.04431 13.1878 4.74636 12.7319 4.54549 12.2313C4.34462 11.7308 4.24481 11.1954 4.25181 10.6561C4.25179 9.43319 4.72849 8.25849 5.58065 7.38143L6.31801 6.62245C7.55155 5.35301 8.27015 3.671 8.33465 1.90212C8.33521 1.88271 8.34206 1.86401 8.35421 1.84886C8.36636 1.8337 8.38311 1.82293 8.40194 1.81816C8.42077 1.81339 8.44064 1.8149 8.45853 1.82244C8.47643 1.82999 8.49137 1.84317 8.5011 1.85997C8.76495 2.31295 9.31993 3.27947 9.93158 4.43122L9.9298 4.42981Z" fill="#FAB03B"/>
<path d="M8.63036 3.77937C8.88171 4.24674 9.00732 4.77139 8.9949 5.30191C8.98249 5.83243 8.83248 6.35063 8.55954 6.80573L8.54679 6.82662C8.53714 6.8421 8.53333 6.86052 8.53607 6.87856C8.5388 6.89659 8.5479 6.91306 8.56171 6.92498C8.57551 6.9369 8.59314 6.9435 8.61138 6.94358C8.62962 6.94367 8.64727 6.93723 8.66119 6.92544C8.80616 6.80431 8.94678 6.67563 9.08301 6.53939C9.12032 6.50209 9.157 6.46443 9.19313 6.42642C9.24974 6.36673 9.32019 6.32189 9.39823 6.29584C9.47626 6.26979 9.55952 6.26335 9.64064 6.27706C9.72175 6.29078 9.79824 6.32424 9.86337 6.3745C9.9285 6.42476 9.98024 6.49026 10.0141 6.56525C10.0571 6.65969 10.0993 6.75414 10.1409 6.84858C10.2715 6.45215 10.3203 6.03335 10.2844 5.61751C10.2485 5.20167 10.1286 4.79744 9.93194 4.42927C9.32029 3.27752 8.76529 2.311 8.50144 1.85802C8.49171 1.84121 8.47679 1.82804 8.4589 1.82049C8.441 1.81294 8.42113 1.81144 8.40231 1.81621C8.38348 1.82097 8.36672 1.83175 8.35458 1.8469C8.34243 1.86205 8.33555 1.88075 8.33499 1.90017C8.32159 2.2681 8.27979 2.63446 8.20996 2.99596C8.34525 3.24387 8.48728 3.50631 8.63213 3.77902L8.63036 3.77937Z" fill="#FF9C00"/>
<path d="M11.1586 6.88056C11.1402 6.84074 11.112 6.80622 11.0767 6.78016C11.0413 6.75409 11 6.73733 10.9566 6.7314C10.9131 6.72548 10.8688 6.73058 10.8278 6.74625C10.7868 6.76191 10.7504 6.78764 10.7219 6.82106C10.614 6.94714 10.5005 7.06991 10.3812 7.18939L10.3147 7.25526C10.791 8.38399 11.1246 9.40399 11.1246 10.0489C11.1246 10.5948 11.0153 11.1351 10.8031 11.638C10.5909 12.1409 10.2802 12.5962 9.88914 12.977C9.49813 13.3578 9.03479 13.6565 8.52648 13.8554C8.01817 14.0543 7.47517 14.1493 6.92953 14.135C6.58405 14.1262 6.24112 14.0732 5.90918 13.977C6.57962 14.4815 7.3909 14.7639 8.22968 14.7848C8.77532 14.7992 9.31832 14.7042 9.82663 14.5053C10.3349 14.3064 10.7983 14.0077 11.1893 13.6269C11.5803 13.2461 11.8911 12.7908 12.1033 12.2879C12.3155 11.785 12.4248 11.2447 12.4248 10.6988C12.4248 9.86299 11.8645 8.39639 11.1586 6.88056Z" fill="#FF9C00"/>
<path d="M6.6377 11.7029C6.63771 11.9446 6.68926 12.1834 6.78888 12.4036C6.88851 12.6238 7.03392 12.8202 7.21544 12.9797C7.39696 13.1393 7.61041 13.2582 7.84155 13.3288C8.07269 13.3993 8.31621 13.4198 8.55587 13.3887C9.98033 13.2117 10.553 11.4224 9.4845 10.3227C8.83369 9.77406 8.42409 8.992 8.34372 8.14459C8.34242 8.13002 8.33663 8.11621 8.32716 8.10506C8.31769 8.09391 8.30499 8.08597 8.29083 8.08232C8.27666 8.07867 8.26172 8.07949 8.24805 8.08468C8.23437 8.08987 8.22264 8.09917 8.21445 8.11129C7.71225 8.90817 6.6377 10.4927 6.6377 11.7029Z" fill="#F5F7F8"/>
<path d="M9.4843 10.3227C8.83363 9.774 8.42415 8.99195 8.34388 8.14459C8.34257 8.13002 8.33679 8.11621 8.32732 8.10506C8.31785 8.09391 8.30517 8.08597 8.291 8.08232C8.27684 8.07867 8.26188 8.07949 8.2482 8.08468C8.23452 8.08987 8.22279 8.09917 8.21461 8.11129C8.08286 8.32025 7.91181 8.58376 7.73083 8.88055C7.94594 9.23319 8.20807 9.5549 8.51 9.8368C9.57852 10.9347 9.00583 12.7254 7.58137 12.9028C7.43175 12.9216 7.2803 12.9209 7.13086 12.9007C7.31471 13.0863 7.53893 13.2271 7.78606 13.3119C8.03319 13.3967 8.29656 13.4234 8.55568 13.3898C9.98013 13.2127 10.5525 11.4235 9.4843 10.3238V10.3227Z" fill="#FCF24D"/>
</svg>
