<svg width="211" height="51" viewBox="0 0 211 51" fill="none" xmlns="http://www.w3.org/2000/svg">
<path d="M12.1929 12.793C10.0382 12.793 8.10761 13.2837 6.40094 14.265C4.69427 15.225 3.36094 16.5797 2.40094 18.329C1.44094 20.057 0.960938 22.0197 0.960938 24.217C0.960938 26.3077 1.41961 28.2063 2.33694 29.913C3.25427 31.6197 4.55561 32.9743 6.24094 33.977C7.94761 34.9583 9.93161 35.449 12.1929 35.449C14.3902 35.449 16.3422 34.969 18.0489 34.009C19.7556 33.0277 21.0782 31.673 22.0169 29.945C22.9769 28.1957 23.4569 26.2117 23.4569 23.993C23.4569 21.9023 22.9982 20.0037 22.0809 18.297C21.1849 16.5903 19.8836 15.2463 18.1769 14.265C16.4916 13.2837 14.4969 12.793 12.1929 12.793ZM6.94494 24.185C6.94494 22.905 7.17961 21.7743 7.64894 20.793C8.13961 19.7903 8.77961 19.0223 9.56894 18.489C10.3796 17.9343 11.2756 17.657 12.2569 17.657C13.8356 17.657 15.0942 18.2543 16.0329 19.449C16.9929 20.6223 17.4729 22.137 17.4729 23.993C17.4729 26.105 16.9716 27.737 15.9689 28.889C14.9876 30.0197 13.7182 30.585 12.1609 30.585C10.5396 30.585 9.25961 29.9877 8.32094 28.793C7.40361 27.5983 6.94494 26.0623 6.94494 24.185Z" fill="#EC028D"/>
<path d="M36.6928 35.0017C38.7194 35.0017 40.5221 34.5537 42.1008 33.6577C43.6794 32.7617 44.9061 31.4817 45.7808 29.8177C46.6554 28.1537 47.0928 26.2124 47.0928 23.9937C47.0928 21.903 46.6981 20.047 45.9088 18.4257C45.1194 16.8044 43.9461 15.535 42.3888 14.6177C40.8528 13.7004 38.9968 13.2417 36.8208 13.2417H26.9648V35.0017H36.6928ZM36.5328 17.8177C37.9621 17.8177 39.0714 18.3937 39.8608 19.5457C40.6714 20.6764 41.0768 22.159 41.0768 23.9937C41.0768 26.063 40.6288 27.6524 39.7328 28.7617C38.8581 29.871 37.7168 30.4257 36.3088 30.4257H32.7888V17.8177H36.5328ZM60.349 35.0017C62.3757 35.0017 64.1783 34.5537 65.757 33.6577C67.3357 32.7617 68.5623 31.4817 69.437 29.8177C70.3117 28.1537 70.749 26.2124 70.749 23.9937C70.749 21.903 70.3543 20.047 69.565 18.4257C68.7757 16.8044 67.6023 15.535 66.045 14.6177C64.509 13.7004 62.653 13.2417 60.477 13.2417H50.621V35.0017H60.349ZM60.189 17.8177C61.6183 17.8177 62.7277 18.3937 63.517 19.5457C64.3277 20.6764 64.733 22.159 64.733 23.9937C64.733 26.063 64.285 27.6524 63.389 28.7617C62.5143 29.871 61.373 30.4257 59.965 30.4257H56.445V17.8177H60.189ZM72.7732 33.6577C73.6053 34.1484 74.7146 34.5644 76.1013 34.9057C77.5093 35.247 78.7786 35.4177 79.9093 35.4177C81.6586 35.4177 83.1839 35.1404 84.4853 34.5857C85.8079 34.031 86.8213 33.2737 87.5253 32.3137C88.2293 31.3537 88.5813 30.255 88.5813 29.0177C88.5813 27.9084 88.2613 26.9164 87.6213 26.0417C87.0026 25.1457 86.2453 24.3777 85.3493 23.7377C84.4533 23.0764 83.3333 22.3617 81.9893 21.5937L80.8373 20.9537C80.0693 20.5484 79.5146 20.2284 79.1733 19.9937C78.8533 19.7377 78.6933 19.4497 78.6933 19.1297C78.6933 18.703 78.8853 18.3404 79.2693 18.0417C79.6746 17.743 80.1973 17.5937 80.8373 17.5937C81.5626 17.5937 82.2239 17.6577 82.8213 17.7857C83.4399 17.9137 84.3146 18.1697 85.4453 18.5537L87.1733 14.6177C86.3413 14.063 85.3386 13.6257 84.1653 13.3057C83.0133 12.9857 81.8826 12.8257 80.7733 12.8257C79.1519 12.8257 77.7333 13.0924 76.5173 13.6257C75.3013 14.159 74.3519 14.9057 73.6693 15.8657C73.0079 16.8044 72.6773 17.871 72.6773 19.0657C72.6773 20.1964 72.9973 21.2097 73.6373 22.1057C74.2773 23.0017 75.0026 23.7377 75.8133 24.3137C76.6239 24.8684 77.7546 25.5724 79.2053 26.4257L80.1973 27.0017C81.0293 27.4924 81.6266 27.8764 81.9893 28.1537C82.3733 28.4097 82.5653 28.6764 82.5653 28.9537C82.5653 29.3804 82.3093 29.775 81.7973 30.1377C81.2853 30.479 80.6026 30.6497 79.7493 30.6497C78.9813 30.6497 78.0853 30.511 77.0613 30.2337C76.0586 29.935 75.2693 29.615 74.6933 29.2737L72.7732 33.6577ZM90.2732 33.6577C91.1053 34.1484 92.2146 34.5644 93.6013 34.9057C95.0093 35.247 96.2786 35.4177 97.4093 35.4177C99.1586 35.4177 100.684 35.1404 101.986 34.5857C103.308 34.031 104.322 33.2737 105.026 32.3137C105.73 31.3537 106.082 30.255 106.082 29.0177C106.082 27.9084 105.762 26.9164 105.122 26.0417C104.503 25.1457 103.746 24.3777 102.85 23.7377C101.954 23.0764 100.834 22.3617 99.4893 21.5937L98.3373 20.9537C97.5693 20.5484 97.0146 20.2284 96.6733 19.9937C96.3533 19.7377 96.1933 19.4497 96.1933 19.1297C96.1933 18.703 96.3853 18.3404 96.7693 18.0417C97.1746 17.743 97.6973 17.5937 98.3373 17.5937C99.0626 17.5937 99.7239 17.6577 100.322 17.7857C100.94 17.9137 101.815 18.1697 102.946 18.5537L104.674 14.6177C103.842 14.063 102.839 13.6257 101.666 13.3057C100.514 12.9857 99.3826 12.8257 98.2733 12.8257C96.6519 12.8257 95.2333 13.0924 94.0173 13.6257C92.8013 14.159 91.8519 14.9057 91.1693 15.8657C90.5079 16.8044 90.1773 17.871 90.1773 19.0657C90.1773 20.1964 90.4973 21.2097 91.1373 22.1057C91.7773 23.0017 92.5026 23.7377 93.3133 24.3137C94.1239 24.8684 95.2546 25.5724 96.7053 26.4257L97.6973 27.0017C98.5293 27.4924 99.1266 27.8764 99.4893 28.1537C99.8733 28.4097 100.066 28.6764 100.066 28.9537C100.066 29.3804 99.8093 29.775 99.2973 30.1377C98.7853 30.479 98.1026 30.6497 97.2493 30.6497C96.4813 30.6497 95.5853 30.511 94.5613 30.2337C93.5586 29.935 92.7693 29.615 92.1933 29.2737L90.2732 33.6577ZM125.214 35.0017L124.67 30.4257H115.102V26.3617H122.334L121.79 21.7857H115.102V17.8177H124.254L123.71 13.2417H109.278V35.0017H125.214ZM144.339 35.0017L143.795 30.4257H134.227V26.3617H141.459L140.915 21.7857H134.227V17.8177H143.379L142.835 13.2417H128.403V35.0017H144.339ZM160.616 35.0017L155.048 26.8737L153.352 28.4737V35.0017H147.528V13.2417H153.352V20.7937L162.088 12.7617L166.6 16.0257L159.208 22.9377L168.008 35.0017H160.616ZM186.839 35.0017L186.295 30.4257H176.727V26.3617H183.959L183.415 21.7857H176.727V17.8177H185.879L185.335 13.2417H170.903V35.0017H186.839ZM190.028 35.0017H195.852V28.1537H199.724L203.244 35.0017H209.996L205.196 26.4257C206.113 25.807 206.828 25.0177 207.34 24.0577C207.873 23.0764 208.14 21.9457 208.14 20.6657C208.14 18.191 207.297 16.335 205.612 15.0977C203.926 13.8604 201.782 13.2417 199.18 13.2417H190.028V35.0017ZM198.988 17.8177C199.99 17.8177 200.758 18.063 201.292 18.5537C201.846 19.023 202.124 19.727 202.124 20.6657C202.124 21.519 201.836 22.223 201.26 22.7777C200.684 23.311 199.948 23.5777 199.052 23.5777H195.852V17.8177H198.988Z" fill="white"/>
<path d="M23.5 12.6992H12.5V17.6992H23.5V12.6992Z" fill="#EC028D"/>
<path d="M11.5 30.5H0.5V35.5H11.5V30.5Z" fill="#EC028D"/>
</svg>
