<svg width="211" height="51" viewBox="0 0 211 51" fill="none" xmlns="http://www.w3.org/2000/svg">
<path d="M12.192 12.792C10.0373 12.792 8.10667 13.2827 6.4 14.264C4.69333 15.224 3.36 16.5787 2.4 18.328C1.44 20.056 0.96 22.0187 0.96 24.216C0.96 26.3067 1.41867 28.2053 2.336 29.912C3.25333 31.6187 4.55467 32.9733 6.24 33.976C7.94667 34.9573 9.93067 35.448 12.192 35.448C14.3893 35.448 16.3413 34.968 18.048 34.008C19.7547 33.0267 21.0773 31.672 22.016 29.944C22.976 28.1947 23.456 26.2107 23.456 23.992C23.456 21.9013 22.9973 20.0027 22.08 18.296C21.184 16.5893 19.8827 15.2453 18.176 14.264C16.4907 13.2827 14.496 12.792 12.192 12.792ZM6.944 24.184C6.944 22.904 7.17867 21.7733 7.648 20.792C8.13867 19.7893 8.77867 19.0213 9.568 18.488C10.3787 17.9333 11.2747 17.656 12.256 17.656C13.8347 17.656 15.0933 18.2533 16.032 19.448C16.992 20.6213 17.472 22.136 17.472 23.992C17.472 26.104 16.9707 27.736 15.968 28.888C14.9867 30.0187 13.7173 30.584 12.16 30.584C10.5387 30.584 9.25867 29.9867 8.32 28.792C7.40267 27.5973 6.944 26.0613 6.944 24.184Z" fill="#EC028D"/>
<path d="M36.6943 35C38.7209 35 40.5236 34.552 42.1023 33.656C43.6809 32.76 44.9076 31.48 45.7823 29.816C46.6569 28.152 47.0943 26.2107 47.0943 23.992C47.0943 21.9013 46.6996 20.0453 45.9103 18.424C45.1209 16.8027 43.9476 15.5333 42.3903 14.616C40.8543 13.6987 38.9983 13.24 36.8223 13.24H26.9663V35H36.6943ZM36.5343 17.816C37.9636 17.816 39.0729 18.392 39.8623 19.544C40.6729 20.6747 41.0783 22.1573 41.0783 23.992C41.0783 26.0613 40.6303 27.6507 39.7343 28.76C38.8596 29.8693 37.7183 30.424 36.3103 30.424H32.7903V17.816H36.5343ZM60.3505 35C62.3772 35 64.1798 34.552 65.7585 33.656C67.3372 32.76 68.5638 31.48 69.4385 29.816C70.3132 28.152 70.7505 26.2107 70.7505 23.992C70.7505 21.9013 70.3558 20.0453 69.5665 18.424C68.7772 16.8027 67.6038 15.5333 66.0465 14.616C64.5105 13.6987 62.6545 13.24 60.4785 13.24H50.6225V35H60.3505ZM60.1905 17.816C61.6198 17.816 62.7292 18.392 63.5185 19.544C64.3292 20.6747 64.7345 22.1573 64.7345 23.992C64.7345 26.0613 64.2865 27.6507 63.3905 28.76C62.5158 29.8693 61.3745 30.424 59.9665 30.424H56.4465V17.816H60.1905ZM72.7747 33.656C73.6068 34.1467 74.7161 34.5627 76.1028 34.904C77.5108 35.2453 78.7801 35.416 79.9108 35.416C81.6601 35.416 83.1854 35.1387 84.4868 34.584C85.8094 34.0293 86.8228 33.272 87.5268 32.312C88.2308 31.352 88.5828 30.2533 88.5828 29.016C88.5828 27.9067 88.2628 26.9147 87.6228 26.04C87.0041 25.144 86.2468 24.376 85.3508 23.736C84.4548 23.0747 83.3348 22.36 81.9908 21.592L80.8388 20.952C80.0708 20.5467 79.5161 20.2267 79.1748 19.992C78.8548 19.736 78.6948 19.448 78.6948 19.128C78.6948 18.7013 78.8868 18.3387 79.2708 18.04C79.6761 17.7413 80.1988 17.592 80.8388 17.592C81.5641 17.592 82.2254 17.656 82.8228 17.784C83.4414 17.912 84.3161 18.168 85.4468 18.552L87.1748 14.616C86.3428 14.0613 85.3401 13.624 84.1668 13.304C83.0148 12.984 81.8841 12.824 80.7748 12.824C79.1534 12.824 77.7348 13.0907 76.5188 13.624C75.3028 14.1573 74.3534 14.904 73.6708 15.864C73.0094 16.8027 72.6788 17.8693 72.6788 19.064C72.6788 20.1947 72.9988 21.208 73.6388 22.104C74.2788 23 75.0041 23.736 75.8148 24.312C76.6254 24.8667 77.7561 25.5707 79.2068 26.424L80.1988 27C81.0308 27.4907 81.6281 27.8747 81.9908 28.152C82.3748 28.408 82.5668 28.6747 82.5668 28.952C82.5668 29.3787 82.3108 29.7733 81.7988 30.136C81.2868 30.4773 80.6041 30.648 79.7508 30.648C78.9828 30.648 78.0868 30.5093 77.0628 30.232C76.0601 29.9333 75.2708 29.6133 74.6948 29.272L72.7747 33.656ZM90.2747 33.656C91.1068 34.1467 92.2161 34.5627 93.6028 34.904C95.0108 35.2453 96.2801 35.416 97.4108 35.416C99.1601 35.416 100.685 35.1387 101.987 34.584C103.309 34.0293 104.323 33.272 105.027 32.312C105.731 31.352 106.083 30.2533 106.083 29.016C106.083 27.9067 105.763 26.9147 105.123 26.04C104.504 25.144 103.747 24.376 102.851 23.736C101.955 23.0747 100.835 22.36 99.4908 21.592L98.3388 20.952C97.5708 20.5467 97.0161 20.2267 96.6748 19.992C96.3548 19.736 96.1948 19.448 96.1948 19.128C96.1948 18.7013 96.3868 18.3387 96.7708 18.04C97.1761 17.7413 97.6988 17.592 98.3388 17.592C99.0641 17.592 99.7254 17.656 100.323 17.784C100.941 17.912 101.816 18.168 102.947 18.552L104.675 14.616C103.843 14.0613 102.84 13.624 101.667 13.304C100.515 12.984 99.3841 12.824 98.2748 12.824C96.6534 12.824 95.2348 13.0907 94.0188 13.624C92.8028 14.1573 91.8534 14.904 91.1708 15.864C90.5094 16.8027 90.1788 17.8693 90.1788 19.064C90.1788 20.1947 90.4988 21.208 91.1388 22.104C91.7788 23 92.5041 23.736 93.3148 24.312C94.1254 24.8667 95.2561 25.5707 96.7068 26.424L97.6988 27C98.5308 27.4907 99.1281 27.8747 99.4908 28.152C99.8748 28.408 100.067 28.6747 100.067 28.952C100.067 29.3787 99.8108 29.7733 99.2988 30.136C98.7868 30.4773 98.1041 30.648 97.2508 30.648C96.4828 30.648 95.5868 30.5093 94.5628 30.232C93.5601 29.9333 92.7708 29.6133 92.1948 29.272L90.2747 33.656ZM125.215 35L124.671 30.424H115.103V26.36H122.335L121.791 21.784H115.103V17.816H124.255L123.711 13.24H109.279V35H125.215ZM144.34 35L143.796 30.424H134.228V26.36H141.46L140.916 21.784H134.228V17.816H143.38L142.836 13.24H128.404V35H144.34ZM160.617 35L155.049 26.872L153.353 28.472V35H147.529V13.24H153.353V20.792L162.089 12.76L166.601 16.024L159.209 22.936L168.009 35H160.617ZM186.84 35L186.296 30.424H176.728V26.36H183.96L183.416 21.784H176.728V17.816H185.88L185.336 13.24H170.904V35H186.84ZM190.029 35H195.853V28.152H199.725L203.245 35H209.997L205.197 26.424C206.114 25.8053 206.829 25.016 207.341 24.056C207.874 23.0747 208.141 21.944 208.141 20.664C208.141 18.1893 207.298 16.3333 205.613 15.096C203.927 13.8587 201.783 13.24 199.181 13.24H190.029V35ZM198.989 17.816C199.991 17.816 200.759 18.0613 201.293 18.552C201.847 19.0213 202.125 19.7253 202.125 20.664C202.125 21.5173 201.837 22.2213 201.261 22.776C200.685 23.3093 199.949 23.576 199.053 23.576H195.853V17.816H198.989Z" fill="black"/>
<rect x="12.5" y="12.6992" width="11" height="5" fill="#EC028D"/>
<rect x="0.5" y="30.5" width="11" height="5" fill="#EC028D"/>
</svg>
