<svg width="20" height="15" viewBox="0 0 20 15" fill="none" xmlns="http://www.w3.org/2000/svg">
<path d="M10.1367 3.47083C9.17833 3.63 8.71833 4.49833 9.11083 5.41083C9.52583 6.37333 10.7117 6.99 11.6892 6.74667C12.555 6.5325 12.955 5.70333 12.58 4.83417C12.1875 3.92167 11.0933 3.31167 10.1367 3.47083ZM11.3733 5.96917L11.46 6.16L11.2775 6.1975L11.1967 6.015C11.0083 6.04917 10.795 6.04417 10.5975 5.9925L10.5433 5.67C10.7058 5.695 10.9083 5.71833 11.0625 5.68667L11.1667 5.6525C11.3508 5.56167 11.2933 5.33 11.02 5.275C10.8158 5.23 10.2758 5.26333 10.0742 4.815C9.96083 4.56167 10.045 4.2975 10.3708 4.17667L10.2808 3.9775L10.4617 3.94L10.5483 4.13083C10.6808 4.10917 10.8358 4.10083 11.0175 4.11667L11.09 4.43583C10.9483 4.41833 10.7958 4.40167 10.6633 4.42917L10.6133 4.4425C10.3558 4.51083 10.4383 4.755 10.6667 4.81417C11.0442 4.90167 11.495 4.93 11.6733 5.32417C11.8175 5.645 11.65 5.86417 11.3733 5.96917ZM19.9667 6.85L16.8283 0C11.68 3.33667 5.98917 -0.265 1.86917 3.71167L5.00667 10.5617C9.42167 6.81833 15.4392 10.3633 19.9667 6.85ZM17.6308 5.30667C17.3183 5.74083 17.0867 6.2375 16.9483 6.7575C13.9542 7.66917 10.3725 6.59 6.93333 7.79167C6.3775 7.49667 5.68083 7.31167 5.10917 7.32833L4.16333 5.25583C4.52333 4.81833 4.80667 4.15167 4.92833 3.51083C7.76083 2.48917 11.305 3.64 15.0933 2.34333C15.5275 2.63167 16.035 2.84083 16.535 2.94417L17.6308 5.30667ZM20 10.0083C14.2858 13.2925 9.6675 8.82167 3.75 15L0 6.69167L1.16833 5.4725L4.34083 12.4775L4.33917 12.4833C10.5433 7.82083 13.6683 11.5033 19.43 8.68083C19.675 9.22083 19.9008 9.79083 20 10.0083Z" fill="#EC028D"/>
</svg>
