<svg width="210" height="24" viewBox="0 0 210 24" fill="none" xmlns="http://www.w3.org/2000/svg">
<path d="M12.192 23.448C9.888 23.448 7.89333 22.9467 6.208 21.944C4.52267 20.9413 3.22133 19.5867 2.304 17.88C1.408 16.1733 0.96 14.2853 0.96 12.216C0.96 9.976 1.44 8.00267 2.4 6.296C3.36 4.568 4.68267 3.224 6.368 2.264C8.07467 1.28267 10.016 0.792 12.192 0.792C14.56 0.792 16.576 1.29333 18.24 2.296C19.9253 3.29867 21.216 4.64267 22.112 6.328C23.008 8.01333 23.456 9.90133 23.456 11.992C23.456 14.232 22.976 16.216 22.016 17.944C21.0773 19.672 19.7547 21.0267 18.048 22.008C16.3627 22.968 14.4107 23.448 12.192 23.448ZM12.16 18.584C13.6533 18.584 14.912 18.04 15.936 16.952C16.96 15.8427 17.472 14.1893 17.472 11.992C17.472 10.776 17.2587 9.69867 16.832 8.76C16.4267 7.8 15.8293 7.04267 15.04 6.488C14.272 5.93333 13.344 5.656 12.256 5.656C11.296 5.656 10.4107 5.93333 9.6 6.488C8.78933 7.02133 8.13867 7.77867 7.648 8.76C7.17867 9.72 6.944 10.8613 6.944 12.184C6.944 13.4 7.14667 14.4987 7.552 15.48C7.97867 16.44 8.576 17.1973 9.344 17.752C10.1333 18.3067 11.072 18.584 12.16 18.584Z" fill="#EC028D"/>
<path d="M36.6943 23H26.9663V1.24H36.8223C39.0623 1.24 40.9396 1.70933 42.4543 2.648C43.9903 3.58667 45.1423 4.86667 45.9103 6.488C46.6996 8.088 47.0943 9.92267 47.0943 11.992C47.0943 14.2533 46.6463 16.2053 45.7503 17.848C44.8756 19.4907 43.6596 20.76 42.1023 21.656C40.5449 22.552 38.7423 23 36.6943 23ZM36.5343 5.816H32.7903V18.424H36.3103C37.6543 18.424 38.7849 17.8907 39.7023 16.824C40.6196 15.7573 41.0783 14.1467 41.0783 11.992C41.0783 10.2 40.6836 8.728 39.8943 7.576C39.1263 6.40267 38.0063 5.816 36.5343 5.816ZM60.3505 23H50.6225V1.24H60.4785C62.7185 1.24 64.5958 1.70933 66.1105 2.648C67.6465 3.58667 68.7985 4.86667 69.5665 6.488C70.3558 8.088 70.7505 9.92267 70.7505 11.992C70.7505 14.2533 70.3025 16.2053 69.4065 17.848C68.5318 19.4907 67.3158 20.76 65.7585 21.656C64.2012 22.552 62.3985 23 60.3505 23ZM60.1905 5.816H56.4465V18.424H59.9665C61.3105 18.424 62.4412 17.8907 63.3585 16.824C64.2758 15.7573 64.7345 14.1467 64.7345 11.992C64.7345 10.2 64.3398 8.728 63.5505 7.576C62.7825 6.40267 61.6625 5.816 60.1905 5.816ZM72.7747 21.656L74.6948 17.272C75.0788 17.4853 75.5588 17.6987 76.1348 17.912C76.7321 18.1253 77.3508 18.3067 77.9908 18.456C78.6521 18.584 79.2388 18.648 79.7508 18.648C80.6681 18.648 81.3614 18.4667 81.8308 18.104C82.3214 17.7413 82.5668 17.3573 82.5668 16.952C82.5668 16.696 82.3961 16.44 82.0548 16.184C81.7348 15.9067 81.3188 15.6293 80.8068 15.352C80.2948 15.0533 79.7614 14.744 79.2068 14.424C78.5028 13.9973 77.7668 13.5493 76.9988 13.08C76.2521 12.6107 75.5481 12.088 74.8868 11.512C74.2254 10.936 73.6921 10.2853 73.2868 9.56C72.8814 8.81333 72.6788 7.98133 72.6788 7.064C72.7001 5.86933 73.0308 4.80267 73.6708 3.864C74.3321 2.92533 75.2708 2.18933 76.4868 1.656C77.7028 1.10133 79.1321 0.823999 80.7748 0.823999C81.8628 0.823999 82.9828 0.983999 84.1348 1.304C85.3081 1.60267 86.3214 2.04 87.1748 2.616L85.4468 6.552C84.6788 6.27467 84.0388 6.072 83.5268 5.944C83.0361 5.816 82.5881 5.73067 82.1828 5.688C81.7774 5.624 81.3294 5.592 80.8388 5.592C80.1774 5.592 79.6548 5.752 79.2708 6.072C78.8868 6.37067 78.6948 6.72267 78.6948 7.128C78.6948 7.59733 79.0254 8.00267 79.6868 8.344C80.3694 8.68533 81.1374 9.10133 81.9908 9.592C82.7588 10.04 83.5268 10.5093 84.2948 11C85.0841 11.4907 85.7988 12.0347 86.4388 12.632C87.0788 13.2293 87.5908 13.8907 87.9748 14.616C88.3801 15.32 88.5828 16.12 88.5828 17.016C88.5828 18.232 88.2308 19.3307 87.5268 20.312C86.8441 21.272 85.8521 22.0293 84.5508 22.584C83.2494 23.1387 81.7028 23.416 79.9108 23.416C79.1854 23.416 78.3748 23.3413 77.4788 23.192C76.5828 23.0427 75.7188 22.84 74.8868 22.584C74.0548 22.3067 73.3508 21.9973 72.7747 21.656ZM90.2747 21.656L92.1948 17.272C92.5788 17.4853 93.0588 17.6987 93.6348 17.912C94.2321 18.1253 94.8508 18.3067 95.4908 18.456C96.1521 18.584 96.7388 18.648 97.2508 18.648C98.1681 18.648 98.8614 18.4667 99.3308 18.104C99.8214 17.7413 100.067 17.3573 100.067 16.952C100.067 16.696 99.8961 16.44 99.5548 16.184C99.2348 15.9067 98.8188 15.6293 98.3068 15.352C97.7948 15.0533 97.2614 14.744 96.7068 14.424C96.0028 13.9973 95.2668 13.5493 94.4988 13.08C93.7521 12.6107 93.0481 12.088 92.3868 11.512C91.7254 10.936 91.1921 10.2853 90.7868 9.56C90.3814 8.81333 90.1788 7.98133 90.1788 7.064C90.2001 5.86933 90.5308 4.80267 91.1708 3.864C91.8321 2.92533 92.7708 2.18933 93.9868 1.656C95.2028 1.10133 96.6321 0.823999 98.2748 0.823999C99.3628 0.823999 100.483 0.983999 101.635 1.304C102.808 1.60267 103.821 2.04 104.675 2.616L102.947 6.552C102.179 6.27467 101.539 6.072 101.027 5.944C100.536 5.816 100.088 5.73067 99.6828 5.688C99.2774 5.624 98.8294 5.592 98.3388 5.592C97.6774 5.592 97.1548 5.752 96.7708 6.072C96.3868 6.37067 96.1948 6.72267 96.1948 7.128C96.1948 7.59733 96.5254 8.00267 97.1868 8.344C97.8694 8.68533 98.6374 9.10133 99.4908 9.592C100.259 10.04 101.027 10.5093 101.795 11C102.584 11.4907 103.299 12.0347 103.939 12.632C104.579 13.2293 105.091 13.8907 105.475 14.616C105.88 15.32 106.083 16.12 106.083 17.016C106.083 18.232 105.731 19.3307 105.027 20.312C104.344 21.272 103.352 22.0293 102.051 22.584C100.749 23.1387 99.2028 23.416 97.4108 23.416C96.6854 23.416 95.8748 23.3413 94.9788 23.192C94.0828 23.0427 93.2188 22.84 92.3868 22.584C91.5548 22.3067 90.8508 21.9973 90.2747 21.656ZM125.215 23H109.279V1.24H123.711L124.255 5.816H115.103V9.784H121.791L122.335 14.36H115.103V18.424H124.671L125.215 23ZM144.34 23H128.404V1.24H142.836L143.38 5.816H134.228V9.784H140.916L141.46 14.36H134.228V18.424H143.796L144.34 23ZM160.617 23L155.049 14.872L153.353 16.472V23H147.529V1.24H153.353V8.792L162.089 0.759998L166.601 4.024L159.209 10.936L168.009 23H160.617ZM186.84 23H170.904V1.24H185.336L185.88 5.816H176.728V9.784H183.416L183.96 14.36H176.728V18.424H186.296L186.84 23ZM190.029 1.24H199.181C200.802 1.24 202.285 1.496 203.629 2.008C204.994 2.52 206.082 3.32 206.893 4.408C207.725 5.496 208.141 6.91467 208.141 8.664C208.141 9.98667 207.863 11.128 207.309 12.088C206.775 13.048 206.071 13.8267 205.197 14.424L209.997 23H203.245L199.725 16.152H195.853V23H190.029V1.24ZM198.989 5.816H195.853V11.576H199.053C199.949 11.576 200.685 11.3093 201.261 10.776C201.837 10.2213 202.125 9.51733 202.125 8.664C202.125 7.704 201.847 6.98933 201.293 6.52C200.738 6.05067 199.97 5.816 198.989 5.816Z" fill="black"/>
</svg>
