<svg width="73" height="72" viewBox="0 0 73 72" fill="none" xmlns="http://www.w3.org/2000/svg">
<path d="M68.7354 27.1567C65.8257 22.2734 59.6643 16.2556 50.4225 9.26941C46.8141 6.54203 43.4918 4.24848 41.3394 2.80456C37.1593 3.06689e-07 37.0375 0 36.5241 0C36.012 0 35.8906 0 31.7121 2.78976C29.5584 4.22822 26.2325 6.51341 22.6219 9.23403C13.3688 16.2057 7.18984 22.2358 4.2578 27.1564C1.27329 32.1648 0 36.7937 0 42.635C0 57.435 10.9874 64.1758 21.196 64.1758C25.6741 64.1758 29.0467 63.0519 31.5686 61.5121L28.7768 72H44.1117L41.2911 61.4044C43.8267 62.9991 47.2456 64.1758 51.8185 64.1758C62.0201 64.1758 73 57.435 73 42.635C73 36.8024 71.7248 32.1734 68.7354 27.1567Z" fill="white" fill-opacity="0.6"/>
</svg>
