<svg width="28" height="21" viewBox="0 0 28 21" fill="none" xmlns="http://www.w3.org/2000/svg">
<path d="M0 0V20.5073H27.9094V0H0ZM8.37281 16.867H1.94152V3.7617H8.37281V16.867ZM17.1097 16.867H10.6784V3.7617H17.1097V16.867ZM25.8465 16.867H19.4152V3.7617H25.8465V16.867Z" fill="white" fill-opacity="0.6"/>
<path d="M22.0848 8.49372H23.0944L21.0883 12.6499L22.1609 13.4299L24.9994 7.28027H20.75V8.97911H22.0848V8.49372Z" fill="white" fill-opacity="0.6"/>
<path d="M13.1053 8.49372H14.1149L12.1088 12.6499L13.1814 13.4299L16.0199 7.28027H11.7705V8.97911H13.1053V8.49372Z" fill="white" fill-opacity="0.6"/>
<path d="M4.36849 8.49372H5.37808L3.372 12.6499L4.44457 13.4299L7.28308 7.28027H3.03369V8.97911H4.36849V8.49372Z" fill="white" fill-opacity="0.6"/>
<path d="M6.4313 4.49023H3.88306V5.94638H6.4313V4.49023Z" fill="white" fill-opacity="0.6"/>
<path d="M15.0468 4.49023H12.4985V5.94638H15.0468V4.49023Z" fill="white" fill-opacity="0.6"/>
<path d="M23.9049 4.49023H21.3567V5.94638H23.9049V4.49023Z" fill="white" fill-opacity="0.6"/>
<path d="M6.4313 14.5615H3.88306V16.0177H6.4313V14.5615Z" fill="white" fill-opacity="0.6"/>
<path d="M15.0468 14.5615H12.4985V16.0177H15.0468V14.5615Z" fill="white" fill-opacity="0.6"/>
<path d="M23.9049 14.5615H21.3567V16.0177H23.9049V14.5615Z" fill="white" fill-opacity="0.6"/>
</svg>
