<svg width="36" height="36" viewBox="0 0 36 36" fill="none" xmlns="http://www.w3.org/2000/svg">
<path d="M18 36C27.9411 36 36 27.9411 36 18C36 8.05887 27.9411 0 18 0C8.05887 0 0 8.05887 0 18C0 27.9411 8.05887 36 18 36Z" fill="#F7573D"/>
<path d="M21.0286 9.38105C21.5609 10.3708 21.8269 11.4818 21.8006 12.6053C21.7743 13.7287 21.4566 14.8261 20.8786 15.7898L20.8441 15.8468C20.8238 15.8792 20.8158 15.9177 20.8214 15.9555C20.8271 15.9933 20.8462 16.0278 20.8751 16.0528C20.9041 16.0777 20.941 16.0915 20.9792 16.0915C21.0174 16.0916 21.0544 16.0779 21.0834 16.0531C21.3944 15.7936 21.6959 15.5186 21.9879 15.2281C22.2404 14.9756 22.4809 14.7156 22.7094 14.4481C22.7696 14.3773 22.8467 14.3228 22.9336 14.2896C23.0204 14.2565 23.1141 14.2456 23.2062 14.2582C23.2983 14.2707 23.3858 14.3062 23.4605 14.3614C23.5353 14.4166 23.595 14.4897 23.6341 14.5741C25.1289 17.7841 26.3154 20.8898 26.3154 22.6598C26.3178 23.802 26.0942 24.9334 25.6574 25.9888C25.2206 27.0441 24.5792 28.0026 23.7702 28.809C22.9612 29.6153 22.0007 30.2536 20.9439 30.6869C19.8871 31.1203 18.755 31.3403 17.6128 31.3341C16.4706 31.3279 15.3409 31.0957 14.2889 30.6509C13.2368 30.2061 12.2833 29.5575 11.4831 28.7424C10.6829 27.9274 10.0519 26.962 9.62655 25.902C9.20119 24.8419 8.9898 23.7082 9.00464 22.5661C9.00461 19.9765 10.0141 17.4888 11.8186 15.6316L13.3801 14.0243C15.9923 11.3361 17.5141 7.77416 17.6506 4.0283C17.6518 3.9872 17.6664 3.9476 17.6921 3.91551C17.7178 3.88342 17.7533 3.8606 17.7931 3.85051C17.833 3.84041 17.8751 3.8436 17.913 3.85958C17.9509 3.87556 17.9825 3.90346 18.0031 3.93905C18.5619 4.8983 19.7371 6.94505 21.0324 9.38405L21.0286 9.38105Z" fill="#FAB03B"/>
<path d="M18.2731 8.0039C18.8053 8.99362 19.0713 10.1046 19.045 11.2281C19.0187 12.3516 18.7011 13.4489 18.1231 14.4126L18.0961 14.4569C18.0757 14.4897 18.0676 14.5287 18.0734 14.5669C18.0792 14.6051 18.0985 14.6399 18.1277 14.6652C18.1569 14.6904 18.1943 14.7044 18.2329 14.7046C18.2715 14.7048 18.3089 14.6911 18.3383 14.6661C18.6453 14.4096 18.9431 14.1371 19.2316 13.8486C19.3106 13.7696 19.3883 13.6899 19.4648 13.6094C19.5847 13.483 19.7339 13.388 19.8991 13.3329C20.0644 13.2777 20.2407 13.2641 20.4125 13.2931C20.5842 13.3222 20.7462 13.393 20.8842 13.4995C21.0221 13.6059 21.1316 13.7446 21.2033 13.9034C21.2943 14.1034 21.3838 14.3034 21.4718 14.5034C21.7484 13.6639 21.8518 12.777 21.7757 11.8964C21.6996 11.0158 21.4458 10.1598 21.0294 9.38015C19.7341 6.94115 18.5588 4.89439 18.0001 3.93514C17.9795 3.89955 17.9479 3.87165 17.91 3.85567C17.8721 3.83969 17.83 3.83651 17.7901 3.8466C17.7503 3.8567 17.7148 3.87952 17.6891 3.9116C17.6633 3.94369 17.6488 3.98329 17.6476 4.0244C17.6192 4.80356 17.5307 5.57937 17.3828 6.3449C17.6693 6.8699 17.9701 7.42565 18.2768 8.00315L18.2731 8.0039Z" fill="#FF9C00"/>
<path d="M23.6282 14.5709C23.5891 14.4866 23.5294 14.4135 23.4546 14.3583C23.3798 14.3031 23.2924 14.2676 23.2003 14.2551C23.1082 14.2425 23.0144 14.2533 22.9276 14.2865C22.8408 14.3197 22.7637 14.3742 22.7035 14.4449C22.475 14.7119 22.2345 14.9719 21.982 15.2249L21.841 15.3644C22.8497 17.7547 23.5562 19.9147 23.5562 21.2804C23.5562 22.4363 23.3247 23.5805 22.8754 24.6454C22.426 25.7104 21.7679 26.6746 20.9399 27.4811C20.1119 28.2876 19.1307 28.92 18.0542 29.3412C16.9778 29.7623 15.8279 29.9636 14.6725 29.9332C13.9408 29.9147 13.2147 29.8023 12.5117 29.5987C13.9315 30.667 15.6495 31.2651 17.4257 31.3094C18.5812 31.3399 19.7311 31.1386 20.8075 30.7174C21.8839 30.2963 22.8651 29.6638 23.6931 28.8573C24.5211 28.0508 25.1793 27.0867 25.6286 26.0217C26.078 24.9567 26.3094 23.8126 26.3094 22.6567C26.3094 20.8867 25.123 17.7809 23.6282 14.5709Z" fill="#FF9C00"/>
<path d="M14.0908 24.8389C14.099 25.3505 14.2162 25.8546 14.4345 26.3174C14.6529 26.7803 14.9674 27.1912 15.3571 27.5229C15.7469 27.8546 16.2028 28.0993 16.6946 28.2409C17.1864 28.3824 17.7027 28.4175 18.2091 28.3438C21.2193 27.9208 22.3716 24.113 20.0721 21.8206C18.6756 20.6808 17.7819 19.0387 17.5832 17.2471C17.58 17.2163 17.5673 17.1872 17.5468 17.1639C17.5264 17.1406 17.4992 17.1243 17.4691 17.117C17.439 17.1098 17.4074 17.112 17.3786 17.1235C17.3498 17.1349 17.3253 17.155 17.3084 17.1809C16.2719 18.8851 14.05 22.2764 14.0908 24.8389Z" fill="#F5F7F8"/>
<path d="M20.0853 21.8604C18.7074 20.6985 17.8403 19.0423 17.6703 17.2479C17.6675 17.2171 17.6553 17.1878 17.6352 17.1642C17.6152 17.1406 17.5883 17.1238 17.5583 17.1161C17.5283 17.1083 17.4967 17.1101 17.4677 17.1211C17.4387 17.1321 17.4139 17.1518 17.3966 17.1774C17.1176 17.6199 16.7553 18.1779 16.3721 18.8064C16.8276 19.5532 17.3827 20.2345 18.0221 20.8314C20.2848 23.1564 19.0721 26.9484 16.0556 27.3242C15.7387 27.3641 15.418 27.3625 15.1016 27.3197C15.4909 27.7128 15.9657 28.0109 16.489 28.1905C17.0124 28.3702 17.5701 28.4266 18.1188 28.3554C21.1353 27.9804 22.3473 24.1914 20.0853 21.8627V21.8604Z" fill="#FCF24D"/>
</svg>
