<svg width="25" height="22" viewBox="0 0 25 22" fill="none" xmlns="http://www.w3.org/2000/svg">
<path d="M0.000999451 19.3241C2.3327 20.8291 5.04979 21.6279 7.825 21.6241C11.7379 21.5927 15.478 20.0084 18.2229 17.2196C20.9678 14.4309 22.4926 10.666 22.462 6.75314C22.462 6.54781 22.458 6.34381 22.45 6.14114C23.4336 5.39764 24.2924 4.50206 24.994 3.48814C24.0622 3.86707 23.0855 4.12452 22.088 4.25414H22.079H22.087C22.219 4.16414 24.071 2.88314 24.322 1.35414C23.5192 1.76935 22.6858 2.12238 21.829 2.41014C21.588 2.49114 21.336 2.57114 21.076 2.64514C20.5998 2.12497 20.0206 1.70957 19.3751 1.42534C18.7297 1.14111 18.0322 0.994262 17.327 0.994141C16.6473 0.999373 15.9752 1.13844 15.3493 1.4034C14.7233 1.66837 14.1556 2.05404 13.6787 2.53839C13.2018 3.02275 12.8249 3.5963 12.5696 4.2263C12.3144 4.8563 12.1857 5.53042 12.191 6.21014C12.1907 6.60789 12.2353 7.0044 12.324 7.39214C10.2959 7.23262 8.31975 6.67178 6.51022 5.74221C4.70068 4.81264 3.09384 3.53285 1.783 1.97714C1.783 1.97714 -0.672002 5.38214 3.246 8.88414C2.4656 8.82944 1.70753 8.59976 1.028 8.21214C0.954013 9.42256 1.32621 10.6181 2.07417 11.5727C2.82214 12.5272 3.894 13.1745 5.087 13.3921C4.35165 13.6129 3.57293 13.6473 2.821 13.4921C3.12468 14.5188 3.74422 15.4235 4.59157 16.0779C5.43891 16.7323 6.47095 17.1029 7.541 17.1371C6.504 18.0041 5.29833 18.6464 4.00028 19.0234C2.70224 19.4003 1.34008 19.5038 0 19.3271L0.000999451 19.3241Z" fill="white"/>
</svg>
