<svg width="45" height="44" viewBox="0 0 45 44" fill="none" xmlns="http://www.w3.org/2000/svg">
<path d="M21.1076 4.98636C17.6253 6.9969 16.751 9.74182 16.6088 11.6147C14.9169 10.8007 12.1054 10.1838 8.6303 12.1901C4.47366 14.59 1.59823 19.9411 5.10731 26.019C6.49029 28.4144 8.10753 30.0152 10.5149 31.3723C12.8582 32.6931 16.7956 33.7149 22.2181 34.4098C24.3345 34.6809 26.2323 34.8412 27.4519 34.9279C29.7954 35.0947 29.8682 35.0683 30.0719 34.9509C30.0824 34.9452 30.0924 34.9396 30.1022 34.9339C30.2948 34.8227 30.392 34.6847 31.3773 32.6702C31.9139 31.5728 32.7272 29.8519 33.5533 27.8853C35.6708 22.845 36.7586 18.915 36.7868 16.2044C36.8153 13.4461 36.2364 11.2454 34.8514 8.84639C31.3422 2.76836 25.2672 2.58484 21.1076 4.98636Z" fill="white" fill-opacity="0.4"/>
</svg>
