<svg width="50" height="50" viewBox="0 0 50 50" fill="none" xmlns="http://www.w3.org/2000/svg">
<g filter="url(#filter0_d)">
<g clip-path="url(#clip0)">
<path d="M24.4357 23.9125L20.2546 19.7313C20.1578 19.6346 20.1045 19.5055 20.1045 19.3678C20.1045 19.2302 20.1578 19.1011 20.2546 19.0044L20.5624 18.6965C20.763 18.4961 21.089 18.4961 21.2893 18.6965L24.8004 22.2075L28.3153 18.6926C28.4121 18.5959 28.5411 18.5425 28.6787 18.5425C28.8164 18.5425 28.9454 18.5959 29.0423 18.6926L29.3501 19.0005C29.4468 19.0973 29.5002 19.2263 29.5002 19.3639C29.5002 19.5016 29.4468 19.6307 29.3501 19.7274L25.1651 23.9125C25.068 24.0094 24.9384 24.0627 24.8006 24.0624C24.6623 24.0627 24.5327 24.0094 24.4357 23.9125Z"/>
</g>
</g>
<defs>
<filter id="filter0_d" x="0.104492" y="0.604492" width="49.3957" height="49.3957" filterUnits="userSpaceOnUse" color-interpolation-filters="sRGB">
<feFlood flood-opacity="0" result="BackgroundImageFix"/>
<feColorMatrix in="SourceAlpha" type="matrix" values="0 0 0 0 0 0 0 0 0 0 0 0 0 0 0 0 0 0 127 0"/>
<feOffset dy="4"/>
<feGaussianBlur stdDeviation="10"/>
<feColorMatrix type="matrix" values="0 0 0 0 0 0 0 0 0 0 0 0 0 0 0 0 0 0 0.06 0"/>
<feBlend mode="normal" in2="BackgroundImageFix" result="effect1_dropShadow"/>
<feBlend mode="normal" in="SourceGraphic" in2="effect1_dropShadow" result="shape"/>
</filter>
<clipPath id="clip0">
<rect width="9.39567" height="9.39567" transform="matrix(3.0598e-07 1 1 -3.0598e-07 20.1045 16.6045)" fill="white"/>
</clipPath>
</defs>
</svg>
