<svg width="11" height="9" viewBox="0 0 11 9" fill="none" xmlns="http://www.w3.org/2000/svg">
<path d="M10.5581 3.81406L6.94706 0.203056C6.84421 0.100832 6.70508 0.043457 6.56006 0.043457C6.41505 0.043457 6.27592 0.100832 6.17306 0.203056L5.84506 0.531055C5.79411 0.58176 5.75372 0.642078 5.72626 0.708511C5.69879 0.774944 5.68479 0.84617 5.68506 0.918056C5.68439 1.06475 5.74193 1.20573 5.84506 1.31005L7.95206 3.42105H1.25806C1.1871 3.42026 1.11668 3.43361 1.05094 3.46034C0.985191 3.48707 0.925433 3.52664 0.875155 3.57673C0.824878 3.62682 0.78509 3.68643 0.758117 3.75208C0.731144 3.81772 0.717528 3.88809 0.718064 3.95906V4.42306C0.716172 4.5689 0.771764 4.70962 0.872818 4.81479C0.973873 4.91996 1.11227 4.98112 1.25806 4.98505H7.97606L5.84506 7.10806C5.79436 7.15843 5.75412 7.21834 5.72666 7.28432C5.6992 7.35031 5.68506 7.42108 5.68506 7.49256C5.68506 7.56403 5.6992 7.6348 5.72666 7.70079C5.75412 7.76678 5.79436 7.82668 5.84506 7.87706L6.17306 8.20406C6.27592 8.30628 6.41505 8.36366 6.56006 8.36366C6.70508 8.36366 6.84421 8.30628 6.94706 8.20406L10.5581 4.59106C10.6605 4.48769 10.7179 4.34807 10.7179 4.20256C10.7179 4.05705 10.6605 3.91742 10.5581 3.81406V3.81406Z" fill="#17A3E0"/>
</svg>
