<svg width="36" height="34" viewBox="0 0 36 34" fill="none" xmlns="http://www.w3.org/2000/svg">
<path d="M33.8043 0.97998H2.85926C2.29716 0.98051 1.75824 1.20404 1.36078 1.6015C0.963314 1.99896 0.739787 2.53788 0.739258 3.09998L0.739258 24.29C0.740052 24.8519 0.963695 25.3906 1.36113 25.7878C1.75856 26.1851 2.29733 26.4085 2.85926 26.409H13.3103L17.2593 32.603C17.3742 32.7834 17.5328 32.9318 17.7203 33.0346C17.9079 33.1374 18.1184 33.1912 18.3323 33.191C18.5466 33.1905 18.7573 33.136 18.9449 33.0323C19.1325 32.9286 19.2908 32.7792 19.4053 32.598L23.3123 26.408H33.8023C34.3642 26.4075 34.903 26.1841 35.3004 25.7868C35.6978 25.3896 35.9215 24.8509 35.9223 24.289V3.09998C35.9217 2.53823 35.6985 1.99961 35.3014 1.6022C34.9044 1.2048 34.366 0.981039 33.8043 0.97998ZM33.3803 23.871H22.6133C22.3986 23.8712 22.1875 23.9256 21.9995 24.0293C21.8116 24.133 21.6529 24.2825 21.5383 24.464L18.3273 29.551L15.0813 24.459C14.9663 24.2786 14.8077 24.1301 14.6202 24.0274C14.4326 23.9246 14.2221 23.8708 14.0083 23.871H3.28226V3.52398H33.3823L33.3803 23.871Z" fill="#424FF5"/>
</svg>
