<svg width="25" height="26" viewBox="0 0 25 26" fill="none" xmlns="http://www.w3.org/2000/svg">
<path d="M13.4692 0C10.5003 0.0166491 7.65997 1.16748 5.57283 3.19893C3.48569 5.23037 2.32273 7.97578 2.33977 10.8322L0.168127 16.3059C0.114251 16.4222 0.0928805 16.55 0.106098 16.6767C0.119315 16.8034 0.166683 16.9246 0.243511 17.0283C0.320338 17.132 0.423979 17.2144 0.544171 17.2678C0.664364 17.3212 0.796944 17.3435 0.928828 17.3325H2.33977V21.6611C2.33798 21.9441 2.39412 22.2245 2.50502 22.4866C2.61592 22.7487 2.77943 22.9872 2.98615 23.1885C3.19287 23.3899 3.43877 23.55 3.70983 23.6599C3.98089 23.7698 4.27179 23.8272 4.56592 23.829H10.1306C11.3174 23.8224 12.4529 23.3629 13.2877 22.5513C14.1225 21.7398 14.5884 20.6428 14.5829 19.501V12.7003C14.9217 12.5098 15.2027 12.2368 15.3978 11.9094C15.593 11.5819 15.6956 11.2109 15.6953 10.8334C15.6971 10.5505 15.641 10.2706 15.53 10.0086C15.4191 9.74653 15.2556 9.50788 15.0489 9.30667C14.8421 9.10545 14.5962 8.94506 14.3251 8.83531C14.0541 8.72557 13.7632 8.66843 13.4692 8.66688C12.8754 8.67035 12.3073 8.90036 11.8899 9.30667C11.4724 9.71297 11.2398 10.2621 11.243 10.8334C11.2428 11.2109 11.3454 11.5819 11.5405 11.9094C11.7357 12.2368 12.0166 12.5098 12.3554 12.7003V19.501C12.3583 20.0722 12.1255 20.6209 11.7081 21.0271C11.2908 21.4333 10.7229 21.6637 10.1293 21.6675H4.56455V15.1672H3.00504L4.56455 11.2324V10.827C4.55366 8.54257 5.48506 6.34707 7.15443 4.7225C8.82379 3.09793 11.0948 2.17704 13.4692 2.16144C15.8436 2.17704 18.1145 3.09793 19.7839 4.7225C21.4533 6.34707 22.3847 8.54257 22.3738 10.827C22.3795 12.1677 22.0604 13.4912 21.4419 14.6926C20.8233 15.894 19.9223 16.9407 18.8103 17.7488L17.9228 18.4046V26H20.149V19.485C21.5358 18.4711 22.6595 17.1616 23.432 15.6597C24.2045 14.1578 24.6047 12.5041 24.6013 10.8283C24.6172 7.97217 23.4534 5.22704 21.3658 3.19636C19.2782 1.16569 16.4378 0.0159579 13.4692 0Z" fill="#6B75FC"/>
<path d="M16.9329 7.86438C17.3554 8.15264 17.6998 8.53441 17.9371 8.97744C18.1743 9.42047 18.2974 9.9117 18.2961 10.4101C18.2971 10.9087 18.1738 11.4006 17.9366 11.844C17.6994 12.2874 17.3552 12.6693 16.9329 12.9583L17.8503 14.236C18.4841 13.8019 19.0005 13.2282 19.3563 12.5625C19.7121 11.8969 19.8969 11.1586 19.8952 10.4101C19.8969 9.66173 19.7121 8.9237 19.3563 8.25824C19.0005 7.59278 18.4841 7.01927 17.8503 6.58545L16.9329 7.86438Z" fill="#6B75FC"/>
<path d="M10.1347 7.86438C9.71221 8.15272 9.36787 8.53442 9.13065 8.97744C8.89342 9.42045 8.77024 9.91172 8.77145 10.4101C8.77048 10.9087 8.89375 11.4006 9.13094 11.844C9.36812 12.2874 9.71233 12.6693 10.1347 12.9583L9.21722 14.236C8.58334 13.8019 8.06684 13.2282 7.71105 12.5625C7.35525 11.8969 7.17055 11.1586 7.17238 10.4101C7.17065 9.66173 7.35542 8.9237 7.71121 8.25824C8.067 7.59278 8.58345 7.01927 9.21722 6.58545L10.1347 7.86438Z" fill="#6B75FC"/>
</svg>
