<svg width="31" height="19" viewBox="0 0 31 19" fill="none" xmlns="http://www.w3.org/2000/svg">
<path d="M15.6277 14.0332C17.1356 14.0332 18.3581 12.9127 18.3581 11.5305C18.3581 10.1483 17.1356 9.02783 15.6277 9.02783C14.1197 9.02783 12.8972 10.1483 12.8972 11.5305C12.8972 12.9127 14.1197 14.0332 15.6277 14.0332Z" fill="#8CC740"/>
<path d="M29.5502 10.6525C29.4858 10.5828 29.0415 10.1151 28.2919 9.46204L30.2316 7.81124L28.2301 5.83368L26.0406 7.69949C25.1018 7.04528 24.1148 6.45813 23.0874 5.943L24.705 2.91046L22.0621 1.72733L20.4032 4.837C19.3326 4.4864 18.2258 4.2489 17.1023 4.12822V0H14.1606V4.12822C13.0374 4.24899 11.9311 4.48649 10.8609 4.837L9.20204 1.72733L6.55918 2.91046L8.17555 5.943C7.14855 6.45818 6.16186 7.04533 5.22352 7.69949L3.02763 5.83368L1.02614 7.81124L2.96576 9.46204C2.21618 10.1151 1.77319 10.5816 1.70879 10.6525L0.885742 11.5295L1.70879 12.4071C1.96638 12.6758 7.97074 19 15.6327 19C23.2947 19 29.3042 12.6733 29.5567 12.4071L30.3784 11.5295L29.5502 10.6525ZM15.6263 16.3058C10.8763 16.3058 6.66736 13.1179 4.86553 11.5295C6.66865 9.93982 10.8763 6.75383 15.6263 6.75383C20.3762 6.75383 24.5878 9.9435 26.3896 11.5319C24.5929 13.1216 20.3968 16.307 15.6263 16.307V16.3058Z" fill="#8CC740"/>
</svg>
