<svg width="241" height="43" viewBox="0 0 241 43" fill="none" xmlns="http://www.w3.org/2000/svg">
<path d="M71.4464 16.5272H69.5554V20.6002H71.4884C72.1114 20.6294 72.725 20.4394 73.2224 20.0631C73.441 19.8853 73.6148 19.6587 73.7297 19.4015C73.8447 19.1442 73.8977 18.8636 73.8844 18.5821C73.9077 18.2917 73.8628 17.9998 73.7533 17.7299C73.6437 17.4599 73.4725 17.2192 73.2534 17.0272C72.7255 16.6599 72.0881 16.4835 71.4464 16.5272ZM66.2764 13.8791H71.5514C73.0208 13.8174 74.4715 14.2262 75.6924 15.0461C76.2312 15.4445 76.6616 15.9716 76.9443 16.5791C77.2269 17.1867 77.3528 17.8554 77.3104 18.5241C77.3257 19.3072 77.1217 20.0789 76.7214 20.7521C76.3316 21.3947 75.7798 21.9237 75.1214 22.2861L78.4634 28.1711H74.7854L72.1164 23.2111H69.5524V28.1711H66.2734L66.2764 13.8791Z" fill="black"/>
<path d="M82.5 28.1709V13.8789H91.516L91.916 16.4649H85.779V19.6799H90.322L90.722 22.2649H85.783V25.6069H92.361L92.761 28.1709H82.5Z" fill="black"/>
<path d="M106.857 28.1709H97V13.8789H100.279V25.6069H106.479L106.857 28.1709Z" fill="black"/>
<path d="M114.174 13.8789H110.895V28.1709H114.174V13.8789Z" fill="black"/>
<path d="M119.742 28.1709V13.8789H128.758L129.158 16.4649H123.023V19.6799H127.562L127.962 22.2649H123.023V25.6069H129.601L130.001 28.1709H119.742Z" fill="black"/>
<path d="M142.333 22.4544H137.522V28.1704H134.242V13.9004H142.942L143.321 16.4644H137.521V19.8644H141.955L142.333 22.4544Z" fill="black"/>
<path d="M153.452 27.2656L154.398 24.7016C154.933 24.975 155.493 25.1966 156.069 25.3636C156.643 25.5516 157.241 25.6544 157.844 25.6686C158.408 25.7019 158.969 25.5743 159.462 25.3006C159.635 25.2029 159.779 25.0609 159.879 24.8892C159.979 24.7174 160.031 24.5222 160.03 24.3236C160.021 24.1757 159.977 24.032 159.903 23.9042C159.828 23.7763 159.724 23.6679 159.599 23.5876C159.151 23.2605 158.683 22.96 158.199 22.6876C158.058 22.6186 157.848 22.4986 157.568 22.3316C156.616 21.7563 155.87 21.2796 155.33 20.9016C154.776 20.5098 154.293 20.0265 153.901 19.4726C153.493 18.9115 153.275 18.2338 153.281 17.5396C153.285 16.814 153.508 16.1064 153.922 15.5106C154.372 14.8856 154.987 14.3981 155.698 14.1026C156.556 13.7423 157.48 13.5668 158.409 13.5876C159.141 13.5904 159.869 13.6913 160.573 13.8876C161.259 14.0674 161.916 14.3395 162.528 14.6966L161.52 17.0966C160.981 16.8632 160.426 16.6668 159.859 16.5086C159.399 16.393 158.925 16.3362 158.45 16.3396C158.004 16.3208 157.562 16.4342 157.18 16.6656C157.026 16.7578 156.9 16.8891 156.813 17.0461C156.726 17.2031 156.683 17.3802 156.686 17.5596C156.689 17.7166 156.727 17.871 156.798 18.0112C156.869 18.1513 156.97 18.2736 157.095 18.3686C157.505 18.6876 157.945 18.9656 158.409 19.1986C158.65 19.3059 158.882 19.4323 159.103 19.5766C160.111 20.1653 160.882 20.6453 161.414 21.0166C161.961 21.4014 162.438 21.8777 162.822 22.4246C163.229 22.9905 163.443 23.672 163.432 24.3686C163.442 25.1213 163.21 25.8572 162.77 26.4686C162.282 27.1218 161.619 27.624 160.857 27.9176C159.918 28.288 158.914 28.4669 157.904 28.4436C157.111 28.4238 156.324 28.3039 155.561 28.0866C154.822 27.9141 154.111 27.638 153.449 27.2666" fill="black"/>
<path d="M167.723 28.1709V13.8789H176.739L177.139 16.4649H171.002V19.6799H175.541L175.941 22.2649H171.002V25.6069H177.58L177.98 28.1709H167.723Z" fill="black"/>
<path d="M182.223 28.1709V13.8789H191.239L191.639 16.4649H185.502V19.6799H190.041L190.441 22.2649H185.502V25.6069H192.08L192.48 28.1709H182.223Z" fill="black"/>
<path d="M205.258 28.1704L201.286 22.5385L200.023 23.8004V28.1725H196.723V13.8784H200.023V19.3434L205.992 13.5645L208.492 15.4135L203.592 20.2474L209.392 28.1704H205.258Z" fill="black"/>
<path d="M213.43 28.1709V13.8789H222.446L222.846 16.4649H216.709V19.6799H221.248L221.648 22.2649H216.71V25.6069H223.288L223.688 28.1709H213.43Z" fill="black"/>
<path d="M233.105 16.5271H231.213V20.6001H233.146C233.769 20.6295 234.382 20.4394 234.88 20.0631C235.098 19.8853 235.272 19.6587 235.387 19.4014C235.502 19.1442 235.555 18.8636 235.542 18.5821C235.565 18.2917 235.52 17.9998 235.41 17.7298C235.301 17.4598 235.13 17.2192 234.911 17.0271C234.383 16.66 233.746 16.4836 233.105 16.5271ZM227.934 13.8791H233.21C234.679 13.8175 236.129 14.2263 237.35 15.0461C237.888 15.4445 238.319 15.9715 238.601 16.5791C238.884 17.1867 239.01 17.8554 238.968 18.5241C238.983 19.3072 238.779 20.079 238.379 20.7521C237.989 21.3947 237.437 21.9236 236.779 22.2861L240.121 28.1711H236.443L233.774 23.2111H231.213V28.1711H227.934V13.8791Z" fill="black"/>
<path d="M30.5317 42.3348H16.7227V37.2208H25.4227V25.4148H37.2227V16.9148H25.5867V11.8008H42.3377V30.5248H30.5317V42.3348Z" fill="#424FF5"/>
<path d="M16.882 30.528H0V11.8H11.806V0H26.061V5.114H16.922V16.921H5.11398V25.421H16.882V30.528Z" fill="#17A3E0"/>
</svg>
