<svg width="15" height="21" viewBox="0 0 15 21" fill="none" xmlns="http://www.w3.org/2000/svg">
<path d="M12.9009 10.8285H14.7C14.8659 10.8285 15 10.6818 15 10.5003V3.93717C15 3.75572 14.8659 3.60905 14.7 3.60905H12.9009V1.96941C12.9009 0.884953 12.0952 0.00328125 11.1045 0.000984375C11.1033 0.000984375 11.1021 0 11.1006 0H3.89942C2.90657 0 2.09914 0.882984 2.09914 1.96875V6.88997H0.300048C0.134121 6.88997 0 7.03664 0 7.21809V13.7812C0 13.9627 0.134121 14.1094 0.300048 14.1094H2.09914V18.7031C2.09914 19.9694 3.04159 21 4.19947 21H10.8005C11.9584 21 12.9009 19.9694 12.9009 18.7031V10.8285ZM2.69923 17.0625H7.5H12.3008V17.3906C12.3008 18.2953 11.6278 19.0312 10.8005 19.0312H7.5H4.19947C3.37224 19.0312 2.69923 18.2953 2.69923 17.3906V17.0625ZM14.3999 10.1722H10.2007C10.1461 10.1722 10.093 10.1883 10.0462 10.2191L9.00024 10.9052V4.2653H14.3999V10.1722ZM3.89942 0.65625H11.0976C11.0988 0.65625 11.0994 0.656906 11.1006 0.656906C11.7625 0.656906 12.3008 1.24556 12.3008 1.96941H2.69923V1.96875C2.69923 1.24491 3.23752 0.65625 3.89942 0.65625ZM0.600096 7.54622H5.99976V14.1858L4.95409 13.4997C4.90729 13.4692 4.85418 13.4531 4.79957 13.4531H0.600096V7.54622ZM4.71645 14.1094L6.14558 15.0468C6.19299 15.078 6.2464 15.0938 6.29981 15.0938C6.35082 15.0938 6.40182 15.0796 6.44773 15.0511C6.54195 14.9927 6.59986 14.8837 6.59986 14.7656V7.21809C6.59986 7.03664 6.46573 6.88997 6.29981 6.88997H2.69923V2.62566H12.3008V3.60905H8.70019C8.53427 3.60905 8.40014 3.75572 8.40014 3.93717V11.4847C8.40014 11.6028 8.45805 11.7118 8.55227 11.7702C8.59818 11.7987 8.64918 11.8128 8.70019 11.8128C8.7536 11.8128 8.80701 11.7971 8.85472 11.7659L10.2841 10.8285H12.3008V16.4062H2.69923V14.1094H4.71645ZM10.8005 20.3438H4.19947C3.47396 20.3438 2.86786 19.7774 2.72924 19.028C3.1085 19.4352 3.62758 19.6875 4.19947 19.6875H10.8005C11.3724 19.6875 11.8915 19.4352 12.2708 19.028C12.1321 19.7774 11.526 20.3438 10.8005 20.3438Z" fill="black" fill-opacity="0.8"/>
<path d="M7 18C7 18.5513 7.44867 19 8 19C8.55133 19 9 18.5513 9 18C9 17.4487 8.55133 17 8 17C7.44867 17 7 17.4487 7 18ZM8 17.6667C8.184 17.6667 8.33333 17.816 8.33333 18C8.33333 18.184 8.184 18.3333 8 18.3333C7.816 18.3333 7.66667 18.184 7.66667 18C7.66667 17.816 7.816 17.6667 8 17.6667Z" fill="black" fill-opacity="0.8"/>
<path d="M13.6666 7H10.3334C10.149 7 10 7.2235 10 7.5C10 7.7765 10.149 8 10.3334 8H13.6666C13.851 8 14 7.7765 14 7.5C14 7.2235 13.851 7 13.6666 7Z" fill="black" fill-opacity="0.8"/>
<path d="M11.7142 8H10.2858C10.1278 8 10 8.2235 10 8.5C10 8.7765 10.1278 9 10.2858 9H11.7142C11.8722 9 12 8.7765 12 8.5C12 8.2235 11.8722 8 11.7142 8Z" fill="black" fill-opacity="0.8"/>
<path d="M6 10.5C6 9.12179 4.87821 8 3.5 8C2.12179 8 1 9.12179 1 10.5C1 11.8782 2.12179 13 3.5 13C4.87821 13 6 11.8786 6 10.5ZM1.71429 10.5C1.71429 9.51536 2.51536 8.71429 3.5 8.71429C4.48464 8.71429 5.28571 9.51536 5.28571 10.5C5.28571 11.4846 4.48464 12.2857 3.5 12.2857C2.51536 12.2857 1.71429 11.4846 1.71429 10.5Z" fill="black" fill-opacity="0.8"/>
<path d="M3.33089 10.8334V10.6666H3.66678C3.85105 10.6666 4 10.5921 4 10.5C4 10.4079 3.85105 10.3334 3.66678 10.3334H3.33089V10.1666C3.33089 10.0745 3.18194 10 2.99767 10C2.8134 10 2.66445 10.0745 2.66445 10.1666V10.3334H2.33322C2.14895 10.3334 2 10.4079 2 10.5C2 10.5921 2.14895 10.6666 2.33322 10.6666H2.66445V10.8334C2.66445 10.9255 2.8134 11 2.99767 11C3.18194 11 3.33089 10.9255 3.33089 10.8334Z" fill="black" fill-opacity="0.8"/>
</svg>
