<svg width="23" height="37" viewBox="0 0 23 37" fill="none" xmlns="http://www.w3.org/2000/svg">
<path d="M19.473 0C19.473 0 19.473 0 19.473 0H2.9C2.13136 0.00158538 1.39466 0.307629 0.851143 0.851142C0.307631 1.39465 0.00158538 2.13136 0 2.9V34.05C0.00158538 34.8186 0.307631 35.5553 0.851143 36.0989C1.39466 36.6424 2.13136 36.9484 2.9 36.95H19.47C20.2386 36.9484 20.9753 36.6424 21.5189 36.0989C22.0624 35.5553 22.3684 34.8186 22.37 34.05V2.9C22.3684 2.13188 22.0628 1.39562 21.5199 0.852197C20.9771 0.308771 20.2411 0.00237728 19.473 0C19.473 0 19.473 0 19.473 0ZM7.805 2.71C7.805 2.409 8.04901 2.165 8.35 2.165H14.031C14.332 2.165 14.576 2.409 14.576 2.71C14.576 3.011 14.332 3.255 14.031 3.255H8.35C8.04901 3.255 7.805 3.011 7.805 2.71ZM20.206 34.052C20.2054 34.052 20.205 34.0524 20.205 34.053C20.2045 34.248 20.1268 34.4349 19.9888 34.5728C19.8507 34.711 19.6634 34.7887 19.468 34.789H2.9C2.70462 34.7887 2.51731 34.711 2.37916 34.5728C2.241 34.4347 2.16327 34.2474 2.163 34.052V2.9C2.16327 2.70462 2.241 2.51731 2.37916 2.37915C2.51731 2.241 2.70462 2.16326 2.9 2.163H4.252C5.01747 2.163 5.638 2.78353 5.638 3.549C5.63826 4.04489 5.83516 4.52043 6.18552 4.87135C6.53589 5.22228 7.01112 5.41994 7.507 5.421H14.87C15.3659 5.41994 15.8411 5.22228 16.1915 4.87135C16.5418 4.52043 16.7387 4.04489 16.739 3.549C16.739 2.78464 17.3586 2.165 18.123 2.165H19.47C19.6654 2.16526 19.8527 2.243 19.9908 2.38115C20.129 2.51931 20.2067 2.70662 20.207 2.902V34.051C20.207 34.0516 20.2066 34.052 20.206 34.052Z" fill="#424FF5"/>
</svg>
