<svg width="29" height="22" viewBox="0 0 29 22" fill="none" xmlns="http://www.w3.org/2000/svg">
<path d="M25.6016 0H3.39844C1.52454 0 0 1.52454 0 3.39844V17.8984C0 19.7723 1.52454 21.2969 3.39844 21.2969H25.6016C27.4755 21.2969 29 19.7723 29 17.8984V3.39844C29 1.52454 27.4755 0 25.6016 0ZM26.7344 17.8984C26.7344 18.5231 26.2262 19.0312 25.6016 19.0312H3.39844C2.7738 19.0312 2.26562 18.5231 2.26562 17.8984V3.39844C2.26562 2.7738 2.7738 2.26562 3.39844 2.26562H25.6016C26.2262 2.26562 26.7344 2.7738 26.7344 3.39844V17.8984Z" fill="#424FF5"/>
</svg>
