<svg width="62" height="57" viewBox="0 0 62 57" fill="none" xmlns="http://www.w3.org/2000/svg">
<path d="M43.7115 5.18182C42.7608 16.8565 38.6662 23.9141 35.0004 30.2333C33.5098 32.8061 32.0657 35.2934 31.0143 37.8765C29.9603 35.2908 28.511 32.8009 27.0153 30.2255C23.3417 23.9115 19.2368 16.8539 18.2861 5.18182H43.7115ZM49.0822 0H12.9153C12.9153 25.3987 26.1033 33.8191 27.3924 44.0455H34.6387C35.9226 33.8191 49.0822 25.3987 49.0822 0ZM30.9988 29.9172C28.0925 23.2767 26.2222 15.4107 26.2015 7.77273H22.6287C23.5949 15.8512 27.426 25.9687 30.9988 29.9172ZM34.7136 46.6364H27.3097C26.7879 49.7118 25.6822 53.422 20.668 53.422V57H41.3348V53.422C36.1707 53.422 35.2096 49.7118 34.7136 46.6364ZM53.0038 42.5013C49.3819 40.8586 46.2638 42.009 44.3392 43.2604C46.2638 42.0064 48.4803 39.4673 48.4597 35.4799C41.7662 38.1693 42.5309 41.9468 41.3167 44.1465C40.5029 45.6259 38.7153 44.8564 38.7153 44.8564L38.165 45.7684C39.1079 46.2685 40.7199 46.5949 42.598 46.5949C45.9745 46.5949 50.2163 45.5352 53.0038 42.5013ZM59.3175 32.0806C55.7473 32.332 53.846 34.8296 52.8565 36.6484C53.846 34.8296 54.4427 31.6169 52.7274 28.4663C48.5682 33.4642 50.7847 36.1302 50.7588 38.3921C50.7485 39.4984 49.493 39.4725 49.493 39.4725L49.5111 40.5192C50.3223 40.413 57.659 38.6615 59.3175 32.0806ZM61.9938 22.0538C58.9687 23.1575 57.9638 25.8702 57.5556 27.689C57.9638 25.8702 57.6616 22.8622 55.3985 20.564C53.0348 25.922 55.6104 27.6761 56.1477 29.64C56.4112 30.6012 55.3081 31.2101 55.3081 31.2101L56.0573 31.6739C56.2149 31.5987 62.2186 28.2228 61.9938 22.0538ZM61.4772 12.2291C59.1444 13.9546 58.8499 16.6025 58.961 18.2789C58.8525 16.6051 57.9406 14.0324 55.4063 12.6255C54.7243 17.854 57.3929 18.7115 58.3565 20.2687C58.8267 21.0304 58.4159 21.9735 58.4159 21.9735L59.1496 21.9243C59.1496 21.9243 59.2167 21.5952 59.5862 20.7791C60.3379 19.1105 62.8283 17.3228 61.4772 12.2291ZM56.5662 5.18182C56.5662 5.18182 55.861 7.73127 56.45 9.66927C57.0803 11.7368 58.7052 13.1955 58.7052 13.1955C58.7052 13.1955 59.5836 10.9336 58.961 8.70545C58.3875 6.65345 56.5662 5.18182 56.5662 5.18182ZM23.8351 45.7684L23.2849 44.8564C23.2849 44.8564 21.4998 45.6259 20.6835 44.1465C19.4693 41.9468 20.2339 38.1693 13.5405 35.4799C13.5198 39.4673 15.7363 42.009 17.6609 43.2604C15.7363 42.0064 12.6182 40.8586 8.99636 42.5013C11.7812 45.5352 16.0257 46.5975 19.4021 46.5975C21.2802 46.5949 22.8896 46.2685 23.8351 45.7684ZM12.4865 40.5166L12.5046 39.4699C12.5046 39.4699 11.249 39.4958 11.2387 38.3895C11.2155 36.1276 13.4294 33.4642 9.2702 28.4637C7.55485 31.6143 8.15161 34.8296 9.14103 36.6458C8.15161 34.827 6.24768 32.3294 2.68007 32.078C4.33858 38.6615 11.6753 40.413 12.4865 40.5166ZM5.94284 31.6739L6.69201 31.2101C6.69201 31.2101 5.58892 30.5986 5.85242 29.64C6.38976 27.6761 8.96536 25.922 6.6016 20.564C4.33858 22.8622 4.03374 25.8702 4.4445 27.689C4.03633 25.8702 3.03399 23.1575 0.00629592 22.0538C-0.221039 28.2228 5.78267 31.5987 5.94284 31.6739ZM2.41398 20.7817C2.7834 21.5978 2.85057 21.9269 2.85057 21.9269L3.58424 21.9761C3.58424 21.9761 3.17349 21.033 3.64366 20.2713C4.60725 18.7141 7.27327 17.854 6.59385 12.6281C4.05441 14.0324 3.14507 16.6025 3.03657 18.2789C3.14507 16.6025 2.85057 13.952 0.520383 12.2291C-0.83071 17.3228 1.65964 19.1105 2.41398 20.7817ZM3.03657 8.70545C2.41656 10.9336 3.29232 13.1955 3.29232 13.1955C3.29232 13.1955 4.91725 11.7368 5.54759 9.66927C6.13659 7.73127 5.43134 5.18182 5.43134 5.18182C5.43134 5.18182 3.61007 6.65345 3.03657 8.70545Z" fill="#FAB03B"/>
</svg>
