<svg width="189" height="17" viewBox="0 0 189 17" fill="none" xmlns="http://www.w3.org/2000/svg">
<path d="M0.886 16H4.474V10.572H7.28L10.201 16H14.226L10.569 9.56C11.305 9.146 11.8877 8.58633 12.317 7.881C12.7463 7.17567 12.961 6.363 12.961 5.443C12.961 3.75633 12.3707 2.49133 11.19 1.648C10.0093 0.789333 8.499 0.36 6.659 0.36H0.886V16ZM6.544 3.258C7.40267 3.258 8.062 3.442 8.522 3.81C8.982 4.178 9.212 4.74533 9.212 5.512C9.212 6.202 8.96667 6.74633 8.476 7.145C8.00067 7.52833 7.372 7.72 6.59 7.72H4.474V3.258H6.544ZM27.5631 16L27.1261 13.194H19.9271V9.537H25.3321L24.8951 6.708H19.9271V3.189H26.6431L26.2061 0.36H16.3391V16H27.5631ZM41.2675 0.36H28.2495V3.189H32.9185V16H36.5295V3.189H41.7045L41.2675 0.36ZM43.6013 0.36L43.6243 10.158C43.6243 11.4 43.9003 12.481 44.4523 13.401C45.0043 14.321 45.7863 15.034 46.7983 15.54C47.8256 16.046 49.0063 16.299 50.3403 16.299C51.6743 16.299 52.8473 16.046 53.8593 15.54C54.8866 15.034 55.6763 14.321 56.2283 13.401C56.7956 12.481 57.0793 11.4 57.0793 10.158V0.36H53.4683V9.951C53.4683 11.0397 53.1846 11.8753 52.6173 12.458C52.05 13.0253 51.291 13.309 50.3403 13.309C49.3896 13.309 48.6306 13.0253 48.0633 12.458C47.496 11.8907 47.2123 11.055 47.2123 9.951V0.36H43.6013ZM60.6321 16H64.2201V10.572H67.0261L69.9471 16H73.9721L70.3151 9.56C71.0511 9.146 71.6338 8.58633 72.0631 7.881C72.4924 7.17567 72.7071 6.363 72.7071 5.443C72.7071 3.75633 72.1168 2.49133 70.9361 1.648C69.7554 0.789333 68.2451 0.36 66.4051 0.36H60.6321V16ZM66.2901 3.258C67.1488 3.258 67.8081 3.442 68.2681 3.81C68.7281 4.178 68.9581 4.74533 68.9581 5.512C68.9581 6.202 68.7128 6.74633 68.2221 7.145C67.7468 7.52833 67.1181 7.72 66.3361 7.72H64.2201V3.258H66.2901ZM79.6732 16V6.662L86.2972 16H89.7472V0.36H86.1592V9.813L79.5352 0.36H76.0852V16H79.6732ZM129.468 16L129.031 13.194H121.832V9.537H127.237L126.8 6.708H121.832V3.189H128.548L128.111 0.36H118.244V16H129.468ZM143.035 16L142.598 13.194H135.399V9.537H140.804L140.367 6.708H135.399V3.189H142.115L141.678 0.36H131.811V16H143.035ZM154.715 16L150.368 9.836L148.988 11.216V16H145.377V0.36H148.988V6.34L155.52 0.0149988L158.257 2.039L152.898 7.329L159.246 16H154.715ZM172.593 16L172.156 13.194H164.957V9.537H170.362L169.925 6.708H164.957V3.189H171.673L171.236 0.36H161.369V16H172.593ZM174.936 16H178.524V10.572H181.33L184.251 16H188.276L184.619 9.56C185.355 9.146 185.937 8.58633 186.367 7.881C186.796 7.17567 187.011 6.363 187.011 5.443C187.011 3.75633 186.42 2.49133 185.24 1.648C184.059 0.789333 182.549 0.36 180.709 0.36H174.936V16ZM180.594 3.258C181.452 3.258 182.112 3.442 182.572 3.81C183.032 4.178 183.262 4.74533 183.262 5.512C183.262 6.202 183.016 6.74633 182.526 7.145C182.05 7.52833 181.422 7.72 180.64 7.72H178.524V3.258H180.594Z" fill="black"/>
<path d="M92.5714 15.011C93.1234 15.3483 93.89 15.6473 94.8714 15.908C95.868 16.1687 96.7267 16.299 97.4474 16.299C98.6894 16.299 99.7627 16.1073 100.667 15.724C101.587 15.3407 102.285 14.8117 102.76 14.137C103.251 13.4623 103.496 12.6957 103.496 11.837C103.496 11.0397 103.274 10.3343 102.829 9.721C102.385 9.09233 101.871 8.57867 101.288 8.18C100.706 7.766 99.8624 7.237 98.7584 6.593C98.4977 6.42433 98.2447 6.28633 97.9994 6.179C97.34 5.82633 96.857 5.52733 96.5504 5.282C96.259 5.02133 96.1134 4.72233 96.1134 4.385C96.1134 3.971 96.2897 3.649 96.6424 3.419C97.0104 3.17367 97.478 3.051 98.0454 3.051C98.5974 3.051 99.111 3.11233 99.5864 3.235C100.062 3.35767 100.667 3.57233 101.403 3.879L102.507 1.257C101.894 0.888999 101.181 0.597666 100.368 0.383C99.5557 0.153 98.766 0.0379999 97.9994 0.0379999C96.8647 0.0379999 95.8757 0.229666 95.0324 0.612999C94.189 0.980999 93.5374 1.49467 93.0774 2.154C92.6327 2.798 92.4027 3.534 92.3874 4.362C92.3874 5.144 92.6097 5.84933 93.0544 6.478C93.5144 7.10667 94.0357 7.628 94.6184 8.042C95.2164 8.456 96.0367 8.97733 97.0794 9.606C97.386 9.79 97.616 9.92033 97.7694 9.997C98.4747 10.411 98.9807 10.7407 99.2874 10.986C99.6094 11.2313 99.7704 11.4997 99.7704 11.791C99.7704 12.2357 99.5634 12.596 99.1494 12.872C98.7354 13.1327 98.145 13.263 97.3784 13.263C96.811 13.263 96.1594 13.1557 95.4234 12.941C94.7027 12.711 94.097 12.4657 93.6064 12.205L92.5714 15.011ZM104.925 15.011C105.477 15.3483 106.244 15.6473 107.225 15.908C108.222 16.1687 109.08 16.299 109.801 16.299C111.043 16.299 112.116 16.1073 113.021 15.724C113.941 15.3407 114.639 14.8117 115.114 14.137C115.605 13.4623 115.85 12.6957 115.85 11.837C115.85 11.0397 115.628 10.3343 115.183 9.721C114.738 9.09233 114.225 8.57867 113.642 8.18C113.059 7.766 112.216 7.237 111.112 6.593C110.851 6.42433 110.598 6.28633 110.353 6.179C109.694 5.82633 109.211 5.52733 108.904 5.282C108.613 5.02133 108.467 4.72233 108.467 4.385C108.467 3.971 108.643 3.649 108.996 3.419C109.364 3.17367 109.832 3.051 110.399 3.051C110.951 3.051 111.465 3.11233 111.94 3.235C112.415 3.35767 113.021 3.57233 113.757 3.879L114.861 1.257C114.248 0.888999 113.535 0.597666 112.722 0.383C111.909 0.153 111.12 0.0379999 110.353 0.0379999C109.218 0.0379999 108.229 0.229666 107.386 0.612999C106.543 0.980999 105.891 1.49467 105.431 2.154C104.986 2.798 104.756 3.534 104.741 4.362C104.741 5.144 104.963 5.84933 105.408 6.478C105.868 7.10667 106.389 7.628 106.972 8.042C107.57 8.456 108.39 8.97733 109.433 9.606C109.74 9.79 109.97 9.92033 110.123 9.997C110.828 10.411 111.334 10.7407 111.641 10.986C111.963 11.2313 112.124 11.4997 112.124 11.791C112.124 12.2357 111.917 12.596 111.503 12.872C111.089 13.1327 110.499 13.263 109.732 13.263C109.165 13.263 108.513 13.1557 107.777 12.941C107.056 12.711 106.451 12.4657 105.96 12.205L104.925 15.011Z" fill="#8CC740"/>
</svg>
