<svg width="24" height="23" viewBox="0 0 24 23" fill="none" xmlns="http://www.w3.org/2000/svg">
<path d="M13.28 22.64V0H9.08L0 3.96L2.4 8.84L7 6.96V22.64H13.28ZM20.28 22.64C20.7153 22.6509 21.148 22.5711 21.5509 22.4059C21.9537 22.2406 22.3178 21.9934 22.62 21.68C22.9246 21.3763 23.1648 21.0143 23.3263 20.6157C23.4878 20.2171 23.5673 19.79 23.56 19.36C23.5702 18.9236 23.4922 18.4897 23.3307 18.0841C23.1692 17.6786 22.9274 17.3099 22.62 17C22.3178 16.6866 21.9537 16.4394 21.5509 16.2741C21.148 16.1089 20.7153 16.0291 20.28 16.04C19.8419 16.0304 19.4065 16.1106 19.0006 16.2757C18.5947 16.4408 18.227 16.6873 17.92 17C17.6073 17.307 17.3608 17.6747 17.1957 18.0806C17.0306 18.4865 16.9504 18.9219 16.96 19.36C16.9531 19.7918 17.0347 20.2204 17.1998 20.6194C17.3649 21.0184 17.61 21.3794 17.92 21.68C18.227 21.9927 18.5947 22.2392 19.0006 22.4043C19.4065 22.5694 19.8419 22.6496 20.28 22.64Z" fill="#BDCCD4"/>
</svg>
