<svg width="27" height="24" viewBox="0 0 27 24" fill="none" xmlns="http://www.w3.org/2000/svg">
<path d="M8.24 0.839854C5.52433 0.809844 2.85301 1.52958 0.52 2.91985L1.44 7.95985C2.43709 7.3974 3.48098 6.92229 4.56 6.53986C5.62229 6.14204 6.74573 5.93224 7.88 5.91985C8.84821 5.86986 9.81111 6.09154 10.66 6.55985C10.9806 6.74553 11.2448 7.01475 11.4245 7.33879C11.6041 7.66283 11.6924 8.02956 11.68 8.39985C11.6346 9.23057 11.2942 10.0178 10.72 10.6199C9.82492 11.6254 8.84827 12.5552 7.8 13.3999L0 20.1199V23.9999H17.88L17.4 19.1599H8.72L11.44 16.8799C13.0873 15.5732 14.5535 14.0532 15.8 12.3599C16.6854 11.0355 17.1459 9.47268 17.12 7.87985C17.1706 6.8856 16.9807 5.89381 16.5664 4.98858C16.1521 4.08335 15.5256 3.29139 14.74 2.67985C12.8393 1.35856 10.5513 0.710876 8.24 0.839854ZM23.2 23.9999C23.6353 24.0107 24.068 23.931 24.4709 23.7657C24.8737 23.6004 25.2378 23.3533 25.54 23.0399C25.8446 22.7362 26.0848 22.3742 26.2463 21.9756C26.4078 21.577 26.4873 21.1499 26.48 20.7199C26.4902 20.2835 26.4122 19.8495 26.2507 19.444C26.0892 19.0385 25.8474 18.6697 25.54 18.3599C25.2378 18.0464 24.8737 17.7993 24.4709 17.634C24.068 17.4687 23.6353 17.389 23.2 17.3999C22.7619 17.3902 22.3265 17.4704 21.9206 17.6355C21.5147 17.8006 21.147 18.0471 20.84 18.3599C20.5273 18.6668 20.2808 19.0346 20.1157 19.4405C19.9506 19.8464 19.8704 20.2818 19.88 20.7199C19.8731 21.1516 19.9547 21.5802 20.1198 21.9793C20.2849 22.3783 20.53 22.7392 20.84 23.0399C21.147 23.3526 21.5147 23.5991 21.9206 23.7642C22.3265 23.9293 22.7619 24.0095 23.2 23.9999Z" fill="#BDCCD4"/>
</svg>
