<svg width="29" height="28" viewBox="0 0 29 28" fill="none" xmlns="http://www.w3.org/2000/svg">
<path d="M9.76 0.840145C6.53889 0.795389 3.39178 1.80696 0.8 3.72014L3.76 7.92015C5.37561 6.71988 7.31002 6.02406 9.32 5.92015C10.1963 5.86651 11.0663 6.09806 11.8 6.58014C12.0714 6.7636 12.2936 7.01093 12.4471 7.30038C12.6005 7.58983 12.6805 7.91254 12.68 8.24014C12.6776 8.65028 12.5625 9.05188 12.3474 9.40106C12.1322 9.75024 11.8253 10.0336 11.46 10.2201C10.4608 10.7584 9.33372 11.0143 8.2 10.9601H5.24L5.88 15.8801H8.8C9.94216 15.8052 11.0781 16.0997 12.04 16.7201C12.4058 16.9916 12.6993 17.3488 12.8946 17.7603C13.0899 18.1719 13.181 18.6251 13.16 19.0801C13.1661 19.5019 13.0668 19.9184 12.8713 20.2921C12.6757 20.6658 12.39 20.9848 12.04 21.2201C11.2332 21.7854 10.2646 22.0731 9.28 22.0401C8.28312 22.0466 7.29129 21.8982 6.34 21.6001C5.26395 21.2323 4.23645 20.7353 3.28 20.1201L0 24.2801C1.44352 25.1469 2.98854 25.8321 4.6 26.3201C6.1004 26.8023 7.66419 27.0584 9.24 27.0801C11.0523 27.1173 12.8519 26.7696 14.52 26.0601C15.9366 25.4631 17.1614 24.4874 18.06 23.2401C18.8982 22.0463 19.339 20.6187 19.32 19.1601C19.3238 17.8394 18.9414 16.5464 18.22 15.4401C17.6467 14.4411 16.7908 13.634 15.76 13.1201C16.649 12.6073 17.3872 11.8692 17.9 10.9801C18.3859 10.0041 18.7166 8.95816 18.88 7.88014C18.7141 6.62776 18.3424 5.41139 17.78 4.28015C16.9826 3.1616 15.8879 2.28866 14.62 1.76015C13.0828 1.11471 11.4267 0.8012 9.76 0.840145ZM24.92 24.0001C25.3553 24.011 25.788 23.9313 26.1909 23.766C26.5937 23.6007 26.9578 23.3536 27.26 23.0401C27.5646 22.7365 27.8048 22.3745 27.9663 21.9759C28.1278 21.5773 28.2073 21.1502 28.2 20.7201C28.2102 20.2838 28.1322 19.8498 27.9707 19.4443C27.8092 19.0388 27.5674 18.67 27.26 18.3601C26.9578 18.0467 26.5937 17.7995 26.1909 17.6343C25.788 17.469 25.3553 17.3893 24.92 17.4001C24.4819 17.3905 24.0465 17.4707 23.6406 17.6358C23.2347 17.8009 22.867 18.0474 22.56 18.3601C22.0707 19.0668 21.7429 19.8726 21.6 20.7201C21.7454 21.5547 22.0732 22.3469 22.56 23.0401C22.867 23.3529 23.2347 23.5994 23.6406 23.7645C24.0465 23.9296 24.4819 24.0098 24.92 24.0001Z" fill="#BDCCD4"/>
</svg>
