<svg width="14" height="14" viewBox="0 0 14 14" fill="none" xmlns="http://www.w3.org/2000/svg">
<path d="M11.664 11.0825C11.664 11.5466 11.4796 11.9916 11.1514 12.3198C10.8232 12.648 10.3781 12.8325 9.914 12.8325H6.99799C6.53403 12.8323 6.08917 12.6475 5.7612 12.3193C5.43323 11.9912 5.24899 11.5465 5.24899 11.0825V7.38232L5.884 6.74756L5.05899 5.92236L4.66599 6.31543L1.509 3.1582C1.40023 3.05017 1.31396 2.92189 1.25525 2.78027C1.19654 2.63865 1.16655 2.4868 1.16699 2.3335C1.16726 2.02433 1.29018 1.72789 1.50879 1.50928C1.7274 1.29067 2.02382 1.16775 2.33298 1.16748H2.91599V0.000488281H2.33298C1.71423 0.000488281 1.12084 0.246071 0.683321 0.683594C0.245798 1.12112 1.57745e-06 1.71475 1.57745e-06 2.3335C-0.000355159 2.63994 0.059798 2.94342 0.177004 3.22656C0.294209 3.50971 0.466144 3.76686 0.682985 3.9834L4.08298 7.3833V11.0835C4.08298 11.8569 4.39022 12.5982 4.93707 13.145C5.48393 13.6919 6.22562 13.9995 6.99899 13.9995H9.91498C10.298 13.9996 10.6772 13.9243 11.031 13.7778C11.3849 13.6313 11.7064 13.4163 11.9772 13.1455C12.248 12.8747 12.4628 12.5531 12.6093 12.1992C12.7558 11.8454 12.8311 11.4665 12.831 11.0835V8.7832H11.665L11.664 11.0825Z" fill="black"/>
<path d="M8.16599 2.3335C8.1663 2.48663 8.13622 2.63835 8.07751 2.77979C8.01881 2.92123 7.93263 3.04932 7.82397 3.15723L5.83398 5.14746L6.659 5.97217L8.64899 3.98242C8.86575 3.76603 9.03767 3.50905 9.15488 3.22607C9.27208 2.9431 9.33228 2.63978 9.332 2.3335C9.332 1.71475 9.08617 1.12112 8.64865 0.683594C8.21113 0.246071 7.61774 0.000488281 6.99899 0.000488281H6.41699V1.16748H7C7.30908 1.16801 7.60533 1.29072 7.82388 1.50928C8.04244 1.72783 8.16546 2.02442 8.16599 2.3335Z" fill="black"/>
<path d="M13.9971 5.24854C13.9971 5.01877 13.9518 4.79088 13.8638 4.57861C13.7759 4.36635 13.647 4.17365 13.4844 4.01123C13.3219 3.84881 13.129 3.72016 12.9167 3.63232C12.7044 3.54449 12.4768 3.49938 12.2471 3.49951C12.0173 3.49938 11.7898 3.54449 11.5775 3.63232C11.3651 3.72016 11.1722 3.84881 11.0097 4.01123C10.8472 4.17365 10.7182 4.36635 10.6303 4.57861C10.5423 4.79088 10.4971 5.01877 10.4971 5.24854C10.4976 5.60937 10.61 5.96111 10.8188 6.25537C11.0277 6.54964 11.3226 6.77152 11.6631 6.89111V7.69141H12.8291V6.89111C13.1699 6.77186 13.4653 6.55015 13.6745 6.25586C13.8837 5.96157 13.9964 5.60961 13.9971 5.24854ZM12.2471 5.83154C12.0924 5.83154 11.9441 5.76998 11.8348 5.66064C11.7255 5.55131 11.6641 5.40316 11.6641 5.24854C11.6641 5.09391 11.7255 4.94527 11.8348 4.83594C11.9441 4.7266 12.0924 4.66553 12.2471 4.66553C12.3236 4.66553 12.3994 4.68066 12.4702 4.70996C12.5409 4.73926 12.6052 4.7818 12.6593 4.83594C12.7134 4.89007 12.7564 4.95466 12.7857 5.02539C12.815 5.09612 12.83 5.17197 12.83 5.24854C12.8302 5.32518 12.8152 5.40083 12.786 5.47168C12.7567 5.54253 12.7138 5.60689 12.6597 5.66113C12.6055 5.71538 12.5412 5.75873 12.4704 5.78809C12.3996 5.81745 12.3237 5.83252 12.2471 5.83252V5.83154Z" fill="black"/>
</svg>
