<svg width="24" height="19" viewBox="0 0 24 19" fill="none" xmlns="http://www.w3.org/2000/svg">
<path d="M23.2631 15.9775H22.1554V1.29534C22.1554 0.581174 21.6584 0 21.0476 0H2.58479C1.97404 0 1.47703 0.581174 1.47703 1.29534V15.9775H0.369256C0.165058 15.9775 0 16.1706 0 16.4093V17.7047C0 18.4188 0.497019 19 1.10777 19H22.5246C23.1354 19 23.6324 18.4188 23.6324 17.7047V16.4093C23.6324 16.1706 23.4673 15.9775 23.2631 15.9775ZM2.58479 0.863558H21.0476C21.2514 0.863558 21.4169 1.05699 21.4169 1.29534V14.2504H17.355V11.6572C17.355 11.6006 17.3454 11.5445 17.3266 11.4918C17.3093 11.443 17.2838 11.3998 17.2531 11.3623C17.2505 11.3588 17.2498 11.3545 17.2469 11.3515L15.7698 9.62694C15.6254 9.45898 15.3917 9.45855 15.2473 9.62737C15.1033 9.79663 15.1033 10.0695 15.2477 10.2383L16.6165 11.8364V14.2504H15.5088V13.3847C15.5088 12.4326 14.8463 11.658 14.0317 11.658C14.0277 11.658 14.0247 11.6606 14.021 11.6606H13.2932V10.7573C14.1743 10.1593 14.7691 9.04793 14.7703 7.77461C14.7703 7.77418 14.7703 7.77418 14.7703 7.77375V6.47927C14.7703 6.47841 14.7706 6.47798 14.7706 6.47712V3.02245C14.7706 2.78368 14.6056 2.59067 14.4014 2.59067H9.23178C9.02758 2.59067 8.86252 2.78368 8.86252 3.02245V6.47539C8.86252 6.47625 8.86215 6.47668 8.86215 6.47755V7.77375V7.77461C8.86326 9.04793 9.45813 10.1593 10.3392 10.7573V11.6606H9.61137C9.60731 11.6606 9.60435 11.658 9.60066 11.658C8.78608 11.658 8.12364 12.4326 8.12364 13.3847V14.2504H2.21554V1.29534C2.21554 1.05699 2.38096 0.863558 2.58479 0.863558ZM12.6976 14.2504L13.1902 12.5242H14.0317C14.0343 12.5242 14.0365 12.5225 14.0391 12.5225C14.4431 12.5272 14.7703 12.9115 14.7703 13.3847V14.2504H12.6976ZM11.7132 14.2504L11.3177 12.864L11.8162 12.5721L12.3151 12.864L11.9196 14.2504H11.7132ZM8.86215 13.3847C8.86215 12.9115 9.18968 12.5272 9.59328 12.5225C9.59586 12.5225 9.59808 12.5242 9.60066 12.5242H10.4422L10.9348 14.2504H8.86215V13.3847ZM9.60066 6.90889H14.0317V7.77159C14.0317 9.19948 13.0381 10.361 11.8162 10.361C10.5943 10.361 9.60066 9.19948 9.60066 7.77159V6.90889ZM11.4473 3.88558V4.31779H11.0777C10.8735 4.31779 10.7084 4.51079 10.7084 4.74957C10.7084 4.98834 10.8735 5.18135 11.0777 5.18135H11.4473V5.61356C11.4473 5.85233 11.6124 6.04534 11.8166 6.04534C12.0208 6.04534 12.1858 5.85233 12.1858 5.61356V5.18135H12.5551C12.7593 5.18135 12.9243 4.98834 12.9243 4.74957C12.9243 4.51079 12.7593 4.31779 12.5551 4.31779H12.1858V3.88558C12.1858 3.64767 12.0219 3.45553 11.8184 3.45423H14.0321V6.04534H11.8166H9.60103V3.45423H11.8147C11.6113 3.45553 11.4473 3.64767 11.4473 3.88558ZM11.8162 11.2245C12.0714 11.2245 12.318 11.1822 12.5547 11.1105V11.9106L12.482 11.9957L11.9816 11.7029C11.9739 11.6982 11.9646 11.699 11.9569 11.6947C11.9333 11.6835 11.9093 11.6775 11.8841 11.6718C11.8612 11.6667 11.8395 11.6615 11.8166 11.6619C11.7937 11.6615 11.7719 11.6671 11.749 11.6718C11.7239 11.6775 11.6999 11.6831 11.6763 11.6947C11.6685 11.699 11.6593 11.6982 11.6515 11.7029L11.1512 11.9957L11.0777 11.9106V11.1105C11.3144 11.1822 11.561 11.2245 11.8162 11.2245ZM2.21554 15.114H3.33069C3.12686 15.114 2.96365 15.307 2.96365 15.5458C2.96365 15.7845 3.13055 15.9775 3.33475 15.9775C3.53858 15.9775 3.70401 15.7845 3.70401 15.5458C3.70401 15.307 3.53858 15.114 3.33475 15.114H9.9773C9.77347 15.114 9.61026 15.307 9.61026 15.5458C9.61026 15.7845 9.77717 15.9775 9.98137 15.9775C10.1852 15.9775 10.3506 15.7845 10.3506 15.5458C10.3506 15.307 10.1852 15.114 9.98137 15.114H11.8236C11.6198 15.114 11.4565 15.307 11.4565 15.5458C11.4565 15.7845 11.6234 15.9775 11.8276 15.9775C12.0315 15.9775 12.1969 15.7845 12.1969 15.5458C12.1969 15.307 12.0315 15.114 11.8276 15.114H13.6699C13.466 15.114 13.3028 15.307 13.3028 15.5458C13.3028 15.7845 13.4697 15.9775 13.6739 15.9775C13.8778 15.9775 14.0432 15.7845 14.0432 15.5458C14.0432 15.307 13.8778 15.114 13.6739 15.114H20.3165C20.1126 15.114 19.9494 15.307 19.9494 15.5458C19.9494 15.7845 20.1163 15.9775 20.3205 15.9775C20.5244 15.9775 20.6898 15.7845 20.6898 15.5458C20.6898 15.307 20.5244 15.114 20.3205 15.114H21.4169V15.9775H20.3202H13.6736H11.8273H9.981H3.33438H2.21554V15.114ZM22.5246 18.1364H1.10777C0.903939 18.1364 0.738513 17.943 0.738513 17.7047V16.8411H22.8939V17.7047C22.8939 17.943 22.7285 18.1364 22.5246 18.1364Z" fill="black" fill-opacity="0.8"/>
</svg>
