<svg width="25" height="25" viewBox="0 0 25 25" fill="none" xmlns="http://www.w3.org/2000/svg">
<path d="M20 0H5C2.23858 0 0 2.23858 0 5V20C0 22.7614 2.23858 25 5 25H20C22.7614 25 25 22.7614 25 20V5C25 2.23858 22.7614 0 20 0Z" fill="#FAFAF5"/>
<path d="M12.9635 24.8929V16.5289H10.1445V13.1139H12.9635V10.2469C12.9635 9.24549 13.3614 8.28505 14.0695 7.57691C14.7776 6.86877 15.7381 6.47095 16.7395 6.47095H19.6865V9.54095H17.5775C17.2593 9.54095 16.954 9.66738 16.729 9.89242C16.504 10.1175 16.3775 10.4227 16.3775 10.7409V13.1139H19.6335L19.1835 16.5279H16.3775V24.8929" fill="#004040"/>
</svg>
