<svg width="6" height="11" viewBox="0 0 6 11" fill="none" xmlns="http://www.w3.org/2000/svg">
<path d="M5.84714 5.23003L1.58314 0.966028C1.48474 0.868017 1.35152 0.812988 1.21264 0.812988C1.07376 0.812988 0.940529 0.868017 0.842133 0.966028L0.528137 1.28003C0.430127 1.37842 0.375099 1.51165 0.375099 1.65053C0.375099 1.78941 0.430127 1.92263 0.528137 2.02103L4.10813 5.60103L0.524132 9.18503C0.426122 9.28342 0.371094 9.41665 0.371094 9.55553C0.371094 9.69441 0.426122 9.82763 0.524132 9.92603L0.838135 10.24C0.936531 10.338 1.06975 10.3931 1.20863 10.3931C1.34751 10.3931 1.48074 10.338 1.57913 10.24L5.84714 5.97303C5.94509 5.87399 6.00003 5.74032 6.00003 5.60103C6.00003 5.46173 5.94509 5.32806 5.84714 5.22903V5.23003Z" fill="black"/>
</svg>
