<svg width="25" height="26" viewBox="0 0 25 26" fill="none" xmlns="http://www.w3.org/2000/svg">
<path d="M19.4069 14.1299V8.87988L20.9129 10.3638L22.7559 8.54785L19.9459 5.78271L18.1029 3.96777L13.4499 8.54785L15.2929 10.3638L16.7999 8.87988V14.1299C15.4673 14.4108 14.2711 15.1391 13.4102 16.1943C12.5493 17.2495 12.0756 18.5679 12.0679 19.9297C12.074 20.716 12.235 21.4932 12.5416 22.2173C12.8483 22.9414 13.2946 23.5983 13.855 24.1499C14.4154 24.7015 15.079 25.137 15.8079 25.4321C16.5367 25.7272 17.3166 25.876 18.1029 25.8696C18.8891 25.8758 19.6689 25.7273 20.3976 25.4321C21.1264 25.137 21.7898 24.701 22.3502 24.1494C22.9105 23.5978 23.3566 22.9413 23.6632 22.2173C23.9698 21.4933 24.1308 20.7159 24.1369 19.9297C24.1293 18.5681 23.6559 17.25 22.7953 16.1948C21.9348 15.1397 20.739 14.4112 19.4069 14.1299ZM18.1069 23.3018C17.6602 23.3054 17.2172 23.2208 16.8032 23.0532C16.3891 22.8856 16.0121 22.6385 15.6938 22.3252C15.3754 22.0119 15.122 21.6389 14.9478 21.2275C14.7737 20.8162 14.6823 20.3744 14.6789 19.9277C14.6822 19.481 14.7734 19.0394 14.9475 18.6279C15.1216 18.2165 15.3751 17.8432 15.6934 17.5298C16.0118 17.2163 16.3888 16.9689 16.8029 16.8013C17.217 16.6336 17.6601 16.549 18.1069 16.5527C18.5536 16.549 18.9967 16.6336 19.4108 16.8013C19.8249 16.9689 20.202 17.2163 20.5203 17.5298C20.8387 17.8432 21.0922 18.2165 21.2662 18.6279C21.4403 19.0394 21.5316 19.481 21.5349 19.9277C21.5319 20.3749 21.4407 20.8171 21.2665 21.229C21.0924 21.6409 20.8387 22.0144 20.52 22.3281C20.2013 22.6418 19.8238 22.8895 19.4092 23.0571C18.9946 23.2247 18.551 23.3088 18.1039 23.3047L18.1069 23.3018Z" fill="#FAB03B"/>
<path d="M12.07 5.93916C12.0637 5.15293 11.9026 4.37554 11.5959 3.65156C11.2893 2.92759 10.843 2.27092 10.2826 1.71943C9.72219 1.16794 9.05863 0.732248 8.32983 0.437206C7.60103 0.142164 6.8212 -0.00613443 6.03497 0.000194342C5.24874 -0.00613443 4.46897 0.142164 3.74017 0.437206C3.01137 0.732248 2.34782 1.16794 1.78741 1.71943C1.22701 2.27092 0.78075 2.92759 0.47406 3.65156C0.16737 4.37554 0.00627824 5.15293 0 5.93916C0.00784679 7.3008 0.481485 8.61887 1.34216 9.67402C2.20284 10.7292 3.39873 11.4577 4.73102 11.739V15.3293H1.86102V17.8942H4.73102V21.2849H7.33801V17.8942H10.207V15.3293H7.33801V11.739C8.67048 11.4579 9.8666 10.7292 10.7275 9.67402C11.5884 8.61885 12.0621 7.30094 12.07 5.93916ZM2.60699 5.93916C2.6104 5.49249 2.70177 5.05069 2.87592 4.63935C3.05006 4.22802 3.30354 3.85503 3.62189 3.5417C3.94024 3.22836 4.31721 2.98077 4.73126 2.81318C5.14531 2.64559 5.58831 2.56144 6.03497 2.56514C6.48164 2.56144 6.92469 2.64559 7.33875 2.81318C7.7528 2.98077 8.12977 3.22836 8.44812 3.5417C8.76647 3.85503 9.01995 4.22802 9.19409 4.63935C9.36823 5.05069 9.45961 5.49249 9.46301 5.93916C9.45987 6.386 9.36867 6.82788 9.19464 7.23945C9.02062 7.65102 8.76717 8.02405 8.44879 8.3376C8.13042 8.65114 7.75335 8.89889 7.33917 9.0666C6.92499 9.23431 6.48181 9.31883 6.03497 9.31514C5.58814 9.31883 5.14502 9.23431 4.73083 9.0666C4.31665 8.89889 3.93959 8.65114 3.62122 8.3376C3.30284 8.02405 3.04939 7.65102 2.87537 7.23945C2.70134 6.82788 2.61013 6.386 2.60699 5.93916Z" fill="#FAB03B"/>
</svg>
