<svg width="106" height="71" viewBox="0 0 106 71" xmlns="http://www.w3.org/2000/svg">
<path d="M104.344 59.7056H99.375V4.84047C99.375 2.17176 97.1457 0 94.4062 0H11.5938C8.85431 0 6.625 2.17176 6.625 4.84047V59.7056H1.65625C0.740344 59.7056 0 60.4268 0 61.3191V66.1595C0 68.8282 2.22931 71 4.96875 71H101.031C103.771 71 106 68.8282 106 66.1595V61.3191C106 60.4268 105.26 59.7056 104.344 59.7056ZM11.5938 3.22698H94.4062C95.3205 3.22698 96.0625 3.94982 96.0625 4.84047V53.2516H77.8438V43.561C77.8438 43.3496 77.8007 43.1399 77.7162 42.943C77.6384 42.7607 77.5241 42.5994 77.3866 42.459C77.375 42.4461 77.3717 42.4299 77.3585 42.4186L70.7335 35.9744C70.0859 35.3467 69.0375 35.3451 68.3899 35.976C67.7439 36.6085 67.7439 37.6282 68.3915 38.2591L74.5312 44.2306V53.2516H69.5625V50.0166C69.5625 46.4588 66.5912 43.5642 62.9375 43.5642C62.9193 43.5642 62.906 43.5739 62.8895 43.5739H59.625V40.1985C63.5768 37.9638 66.245 33.8107 66.25 29.0525C66.25 29.0509 66.25 29.0509 66.25 29.0493V24.212C66.25 24.2088 66.2517 24.2072 66.2517 24.204V11.2944C66.2517 10.4022 65.5113 9.68094 64.5954 9.68094H41.4079C40.492 9.68094 39.7517 10.4022 39.7517 11.2944V24.1975C39.7517 24.2007 39.75 24.2023 39.75 24.2056V29.0493V29.0525C39.755 33.8107 42.4232 37.9638 46.375 40.1985V43.5739H43.1105C43.0923 43.5739 43.0791 43.5642 43.0625 43.5642C39.4088 43.5642 36.4375 46.4588 36.4375 50.0166V53.2516H9.9375V4.84047C9.9375 3.94982 10.6795 3.22698 11.5938 3.22698V3.22698ZM56.9535 53.2516L59.1629 46.8009H62.9375C62.9491 46.8009 62.959 46.7944 62.9706 46.7944C64.7826 46.8122 66.25 48.2482 66.25 50.0166V53.2516H56.9535ZM52.5379 53.2516L50.7641 48.0707L53 46.98L55.2376 48.0707L53.4637 53.2516H52.5379ZM39.75 50.0166C39.75 48.2482 41.2191 46.8122 43.0294 46.7944C43.041 46.7944 43.0509 46.8009 43.0625 46.8009H46.8371L49.0465 53.2516H39.75V50.0166ZM43.0625 25.8174H62.9375V29.0412C62.9375 34.377 58.4805 38.7173 53 38.7173C47.5195 38.7173 43.0625 34.377 43.0625 29.0412V25.8174ZM51.3454 14.5198V16.1349H49.6875C48.7716 16.1349 48.0312 16.8561 48.0312 17.7484C48.0312 18.6406 48.7716 19.3619 49.6875 19.3619H51.3454V20.977C51.3454 21.8692 52.0857 22.5905 53.0017 22.5905C53.9176 22.5905 54.6579 21.8692 54.6579 20.977V19.3619H56.3142C57.2301 19.3619 57.9704 18.6406 57.9704 17.7484C57.9704 16.8561 57.2301 16.1349 56.3142 16.1349H54.6579V14.5198C54.6579 13.6308 53.9225 12.9128 53.0099 12.9079H62.9392V22.5905H53.0017H43.0642V12.9079H52.9934C52.0808 12.9128 51.3454 13.6308 51.3454 14.5198V14.5198ZM53 41.9443C54.1445 41.9443 55.2508 41.7862 56.3125 41.5183V44.5081L55.9862 44.826L53.742 43.732C53.7072 43.7143 53.6658 43.7175 53.631 43.7014C53.525 43.6594 53.4174 43.6368 53.3047 43.6159C53.2021 43.5965 53.1043 43.5771 53.0017 43.5787C52.899 43.5771 52.8013 43.5981 52.6986 43.6159C52.5859 43.6368 52.4783 43.6578 52.3723 43.7014C52.3375 43.7175 52.2961 43.7143 52.2613 43.732L50.0171 44.826L49.6875 44.5081V41.5183C50.7492 41.7862 51.8555 41.9443 53 41.9443V41.9443ZM9.9375 56.4786H14.9394C14.0251 56.4786 13.2931 57.1998 13.2931 58.0921C13.2931 58.9843 14.0417 59.7056 14.9576 59.7056C15.8718 59.7056 16.6138 58.9843 16.6138 58.0921C16.6138 57.1998 15.8718 56.4786 14.9576 56.4786H44.7519C43.8376 56.4786 43.1056 57.1998 43.1056 58.0921C43.1056 58.9843 43.8542 59.7056 44.7701 59.7056C45.6843 59.7056 46.4263 58.9843 46.4263 58.0921C46.4263 57.1998 45.6843 56.4786 44.7701 56.4786H53.0331C52.1189 56.4786 51.3868 57.1998 51.3868 58.0921C51.3868 58.9843 52.1354 59.7056 53.0513 59.7056C53.9656 59.7056 54.7076 58.9843 54.7076 58.0921C54.7076 57.1998 53.9656 56.4786 53.0513 56.4786H61.3144C60.4001 56.4786 59.6681 57.1998 59.6681 58.0921C59.6681 58.9843 60.4167 59.7056 61.3326 59.7056C62.2468 59.7056 62.9888 58.9843 62.9888 58.0921C62.9888 57.1998 62.2468 56.4786 61.3326 56.4786H91.1269C90.2126 56.4786 89.4806 57.1998 89.4806 58.0921C89.4806 58.9843 90.2292 59.7056 91.1451 59.7056C92.0593 59.7056 92.8013 58.9843 92.8013 58.0921C92.8013 57.1998 92.0593 56.4786 91.1451 56.4786H96.0625V59.7056H91.1434H61.3309H53.0497H44.7684H14.9559H9.9375V56.4786ZM101.031 67.773H4.96875C4.0545 67.773 3.3125 67.0502 3.3125 66.1595V62.9326H102.688V66.1595C102.688 67.0502 101.945 67.773 101.031 67.773Z" />
<path d="M14.9062 17.7538H24.8438C25.6023 17.7538 26.2135 17.2487 26.4106 16.5711L31.0679 17.7053C31.2004 17.7392 31.3346 17.7521 31.4654 17.7538H31.4688H31.4704C31.6774 17.7538 31.8745 17.7086 32.0617 17.6376C32.1263 17.6134 32.1793 17.5763 32.2389 17.544C32.3532 17.4843 32.4625 17.4181 32.5602 17.3326C32.6165 17.2826 32.6646 17.2278 32.7159 17.1697C32.7938 17.0793 32.8583 16.9857 32.9163 16.8792C32.9544 16.8066 32.9892 16.734 33.0173 16.655C33.0339 16.6114 33.0621 16.5743 33.0737 16.5291C33.0902 16.4646 33.0753 16.4016 33.0836 16.3355C33.0919 16.2693 33.125 16.2096 33.125 16.1403V8.07281C33.125 8.00343 33.0919 7.94373 33.0852 7.87597C33.077 7.80981 33.0919 7.74689 33.0753 7.68235C33.0654 7.64201 33.0356 7.61297 33.0223 7.57425C32.9859 7.46453 32.9329 7.36611 32.8732 7.2693C32.8219 7.18378 32.7722 7.10149 32.706 7.0305C32.6364 6.94982 32.5553 6.8869 32.4691 6.82236C32.3847 6.75782 32.3035 6.69812 32.2091 6.65133C32.1197 6.60777 32.0269 6.58034 31.9292 6.55129C31.8182 6.51902 31.7073 6.49482 31.5897 6.48514C31.5483 6.48191 31.5118 6.46094 31.4688 6.46094C31.3975 6.46094 31.3379 6.49321 31.2683 6.49966C31.2021 6.50773 31.1358 6.49159 31.0679 6.50934L26.4106 7.64363C26.2135 6.96596 25.6023 6.46094 24.8438 6.46094H14.9062C13.9903 6.46094 13.25 7.18217 13.25 8.07443V16.1419C13.25 17.0325 13.9903 17.7538 14.9062 17.7538ZM29.8125 14.075L26.5 13.2683V10.9464L29.8125 10.1397V14.075ZM16.5625 9.6863H23.1875V14.5268H16.5625V9.6863Z" />
<path d="M77.0156 16.1402C79.2996 16.1402 81.1562 14.3315 81.1562 12.1065C81.1562 9.88147 79.2996 8.07275 77.0156 8.07275C74.7317 8.07275 72.875 9.88147 72.875 12.1065C72.875 14.3315 74.7317 16.1402 77.0156 16.1402ZM77.0156 11.2997C77.4711 11.2997 77.8437 11.6628 77.8437 12.1065C77.8437 12.5502 77.4711 12.9132 77.0156 12.9132C76.5602 12.9132 76.1875 12.5502 76.1875 12.1065C76.1875 11.6628 76.5602 11.2997 77.0156 11.2997Z" />
<path d="M88.6094 16.1402C90.8933 16.1402 92.75 14.3315 92.75 12.1065C92.75 9.88147 90.8933 8.07275 88.6094 8.07275C86.3254 8.07275 84.4688 9.88147 84.4688 12.1065C84.4688 14.3315 86.3254 16.1402 88.6094 16.1402ZM88.6094 11.2997C89.0648 11.2997 89.4375 11.6628 89.4375 12.1065C89.4375 12.5502 89.0648 12.9132 88.6094 12.9132C88.1539 12.9132 87.7812 12.5502 87.7812 12.1065C87.7812 11.6628 88.1539 11.2997 88.6094 11.2997Z" />
</svg>
