<svg width="89" height="60" viewBox="0 0 89 60" fill="none" xmlns="http://www.w3.org/2000/svg">
<path d="M87.6094 50.1302H83.4375V4.06417C83.4375 1.82346 81.5657 0 79.2656 0H9.73438C7.43428 0 5.5625 1.82346 5.5625 4.06417V50.1302H1.39062C0.621609 50.1302 0 50.7357 0 51.4849V55.549C0 57.7898 1.87178 59.6132 4.17188 59.6132H84.8281C87.1282 59.6132 89 57.7898 89 55.549V51.4849C89 50.7357 88.3784 50.1302 87.6094 50.1302ZM9.73438 2.70945H79.2656C80.0332 2.70945 80.6562 3.31636 80.6562 4.06417V44.7113H65.3594V36.5748C65.3594 36.3973 65.3232 36.2212 65.2523 36.0559C65.1869 35.9029 65.091 35.7674 64.9756 35.6495C64.9658 35.6387 64.9631 35.6251 64.9519 35.6157L59.3894 30.2049C58.8457 29.6779 57.9654 29.6765 57.4217 30.2062C56.8793 30.7373 56.8793 31.5935 57.4231 32.1232L62.5781 37.137V44.7113H58.4062V41.995C58.4062 39.0079 55.9115 36.5775 52.8438 36.5775C52.8285 36.5775 52.8173 36.5856 52.8034 36.5856H50.0625V33.7516C53.3805 31.8753 55.6208 28.3882 55.625 24.3931C55.625 24.3918 55.625 24.3918 55.625 24.3904V20.329C55.625 20.3263 55.6264 20.3249 55.6264 20.3222V9.48306C55.6264 8.7339 55.0048 8.12834 54.2358 8.12834H34.767C33.998 8.12834 33.3764 8.7339 33.3764 9.48306V20.3168C33.3764 20.3195 33.375 20.3208 33.375 20.3235V24.3904V24.3931C33.3792 28.3882 35.6195 31.8753 38.9375 33.7516V36.5856H36.1966C36.1813 36.5856 36.1702 36.5775 36.1562 36.5775C33.0885 36.5775 30.5938 39.0079 30.5938 41.995V44.7113H8.34375V4.06417C8.34375 3.31636 8.96675 2.70945 9.73438 2.70945ZM47.8194 44.7113L49.6745 39.2951H52.8438C52.8535 39.2951 52.8618 39.2897 52.8716 39.2897C54.3929 39.3046 55.625 40.5103 55.625 41.995V44.7113H47.8194ZM44.112 44.7113L42.6227 40.3613L44.5 39.4455L46.3787 40.3613L44.8894 44.7113H44.112ZM33.375 41.995C33.375 40.5103 34.6085 39.3046 36.1284 39.2897C36.1382 39.2897 36.1465 39.2951 36.1562 39.2951H39.3255L41.1806 44.7113H33.375V41.995ZM36.1562 21.6769H52.8438V24.3837C52.8438 28.8637 49.1016 32.5079 44.5 32.5079C39.8984 32.5079 36.1562 28.8637 36.1562 24.3837V21.6769ZM43.1108 12.1911V13.5472H41.7188C40.9497 13.5472 40.3281 14.1528 40.3281 14.9019C40.3281 15.6511 40.9497 16.2567 41.7188 16.2567H43.1108V17.6127C43.1108 18.3619 43.7324 18.9675 44.5014 18.9675C45.2704 18.9675 45.892 18.3619 45.892 17.6127V16.2567H47.2826C48.0517 16.2567 48.6733 15.6511 48.6733 14.9019C48.6733 14.1528 48.0517 13.5472 47.2826 13.5472H45.892V12.1911C45.892 11.4447 45.2746 10.8418 44.5083 10.8378H52.8451V18.9675H44.5014H36.1576V10.8378H44.4944C43.7282 10.8418 43.1108 11.4447 43.1108 12.1911ZM44.5 35.2174C45.4609 35.2174 46.3899 35.0846 47.2812 34.8597V37.37L47.0073 37.6369L45.123 36.7184C45.0938 36.7035 45.059 36.7062 45.0298 36.6927C44.9408 36.6574 44.8504 36.6385 44.7559 36.6209C44.6697 36.6046 44.5876 36.5883 44.5014 36.5897C44.4152 36.5883 44.3331 36.606 44.2469 36.6209C44.1523 36.6385 44.062 36.6561 43.973 36.6927C43.9438 36.7062 43.909 36.7035 43.8798 36.7184L41.9955 37.6369L41.7188 37.37V34.8597C42.6101 35.0846 43.5391 35.2174 44.5 35.2174ZM8.34375 47.4207H12.5434C11.7758 47.4207 11.1612 48.0263 11.1612 48.7754C11.1612 49.5246 11.7897 50.1302 12.5587 50.1302C13.3264 50.1302 13.9494 49.5246 13.9494 48.7754C13.9494 48.0263 13.3264 47.4207 12.5587 47.4207H37.5747C36.8071 47.4207 36.1924 48.0263 36.1924 48.7754C36.1924 49.5246 36.821 50.1302 37.59 50.1302C38.3576 50.1302 38.9806 49.5246 38.9806 48.7754C38.9806 48.0263 38.3576 47.4207 37.59 47.4207H44.5278C43.7602 47.4207 43.1455 48.0263 43.1455 48.7754C43.1455 49.5246 43.7741 50.1302 44.5431 50.1302C45.3107 50.1302 45.9337 49.5246 45.9337 48.7754C45.9337 48.0263 45.3107 47.4207 44.5431 47.4207H51.4809C50.7133 47.4207 50.0987 48.0263 50.0987 48.7754C50.0987 49.5246 50.7272 50.1302 51.4962 50.1302C52.2639 50.1302 52.8869 49.5246 52.8869 48.7754C52.8869 48.0263 52.2639 47.4207 51.4962 47.4207H76.5122C75.7446 47.4207 75.1299 48.0263 75.1299 48.7754C75.1299 49.5246 75.7585 50.1302 76.5275 50.1302C77.2951 50.1302 77.9181 49.5246 77.9181 48.7754C77.9181 48.0263 77.2951 47.4207 76.5275 47.4207H80.6562V50.1302H76.5261H51.4948H44.5417H37.5886H12.5573H8.34375V47.4207ZM84.8281 56.9038H4.17188C3.40425 56.9038 2.78125 56.2968 2.78125 55.549V52.8396H86.2188V55.549C86.2188 56.2968 85.5957 56.9038 84.8281 56.9038Z" fill="#34AEE4"/>
<path d="M12.5156 14.9065H20.8594C21.4963 14.9065 22.0094 14.4825 22.1749 13.9135L26.0853 14.8659C26.1966 14.8943 26.3092 14.9052 26.4191 14.9065H26.4219H26.4233C26.5971 14.9065 26.7626 14.8686 26.9197 14.809C26.974 14.7886 27.0185 14.7575 27.0685 14.7304C27.1645 14.6803 27.2563 14.6247 27.3383 14.5529C27.3856 14.5109 27.4259 14.4649 27.469 14.4161C27.5344 14.3402 27.5886 14.2617 27.6373 14.1722C27.6693 14.1113 27.6985 14.0503 27.7221 13.9839C27.736 13.9474 27.7597 13.9162 27.7694 13.8783C27.7833 13.8241 27.7708 13.7712 27.7777 13.7157C27.7847 13.6602 27.8125 13.61 27.8125 13.5518V6.77817C27.8125 6.71992 27.7847 6.66979 27.7791 6.6129C27.7722 6.55735 27.7847 6.50452 27.7708 6.45033C27.7624 6.41646 27.7374 6.39208 27.7263 6.35956C27.6957 6.26744 27.6512 6.1848 27.6011 6.10352C27.558 6.03172 27.5163 5.96263 27.4607 5.90302C27.4023 5.83529 27.3341 5.78245 27.2618 5.72826C27.1909 5.67407 27.1228 5.62395 27.0435 5.58466C26.9684 5.54808 26.8905 5.52505 26.8085 5.50067C26.7153 5.47357 26.6221 5.45325 26.5234 5.44513C26.4886 5.44242 26.458 5.4248 26.4219 5.4248C26.3621 5.4248 26.312 5.4519 26.2536 5.45732C26.198 5.46409 26.1424 5.45054 26.0853 5.46545L22.1749 6.41782C22.0094 5.84883 21.4963 5.4248 20.8594 5.4248H12.5156C11.7466 5.4248 11.125 6.03037 11.125 6.77953V13.5531C11.125 14.3009 11.7466 14.9065 12.5156 14.9065ZM25.0312 11.8177L22.25 11.1404V9.19093L25.0312 8.51357V11.8177ZM13.9062 8.13289H19.4688V12.1971H13.9062V8.13289Z" fill="#34AEE4"/>
<path d="M64.6641 13.5514C66.5817 13.5514 68.1406 12.0328 68.1406 10.1646C68.1406 8.29647 66.5817 6.77783 64.6641 6.77783C62.7464 6.77783 61.1875 8.29647 61.1875 10.1646C61.1875 12.0328 62.7464 13.5514 64.6641 13.5514ZM64.6641 9.48728C65.0465 9.48728 65.3594 9.79209 65.3594 10.1646C65.3594 10.5372 65.0465 10.842 64.6641 10.842C64.2816 10.842 63.9687 10.5372 63.9687 10.1646C63.9687 9.79209 64.2816 9.48728 64.6641 9.48728Z" fill="#34AEE4"/>
<path d="M74.3984 13.5514C76.3161 13.5514 77.875 12.0328 77.875 10.1646C77.875 8.29647 76.3161 6.77783 74.3984 6.77783C72.4808 6.77783 70.9219 8.29647 70.9219 10.1646C70.9219 12.0328 72.4808 13.5514 74.3984 13.5514ZM74.3984 9.48728C74.7809 9.48728 75.0937 9.79209 75.0937 10.1646C75.0937 10.5372 74.7809 10.842 74.3984 10.842C74.016 10.842 73.7031 10.5372 73.7031 10.1646C73.7031 9.79209 74.016 9.48728 74.3984 9.48728Z" fill="#34AEE4"/>
</svg>
