<svg width="81" height="76" viewBox="0 0 81 76" fill="none" xmlns="http://www.w3.org/2000/svg">
<path d="M78.1866 59.4L74.462 17.1936C74.2878 15.0981 72.5308 13.4892 70.4281 13.5H48.6V4.05C48.6 1.81322 46.7868 0 44.55 0H4.05C1.81322 0 0 1.81322 0 4.05V14.85H2.7V4.05C2.7 3.30446 3.30446 2.7 4.05 2.7H44.55C45.2955 2.7 45.9 3.30446 45.9 4.05V45.9H2.7V33.75H0V67.5H11.5087C13.7336 73.8188 20.6597 77.1376 26.9784 74.9128C30.4447 73.6924 33.1707 70.9663 34.3913 67.5H46.6088C48.8336 73.8188 55.7597 77.1376 62.0784 74.9128C65.5447 73.6924 68.2707 70.9663 69.4912 67.5H81V59.4H78.1866ZM73.8085 40.5H55.35C54.6045 40.5 54 39.8955 54 39.15V22.95C54 22.2045 54.6045 21.6 55.35 21.6H72.14L73.8085 40.5ZM10.8797 64.8H2.7V62.1H10.8797C10.7733 62.9969 10.7733 63.9033 10.8797 64.8ZM22.95 72.9C17.7309 72.9 13.5 68.6691 13.5 63.45C13.5 58.2309 17.7309 54 22.95 54C28.1691 54 32.4 58.2309 32.4 63.45C32.3941 68.6667 28.1666 72.8941 22.95 72.9ZM45.9796 64.8H35.0204C35.1267 63.9031 35.1267 62.9969 35.0204 62.1H45.9796C45.8733 62.9969 45.8733 63.9033 45.9796 64.8ZM58.05 72.9C52.8309 72.9 48.6 68.6691 48.6 63.45C48.6 58.2309 52.8309 54 58.05 54C63.2691 54 67.5 58.2309 67.5 63.45C67.4941 68.6667 63.2666 72.8941 58.05 72.9ZM69.4912 59.4C67.2664 53.0812 60.3403 49.7624 54.0216 51.9871C50.5553 53.2076 47.8293 55.9337 46.6088 59.4H34.3913C32.1665 53.0812 25.2403 49.7624 18.9216 51.9871C15.4553 53.2076 12.7293 55.9337 11.5087 59.4H2.7V48.6H48.6V16.2H70.4281C71.1312 16.1934 71.7201 16.7305 71.7782 17.4312L71.9132 18.9H55.35C53.1132 18.9 51.3 20.7132 51.3 22.95V39.15C51.3 41.3868 53.1132 43.2 55.35 43.2H74.0462L75.4758 59.4H69.4912ZM78.3 64.8H70.1204C70.2267 63.9031 70.2267 62.9969 70.1204 62.1H78.3V64.8Z" fill="black"/>
<path d="M58.05 56.6997C54.3222 56.6997 51.3 59.7219 51.3 63.4497C51.3 67.1776 54.3222 70.1997 58.05 70.1997C61.7779 70.1997 64.8 67.1776 64.8 63.4497C64.7957 59.7237 61.776 56.7043 58.05 56.6997ZM58.05 67.4997C55.8133 67.4997 54 65.6865 54 63.4497C54 61.2129 55.8133 59.3997 58.05 59.3997C60.2868 59.3997 62.1 61.2129 62.1 63.4497C62.1 65.6865 60.2868 67.4997 58.05 67.4997Z" fill="black"/>
<path d="M22.95 56.6997C19.2221 56.6997 16.2 59.7219 16.2 63.4497C16.2 67.1776 19.2221 70.1997 22.95 70.1997C26.6778 70.1997 29.7 67.1776 29.7 63.4497C29.6956 59.7237 26.676 56.7043 22.95 56.6997ZM22.95 67.4997C20.7132 67.4997 18.9 65.6865 18.9 63.4497C18.9 61.2129 20.7132 59.3997 22.95 59.3997C25.1867 59.3997 27 61.2129 27 63.4497C27 65.6865 25.1867 67.4997 22.95 67.4997Z" fill="black"/>
<path d="M56.7 45.9004H51.3V48.6004H56.7V45.9004Z" fill="black"/>
<path d="M29.7 10.8003C22.2441 10.8003 16.2 16.8444 16.2 24.3003C16.2 31.7562 22.2441 37.8003 29.7 37.8003C37.1525 37.792 43.1919 31.7528 43.2 24.3003C43.2 16.8446 37.1558 10.8003 29.7 10.8003ZM29.7 35.1003C23.738 35.0935 18.9067 30.2622 18.9 24.3003C18.9 18.3357 23.7353 13.5003 29.7 13.5003C35.6646 13.5003 40.5 18.3357 40.5 24.3003C40.5 30.2651 35.6646 35.1003 29.7 35.1003Z" fill="black"/>
<path d="M34.1457 17.9458L29.7001 22.3913L27.9546 20.6458L26.0457 22.5547L29.7001 26.2092L36.0546 19.8547L34.1457 17.9458Z" fill="black"/>
<path d="M13.5 22.9492H0V25.6492H13.5V22.9492Z" fill="black"/>
<path d="M13.5 28.3496H2.69995V31.0496H13.5V28.3496Z" fill="black"/>
<path d="M13.5001 17.5503H5.40015V20.2503H13.5001V17.5503Z" fill="black"/>
<path d="M2.7 17.5503H0V20.2503H2.7V17.5503Z" fill="black"/>
</svg>
