<svg width="56" height="75" viewBox="0 0 56 75" fill="none" xmlns="http://www.w3.org/2000/svg">
<path d="M48.1632 38.2873H54.8798C55.4993 38.2873 56 37.7687 56 37.1271V13.9211C56 13.2795 55.4993 12.7609 54.8798 12.7609H48.1632V6.96344C48.1632 3.12902 45.1555 0.0116019 41.4567 0.00348056C41.4522 0.00348056 41.4478 0 41.4422 0H14.5579C10.8512 0 7.83677 3.12206 7.83677 6.96112V24.3616H1.12018C0.50072 24.3616 0 24.8802 0 25.5218V48.7279C0 49.3694 0.50072 49.888 1.12018 49.888H7.83677V66.1307C7.83677 70.6078 11.3553 74.252 15.678 74.252H40.322C44.6447 74.252 48.1632 70.6078 48.1632 66.1307V38.2873ZM10.0771 60.3297H28H45.9229V61.4899C45.9229 64.6885 43.4103 67.2908 40.322 67.2908H28H15.678C12.5897 67.2908 10.0771 64.6885 10.0771 61.4899V60.3297ZM53.7596 35.967H38.0827C37.8789 35.967 37.6806 36.0238 37.5058 36.1329L33.6009 38.5588V15.0813H53.7596V35.967ZM14.5579 2.32037H41.431C41.4354 2.32037 41.4377 2.32269 41.4422 2.32269C43.9133 2.32269 45.9229 4.40407 45.9229 6.96344H10.0771V6.96112C10.0771 4.40175 12.0867 2.32037 14.5579 2.32037ZM2.24036 26.682H22.3991V50.1584L18.4953 47.7324C18.3205 47.6245 18.1223 47.5677 17.9184 47.5677H2.24036V26.682ZM17.6081 49.888L22.9435 53.2027C23.1205 53.3129 23.3199 53.3686 23.5193 53.3686C23.7097 53.3686 23.9001 53.3187 24.0715 53.2178C24.4233 53.0113 24.6395 52.6261 24.6395 52.2084V25.5218C24.6395 24.8802 24.1387 24.3616 23.5193 24.3616H10.0771V9.28382H45.9229V12.7609H32.4807C31.8613 12.7609 31.3605 13.2795 31.3605 13.9211V40.6077C31.3605 41.0254 31.5767 41.4106 31.9285 41.6171C32.0999 41.718 32.2903 41.7679 32.4807 41.7679C32.6801 41.7679 32.8795 41.7122 33.0576 41.602L38.3941 38.2873H45.9229V58.0093H10.0771V49.888H17.6081ZM40.322 71.9316H15.678C12.9694 71.9316 10.7067 69.9291 10.1892 67.2792C11.6051 68.719 13.543 69.6112 15.678 69.6112H40.322C42.457 69.6112 44.3949 68.719 45.8109 67.2792C45.2933 69.9291 43.0306 71.9316 40.322 71.9316Z" fill="#17A3E0"/>
<path d="M24.6387 63.8106C24.6387 65.7296 26.1464 67.2912 27.9992 67.2912C29.852 67.2912 31.3597 65.7296 31.3597 63.8106C31.3597 61.8917 29.852 60.3301 27.9992 60.3301C26.1464 60.3301 24.6387 61.8917 24.6387 63.8106ZM27.9992 62.6505C28.6175 62.6505 29.1194 63.1702 29.1194 63.8106C29.1194 64.4511 28.6175 64.9708 27.9992 64.9708C27.3809 64.9708 26.879 64.4511 26.879 63.8106C26.879 63.1702 27.3809 62.6505 27.9992 62.6505Z" fill="#17A3E0"/>
<path d="M36.9609 20.8833C36.9609 21.5249 37.4617 22.0435 38.0811 22.0435H49.2784C49.8979 22.0435 50.3986 21.5249 50.3986 20.8833C50.3986 20.2417 49.8979 19.7231 49.2784 19.7231H38.0811C37.4617 19.7231 36.9609 20.2417 36.9609 20.8833Z" fill="#17A3E0"/>
<path d="M49.2784 24.3638H38.0811C37.4617 24.3638 36.9609 24.8824 36.9609 25.524C36.9609 26.1655 37.4617 26.6841 38.0811 26.6841H49.2784C49.8979 26.6841 50.3986 26.1655 50.3986 25.524C50.3986 24.8824 49.8979 24.3638 49.2784 24.3638Z" fill="#17A3E0"/>
<path d="M43.6798 29.0049H38.0811C37.4617 29.0049 36.9609 29.5235 36.9609 30.1651C36.9609 30.8067 37.4617 31.3253 38.0811 31.3253H43.6798C44.2992 31.3253 44.8 30.8067 44.8 30.1651C44.8 29.5235 44.2992 29.0049 43.6798 29.0049Z" fill="#17A3E0"/>
<path d="M20.1513 37.1164C20.1513 32.6393 16.6328 28.9951 12.31 28.9951C7.98723 28.9951 4.46875 32.6393 4.46875 37.1164C4.46875 41.5936 7.98723 45.2377 12.31 45.2377C16.6328 45.2377 20.1513 41.5947 20.1513 37.1164ZM6.70911 37.1164C6.70911 33.9178 9.22167 31.3155 12.31 31.3155C15.3983 31.3155 17.9109 33.9178 17.9109 37.1164C17.9109 40.3151 15.3983 42.9174 12.31 42.9174C9.22167 42.9174 6.70911 40.3151 6.70911 37.1164Z" fill="#17A3E0"/>
<path d="M13.4291 39.4297V38.2684H14.5582C15.1777 38.2684 15.6784 37.7498 15.6784 37.1082C15.6784 36.4666 15.1777 35.948 14.5582 35.948H13.4291V34.7867C13.4291 34.1451 12.9284 33.6265 12.3089 33.6265C11.6894 33.6265 11.1887 34.1451 11.1887 34.7867V35.948H10.0753C9.4558 35.948 8.95508 36.4666 8.95508 37.1082C8.95508 37.7498 9.4558 38.2684 10.0753 38.2684H11.1887V39.4297C11.1887 40.0713 11.6894 40.5899 12.3089 40.5899C12.9284 40.5899 13.4291 40.0713 13.4291 39.4297Z" fill="#17A3E0"/>
</svg>
