<svg width="38" height="40" viewBox="0 0 38 40" fill="none" xmlns="http://www.w3.org/2000/svg">
<path d="M30.0485 24.5701C29.2694 23.7589 28.3297 23.3251 27.3337 23.3251C26.3458 23.3251 25.398 23.7508 24.5868 24.562L22.5423 26.6001C22.2492 26.8922 21.7973 26.9617 21.4302 26.7708C21.1411 26.6263 20.868 26.4897 20.635 26.3451C18.2576 24.8351 16.097 22.8673 14.0247 20.3212C13.7042 19.916 13.4172 19.5313 13.1591 19.16C12.2693 17.8801 12.6247 16.1779 13.7195 15.0683C13.9444 14.8434 14.1693 14.6104 14.3942 14.3855C16.0809 12.6988 16.0809 10.5141 14.3942 8.82743L12.2015 6.6347C11.9525 6.38571 11.6955 6.12869 11.4545 5.87167C10.9726 5.37368 10.4666 4.85964 9.94449 4.37772C9.16539 3.60665 8.23369 3.19702 7.25379 3.19702C6.27389 3.19702 5.32611 3.60665 4.52292 4.37772C4.51489 4.38575 4.51489 4.38575 4.50685 4.39378L1.77599 7.14875C0.747895 8.17684 0.161562 9.42983 0.0330503 10.8836C-0.159717 13.2289 0.531032 15.4136 1.06114 16.8433C2.36232 20.3533 4.30606 23.6062 7.20559 27.0921C10.7236 31.2928 14.9564 34.61 19.7917 36.9473C21.639 37.8228 24.1048 38.8589 26.8598 39.0356C27.0285 39.0437 27.2052 39.0517 27.3658 39.0517C29.2113 39.0517 30.7628 38.3921 31.9808 37.0809C31.9937 37.067 32.0049 37.0512 32.0183 37.0377C32.0291 37.0269 32.0373 37.0137 32.0471 37.0019C32.4613 36.5029 32.9379 36.0501 33.438 35.5658C33.7834 35.2365 34.1368 34.8912 34.4821 34.5297C35.2773 33.7024 35.695 32.7386 35.695 31.7507C35.695 30.7547 35.2693 29.7989 34.458 28.9957L30.0485 24.5701ZM32.9343 33.017C32.9278 33.0238 32.9173 33.0344 32.9239 33.0277C32.6107 33.3651 32.2894 33.6703 31.944 34.0076C31.422 34.5056 30.8919 35.0277 30.3939 35.614C29.5826 36.4815 28.6268 36.8911 27.3739 36.8911C27.2534 36.8911 27.1249 36.8911 27.0044 36.8831C24.6189 36.7305 22.4021 35.7988 20.7395 35.0036C16.1934 32.8028 12.2015 29.6784 8.88427 25.7186C6.14537 22.4175 4.31409 19.3654 3.10126 16.0883C2.35429 14.0884 2.0812 12.5302 2.20168 11.0603C2.282 10.1206 2.64344 9.34147 3.31009 8.67482L6.04899 5.93592C6.44256 5.56645 6.86022 5.36565 7.26985 5.36565C7.77586 5.36565 8.18549 5.67087 8.44252 5.92789C8.45055 5.93592 8.45858 5.94395 8.46661 5.95199C8.95656 6.40981 9.42242 6.88369 9.91236 7.38971C10.1614 7.64673 10.4184 7.90375 10.6754 8.16881L12.8681 10.3615C13.7195 11.2129 13.7195 12.0001 12.8681 12.8514C12.6352 13.0844 12.4103 13.3173 12.1774 13.5422C11.5027 14.2329 10.8601 14.8755 10.1614 15.502C10.1346 15.5288 10.1071 15.5559 10.081 15.5833C9.43556 16.2596 9.56183 16.9167 9.70353 17.3654C9.71157 17.3895 9.7196 17.4136 9.72763 17.4377C10.2979 18.8192 11.1011 20.1204 12.322 21.6705L12.33 21.6786C14.5468 24.4094 16.8841 26.5379 19.4624 28.1684C19.7917 28.3772 20.129 28.5459 20.4503 28.7065C20.7395 28.8511 21.0125 28.9877 21.2455 29.1322C21.2776 29.1483 21.3097 29.1724 21.3419 29.1885C21.6149 29.325 21.872 29.3893 22.137 29.3893C22.8037 29.3893 23.2213 28.9716 23.3579 28.8351L26.1048 26.0881C26.3779 25.815 26.8116 25.4857 27.3176 25.4857C27.8156 25.4857 28.2252 25.799 28.4742 26.0721C28.4823 26.0801 28.4823 26.0801 28.4903 26.0881L32.9159 30.5137C33.7397 31.3295 33.7432 32.1692 32.9343 33.017Z" fill="#424FF5"/>
<path d="M20.5371 10.048C22.6414 10.4014 24.553 11.3974 26.0791 12.9234C27.6052 14.4495 28.5931 16.3611 28.9546 18.4655C29.0429 18.9956 29.5007 19.3651 30.0228 19.3651C30.0871 19.3651 30.1433 19.357 30.2076 19.349C30.8019 19.2526 31.1955 18.6904 31.0991 18.096C30.6654 15.5499 29.4606 13.2286 27.6213 11.3893C25.7819 9.55001 23.4607 8.34522 20.9146 7.91149C20.3202 7.81511 19.766 8.20867 19.6616 8.79501C19.5572 9.38134 19.9427 9.95161 20.5371 10.048Z" fill="#424FF5"/>
<path d="M37.9833 17.7829C37.2685 13.5902 35.2926 9.77501 32.2565 6.73893C29.2205 3.70284 25.4053 1.72698 21.2126 1.01214C20.6263 0.907721 20.072 1.30932 19.9676 1.89565C19.8712 2.49002 20.2648 3.04422 20.8592 3.14864C24.6021 3.78316 28.0157 5.55823 30.7305 8.265C33.4453 10.9798 35.2123 14.3934 35.8468 18.1363C35.9352 18.6664 36.393 19.0359 36.9151 19.0359C36.9793 19.0359 37.0356 19.0278 37.0998 19.0198C37.6861 18.9314 38.0877 18.3692 37.9833 17.7829Z" fill="#424FF5"/>
</svg>
