<svg width="241" height="43" viewBox="0 0 241 43" fill="none" xmlns="http://www.w3.org/2000/svg">
<path d="M71.4449 16.5272H69.554V20.6002H71.487C72.11 20.6294 72.7235 20.4394 73.2209 20.0631C73.4395 19.8853 73.6133 19.6587 73.7283 19.4015C73.8433 19.1442 73.8962 18.8636 73.883 18.5821C73.9063 18.2917 73.8614 17.9998 73.7518 17.7299C73.6422 17.4599 73.4711 17.2192 73.252 17.0272C72.724 16.6599 72.0866 16.4835 71.4449 16.5272ZM66.275 13.8791H71.55C73.0193 13.8174 74.4701 14.2262 75.6909 15.0461C76.2298 15.4445 76.6602 15.9716 76.9428 16.5791C77.2255 17.1867 77.3513 17.8554 77.309 18.5241C77.3242 19.3072 77.1202 20.0789 76.72 20.7521C76.3301 21.3947 75.7784 21.9237 75.12 22.2861L78.462 28.1711H74.784L72.115 23.2111H69.551V28.1711H66.272L66.275 13.8791Z" fill="black"/>
<path d="M82.5 28.1699V13.8779H91.516L91.916 16.4639H85.779V19.6789H90.322L90.722 22.2639H85.783V25.6059H92.361L92.761 28.1699H82.5Z" fill="black"/>
<path d="M106.858 28.1699H97.001V13.8779H100.28V25.6059H106.48L106.858 28.1699Z" fill="black"/>
<path d="M114.172 13.8789H110.893V28.1709H114.172V13.8789Z" fill="black"/>
<path d="M119.741 28.1699V13.8779H128.757L129.157 16.4639H123.022V19.6789H127.561L127.961 22.2639H123.022V25.6059H129.6L130 28.1699H119.741Z" fill="black"/>
<path d="M142.333 22.4539H137.522V28.1699H134.242V13.8999H142.942L143.321 16.4639H137.521V19.8639H141.955L142.333 22.4539Z" fill="black"/>
<path d="M153.451 27.2661L154.397 24.7021C154.932 24.9754 155.491 25.1971 156.068 25.3641C156.641 25.5521 157.239 25.6549 157.843 25.6691C158.406 25.7024 158.967 25.5748 159.461 25.3011C159.634 25.2034 159.778 25.0614 159.877 24.8896C159.977 24.7179 160.03 24.5227 160.029 24.3241C160.02 24.1762 159.976 24.0325 159.901 23.9047C159.826 23.7768 159.722 23.6684 159.598 23.5881C159.149 23.261 158.682 22.9605 158.198 22.6881C158.057 22.6191 157.847 22.4991 157.567 22.3321C156.614 21.7567 155.868 21.2801 155.329 20.9021C154.775 20.5102 154.292 20.027 153.9 19.4731C153.491 18.912 153.274 18.2343 153.28 17.5401C153.283 16.8145 153.507 16.1069 153.921 15.5111C154.371 14.8861 154.986 14.3986 155.697 14.1031C156.554 13.7428 157.478 13.5673 158.408 13.5881C159.139 13.5909 159.867 13.6918 160.572 13.8881C161.257 14.0678 161.915 14.34 162.527 14.6971L161.519 17.0971C160.979 16.8637 160.424 16.6673 159.858 16.5091C159.397 16.3935 158.924 16.3367 158.449 16.3401C158.003 16.3213 157.561 16.4347 157.179 16.6661C157.025 16.7583 156.898 16.8896 156.812 17.0466C156.725 17.2036 156.681 17.3807 156.685 17.5601C156.687 17.7171 156.725 17.8715 156.796 18.0117C156.867 18.1518 156.969 18.274 157.094 18.3691C157.504 18.6881 157.944 18.9661 158.408 19.1991C158.649 19.3064 158.881 19.4328 159.102 19.5771C160.11 20.1657 160.88 20.6457 161.413 21.0171C161.96 21.4019 162.436 21.8782 162.821 22.4251C163.227 22.991 163.441 23.6724 163.431 24.3691C163.44 25.1218 163.208 25.8577 162.769 26.4691C162.28 27.1223 161.617 27.6245 160.856 27.9181C159.916 28.2885 158.912 28.4674 157.903 28.4441C157.11 28.4243 156.323 28.3044 155.56 28.0871C154.821 27.9146 154.11 27.6385 153.448 27.2671" fill="black"/>
<path d="M167.722 28.1699V13.8779H176.738L177.138 16.4639H171.001V19.6789H175.54L175.94 22.2639H171.001V25.6059H177.579L177.979 28.1699H167.722Z" fill="black"/>
<path d="M182.222 28.1699V13.8779H191.238L191.638 16.4639H185.501V19.6789H190.04L190.44 22.2639H185.501V25.6059H192.079L192.479 28.1699H182.222Z" fill="black"/>
<path d="M205.257 28.17L201.285 22.538L200.022 23.8V28.172H196.722V13.878H200.022V19.343L205.991 13.564L208.491 15.413L203.591 20.2469L209.391 28.17H205.257Z" fill="black"/>
<path d="M213.431 28.1699V13.8779H222.447L222.847 16.4639H216.71V19.6789H221.249L221.649 22.2639H216.711V25.6059H223.289L223.689 28.1699H213.431Z" fill="black"/>
<path d="M233.104 16.5271H231.212V20.6001H233.145C233.768 20.6295 234.382 20.4394 234.879 20.0631C235.098 19.8853 235.271 19.6587 235.386 19.4014C235.501 19.1442 235.554 18.8636 235.541 18.5821C235.564 18.2917 235.519 17.9998 235.41 17.7298C235.3 17.4598 235.129 17.2192 234.91 17.0271C234.382 16.66 233.745 16.4836 233.104 16.5271ZM227.933 13.8791H233.209C234.678 13.8175 236.128 14.2263 237.349 15.0461C237.888 15.4445 238.318 15.9715 238.601 16.5791C238.884 17.1867 239.009 17.8554 238.967 18.5241C238.983 19.3072 238.779 20.079 238.378 20.7521C237.988 21.3947 237.436 21.9236 236.778 22.2861L240.12 28.1711H236.442L233.773 23.2111H231.212V28.1711H227.933V13.8791Z" fill="black"/>
<path d="M30.5312 42.3338H16.7222V37.2198H25.4222V25.4138H37.2222V16.9138H25.5862V11.7998H42.3372V30.5238H30.5312V42.3338Z" fill="#0354B5"/>
<path d="M16.882 30.528H0V11.8H11.806V0H26.061V5.114H16.922V16.921H5.11398V25.421H16.882V30.528Z" fill="#17A3E0"/>
</svg>
