<svg width="64" height="70" viewBox="0 0 64 70" fill="none" xmlns="http://www.w3.org/2000/svg">
<path d="M18.9925 63.0751C19.1925 61.2751 19.2925 59.3751 19.1925 57.9751C19.0925 55.0751 19.5925 52.1751 20.7925 49.4751C21.7925 47.0751 23.3925 44.7751 25.6925 44.5751C27.9925 44.6751 29.5925 46.9751 30.5925 49.4751C31.6925 52.1751 32.1925 55.0751 32.1925 57.9751C32.0925 61.2751 32.3925 66.8751 34.6925 68.2751C42.4925 68.4751 42.9925 55.2751 42.9925 55.2751V51.1751C42.9925 47.2751 43.9925 43.5751 45.6925 40.0751C47.5925 36.2751 48.4925 32.7751 48.9925 30.2751C49.5925 27.8751 49.6925 25.2751 48.6925 22.4751C46.7925 17.2751 41.8925 13.5751 36.2925 13.4751C33.1925 13.4751 30.3925 14.4751 28.0925 16.1751C26.6925 17.2751 24.7925 17.2751 23.3925 16.1751C21.0925 14.4751 18.2925 13.4751 15.1925 13.4751C9.69249 13.5751 4.79249 17.2751 2.79249 22.4751C1.79249 25.2751 1.79249 27.8751 2.49249 30.2751C2.99249 32.7751 3.89249 36.3751 5.79249 40.0751C7.49249 43.5751 8.49249 47.2751 8.49249 51.1751V55.2751C8.49249 55.2751 8.99249 68.4751 16.7925 68.2751L18.9925 63.0751Z" stroke="#17A3E0" stroke-width="2.6322" stroke-miterlimit="10" stroke-linecap="square"/>
<path d="M53.1934 4.375L53.7934 2.075C53.7934 1.975 53.9934 1.975 53.9934 2.075L54.6934 4.375C55.3934 6.875 57.2934 8.775 59.7934 9.475L62.0934 10.075C62.1934 10.075 62.1934 10.275 62.0934 10.275L59.7934 10.875C57.2934 11.575 55.3934 13.475 54.6934 15.975L54.0934 18.275C54.0934 18.375 53.8934 18.375 53.8934 18.275L53.2934 15.975C52.5934 13.475 50.6934 11.575 48.1934 10.875L45.8934 10.275C45.7934 10.275 45.7934 10.075 45.8934 10.075L48.1934 9.475C50.5934 8.775 52.4934 6.775 53.1934 4.375Z" stroke="#17A3E0" stroke-width="2.6322" stroke-miterlimit="10" stroke-linecap="square"/>
<path d="M14.4931 20.7749C14.4931 20.7749 8.99307 22.5749 9.49307 29.5749" stroke="#17A3E0" stroke-width="2.6322" stroke-miterlimit="10" stroke-linecap="square"/>
</svg>
